M48
; DRILL file {KiCad 8.0.6} date 2024-11-23T10:35:45+0100
; FORMAT={-:-/ absolute / metric / decimal}
; #@! TF.CreationDate,2024-11-23T10:35:45+01:00
; #@! TF.GenerationSoftware,Kicad,Pcbnew,8.0.6
; #@! TF.FileFunction,Plated,1,2,PTH
FMAT,2
METRIC
; #@! TA.AperFunction,Plated,PTH,ViaDrill
T1C0.300
; #@! TA.AperFunction,Plated,PTH,ComponentDrill
T2C1.000
%
G90
G05
T1
X61.96Y-139.46
X67.11Y-112.3
X68.86Y-139.62
X70.85Y-131.2
X76.61Y-111.37
X77.45Y-129.61
X79.08Y-95.14
X81.54Y-71.44
X82.537Y-102.642
X85.41Y-144.58
X86.655Y-80.725
X87.9Y-93.71
X88.65Y-129.48
X91.345Y-118.525
X94.55Y-71.95
X95.007Y-55.33
X95.402Y-61.092
X95.55Y-42.52
X95.62Y-59.35
X103.13Y-111.43
X104.11Y-59.03
X104.45Y-98.57
X105.81Y-132.95
X106.39Y-64.03
X111.26Y-90.0
X114.51Y-111.9
X115.82Y-81.96
X115.92Y-63.22
X116.92Y-133.6
X117.19Y-145.4
X117.27Y-112.11
X121.15Y-88.45
X123.42Y-123.89
X127.24Y-130.16
X130.2Y-144.38
X132.95Y-122.79
X141.55Y-145.8
T2
X90.87Y-169.545
X93.41Y-169.545
X95.95Y-169.545
X106.965Y-169.545
X109.505Y-169.545
M30
