G04 #@! TF.GenerationSoftware,KiCad,Pcbnew,8.0.6*
G04 #@! TF.CreationDate,2024-11-23T10:35:43+01:00*
G04 #@! TF.ProjectId,ChristmasTree,43687269-7374-46d6-9173-547265652e6b,rev?*
G04 #@! TF.SameCoordinates,Original*
G04 #@! TF.FileFunction,Soldermask,Top*
G04 #@! TF.FilePolarity,Negative*
%FSLAX46Y46*%
G04 Gerber Fmt 4.6, Leading zero omitted, Abs format (unit mm)*
G04 Created by KiCad (PCBNEW 8.0.6) date 2024-11-23 10:35:43*
%MOMM*%
%LPD*%
G01*
G04 APERTURE LIST*
G04 Aperture macros list*
%AMRoundRect*
0 Rectangle with rounded corners*
0 $1 Rounding radius*
0 $2 $3 $4 $5 $6 $7 $8 $9 X,Y pos of 4 corners*
0 Add a 4 corners polygon primitive as box body*
4,1,4,$2,$3,$4,$5,$6,$7,$8,$9,$2,$3,0*
0 Add four circle primitives for the rounded corners*
1,1,$1+$1,$2,$3*
1,1,$1+$1,$4,$5*
1,1,$1+$1,$6,$7*
1,1,$1+$1,$8,$9*
0 Add four rect primitives between the rounded corners*
20,1,$1+$1,$2,$3,$4,$5,0*
20,1,$1+$1,$4,$5,$6,$7,0*
20,1,$1+$1,$6,$7,$8,$9,0*
20,1,$1+$1,$8,$9,$2,$3,0*%
G04 Aperture macros list end*
%ADD10C,0.000000*%
%ADD11RoundRect,0.250000X-0.475000X0.337500X-0.475000X-0.337500X0.475000X-0.337500X0.475000X0.337500X0*%
%ADD12R,1.700000X1.700000*%
%ADD13O,1.700000X1.700000*%
%ADD14R,2.000000X2.000000*%
%ADD15R,1.500000X0.900000*%
%ADD16RoundRect,0.250000X0.475000X-0.337500X0.475000X0.337500X-0.475000X0.337500X-0.475000X-0.337500X0*%
%ADD17R,0.900000X1.500000*%
%ADD18C,2.000000*%
%ADD19R,1.000000X2.000000*%
%ADD20RoundRect,0.250000X-0.337500X-0.475000X0.337500X-0.475000X0.337500X0.475000X-0.337500X0.475000X0*%
%ADD21C,0.600000*%
G04 APERTURE END LIST*
D10*
G36*
X114083221Y-75019962D02*
G01*
X114083221Y-76494494D01*
X112644363Y-76494494D01*
X111205505Y-76494494D01*
X111205505Y-75019962D01*
X111205505Y-73545430D01*
X112644363Y-73545430D01*
X114083221Y-73545430D01*
X114083221Y-75019962D01*
G37*
G36*
X66949645Y-133739625D02*
G01*
X66960325Y-133834135D01*
X66962598Y-133927164D01*
X66959964Y-133965561D01*
X66953500Y-134041123D01*
X66948741Y-134140128D01*
X66946976Y-134221226D01*
X66942295Y-134317897D01*
X66930294Y-134371315D01*
X66918371Y-134381760D01*
X66906131Y-134366800D01*
X66900490Y-134318624D01*
X66901219Y-134232291D01*
X66906479Y-134128341D01*
X66913437Y-134006010D01*
X66919409Y-133885268D01*
X66923550Y-133783974D01*
X66924765Y-133741871D01*
X66927545Y-133608820D01*
X66949645Y-133739625D01*
G37*
G36*
X83604312Y-84133256D02*
G01*
X83626256Y-84158492D01*
X83650111Y-84214762D01*
X83670402Y-84293140D01*
X83675836Y-84325036D01*
X83691773Y-84438069D01*
X83517881Y-84625704D01*
X83445550Y-84702492D01*
X83384846Y-84764587D01*
X83343082Y-84804651D01*
X83328289Y-84815901D01*
X83306843Y-84800375D01*
X83261550Y-84756461D01*
X83199840Y-84691612D01*
X83152601Y-84639704D01*
X82992612Y-84460944D01*
X83125998Y-84329671D01*
X83241406Y-84229492D01*
X83352612Y-84157820D01*
X83453946Y-84116596D01*
X83539737Y-84107762D01*
X83604312Y-84133256D01*
G37*
G36*
X79172988Y-85841123D02*
G01*
X79239630Y-85915395D01*
X79294971Y-85979900D01*
X79330073Y-86024114D01*
X79336161Y-86033257D01*
X79339391Y-86055668D01*
X79323068Y-86085484D01*
X79282774Y-86126929D01*
X79214090Y-86184230D01*
X79112599Y-86261611D01*
X79045874Y-86310833D01*
X78956272Y-86352827D01*
X78857372Y-86362732D01*
X78767714Y-86339525D01*
X78747314Y-86327321D01*
X78702449Y-86269284D01*
X78691882Y-86187756D01*
X78713445Y-86089788D01*
X78764972Y-85982431D01*
X78844294Y-85872738D01*
X78907724Y-85805449D01*
X79031343Y-85686535D01*
X79172988Y-85841123D01*
G37*
G36*
X82156598Y-82760738D02*
G01*
X82219039Y-82787133D01*
X82221434Y-82788356D01*
X82286138Y-82826660D01*
X82315870Y-82865651D01*
X82320212Y-82922669D01*
X82316283Y-82960023D01*
X82279969Y-83080634D01*
X82202985Y-83209290D01*
X82089699Y-83338733D01*
X82086583Y-83341778D01*
X81978845Y-83446645D01*
X81812248Y-83271582D01*
X81738925Y-83194753D01*
X81692403Y-83139234D01*
X81674249Y-83095734D01*
X81686029Y-83054964D01*
X81729311Y-83007632D01*
X81805662Y-82944448D01*
X81876960Y-82887934D01*
X81972536Y-82815094D01*
X82043940Y-82771657D01*
X82101763Y-82754559D01*
X82156598Y-82760738D01*
G37*
G36*
X82877291Y-83430159D02*
G01*
X82945147Y-83478222D01*
X82985896Y-83564106D01*
X82998651Y-83676891D01*
X82996323Y-83728967D01*
X82985023Y-83772564D01*
X82958637Y-83818368D01*
X82911051Y-83877067D01*
X82838468Y-83956847D01*
X82769575Y-84029692D01*
X82712952Y-84086880D01*
X82676051Y-84121036D01*
X82666180Y-84127395D01*
X82635744Y-84117295D01*
X82626977Y-84113819D01*
X82599894Y-84091973D01*
X82550329Y-84042884D01*
X82486915Y-83975287D01*
X82454390Y-83939167D01*
X82309113Y-83775705D01*
X82434135Y-83653056D01*
X82539632Y-83562010D01*
X82647589Y-83490544D01*
X82748905Y-83443238D01*
X82834477Y-83424669D01*
X82877291Y-83430159D01*
G37*
G36*
X78517341Y-85160595D02*
G01*
X78584102Y-85234914D01*
X78636159Y-85298608D01*
X78666190Y-85342421D01*
X78670674Y-85354417D01*
X78652051Y-85392299D01*
X78603016Y-85446429D01*
X78533822Y-85508378D01*
X78454722Y-85569719D01*
X78375970Y-85622023D01*
X78307817Y-85656862D01*
X78298649Y-85660229D01*
X78216239Y-85686503D01*
X78163629Y-85696043D01*
X78126288Y-85689351D01*
X78090341Y-85667408D01*
X78060851Y-85626399D01*
X78035024Y-85558304D01*
X78026704Y-85522823D01*
X78017829Y-85449142D01*
X78025156Y-85386160D01*
X78053513Y-85324215D01*
X78107730Y-85253645D01*
X78192634Y-85164787D01*
X78218252Y-85139531D01*
X78364007Y-84996835D01*
X78517341Y-85160595D01*
G37*
G36*
X81062180Y-87752504D02*
G01*
X81099689Y-87775340D01*
X81158623Y-87822965D01*
X81244494Y-87898981D01*
X81277315Y-87928754D01*
X81441367Y-88078088D01*
X81260050Y-88255767D01*
X81183960Y-88328247D01*
X81119447Y-88385835D01*
X81074400Y-88421719D01*
X81057896Y-88430268D01*
X81023671Y-88425349D01*
X80960224Y-88416436D01*
X80921709Y-88411073D01*
X80827542Y-88383353D01*
X80756753Y-88334082D01*
X80719640Y-88271428D01*
X80716521Y-88248365D01*
X80733211Y-88175940D01*
X80781779Y-88083141D01*
X80856898Y-87979224D01*
X80900803Y-87928136D01*
X80959954Y-87860333D01*
X81005573Y-87803406D01*
X81028635Y-87768679D01*
X81029377Y-87766792D01*
X81040580Y-87750856D01*
X81062180Y-87752504D01*
G37*
G36*
X79870648Y-86530376D02*
G01*
X79943623Y-86604361D01*
X80001149Y-86666022D01*
X80036476Y-86707906D01*
X80044278Y-86722053D01*
X80019110Y-86753724D01*
X79967572Y-86803906D01*
X79899400Y-86864502D01*
X79824328Y-86927418D01*
X79752093Y-86984558D01*
X79692429Y-87027827D01*
X79655072Y-87049130D01*
X79649840Y-87050047D01*
X79599802Y-87044890D01*
X79530812Y-87037651D01*
X79523431Y-87036870D01*
X79453507Y-87018501D01*
X79399319Y-86986055D01*
X79395924Y-86982559D01*
X79372797Y-86949608D01*
X79366768Y-86910556D01*
X79376607Y-86848747D01*
X79383776Y-86817804D01*
X79409655Y-86737079D01*
X79451240Y-86655747D01*
X79514757Y-86563712D01*
X79606430Y-86450882D01*
X79619424Y-86435692D01*
X79690924Y-86352453D01*
X79870648Y-86530376D01*
G37*
G36*
X81537054Y-82105618D02*
G01*
X81578118Y-82130473D01*
X81622231Y-82173221D01*
X81640229Y-82219778D01*
X81634916Y-82285016D01*
X81619186Y-82348471D01*
X81594933Y-82399506D01*
X81548846Y-82470120D01*
X81489535Y-82549625D01*
X81425608Y-82627333D01*
X81365673Y-82692553D01*
X81318340Y-82734599D01*
X81300605Y-82744023D01*
X81273759Y-82730983D01*
X81222758Y-82690573D01*
X81156178Y-82629939D01*
X81114317Y-82588838D01*
X81045213Y-82516836D01*
X80991230Y-82456081D01*
X80959743Y-82415119D01*
X80954688Y-82403916D01*
X80973508Y-82378551D01*
X81020587Y-82339432D01*
X81055765Y-82314870D01*
X81137784Y-82257406D01*
X81220618Y-82194078D01*
X81242351Y-82176233D01*
X81343819Y-82112400D01*
X81444765Y-82088492D01*
X81537054Y-82105618D01*
G37*
G36*
X80425877Y-87070969D02*
G01*
X80474312Y-87112378D01*
X80535175Y-87171618D01*
X80600489Y-87240087D01*
X80662276Y-87309185D01*
X80712559Y-87370309D01*
X80743360Y-87414858D01*
X80748003Y-87433531D01*
X80721987Y-87456883D01*
X80670384Y-87503436D01*
X80602861Y-87564463D01*
X80579448Y-87585644D01*
X80504643Y-87651663D01*
X80450991Y-87691485D01*
X80405127Y-87711640D01*
X80353685Y-87718656D01*
X80305946Y-87719239D01*
X80226116Y-87714351D01*
X80161352Y-87702687D01*
X80139260Y-87694274D01*
X80076558Y-87632443D01*
X80048664Y-87547817D01*
X80058677Y-87459697D01*
X80084330Y-87409943D01*
X80131329Y-87341268D01*
X80191468Y-87263441D01*
X80256539Y-87186231D01*
X80318335Y-87119407D01*
X80368648Y-87072737D01*
X80397847Y-87055992D01*
X80425877Y-87070969D01*
G37*
G36*
X84249957Y-84766447D02*
G01*
X84284206Y-84825798D01*
X84319718Y-84902414D01*
X84349869Y-84982280D01*
X84365645Y-85038943D01*
X84366363Y-85107754D01*
X84351428Y-85157857D01*
X84324719Y-85195523D01*
X84276746Y-85252891D01*
X84216247Y-85320614D01*
X84151959Y-85389347D01*
X84092618Y-85449743D01*
X84046962Y-85492456D01*
X84023974Y-85508151D01*
X84002893Y-85491618D01*
X83958329Y-85447380D01*
X83898202Y-85383458D01*
X83867210Y-85349334D01*
X83781823Y-85254700D01*
X83725582Y-85188516D01*
X83697448Y-85142470D01*
X83696382Y-85108253D01*
X83721342Y-85077552D01*
X83771291Y-85042057D01*
X83824438Y-85007348D01*
X83918356Y-84942742D01*
X84013251Y-84873582D01*
X84087953Y-84815342D01*
X84150192Y-84769516D01*
X84200889Y-84742125D01*
X84223594Y-84738378D01*
X84249957Y-84766447D01*
G37*
G36*
X68010047Y-131105549D02*
G01*
X70025637Y-131111629D01*
X70032953Y-131240183D01*
X70032019Y-131332970D01*
X70015919Y-131382438D01*
X70009170Y-131388461D01*
X69981115Y-131391495D01*
X69909073Y-131394394D01*
X69796623Y-131397124D01*
X69647344Y-131399648D01*
X69464815Y-131401930D01*
X69252615Y-131403934D01*
X69014322Y-131405624D01*
X68753517Y-131406965D01*
X68473776Y-131407919D01*
X68178680Y-131408450D01*
X68014803Y-131408549D01*
X67642876Y-131408454D01*
X67316181Y-131408001D01*
X67032383Y-131407156D01*
X66789149Y-131405887D01*
X66584147Y-131404160D01*
X66415042Y-131401943D01*
X66279502Y-131399203D01*
X66175193Y-131395905D01*
X66099783Y-131392019D01*
X66050936Y-131387510D01*
X66026321Y-131382345D01*
X66022996Y-131380374D01*
X66006773Y-131341628D01*
X65996434Y-131273658D01*
X65994457Y-131225652D01*
X65994457Y-131099469D01*
X68010047Y-131105549D01*
G37*
G36*
X123198000Y-100720331D02*
G01*
X123236257Y-100728339D01*
X123283645Y-100739056D01*
X123331027Y-100747738D01*
X123384019Y-100754632D01*
X123448242Y-100759987D01*
X123529313Y-100764053D01*
X123632850Y-100767077D01*
X123764473Y-100769310D01*
X123929799Y-100770999D01*
X124134447Y-100772393D01*
X124245120Y-100773014D01*
X124929586Y-100776704D01*
X124922929Y-101079934D01*
X124916273Y-101383164D01*
X124129113Y-101395056D01*
X123873687Y-101399732D01*
X123665589Y-101405326D01*
X123504866Y-101411837D01*
X123391570Y-101419262D01*
X123325749Y-101427599D01*
X123308607Y-101433376D01*
X123265386Y-101453775D01*
X123202435Y-101470033D01*
X123139072Y-101478738D01*
X123094615Y-101476478D01*
X123087124Y-101472492D01*
X123080103Y-101442491D01*
X123075391Y-101375650D01*
X123072843Y-101282035D01*
X123072315Y-101171716D01*
X123073661Y-101054759D01*
X123076736Y-100941234D01*
X123081394Y-100841207D01*
X123087491Y-100764747D01*
X123094882Y-100721922D01*
X123098020Y-100716549D01*
X123134181Y-100712715D01*
X123198000Y-100720331D01*
G37*
G36*
X66734437Y-133601349D02*
G01*
X66838745Y-133608820D01*
X66838884Y-134001236D01*
X66839122Y-134145953D01*
X66840331Y-134249998D01*
X66843433Y-134320262D01*
X66849351Y-134363639D01*
X66859006Y-134387020D01*
X66873321Y-134397299D01*
X66892396Y-134401251D01*
X66934309Y-134418570D01*
X66942462Y-134457781D01*
X66917644Y-134524995D01*
X66910240Y-134539575D01*
X66887596Y-134607293D01*
X66875120Y-134691696D01*
X66874304Y-134714719D01*
X66870489Y-134805664D01*
X66861573Y-134894881D01*
X66859154Y-134910927D01*
X66846043Y-134968877D01*
X66821916Y-134994033D01*
X66770469Y-135000016D01*
X66752394Y-135000112D01*
X66660374Y-135000112D01*
X66660374Y-134820977D01*
X66654414Y-134701557D01*
X66638154Y-134600438D01*
X66623780Y-134554261D01*
X66611099Y-134501541D01*
X66600424Y-134414812D01*
X66591937Y-134303410D01*
X66585821Y-134176669D01*
X66582259Y-134043923D01*
X66581432Y-133914508D01*
X66583524Y-133797759D01*
X66588717Y-133703008D01*
X66597193Y-133639593D01*
X66605485Y-133618522D01*
X66642808Y-133604963D01*
X66707172Y-133600262D01*
X66734437Y-133601349D01*
G37*
G36*
X67396021Y-131507434D02*
G01*
X67676838Y-131507862D01*
X67971573Y-131508646D01*
X68082267Y-131509024D01*
X68434344Y-131510164D01*
X68741840Y-131511066D01*
X69007737Y-131512034D01*
X69235016Y-131513368D01*
X69426660Y-131515369D01*
X69585649Y-131518340D01*
X69714966Y-131522581D01*
X69817592Y-131528395D01*
X69896509Y-131536083D01*
X69954698Y-131545946D01*
X69995141Y-131558287D01*
X70020820Y-131573406D01*
X70034717Y-131591606D01*
X70039813Y-131613187D01*
X70039089Y-131638451D01*
X70035528Y-131667701D01*
X70032111Y-131701237D01*
X70031819Y-131706198D01*
X70025637Y-131825112D01*
X68022847Y-131831193D01*
X67667974Y-131832247D01*
X67357638Y-131833072D01*
X67088810Y-131833610D01*
X66858461Y-131833800D01*
X66663564Y-131833583D01*
X66501089Y-131832898D01*
X66368009Y-131831685D01*
X66261293Y-131829886D01*
X66177915Y-131827439D01*
X66114845Y-131824286D01*
X66069055Y-131820366D01*
X66037516Y-131815620D01*
X66017200Y-131809987D01*
X66005078Y-131803408D01*
X65998122Y-131795823D01*
X65995366Y-131791136D01*
X65971337Y-131707046D01*
X65982039Y-131624602D01*
X66022455Y-131557136D01*
X66087567Y-131517976D01*
X66099171Y-131515365D01*
X66134054Y-131513381D01*
X66212764Y-131511657D01*
X66331562Y-131510204D01*
X66486709Y-131509036D01*
X66674467Y-131508162D01*
X66891097Y-131507596D01*
X67132861Y-131507349D01*
X67396021Y-131507434D01*
G37*
G36*
X112846517Y-77044645D02*
G01*
X112845700Y-77208300D01*
X112842968Y-77330378D01*
X112837899Y-77416842D01*
X112830070Y-77473656D01*
X112819059Y-77506785D01*
X112813201Y-77515280D01*
X112805373Y-77531606D01*
X112798545Y-77564103D01*
X112792573Y-77616369D01*
X112787315Y-77691999D01*
X112782627Y-77794592D01*
X112778366Y-77927744D01*
X112774387Y-78095052D01*
X112770548Y-78300114D01*
X112766705Y-78546527D01*
X112763825Y-78753857D01*
X112760459Y-78989510D01*
X112756874Y-79211483D01*
X112753174Y-79415086D01*
X112749465Y-79595630D01*
X112745850Y-79748426D01*
X112742435Y-79868785D01*
X112739325Y-79952015D01*
X112736623Y-79993429D01*
X112736082Y-79996507D01*
X112706054Y-80030611D01*
X112654290Y-80039381D01*
X112598549Y-80023989D01*
X112556591Y-79985609D01*
X112556014Y-79984616D01*
X112548864Y-79962592D01*
X112543025Y-79921611D01*
X112538436Y-79858202D01*
X112535037Y-79768897D01*
X112532767Y-79650227D01*
X112531567Y-79498721D01*
X112531374Y-79310911D01*
X112532129Y-79083329D01*
X112533772Y-78812504D01*
X112534301Y-78739404D01*
X112543153Y-77547704D01*
X112486736Y-77508222D01*
X112466555Y-77492728D01*
X112451871Y-77473984D01*
X112441810Y-77444847D01*
X112435498Y-77398174D01*
X112432062Y-77326824D01*
X112430628Y-77223654D01*
X112430321Y-77081521D01*
X112430318Y-77047020D01*
X112430318Y-76625299D01*
X112638417Y-76618428D01*
X112846517Y-76611556D01*
X112846517Y-77044645D01*
G37*
G36*
X114083221Y-72522771D02*
G01*
X114083221Y-73355168D01*
X114017818Y-73353757D01*
X113982482Y-73353702D01*
X113904046Y-73354045D01*
X113786977Y-73354753D01*
X113635737Y-73355793D01*
X113454792Y-73357133D01*
X113248606Y-73358740D01*
X113021644Y-73360581D01*
X112778371Y-73362622D01*
X112581597Y-73364321D01*
X112330644Y-73366266D01*
X112094033Y-73367621D01*
X111876017Y-73368393D01*
X111680849Y-73368592D01*
X111512783Y-73368224D01*
X111376071Y-73367297D01*
X111274966Y-73365820D01*
X111213721Y-73363800D01*
X111196250Y-73361768D01*
X111192857Y-73335403D01*
X111189745Y-73266995D01*
X111187009Y-73162065D01*
X111184745Y-73026135D01*
X111183047Y-72864727D01*
X111182011Y-72683362D01*
X111181775Y-72548410D01*
X112180044Y-72548410D01*
X112208909Y-72681867D01*
X112257893Y-72774392D01*
X112358856Y-72888595D01*
X112476080Y-72961856D01*
X112603345Y-72992793D01*
X112734432Y-72980021D01*
X112863122Y-72922160D01*
X112877917Y-72912254D01*
X112986899Y-72810040D01*
X113054604Y-72684890D01*
X113079520Y-72539967D01*
X113078400Y-72492723D01*
X113049062Y-72359709D01*
X112985071Y-72247582D01*
X112894341Y-72159872D01*
X112784792Y-72100112D01*
X112664339Y-72071835D01*
X112540899Y-72078572D01*
X112422390Y-72123856D01*
X112357060Y-72170897D01*
X112255123Y-72286817D01*
X112195783Y-72414691D01*
X112180044Y-72548410D01*
X111181775Y-72548410D01*
X111181723Y-72518807D01*
X111181723Y-71690374D01*
X112632472Y-71690374D01*
X114083221Y-71690374D01*
X114083221Y-72522771D01*
G37*
G36*
X69514307Y-134013018D02*
G01*
X69515489Y-134181668D01*
X69519111Y-134304680D01*
X69525291Y-134383928D01*
X69534146Y-134421284D01*
X69539961Y-134424738D01*
X69551092Y-134397613D01*
X69561123Y-134326020D01*
X69569760Y-134213051D01*
X69576711Y-134061797D01*
X69577963Y-134024395D01*
X69584868Y-133852215D01*
X69592868Y-133727268D01*
X69601407Y-133649249D01*
X69609931Y-133617851D01*
X69617884Y-133632771D01*
X69624712Y-133693705D01*
X69629859Y-133800346D01*
X69632772Y-133952390D01*
X69633221Y-134054754D01*
X69632662Y-134219991D01*
X69630704Y-134343600D01*
X69626924Y-134431509D01*
X69620900Y-134489646D01*
X69612211Y-134523939D01*
X69600434Y-134540315D01*
X69598554Y-134541494D01*
X69579910Y-134566865D01*
X69567244Y-134622864D01*
X69559335Y-134716324D01*
X69556934Y-134774557D01*
X69549981Y-134988221D01*
X69463822Y-134995422D01*
X69397801Y-134993203D01*
X69365579Y-134969959D01*
X69362745Y-134963748D01*
X69355806Y-134922768D01*
X69350586Y-134848329D01*
X69347972Y-134754534D01*
X69347828Y-134726647D01*
X69344451Y-134611580D01*
X69334223Y-134542525D01*
X69319158Y-134518864D01*
X69308513Y-134501908D01*
X69301194Y-134456283D01*
X69296984Y-134377470D01*
X69295663Y-134260951D01*
X69297013Y-134102208D01*
X69297488Y-134070955D01*
X69299898Y-133932212D01*
X69302373Y-133811193D01*
X69304727Y-133715386D01*
X69306777Y-133652280D01*
X69308321Y-133629374D01*
X69331786Y-133623914D01*
X69386291Y-133613990D01*
X69413230Y-133609446D01*
X69514307Y-133592748D01*
X69514307Y-134013018D01*
G37*
G36*
X68005463Y-127680108D02*
G01*
X68272977Y-127680676D01*
X68536585Y-127681595D01*
X68792003Y-127682857D01*
X69034948Y-127684456D01*
X69261136Y-127686384D01*
X69466283Y-127688637D01*
X69646108Y-127691205D01*
X69796325Y-127694084D01*
X69912653Y-127697265D01*
X69990807Y-127700742D01*
X70026505Y-127704509D01*
X70028145Y-127705267D01*
X70039374Y-127738297D01*
X70046674Y-127800754D01*
X70047957Y-127834940D01*
X70045076Y-127906656D01*
X70029511Y-127947646D01*
X69994530Y-127974376D01*
X69989962Y-127976766D01*
X69969718Y-127982502D01*
X69931047Y-127987492D01*
X69871260Y-127991775D01*
X69787668Y-127995389D01*
X69677581Y-127998373D01*
X69538310Y-128000763D01*
X69367164Y-128002598D01*
X69161455Y-128003916D01*
X68918493Y-128004756D01*
X68635587Y-128005155D01*
X68310050Y-128005151D01*
X68004101Y-128004868D01*
X67704871Y-128004368D01*
X67418918Y-128003646D01*
X67149876Y-128002726D01*
X66901381Y-128001632D01*
X66677067Y-128000386D01*
X66480570Y-127999014D01*
X66315523Y-127997539D01*
X66185563Y-127995984D01*
X66094323Y-127994374D01*
X66045439Y-127992732D01*
X66038326Y-127992016D01*
X66002811Y-127960678D01*
X65983363Y-127900235D01*
X65980434Y-127826512D01*
X65994475Y-127755333D01*
X66025935Y-127702524D01*
X66029976Y-127698930D01*
X66057767Y-127695195D01*
X66128768Y-127691885D01*
X66238696Y-127688994D01*
X66383266Y-127686514D01*
X66558196Y-127684439D01*
X66759202Y-127682762D01*
X66982001Y-127681476D01*
X67222310Y-127680575D01*
X67475846Y-127680051D01*
X67738324Y-127679898D01*
X68005463Y-127680108D01*
G37*
G36*
X68355787Y-129791723D02*
G01*
X68663777Y-129791923D01*
X68930422Y-129792410D01*
X69158834Y-129793313D01*
X69352121Y-129794757D01*
X69513396Y-129796870D01*
X69645769Y-129799778D01*
X69752350Y-129803609D01*
X69836249Y-129808490D01*
X69900578Y-129814546D01*
X69948446Y-129821906D01*
X69982965Y-129830696D01*
X70007244Y-129841043D01*
X70024395Y-129853073D01*
X70037528Y-129866915D01*
X70043843Y-129874925D01*
X70053314Y-129915532D01*
X70050687Y-129980612D01*
X70038697Y-130049444D01*
X70020082Y-130101308D01*
X70012602Y-130111524D01*
X69985854Y-130116719D01*
X69916104Y-130121451D01*
X69802808Y-130125728D01*
X69645422Y-130129559D01*
X69443402Y-130132952D01*
X69196204Y-130135917D01*
X68903284Y-130138461D01*
X68564098Y-130140593D01*
X68178103Y-130142321D01*
X68016440Y-130142883D01*
X66045282Y-130149230D01*
X66007978Y-130095971D01*
X65973657Y-130009753D01*
X65983116Y-129921427D01*
X65992637Y-129906634D01*
X68905396Y-129906634D01*
X68933071Y-129914753D01*
X68998943Y-129921388D01*
X69093661Y-129926462D01*
X69207876Y-129929902D01*
X69332240Y-129931633D01*
X69457403Y-129931579D01*
X69574016Y-129929665D01*
X69672731Y-129925818D01*
X69744198Y-129919961D01*
X69775917Y-129913604D01*
X69782831Y-129904981D01*
X69753497Y-129898328D01*
X69685295Y-129893484D01*
X69575605Y-129890288D01*
X69421806Y-129888578D01*
X69364261Y-129888324D01*
X69221401Y-129888809D01*
X69097187Y-129891043D01*
X68998525Y-129894747D01*
X68932323Y-129899648D01*
X68905488Y-129905469D01*
X68905396Y-129906634D01*
X65992637Y-129906634D01*
X66029050Y-129850061D01*
X66087426Y-129791685D01*
X68003343Y-129791685D01*
X68355787Y-129791723D01*
G37*
G36*
X68046453Y-129393042D02*
G01*
X70025637Y-129399269D01*
X70025637Y-129540255D01*
X70024259Y-129619221D01*
X70016301Y-129663560D01*
X69996025Y-129686204D01*
X69957690Y-129700084D01*
X69954288Y-129701032D01*
X69914794Y-129705165D01*
X69831016Y-129708548D01*
X69706231Y-129711185D01*
X69543715Y-129713081D01*
X69346744Y-129714241D01*
X69118594Y-129714668D01*
X68862540Y-129714369D01*
X68581860Y-129713347D01*
X68279829Y-129711608D01*
X67959724Y-129709156D01*
X67624820Y-129705996D01*
X67278394Y-129702132D01*
X66923721Y-129697570D01*
X66850637Y-129696554D01*
X66006348Y-129684663D01*
X65998858Y-129593659D01*
X66004372Y-129518183D01*
X69110000Y-129518183D01*
X69121891Y-129530075D01*
X69131392Y-129520574D01*
X69227458Y-129520574D01*
X69260343Y-129524327D01*
X69276479Y-129524557D01*
X69319748Y-129522077D01*
X69323363Y-129517700D01*
X69441617Y-129517700D01*
X69464588Y-129521240D01*
X69525149Y-129522703D01*
X69526198Y-129522705D01*
X69589377Y-129521464D01*
X69617165Y-129517979D01*
X69603918Y-129513081D01*
X69531604Y-129508942D01*
X69461222Y-129512838D01*
X69441617Y-129517700D01*
X69323363Y-129517700D01*
X69324847Y-129515904D01*
X69318099Y-129513680D01*
X69257781Y-129509982D01*
X69234859Y-129513680D01*
X69227458Y-129520574D01*
X69131392Y-129520574D01*
X69133783Y-129518183D01*
X69121891Y-129506292D01*
X69680786Y-129506292D01*
X69689488Y-129525868D01*
X69696642Y-129522147D01*
X69699488Y-129493922D01*
X69696642Y-129490437D01*
X69682503Y-129493701D01*
X69680786Y-129506292D01*
X69121891Y-129506292D01*
X69110000Y-129518183D01*
X66004372Y-129518183D01*
X66005351Y-129504789D01*
X66029319Y-129444736D01*
X66067270Y-129386815D01*
X68046453Y-129393042D01*
G37*
G36*
X70037528Y-130381151D02*
G01*
X70032508Y-130473525D01*
X70018415Y-130530990D01*
X70007799Y-130544549D01*
X69987673Y-130549532D01*
X69943297Y-130553750D01*
X69872663Y-130557212D01*
X69773764Y-130559922D01*
X69644594Y-130561889D01*
X69483146Y-130563119D01*
X69287413Y-130563619D01*
X69055388Y-130563395D01*
X68785063Y-130562454D01*
X68474433Y-130560803D01*
X68121490Y-130558450D01*
X67724227Y-130555400D01*
X67457097Y-130553182D01*
X66006348Y-130540842D01*
X66006348Y-130398146D01*
X66006348Y-130255449D01*
X67439260Y-130249318D01*
X67735820Y-130248075D01*
X67988353Y-130247152D01*
X68200396Y-130246652D01*
X68375486Y-130246677D01*
X68517161Y-130247330D01*
X68628959Y-130248713D01*
X68714417Y-130250930D01*
X68777072Y-130254084D01*
X68820463Y-130258276D01*
X68848127Y-130263610D01*
X68863600Y-130270188D01*
X68870422Y-130278114D01*
X68872128Y-130287490D01*
X68872172Y-130290938D01*
X68875375Y-130312468D01*
X68890658Y-130326403D01*
X68926526Y-130334450D01*
X68991489Y-130338313D01*
X69094054Y-130339699D01*
X69115946Y-130339812D01*
X69258880Y-130341884D01*
X69400688Y-130346439D01*
X69531482Y-130352919D01*
X69641373Y-130360767D01*
X69720475Y-130369427D01*
X69752135Y-130375644D01*
X69765544Y-130373550D01*
X69741643Y-130350638D01*
X69694337Y-130330221D01*
X69612071Y-130317614D01*
X69488911Y-130311938D01*
X69480033Y-130311797D01*
X69354223Y-130308212D01*
X69219340Y-130301589D01*
X69101618Y-130293255D01*
X69086217Y-130291860D01*
X68907846Y-130275031D01*
X69133783Y-130271099D01*
X69246592Y-130268396D01*
X69389060Y-130263899D01*
X69543340Y-130258224D01*
X69691587Y-130251983D01*
X69698623Y-130251663D01*
X70037528Y-130236159D01*
X70037528Y-130381151D01*
G37*
G36*
X111877222Y-76613954D02*
G01*
X111940888Y-76617376D01*
X111976682Y-76626352D01*
X111994453Y-76643558D01*
X112004047Y-76671670D01*
X112005071Y-76675723D01*
X112011709Y-76731436D01*
X112013902Y-76819758D01*
X112012250Y-76930752D01*
X112007352Y-77054482D01*
X111999807Y-77181013D01*
X111990214Y-77300409D01*
X111979173Y-77402734D01*
X111967283Y-77478051D01*
X111955142Y-77516425D01*
X111954311Y-77517456D01*
X111946712Y-77533721D01*
X111940200Y-77566763D01*
X111934659Y-77620140D01*
X111929974Y-77697411D01*
X111926027Y-77802134D01*
X111922704Y-77937867D01*
X111919889Y-78108168D01*
X111917464Y-78316596D01*
X111915315Y-78566709D01*
X111914006Y-78754161D01*
X111912091Y-78989790D01*
X111909554Y-79211738D01*
X111906502Y-79415315D01*
X111903037Y-79595829D01*
X111899266Y-79748591D01*
X111895292Y-79868909D01*
X111891221Y-79952093D01*
X111887157Y-79993453D01*
X111886258Y-79996507D01*
X111846362Y-80029760D01*
X111798648Y-80038127D01*
X111751771Y-80031156D01*
X111724328Y-80001406D01*
X111706194Y-79948942D01*
X111700055Y-79902056D01*
X111694705Y-79809819D01*
X111690188Y-79674436D01*
X111686547Y-79498115D01*
X111683826Y-79283064D01*
X111682069Y-79031490D01*
X111681319Y-78745600D01*
X111681293Y-78688455D01*
X111681207Y-78422339D01*
X111680911Y-78199882D01*
X111680257Y-78017178D01*
X111679092Y-77870321D01*
X111677268Y-77755404D01*
X111674632Y-77668522D01*
X111671035Y-77605767D01*
X111666326Y-77563234D01*
X111660354Y-77537017D01*
X111652969Y-77523208D01*
X111644020Y-77517902D01*
X111636140Y-77517153D01*
X111591447Y-77499668D01*
X111576683Y-77479534D01*
X111571954Y-77444250D01*
X111567876Y-77369983D01*
X111564721Y-77265312D01*
X111562765Y-77138816D01*
X111562247Y-77027661D01*
X111562247Y-76613408D01*
X111775839Y-76613408D01*
X111877222Y-76613954D01*
G37*
G36*
X113635013Y-76603842D02*
G01*
X113672968Y-76607235D01*
X113750262Y-76618807D01*
X113750262Y-77043996D01*
X113749957Y-77196328D01*
X113748556Y-77308048D01*
X113745333Y-77386106D01*
X113739561Y-77437452D01*
X113730513Y-77469039D01*
X113717462Y-77487818D01*
X113702696Y-77498890D01*
X113691813Y-77506916D01*
X113682724Y-77518908D01*
X113675261Y-77538911D01*
X113669257Y-77570970D01*
X113664545Y-77619129D01*
X113660958Y-77687432D01*
X113658328Y-77779926D01*
X113656488Y-77900654D01*
X113655271Y-78053661D01*
X113654509Y-78242992D01*
X113654036Y-78472692D01*
X113653760Y-78682284D01*
X113653144Y-78915454D01*
X113651907Y-79136756D01*
X113650125Y-79341102D01*
X113647871Y-79523407D01*
X113645220Y-79678584D01*
X113642246Y-79801547D01*
X113639023Y-79887210D01*
X113635624Y-79930486D01*
X113635561Y-79930848D01*
X113612783Y-80002100D01*
X113573912Y-80031146D01*
X113513257Y-80022195D01*
X113512434Y-80021896D01*
X113491434Y-80013350D01*
X113473776Y-80001737D01*
X113459172Y-79983155D01*
X113447330Y-79953704D01*
X113437963Y-79909483D01*
X113430779Y-79846591D01*
X113425489Y-79761127D01*
X113421803Y-79649191D01*
X113419432Y-79506882D01*
X113418086Y-79330299D01*
X113417475Y-79115541D01*
X113417310Y-78858708D01*
X113417303Y-78741106D01*
X113417252Y-78472254D01*
X113416996Y-78246948D01*
X113416379Y-78061169D01*
X113415248Y-77910898D01*
X113413447Y-77792115D01*
X113410823Y-77700801D01*
X113407219Y-77632937D01*
X113402482Y-77584504D01*
X113396457Y-77551482D01*
X113388989Y-77529852D01*
X113379923Y-77515595D01*
X113369738Y-77505262D01*
X113352602Y-77486655D01*
X113340146Y-77461721D01*
X113331630Y-77423247D01*
X113326316Y-77364018D01*
X113323464Y-77276822D01*
X113322334Y-77154445D01*
X113322172Y-77041115D01*
X113322172Y-76620014D01*
X113458923Y-76607839D01*
X113550275Y-76602987D01*
X113635013Y-76603842D01*
G37*
G36*
X68754824Y-128940003D02*
G01*
X68992802Y-128940657D01*
X69213421Y-128941802D01*
X69412364Y-128943455D01*
X69585315Y-128945629D01*
X69727957Y-128948341D01*
X69835973Y-128951606D01*
X69905045Y-128955439D01*
X69930847Y-128959840D01*
X69964246Y-128979718D01*
X69988821Y-128983071D01*
X70031995Y-129002878D01*
X70056775Y-129052903D01*
X70062055Y-129119052D01*
X70046730Y-129187232D01*
X70009696Y-129243347D01*
X70009261Y-129243755D01*
X69999209Y-129252416D01*
X69986815Y-129259980D01*
X69968977Y-129266519D01*
X69942597Y-129272110D01*
X69904574Y-129276826D01*
X69851809Y-129280741D01*
X69781203Y-129283931D01*
X69689656Y-129286469D01*
X69574068Y-129288430D01*
X69431339Y-129289888D01*
X69258370Y-129290918D01*
X69052062Y-129291593D01*
X68809314Y-129291990D01*
X68527027Y-129292181D01*
X68202101Y-129292242D01*
X67989328Y-129292247D01*
X66021445Y-129292247D01*
X66005197Y-129241055D01*
X65992745Y-129172260D01*
X65991039Y-129092593D01*
X65995604Y-129052355D01*
X68906571Y-129052355D01*
X68933410Y-129058965D01*
X68998660Y-129063962D01*
X69093193Y-129067388D01*
X69207883Y-129069283D01*
X69333603Y-129069689D01*
X69461227Y-129068648D01*
X69581629Y-129066200D01*
X69685680Y-129062387D01*
X69764256Y-129057251D01*
X69808229Y-129050833D01*
X69813801Y-129048246D01*
X69796762Y-129042880D01*
X69738973Y-129038173D01*
X69647249Y-129034391D01*
X69528403Y-129031800D01*
X69389250Y-129030665D01*
X69362279Y-129030636D01*
X69206473Y-129031683D01*
X69077883Y-129034658D01*
X68981651Y-129039317D01*
X68922921Y-129045415D01*
X68906571Y-129052355D01*
X65995604Y-129052355D01*
X65999182Y-129020816D01*
X66016277Y-128975688D01*
X66017982Y-128973814D01*
X66045700Y-128969206D01*
X66116496Y-128964875D01*
X66226054Y-128960835D01*
X66370057Y-128957100D01*
X66544188Y-128953688D01*
X66744130Y-128950613D01*
X66965566Y-128947891D01*
X67204179Y-128945536D01*
X67455651Y-128943566D01*
X67715668Y-128941994D01*
X67979910Y-128940836D01*
X68244061Y-128940108D01*
X68503805Y-128939826D01*
X68754824Y-128940003D01*
G37*
G36*
X68013630Y-128108527D02*
G01*
X68317632Y-128109697D01*
X68607911Y-128111173D01*
X68880955Y-128112915D01*
X69133253Y-128114884D01*
X69361290Y-128117042D01*
X69561556Y-128119350D01*
X69730537Y-128121768D01*
X69864721Y-128124258D01*
X69960596Y-128126780D01*
X70014649Y-128129295D01*
X70025662Y-128130873D01*
X70046094Y-128176834D01*
X70054039Y-128247123D01*
X70049173Y-128320083D01*
X70031167Y-128374055D01*
X70029370Y-128376610D01*
X70022113Y-128385118D01*
X70011852Y-128392560D01*
X69995511Y-128399017D01*
X69970012Y-128404573D01*
X69932277Y-128409311D01*
X69879231Y-128413314D01*
X69807795Y-128416665D01*
X69714892Y-128419447D01*
X69597446Y-128421743D01*
X69452379Y-128423636D01*
X69276615Y-128425208D01*
X69067075Y-128426544D01*
X68820683Y-128427725D01*
X68534361Y-128428835D01*
X68205033Y-128429957D01*
X68030211Y-128430526D01*
X67679104Y-128431643D01*
X67372466Y-128432528D01*
X67107199Y-128433118D01*
X66880207Y-128433349D01*
X66688394Y-128433156D01*
X66528661Y-128432476D01*
X66397914Y-128431244D01*
X66293053Y-128429397D01*
X66210984Y-128426869D01*
X66148609Y-128423598D01*
X66102831Y-128419519D01*
X66070553Y-128414569D01*
X66048679Y-128408682D01*
X66034113Y-128401795D01*
X66023756Y-128393844D01*
X66018644Y-128388906D01*
X65977096Y-128315318D01*
X65977204Y-128220817D01*
X65982763Y-128201953D01*
X68919738Y-128201953D01*
X68941971Y-128209023D01*
X69002524Y-128214516D01*
X69092178Y-128218441D01*
X69201715Y-128220806D01*
X69321915Y-128221622D01*
X69443559Y-128220895D01*
X69557429Y-128218636D01*
X69654305Y-128214854D01*
X69724969Y-128209557D01*
X69760202Y-128202754D01*
X69762236Y-128201135D01*
X69751219Y-128182857D01*
X69706991Y-128166664D01*
X69702412Y-128165701D01*
X69651227Y-128160932D01*
X69568982Y-128159327D01*
X69465177Y-128160445D01*
X69349310Y-128163848D01*
X69230881Y-128169094D01*
X69119389Y-128175745D01*
X69024334Y-128183359D01*
X68955213Y-128191498D01*
X68921527Y-128199720D01*
X68919738Y-128201953D01*
X65982763Y-128201953D01*
X65994068Y-128163587D01*
X66017463Y-128102055D01*
X68013630Y-128108527D01*
G37*
G36*
X67000195Y-128532589D02*
G01*
X67260737Y-128534044D01*
X67561898Y-128536102D01*
X67906591Y-128538521D01*
X68051666Y-128539499D01*
X68353658Y-128541508D01*
X68641708Y-128543451D01*
X68912306Y-128545304D01*
X69161943Y-128547040D01*
X69387112Y-128548634D01*
X69584302Y-128550062D01*
X69750005Y-128551298D01*
X69880713Y-128552316D01*
X69972915Y-128553091D01*
X70023104Y-128553599D01*
X70031582Y-128553761D01*
X70034836Y-128575995D01*
X70036996Y-128632078D01*
X70037528Y-128686375D01*
X70035327Y-128763204D01*
X70025073Y-128806421D01*
X70001285Y-128829909D01*
X69976523Y-128840963D01*
X69943267Y-128844746D01*
X69867164Y-128848197D01*
X69752548Y-128851311D01*
X69603754Y-128854087D01*
X69425114Y-128856522D01*
X69220966Y-128858612D01*
X68995641Y-128860355D01*
X68753476Y-128861748D01*
X68498803Y-128862789D01*
X68235959Y-128863474D01*
X67969276Y-128863801D01*
X67703090Y-128863767D01*
X67441735Y-128863369D01*
X67189545Y-128862604D01*
X66950855Y-128861471D01*
X66729999Y-128859964D01*
X66531311Y-128858083D01*
X66359126Y-128855824D01*
X66217779Y-128853185D01*
X66111603Y-128850162D01*
X66044933Y-128846753D01*
X66022505Y-128843513D01*
X66002589Y-128808928D01*
X65989330Y-128744321D01*
X65986831Y-128711160D01*
X65984476Y-128678746D01*
X65982567Y-128657081D01*
X69129684Y-128657081D01*
X69161726Y-128662401D01*
X69240586Y-128667881D01*
X69347828Y-128672837D01*
X69485095Y-128678066D01*
X69581870Y-128680563D01*
X69645173Y-128679891D01*
X69682023Y-128675610D01*
X69699438Y-128667280D01*
X69704437Y-128654461D01*
X69704569Y-128650500D01*
X69682511Y-128642389D01*
X69623121Y-128637184D01*
X69536580Y-128635497D01*
X69472687Y-128636518D01*
X69315962Y-128641638D01*
X69206652Y-128646743D01*
X69144609Y-128651876D01*
X69129684Y-128657081D01*
X65982567Y-128657081D01*
X65981972Y-128650325D01*
X65982229Y-128625655D01*
X65988160Y-128604493D01*
X66002677Y-128586598D01*
X66028692Y-128571728D01*
X66069117Y-128559639D01*
X66126865Y-128550091D01*
X66204847Y-128542841D01*
X66305975Y-128537647D01*
X66433162Y-128534267D01*
X66589319Y-128532459D01*
X66777360Y-128531980D01*
X67000195Y-128532589D01*
G37*
G36*
X67103967Y-130649720D02*
G01*
X67346390Y-130650253D01*
X67600667Y-130651129D01*
X67862456Y-130652322D01*
X68127412Y-130653806D01*
X68391192Y-130655555D01*
X68649452Y-130657542D01*
X68897849Y-130659744D01*
X69132038Y-130662133D01*
X69347676Y-130664683D01*
X69540420Y-130667370D01*
X69705925Y-130670166D01*
X69839848Y-130673047D01*
X69937846Y-130675986D01*
X69995574Y-130678958D01*
X70009609Y-130680983D01*
X70025710Y-130713526D01*
X70035665Y-130778789D01*
X70037528Y-130828228D01*
X70035213Y-130904727D01*
X70024647Y-130947653D01*
X70000403Y-130970914D01*
X69977947Y-130980871D01*
X69946572Y-130983950D01*
X69872050Y-130986831D01*
X69758734Y-130989505D01*
X69610976Y-130991963D01*
X69433130Y-130994195D01*
X69229548Y-130996193D01*
X69004584Y-130997947D01*
X68762591Y-130999448D01*
X68507921Y-131000687D01*
X68244929Y-131001655D01*
X67977966Y-131002341D01*
X67711386Y-131002738D01*
X67449542Y-131002836D01*
X67196788Y-131002625D01*
X66957475Y-131002097D01*
X66735958Y-131001242D01*
X66536589Y-131000051D01*
X66363721Y-130998514D01*
X66221708Y-130996624D01*
X66114902Y-130994369D01*
X66047657Y-130991742D01*
X66024938Y-130989244D01*
X65997112Y-130955345D01*
X65980943Y-130892296D01*
X65978601Y-130817561D01*
X65988493Y-130767595D01*
X68895955Y-130767595D01*
X68919586Y-130777057D01*
X68990006Y-130783933D01*
X69106510Y-130788191D01*
X69268391Y-130789798D01*
X69371610Y-130789568D01*
X69524491Y-130787673D01*
X69654608Y-130783989D01*
X69755845Y-130778832D01*
X69822081Y-130772519D01*
X69847199Y-130765367D01*
X69847266Y-130764969D01*
X69824476Y-130757843D01*
X69760065Y-130751808D01*
X69659968Y-130747139D01*
X69530124Y-130744111D01*
X69376469Y-130742997D01*
X69371610Y-130742996D01*
X69187620Y-130744216D01*
X69047524Y-130747840D01*
X68952341Y-130753816D01*
X68903093Y-130762091D01*
X68895955Y-130767595D01*
X65988493Y-130767595D01*
X65992254Y-130748600D01*
X65994380Y-130743181D01*
X66033934Y-130685871D01*
X66100502Y-130658388D01*
X66103814Y-130657749D01*
X66141630Y-130655161D01*
X66221706Y-130653096D01*
X66339699Y-130651529D01*
X66491265Y-130650434D01*
X66672061Y-130649784D01*
X66877743Y-130649555D01*
X67103967Y-130649720D01*
G37*
G36*
X69386115Y-132067437D02*
G01*
X69625347Y-132067845D01*
X69829763Y-132068667D01*
X70001914Y-132069932D01*
X70144349Y-132071665D01*
X70259619Y-132073893D01*
X70350273Y-132076644D01*
X70418861Y-132079943D01*
X70467934Y-132083818D01*
X70500040Y-132088295D01*
X70517730Y-132093402D01*
X70521285Y-132095580D01*
X70533354Y-132110007D01*
X70542707Y-132134590D01*
X70549674Y-132174878D01*
X70554587Y-132236417D01*
X70557779Y-132324756D01*
X70559580Y-132445443D01*
X70560322Y-132604024D01*
X70560385Y-132749606D01*
X70559443Y-132923468D01*
X70556977Y-133080060D01*
X70553205Y-133213084D01*
X70548347Y-133316242D01*
X70542622Y-133383236D01*
X70537500Y-133406666D01*
X70533513Y-133413528D01*
X70528663Y-133419477D01*
X70519693Y-133424611D01*
X70503347Y-133429031D01*
X70476367Y-133432836D01*
X70435497Y-133436126D01*
X70377480Y-133439000D01*
X70299058Y-133441558D01*
X70196976Y-133443899D01*
X70067977Y-133446124D01*
X69908802Y-133448332D01*
X69716197Y-133450622D01*
X69486903Y-133453094D01*
X69217664Y-133455847D01*
X68905223Y-133458982D01*
X68788932Y-133460149D01*
X68647473Y-133461085D01*
X68465649Y-133461519D01*
X68250659Y-133461474D01*
X68009699Y-133460970D01*
X67749968Y-133460031D01*
X67478664Y-133458679D01*
X67202985Y-133456935D01*
X66930129Y-133454821D01*
X66862528Y-133454232D01*
X66614669Y-133451688D01*
X66380749Y-133448650D01*
X66165148Y-133445215D01*
X65972250Y-133441486D01*
X65806437Y-133437562D01*
X65672092Y-133433543D01*
X65573595Y-133429529D01*
X65515331Y-133425621D01*
X65500964Y-133423100D01*
X65491599Y-133405243D01*
X65484249Y-133362436D01*
X65482202Y-133335770D01*
X68111123Y-133335770D01*
X69270534Y-133329599D01*
X70429944Y-133323427D01*
X70436663Y-132800206D01*
X70438056Y-132644184D01*
X70438175Y-132501744D01*
X70437108Y-132380626D01*
X70434939Y-132288576D01*
X70431755Y-132233335D01*
X70430264Y-132223473D01*
X70417146Y-132169962D01*
X69264135Y-132169962D01*
X68111123Y-132169962D01*
X68111123Y-132752866D01*
X68111123Y-133335770D01*
X65482202Y-133335770D01*
X65478733Y-133290565D01*
X65474868Y-133185519D01*
X65472473Y-133043184D01*
X65471364Y-132859446D01*
X65471237Y-132752866D01*
X65471236Y-132751690D01*
X65471236Y-132099520D01*
X65524747Y-132087712D01*
X65555494Y-132086022D01*
X65630579Y-132084282D01*
X65746774Y-132082513D01*
X65900851Y-132080739D01*
X66089581Y-132078985D01*
X66309738Y-132077273D01*
X66558093Y-132075627D01*
X66831419Y-132074071D01*
X67126487Y-132072629D01*
X67440070Y-132071323D01*
X67768940Y-132070178D01*
X68030039Y-132069422D01*
X68434031Y-132068437D01*
X68793007Y-132067760D01*
X69109519Y-132067418D01*
X69386115Y-132067437D01*
G37*
G36*
X68834609Y-126084043D02*
G01*
X69113370Y-126084679D01*
X69377296Y-126085808D01*
X69622486Y-126087443D01*
X69845042Y-126089595D01*
X70041062Y-126092277D01*
X70206648Y-126095500D01*
X70337899Y-126099276D01*
X70430916Y-126103617D01*
X70481800Y-126108535D01*
X70489401Y-126110622D01*
X70548857Y-126142409D01*
X70555205Y-126769646D01*
X70556869Y-126961015D01*
X70557339Y-127110476D01*
X70556332Y-127223676D01*
X70553568Y-127306263D01*
X70548766Y-127363886D01*
X70541644Y-127402193D01*
X70531921Y-127426831D01*
X70521791Y-127440819D01*
X70513903Y-127447919D01*
X70502019Y-127454206D01*
X70483389Y-127459724D01*
X70455261Y-127464520D01*
X70414885Y-127468639D01*
X70359509Y-127472127D01*
X70286383Y-127475030D01*
X70192754Y-127477394D01*
X70075874Y-127479263D01*
X69932989Y-127480684D01*
X69761350Y-127481703D01*
X69558204Y-127482365D01*
X69320802Y-127482715D01*
X69046393Y-127482800D01*
X68732224Y-127482666D01*
X68375545Y-127482357D01*
X68042035Y-127481997D01*
X67704580Y-127481503D01*
X67380035Y-127480806D01*
X67071627Y-127479927D01*
X66782581Y-127478884D01*
X66516122Y-127477696D01*
X66275478Y-127476383D01*
X66063872Y-127474963D01*
X65884532Y-127473455D01*
X65740682Y-127471879D01*
X65635550Y-127470252D01*
X65572359Y-127468595D01*
X65554475Y-127467355D01*
X65506886Y-127445264D01*
X65489437Y-127428494D01*
X65484733Y-127398290D01*
X65482821Y-127366295D01*
X68111123Y-127366295D01*
X69270534Y-127360123D01*
X70429944Y-127353951D01*
X70436343Y-126809931D01*
X70437732Y-126610499D01*
X70436593Y-126455947D01*
X70432834Y-126343650D01*
X70426359Y-126270984D01*
X70417074Y-126235327D01*
X70415594Y-126233199D01*
X70402017Y-126225458D01*
X70372775Y-126218988D01*
X70324161Y-126213685D01*
X70252467Y-126209446D01*
X70153986Y-126206166D01*
X70025010Y-126203742D01*
X69861831Y-126202068D01*
X69660742Y-126201042D01*
X69418036Y-126200559D01*
X69249784Y-126200486D01*
X68111123Y-126200486D01*
X68111123Y-126783391D01*
X68111123Y-127366295D01*
X65482821Y-127366295D01*
X65480480Y-127327104D01*
X65476860Y-127221518D01*
X65474052Y-127088114D01*
X65472237Y-126933476D01*
X65471622Y-126783391D01*
X65471600Y-126778055D01*
X65471571Y-126589984D01*
X65472034Y-126443865D01*
X65473447Y-126334085D01*
X65476268Y-126255033D01*
X65480952Y-126201095D01*
X65487959Y-126166659D01*
X65497745Y-126146111D01*
X65510766Y-126133839D01*
X65524747Y-126125708D01*
X65558072Y-126120358D01*
X65635058Y-126115325D01*
X65751804Y-126110619D01*
X65904412Y-126106254D01*
X66088982Y-126102240D01*
X66301613Y-126098589D01*
X66538406Y-126095314D01*
X66795461Y-126092425D01*
X67068879Y-126089936D01*
X67354759Y-126087858D01*
X67649202Y-126086202D01*
X67948308Y-126084981D01*
X68248178Y-126084206D01*
X68544911Y-126083890D01*
X68834609Y-126084043D01*
G37*
G36*
X80462922Y-82193922D02*
G01*
X80493133Y-82215479D01*
X80536139Y-82251093D01*
X80593907Y-82302652D01*
X80668401Y-82372045D01*
X80761587Y-82461160D01*
X80875429Y-82571884D01*
X81011892Y-82706108D01*
X81172942Y-82865718D01*
X81360544Y-83052604D01*
X81576663Y-83268653D01*
X81823264Y-83515754D01*
X81955149Y-83648066D01*
X82227337Y-83921324D01*
X82491151Y-84186376D01*
X82744536Y-84441146D01*
X82985439Y-84683562D01*
X83211804Y-84911548D01*
X83421577Y-85123031D01*
X83612703Y-85315936D01*
X83783126Y-85488189D01*
X83930794Y-85637716D01*
X84053650Y-85762443D01*
X84149640Y-85860295D01*
X84216709Y-85929199D01*
X84252804Y-85967080D01*
X84257040Y-85971799D01*
X84245248Y-85991824D01*
X84205871Y-86036439D01*
X84146084Y-86097768D01*
X84111175Y-86131859D01*
X84066235Y-86175974D01*
X83991434Y-86250482D01*
X83890266Y-86351865D01*
X83766223Y-86476602D01*
X83622797Y-86621174D01*
X83463479Y-86782061D01*
X83291764Y-86955743D01*
X83111141Y-87138700D01*
X82948405Y-87303764D01*
X82768033Y-87486721D01*
X82597587Y-87659396D01*
X82439991Y-87818841D01*
X82298166Y-87962111D01*
X82175035Y-88086258D01*
X82073521Y-88188337D01*
X81996545Y-88265401D01*
X81947030Y-88314503D01*
X81927899Y-88332697D01*
X81927852Y-88332722D01*
X81909700Y-88317059D01*
X81860131Y-88269793D01*
X81781276Y-88193042D01*
X81675267Y-88088922D01*
X81544237Y-87959550D01*
X81390316Y-87807041D01*
X81215637Y-87633512D01*
X81022332Y-87441079D01*
X80812533Y-87231858D01*
X80588372Y-87007966D01*
X80351981Y-86771519D01*
X80105492Y-86524633D01*
X80019284Y-86438208D01*
X79769846Y-86187910D01*
X79530001Y-85946894D01*
X79301868Y-85717309D01*
X79087569Y-85501303D01*
X78889223Y-85301026D01*
X78708949Y-85118625D01*
X78548869Y-84956249D01*
X78411102Y-84816046D01*
X78297768Y-84700166D01*
X78210987Y-84610756D01*
X78152880Y-84549965D01*
X78125566Y-84519942D01*
X78123670Y-84517133D01*
X78139816Y-84495316D01*
X78185144Y-84444973D01*
X78254991Y-84370996D01*
X78344694Y-84278282D01*
X78449589Y-84171722D01*
X78523108Y-84097952D01*
X78922547Y-83699032D01*
X79012430Y-83736588D01*
X79086951Y-83759669D01*
X79183515Y-83779277D01*
X79250229Y-83787956D01*
X79346440Y-83792808D01*
X79417407Y-83783746D01*
X79484179Y-83757794D01*
X79492228Y-83753752D01*
X79578147Y-83702053D01*
X79640415Y-83641296D01*
X79692402Y-83556514D01*
X79718939Y-83499939D01*
X79756200Y-83361858D01*
X79746209Y-83222070D01*
X79688887Y-83079496D01*
X79688700Y-83079163D01*
X79636280Y-82985895D01*
X79825341Y-82792628D01*
X79974900Y-82640176D01*
X80109542Y-82503790D01*
X80225772Y-82386963D01*
X80320091Y-82293191D01*
X80389002Y-82225966D01*
X80429008Y-82188785D01*
X80433027Y-82185426D01*
X80443542Y-82184534D01*
X80462922Y-82193922D01*
G37*
G36*
X123649196Y-95202183D02*
G01*
X123813852Y-95258916D01*
X123959633Y-95357441D01*
X124091304Y-95500163D01*
X124094588Y-95504493D01*
X124237359Y-95732755D01*
X124343481Y-95989811D01*
X124412640Y-96273758D01*
X124444524Y-96582697D01*
X124438818Y-96914724D01*
X124395211Y-97267940D01*
X124389956Y-97297721D01*
X124376149Y-97374263D01*
X124665282Y-97380961D01*
X124954415Y-97387659D01*
X124952615Y-98210728D01*
X124952487Y-98441911D01*
X124953305Y-98629467D01*
X124955201Y-98777330D01*
X124958308Y-98889431D01*
X124962757Y-98969703D01*
X124968681Y-99022078D01*
X124976212Y-99050489D01*
X124981109Y-99057343D01*
X125016226Y-99074368D01*
X125085052Y-99100339D01*
X125175629Y-99130892D01*
X125225449Y-99146556D01*
X125603143Y-99278237D01*
X125990466Y-99442701D01*
X126373835Y-99633103D01*
X126739665Y-99842599D01*
X127074373Y-100064344D01*
X127135690Y-100109047D01*
X127524593Y-100420615D01*
X127873328Y-100750097D01*
X128185254Y-101101887D01*
X128463730Y-101480379D01*
X128712117Y-101889965D01*
X128933774Y-102335040D01*
X129054171Y-102618044D01*
X129226562Y-103101257D01*
X129353261Y-103578685D01*
X129435196Y-104053980D01*
X129448393Y-104169014D01*
X129457422Y-104290235D01*
X129463603Y-104445738D01*
X129467087Y-104627502D01*
X129468021Y-104827507D01*
X129466554Y-105037734D01*
X129462836Y-105250164D01*
X129457015Y-105456776D01*
X129449240Y-105649550D01*
X129439660Y-105820467D01*
X129428424Y-105961506D01*
X129415680Y-106064649D01*
X129412918Y-106080262D01*
X129320622Y-106471074D01*
X129192137Y-106874411D01*
X129032443Y-107278962D01*
X128846517Y-107673422D01*
X128639335Y-108046481D01*
X128415877Y-108386832D01*
X128370045Y-108449479D01*
X128032560Y-108864917D01*
X127663953Y-109248907D01*
X127267738Y-109598555D01*
X126847432Y-109910967D01*
X126406549Y-110183249D01*
X126030379Y-110375362D01*
X125636049Y-110537446D01*
X125211179Y-110673795D01*
X124765938Y-110782638D01*
X124310493Y-110862205D01*
X123855012Y-110910724D01*
X123409664Y-110926426D01*
X122984617Y-110907539D01*
X122977977Y-110906940D01*
X122584877Y-110856651D01*
X122178601Y-110777680D01*
X121774233Y-110673850D01*
X121386854Y-110548982D01*
X121068106Y-110423037D01*
X120647084Y-110217291D01*
X120235503Y-109972947D01*
X119840550Y-109695536D01*
X119469413Y-109390586D01*
X119129279Y-109063628D01*
X118827334Y-108720192D01*
X118784827Y-108666371D01*
X118521674Y-108307635D01*
X118294891Y-107952239D01*
X118098650Y-107588962D01*
X117927119Y-107206587D01*
X117774469Y-106793891D01*
X117712924Y-106603483D01*
X117590191Y-106132069D01*
X117508260Y-105643118D01*
X117467361Y-105143926D01*
X117467419Y-105065278D01*
X117771821Y-105065278D01*
X117777285Y-105273460D01*
X117790121Y-105450083D01*
X117791489Y-105462534D01*
X117874367Y-105997636D01*
X117999276Y-106511297D01*
X118165902Y-107002854D01*
X118373934Y-107471648D01*
X118623059Y-107917018D01*
X118912964Y-108338305D01*
X119243337Y-108734847D01*
X119434172Y-108934194D01*
X119716599Y-109202178D01*
X119993426Y-109435332D01*
X120277216Y-109642784D01*
X120580534Y-109833666D01*
X120915943Y-110017106D01*
X120944550Y-110031739D01*
X121359055Y-110225174D01*
X121766041Y-110378044D01*
X122176384Y-110493652D01*
X122600955Y-110575301D01*
X122835281Y-110605914D01*
X122916960Y-110611647D01*
X123036331Y-110615659D01*
X123183552Y-110618015D01*
X123348781Y-110618778D01*
X123522178Y-110618011D01*
X123693902Y-110615778D01*
X123854112Y-110612143D01*
X123992966Y-110607169D01*
X124100623Y-110600920D01*
X124138325Y-110597487D01*
X124616082Y-110522359D01*
X125094185Y-110402648D01*
X125565654Y-110240769D01*
X126023510Y-110039139D01*
X126460773Y-109800172D01*
X126485289Y-109785258D01*
X126890198Y-109511059D01*
X127274974Y-109197795D01*
X127634257Y-108851000D01*
X127962687Y-108476211D01*
X128254903Y-108078960D01*
X128460996Y-107745188D01*
X128645418Y-107382752D01*
X128810384Y-106983328D01*
X128953464Y-106554343D01*
X129072227Y-106103223D01*
X129164243Y-105637395D01*
X129177088Y-105557041D01*
X129203467Y-105325991D01*
X129217644Y-105064915D01*
X129219749Y-104789727D01*
X129209912Y-104516338D01*
X129188266Y-104260663D01*
X129165089Y-104094400D01*
X129054186Y-103571491D01*
X128902538Y-103068126D01*
X128711676Y-102586363D01*
X128483134Y-102128261D01*
X128218443Y-101695879D01*
X127919135Y-101291273D01*
X127586743Y-100916502D01*
X127222799Y-100573625D01*
X126828835Y-100264699D01*
X126406383Y-99991784D01*
X125956976Y-99756936D01*
X125925124Y-99742239D01*
X125659374Y-99624480D01*
X125420117Y-99527211D01*
X125193792Y-99445262D01*
X124966842Y-99373464D01*
X124928165Y-99362168D01*
X124654663Y-99283161D01*
X124642771Y-98968740D01*
X124630880Y-98654319D01*
X124512402Y-98752309D01*
X124417219Y-98818409D01*
X124330507Y-98847779D01*
X124245815Y-98839038D01*
X124156694Y-98790802D01*
X124056694Y-98701691D01*
X124002002Y-98642947D01*
X123879202Y-98505449D01*
X123840077Y-98564906D01*
X123802578Y-98612878D01*
X123744138Y-98678231D01*
X123686828Y-98737331D01*
X123599607Y-98811801D01*
X123521911Y-98847477D01*
X123441612Y-98847916D01*
X123375824Y-98828581D01*
X123313976Y-98791618D01*
X123238477Y-98727351D01*
X123162306Y-98647888D01*
X123106877Y-98577658D01*
X123057406Y-98507220D01*
X122892535Y-98678760D01*
X122796099Y-98773126D01*
X122716745Y-98831059D01*
X122644040Y-98853338D01*
X122567547Y-98840742D01*
X122476831Y-98794048D01*
X122366835Y-98717981D01*
X122314588Y-98679697D01*
X122328553Y-98963685D01*
X122333639Y-99090098D01*
X122333955Y-99176600D01*
X122329048Y-99230650D01*
X122318464Y-99259706D01*
X122310045Y-99267743D01*
X122275708Y-99280939D01*
X122204990Y-99302704D01*
X122107683Y-99330186D01*
X121993581Y-99360533D01*
X121974516Y-99365439D01*
X121622512Y-99472651D01*
X121257475Y-99615570D01*
X120890329Y-99788813D01*
X120531999Y-99986996D01*
X120193409Y-100204735D01*
X120027012Y-100325229D01*
X119923262Y-100409544D01*
X119797764Y-100520791D01*
X119658382Y-100651123D01*
X119512976Y-100792692D01*
X119369409Y-100937651D01*
X119235541Y-101078152D01*
X119119234Y-101206349D01*
X119028351Y-101314393D01*
X119002890Y-101347490D01*
X118732275Y-101733240D01*
X118501709Y-102110433D01*
X118307144Y-102488341D01*
X118144530Y-102876237D01*
X118009818Y-103283393D01*
X117898961Y-103719080D01*
X117839773Y-104011161D01*
X117814938Y-104179919D01*
X117795287Y-104382858D01*
X117781260Y-104606829D01*
X117773292Y-104838685D01*
X117771821Y-105065278D01*
X117467419Y-105065278D01*
X117467729Y-104641792D01*
X117509595Y-104144013D01*
X117593194Y-103657886D01*
X117615756Y-103559288D01*
X117763509Y-103042524D01*
X117955179Y-102542779D01*
X118189565Y-102062021D01*
X118465463Y-101602214D01*
X118781673Y-101165323D01*
X119136990Y-100753314D01*
X119530214Y-100368153D01*
X119612715Y-100295026D01*
X119847651Y-100106409D01*
X120114817Y-99919959D01*
X120405101Y-99740414D01*
X120709394Y-99572510D01*
X121018586Y-99420987D01*
X121323568Y-99290579D01*
X121615228Y-99186026D01*
X121884458Y-99112064D01*
X121889916Y-99110849D01*
X122026666Y-99080558D01*
X122026666Y-98228942D01*
X122026666Y-97377325D01*
X122291992Y-97370601D01*
X122557318Y-97363876D01*
X122547657Y-97161722D01*
X122538723Y-96864324D01*
X122542323Y-96628988D01*
X122875732Y-96628988D01*
X122879702Y-96842098D01*
X122903676Y-97046938D01*
X122916014Y-97109780D01*
X122934321Y-97196961D01*
X122950144Y-97262891D01*
X122969863Y-97310433D01*
X122999858Y-97342450D01*
X123046508Y-97361809D01*
X123116194Y-97371371D01*
X123215294Y-97374001D01*
X123350188Y-97372564D01*
X123496346Y-97370301D01*
X123988745Y-97363876D01*
X124033496Y-97197397D01*
X124055681Y-97095105D01*
X124070332Y-96976449D01*
X124078526Y-96830110D01*
X124081062Y-96697958D01*
X124081173Y-96554899D01*
X124077859Y-96446773D01*
X124069823Y-96360996D01*
X124055771Y-96284984D01*
X124034407Y-96206152D01*
X124028425Y-96186629D01*
X123955201Y-95989059D01*
X123869597Y-95823411D01*
X123774392Y-95692336D01*
X123672366Y-95598484D01*
X123566297Y-95544505D01*
X123458967Y-95533050D01*
X123369550Y-95558379D01*
X123267158Y-95629388D01*
X123167147Y-95740821D01*
X123074074Y-95885590D01*
X122992499Y-96056603D01*
X122926978Y-96246769D01*
X122926935Y-96246921D01*
X122891549Y-96424849D01*
X122875732Y-96628988D01*
X122542323Y-96628988D01*
X122542643Y-96608046D01*
X122559684Y-96388139D01*
X122590114Y-96199854D01*
X122605644Y-96134066D01*
X122687485Y-95875385D01*
X122788052Y-95655913D01*
X122906279Y-95476832D01*
X123041103Y-95339323D01*
X123191459Y-95244567D01*
X123356282Y-95193745D01*
X123460897Y-95184838D01*
X123649196Y-95202183D01*
G37*
G36*
X81235007Y-75642666D02*
G01*
X81244912Y-75643302D01*
X81396433Y-75664584D01*
X81523534Y-75711107D01*
X81641142Y-75789938D01*
X81731016Y-75873408D01*
X81886301Y-76064805D01*
X82011000Y-76288462D01*
X82103812Y-76539155D01*
X82163438Y-76811663D01*
X82188575Y-77100765D01*
X82177924Y-77401237D01*
X82155175Y-77576610D01*
X82139609Y-77672932D01*
X82127473Y-77751031D01*
X82120544Y-77799324D01*
X82119591Y-77808492D01*
X82141628Y-77815544D01*
X82201813Y-77821279D01*
X82290733Y-77825078D01*
X82390133Y-77826329D01*
X82509573Y-77827240D01*
X82589732Y-77830741D01*
X82638875Y-77837987D01*
X82665265Y-77850133D01*
X82676440Y-77866330D01*
X82679814Y-77899337D01*
X82682058Y-77973766D01*
X82683160Y-78083489D01*
X82683107Y-78222375D01*
X82681886Y-78384296D01*
X82679485Y-78563122D01*
X82678059Y-78645216D01*
X82675262Y-78831177D01*
X82673910Y-79004401D01*
X82673956Y-79158454D01*
X82675352Y-79286901D01*
X82678051Y-79383307D01*
X82682006Y-79441239D01*
X82683981Y-79452383D01*
X82695319Y-79480684D01*
X82715980Y-79504892D01*
X82753260Y-79528901D01*
X82814458Y-79556607D01*
X82906872Y-79591904D01*
X83023812Y-79633750D01*
X83552282Y-79839712D01*
X84041567Y-80070780D01*
X84493587Y-80328126D01*
X84910262Y-80612920D01*
X85293512Y-80926334D01*
X85560913Y-81181641D01*
X85721749Y-81349717D01*
X85856696Y-81501066D01*
X85976622Y-81649148D01*
X86092398Y-81807420D01*
X86214893Y-81989343D01*
X86221978Y-82000206D01*
X86443034Y-82363397D01*
X86631282Y-82726418D01*
X86791084Y-83099818D01*
X86926804Y-83494144D01*
X87042803Y-83919945D01*
X87077282Y-84068193D01*
X87110581Y-84232465D01*
X87136933Y-84399893D01*
X87156779Y-84577398D01*
X87170559Y-84771898D01*
X87178714Y-84990313D01*
X87181683Y-85239564D01*
X87179907Y-85526568D01*
X87178013Y-85650861D01*
X87174127Y-85858384D01*
X87170054Y-86026037D01*
X87165217Y-86161514D01*
X87159034Y-86272511D01*
X87150927Y-86366720D01*
X87140316Y-86451836D01*
X87126621Y-86535554D01*
X87109262Y-86625567D01*
X87101874Y-86661629D01*
X86974147Y-87162664D01*
X86802188Y-87648685D01*
X86587620Y-88117326D01*
X86332064Y-88566221D01*
X86037141Y-88993005D01*
X85704474Y-89395312D01*
X85335684Y-89770775D01*
X84932393Y-90117030D01*
X84535559Y-90405562D01*
X84305279Y-90553092D01*
X84080795Y-90681761D01*
X83850185Y-90797366D01*
X83601528Y-90905701D01*
X83322904Y-91012562D01*
X83189401Y-91060031D01*
X82749089Y-91196420D01*
X82320496Y-91295025D01*
X81999190Y-91344577D01*
X81839381Y-91360588D01*
X81655806Y-91374194D01*
X81461227Y-91384868D01*
X81268406Y-91392085D01*
X81090107Y-91395319D01*
X80939092Y-91394042D01*
X80870580Y-91391122D01*
X80351461Y-91335793D01*
X79833485Y-91234000D01*
X79320399Y-91086774D01*
X78815947Y-90895146D01*
X78449034Y-90724669D01*
X78032605Y-90490538D01*
X77629072Y-90214373D01*
X77243930Y-89901123D01*
X76882675Y-89555738D01*
X76550799Y-89183171D01*
X76253799Y-88788371D01*
X76183278Y-88683164D01*
X75920579Y-88244445D01*
X75700206Y-87795235D01*
X75520390Y-87330606D01*
X75379363Y-86845632D01*
X75275359Y-86335384D01*
X75231969Y-86031385D01*
X75209269Y-85769524D01*
X75199921Y-85477363D01*
X75202457Y-85259334D01*
X75484825Y-85259334D01*
X75494878Y-85754628D01*
X75547398Y-86245162D01*
X75642514Y-86725563D01*
X75773262Y-87170020D01*
X75969468Y-87669357D01*
X76203919Y-88140444D01*
X76476446Y-88583078D01*
X76786880Y-88997060D01*
X77135052Y-89382188D01*
X77520792Y-89738262D01*
X77943931Y-90065079D01*
X78404300Y-90362440D01*
X78516086Y-90427014D01*
X78907973Y-90623342D01*
X79334028Y-90788859D01*
X79791443Y-90922677D01*
X80277411Y-91023907D01*
X80517102Y-91060274D01*
X80689096Y-91076906D01*
X80895744Y-91086535D01*
X81124692Y-91089420D01*
X81363588Y-91085822D01*
X81600078Y-91076002D01*
X81821808Y-91060220D01*
X82016425Y-91038735D01*
X82093093Y-91027068D01*
X82448096Y-90957483D01*
X82797665Y-90871043D01*
X83123607Y-90772387D01*
X83212023Y-90741829D01*
X83645977Y-90562679D01*
X84068754Y-90340376D01*
X84475878Y-90078861D01*
X84862873Y-89782072D01*
X85225261Y-89453948D01*
X85558566Y-89098428D01*
X85858312Y-88719452D01*
X86120022Y-88320959D01*
X86267829Y-88052921D01*
X86480856Y-87598085D01*
X86650449Y-87150231D01*
X86778451Y-86701766D01*
X86866705Y-86245093D01*
X86917053Y-85772620D01*
X86931479Y-85317902D01*
X86916696Y-84871727D01*
X86871965Y-84453088D01*
X86795729Y-84051357D01*
X86689324Y-83665000D01*
X86591661Y-83393889D01*
X86465728Y-83101846D01*
X86317782Y-82800659D01*
X86154078Y-82502114D01*
X85980873Y-82217998D01*
X85804424Y-81960098D01*
X85736260Y-81869400D01*
X85502910Y-81583461D01*
X85268365Y-81329544D01*
X85021688Y-81097463D01*
X84751945Y-80877032D01*
X84448200Y-80658065D01*
X84402322Y-80626935D01*
X84139823Y-80460453D01*
X83870857Y-80311852D01*
X83585376Y-80176396D01*
X83273329Y-80049347D01*
X82924667Y-79925971D01*
X82892116Y-79915204D01*
X82742827Y-79865545D01*
X82609104Y-79820056D01*
X82497439Y-79781030D01*
X82414323Y-79750756D01*
X82366249Y-79731526D01*
X82357004Y-79726369D01*
X82353469Y-79697172D01*
X82353104Y-79631002D01*
X82355792Y-79538340D01*
X82360083Y-79451785D01*
X82364523Y-79344923D01*
X82364936Y-79255603D01*
X82361477Y-79194508D01*
X82356046Y-79173153D01*
X82327837Y-79174096D01*
X82275680Y-79198647D01*
X82234052Y-79225423D01*
X82161982Y-79270861D01*
X82094386Y-79304463D01*
X82067680Y-79313583D01*
X81980552Y-79310777D01*
X81883959Y-79265546D01*
X81783052Y-79180728D01*
X81739633Y-79132809D01*
X81684388Y-79072160D01*
X81637940Y-79029775D01*
X81612376Y-79015479D01*
X81583364Y-79032355D01*
X81535178Y-79076459D01*
X81481556Y-79134522D01*
X81373468Y-79241762D01*
X81271505Y-79302719D01*
X81172332Y-79317329D01*
X81072616Y-79285527D01*
X80969023Y-79207248D01*
X80890931Y-79122993D01*
X80836580Y-79065160D01*
X80788866Y-79026677D01*
X80764467Y-79016822D01*
X80731320Y-79035346D01*
X80682956Y-79081951D01*
X80641515Y-79131690D01*
X80541556Y-79237129D01*
X80437277Y-79295331D01*
X80327301Y-79306530D01*
X80210253Y-79270964D01*
X80125982Y-79220232D01*
X80074034Y-79184777D01*
X80042084Y-79165848D01*
X80037662Y-79164817D01*
X80037952Y-79189138D01*
X80041045Y-79251312D01*
X80046413Y-79341746D01*
X80053034Y-79443558D01*
X80058963Y-79552978D01*
X80061187Y-79644392D01*
X80059644Y-79707737D01*
X80054831Y-79732587D01*
X80026603Y-79744303D01*
X79961749Y-79764939D01*
X79869730Y-79791649D01*
X79760007Y-79821584D01*
X79752790Y-79823494D01*
X79299750Y-79961960D01*
X78866547Y-80131928D01*
X78460841Y-80330058D01*
X78112842Y-80538042D01*
X77690641Y-80844692D01*
X77299491Y-81186904D01*
X76940536Y-81563251D01*
X76614919Y-81972308D01*
X76323784Y-82412651D01*
X76068273Y-82882853D01*
X75866658Y-83338056D01*
X75708155Y-83798642D01*
X75591595Y-84275967D01*
X75517108Y-84764656D01*
X75484825Y-85259334D01*
X75202457Y-85259334D01*
X75203494Y-85170128D01*
X75219557Y-84863044D01*
X75247681Y-84571336D01*
X75279368Y-84354700D01*
X75390304Y-83843671D01*
X75541653Y-83354782D01*
X75735354Y-82882206D01*
X75842662Y-82661952D01*
X76111907Y-82186814D01*
X76415914Y-81743677D01*
X76753585Y-81333554D01*
X77123819Y-80957458D01*
X77525518Y-80616400D01*
X77957584Y-80311392D01*
X78418917Y-80043448D01*
X78908419Y-79813579D01*
X78956067Y-79793873D01*
X79060767Y-79752133D01*
X79163010Y-79714046D01*
X79274241Y-79675698D01*
X79405905Y-79633174D01*
X79569448Y-79582560D01*
X79610093Y-79570177D01*
X79752790Y-79526797D01*
X79759036Y-78676563D01*
X79765282Y-77826329D01*
X80029171Y-77826329D01*
X80293059Y-77826329D01*
X80278433Y-77768056D01*
X80272779Y-77720847D01*
X80268420Y-77636028D01*
X80265369Y-77523537D01*
X80263638Y-77393312D01*
X80263241Y-77255292D01*
X80264139Y-77126767D01*
X80608074Y-77126767D01*
X80626174Y-77400954D01*
X80683890Y-77697235D01*
X80694318Y-77737623D01*
X80718084Y-77827288D01*
X81209571Y-77820863D01*
X81701058Y-77814438D01*
X81746786Y-77671741D01*
X81775024Y-77551280D01*
X81794338Y-77392179D01*
X81804040Y-77226720D01*
X81805419Y-77018017D01*
X81790187Y-76839820D01*
X81755483Y-76677102D01*
X81698448Y-76514833D01*
X81646548Y-76399363D01*
X81550649Y-76230608D01*
X81448973Y-76108348D01*
X81343392Y-76032130D01*
X81235780Y-76001504D01*
X81128011Y-76016017D01*
X81021959Y-76075218D01*
X80919496Y-76178656D01*
X80822498Y-76325878D01*
X80732837Y-76516433D01*
X80690671Y-76629772D01*
X80629577Y-76870949D01*
X80608074Y-77126767D01*
X80264139Y-77126767D01*
X80264190Y-77119414D01*
X80266498Y-76995617D01*
X80270178Y-76893839D01*
X80275242Y-76824017D01*
X80277199Y-76809802D01*
X80329434Y-76588666D01*
X80408362Y-76364329D01*
X80507494Y-76152026D01*
X80620339Y-75966991D01*
X80657543Y-75916971D01*
X80748379Y-75817919D01*
X80852029Y-75743112D01*
X80916560Y-75708669D01*
X81004216Y-75668012D01*
X81072066Y-75646335D01*
X81141774Y-75639324D01*
X81235007Y-75642666D01*
G37*
G36*
X68220654Y-120908947D02*
G01*
X68313277Y-120944122D01*
X68457964Y-121038101D01*
X68593322Y-121173835D01*
X68715573Y-121345837D01*
X68820938Y-121548623D01*
X68905639Y-121776706D01*
X68919650Y-121824457D01*
X68962013Y-122031465D01*
X68983493Y-122267991D01*
X68983973Y-122520758D01*
X68963339Y-122776491D01*
X68929768Y-122983088D01*
X68914104Y-123059602D01*
X69196368Y-123066327D01*
X69478633Y-123073052D01*
X69484874Y-123918881D01*
X69491115Y-124764711D01*
X69829724Y-124876685D01*
X70334711Y-125065421D01*
X70815910Y-125289075D01*
X71270396Y-125545628D01*
X71695244Y-125833063D01*
X72087526Y-126149362D01*
X72444319Y-126492508D01*
X72762696Y-126860483D01*
X72826147Y-126943046D01*
X73100997Y-127345038D01*
X73346315Y-127778514D01*
X73558024Y-128234776D01*
X73732043Y-128705124D01*
X73852897Y-129132600D01*
X73884462Y-129265702D01*
X73910495Y-129382943D01*
X73931487Y-129490723D01*
X73947924Y-129595440D01*
X73960297Y-129703494D01*
X73969092Y-129821285D01*
X73974798Y-129955212D01*
X73977904Y-130111676D01*
X73978897Y-130297075D01*
X73978267Y-130517808D01*
X73976693Y-130754887D01*
X73974451Y-131015185D01*
X73971501Y-131234227D01*
X73967136Y-131418324D01*
X73960646Y-131573784D01*
X73951325Y-131706917D01*
X73938463Y-131824034D01*
X73921353Y-131931444D01*
X73899287Y-132035457D01*
X73871557Y-132142382D01*
X73837454Y-132258530D01*
X73796270Y-132390210D01*
X73791483Y-132405269D01*
X73713424Y-132627806D01*
X73614446Y-132874748D01*
X73501140Y-133131693D01*
X73380095Y-133384244D01*
X73257903Y-133618000D01*
X73154468Y-133797035D01*
X72940300Y-134115016D01*
X72688422Y-134435126D01*
X72407417Y-134748564D01*
X72105868Y-135046523D01*
X71792358Y-135320202D01*
X71475468Y-135560797D01*
X71356355Y-135641452D01*
X71186009Y-135746074D01*
X70985666Y-135858215D01*
X70767469Y-135971892D01*
X70543562Y-136081126D01*
X70326091Y-136179935D01*
X70127200Y-136262338D01*
X70003294Y-136307820D01*
X69569456Y-136436039D01*
X69099500Y-136537154D01*
X68967303Y-136559695D01*
X68840885Y-136575295D01*
X68677454Y-136588163D01*
X68486693Y-136598175D01*
X68278284Y-136605207D01*
X68061907Y-136609135D01*
X67847246Y-136609834D01*
X67643980Y-136607182D01*
X67461793Y-136601053D01*
X67310365Y-136591323D01*
X67225814Y-136582018D01*
X66765023Y-136502334D01*
X66335581Y-136396643D01*
X65927093Y-136261736D01*
X65529161Y-136094405D01*
X65328539Y-135996369D01*
X65023685Y-135833782D01*
X64753757Y-135673815D01*
X64507368Y-135508241D01*
X64273133Y-135328832D01*
X64039665Y-135127357D01*
X63795578Y-134895590D01*
X63769016Y-134869307D01*
X63424009Y-134500284D01*
X63121217Y-134118676D01*
X62856972Y-133718544D01*
X62627611Y-133293946D01*
X62429465Y-132838944D01*
X62308618Y-132502921D01*
X62222946Y-132233094D01*
X62154530Y-131987885D01*
X62101703Y-131756396D01*
X62062799Y-131527726D01*
X62036151Y-131290974D01*
X62020092Y-131035241D01*
X62012957Y-130749626D01*
X62012775Y-130701787D01*
X62298477Y-130701787D01*
X62324408Y-131142291D01*
X62384740Y-131588738D01*
X62477518Y-132030937D01*
X62600789Y-132458702D01*
X62752599Y-132861844D01*
X62842144Y-133058311D01*
X63093657Y-133522553D01*
X63382335Y-133958964D01*
X63706160Y-134365497D01*
X64063111Y-134740104D01*
X64451168Y-135080740D01*
X64868310Y-135385357D01*
X65312517Y-135651908D01*
X65495019Y-135746272D01*
X65951275Y-135951035D01*
X66406095Y-136113867D01*
X66855630Y-136233589D01*
X67296029Y-136309019D01*
X67350075Y-136315256D01*
X67451364Y-136322538D01*
X67589960Y-136327190D01*
X67755684Y-136329355D01*
X67938357Y-136329173D01*
X68127803Y-136326786D01*
X68313842Y-136322334D01*
X68486296Y-136315959D01*
X68634987Y-136307801D01*
X68749736Y-136298001D01*
X68769877Y-136295580D01*
X69234556Y-136213449D01*
X69699212Y-136088943D01*
X70156607Y-135925190D01*
X70599503Y-135725316D01*
X71020662Y-135492450D01*
X71412847Y-135229718D01*
X71630974Y-135059265D01*
X72028779Y-134700457D01*
X72385635Y-134317588D01*
X72701595Y-133910554D01*
X72976714Y-133479247D01*
X73211045Y-133023561D01*
X73404642Y-132543389D01*
X73557559Y-132038625D01*
X73669850Y-131509162D01*
X73741569Y-130954893D01*
X73748642Y-130871977D01*
X73760208Y-130520131D01*
X73742288Y-130146372D01*
X73696491Y-129764779D01*
X73624426Y-129389432D01*
X73545018Y-129090093D01*
X73369755Y-128585615D01*
X73157798Y-128105345D01*
X72910830Y-127651648D01*
X72630535Y-127226892D01*
X72318596Y-126833443D01*
X71976695Y-126473668D01*
X71606517Y-126149933D01*
X71287659Y-125916130D01*
X71036755Y-125757698D01*
X70761818Y-125603326D01*
X70472781Y-125457503D01*
X70179576Y-125324718D01*
X69892137Y-125209459D01*
X69620395Y-125116216D01*
X69374284Y-125049476D01*
X69365665Y-125047544D01*
X69181348Y-125006573D01*
X69181348Y-124687893D01*
X69180300Y-124571000D01*
X69177428Y-124473375D01*
X69173141Y-124403714D01*
X69167846Y-124370715D01*
X69166394Y-124369213D01*
X69141816Y-124383889D01*
X69094636Y-124421609D01*
X69056323Y-124455145D01*
X68996889Y-124505136D01*
X68949053Y-124529030D01*
X68891086Y-124534131D01*
X68832512Y-124530405D01*
X68747887Y-124518336D01*
X68686000Y-124492119D01*
X68623263Y-124440894D01*
X68609727Y-124427855D01*
X68554385Y-124368652D01*
X68514167Y-124316138D01*
X68502039Y-124293138D01*
X68479271Y-124258195D01*
X68441150Y-124257034D01*
X68384089Y-124291221D01*
X68304506Y-124362327D01*
X68273833Y-124392996D01*
X68201487Y-124464248D01*
X68149139Y-124507024D01*
X68105159Y-124528372D01*
X68057915Y-124535344D01*
X68038443Y-124535692D01*
X67953001Y-124526991D01*
X67871827Y-124505766D01*
X67864943Y-124503030D01*
X67821507Y-124481263D01*
X67781224Y-124450247D01*
X67735523Y-124401401D01*
X67675830Y-124326148D01*
X67638145Y-124276054D01*
X67595298Y-124218569D01*
X67436945Y-124380070D01*
X67278592Y-124541571D01*
X67147671Y-124530714D01*
X67034172Y-124509724D01*
X66963422Y-124471856D01*
X66922330Y-124436466D01*
X66894447Y-124421053D01*
X66877531Y-124430937D01*
X66869339Y-124471441D01*
X66867629Y-124547887D01*
X66870160Y-124665594D01*
X66870890Y-124691482D01*
X66874095Y-124813879D01*
X66874629Y-124896874D01*
X66871229Y-124948607D01*
X66862631Y-124977221D01*
X66847572Y-124990856D01*
X66824787Y-124997656D01*
X66823324Y-124997984D01*
X66771463Y-125009573D01*
X66691376Y-125027428D01*
X66609053Y-125045759D01*
X66231931Y-125149554D01*
X65844961Y-125293980D01*
X65455697Y-125475402D01*
X65071689Y-125690180D01*
X64700490Y-125934679D01*
X64579382Y-126023301D01*
X64457203Y-126121188D01*
X64315333Y-126244722D01*
X64162563Y-126385349D01*
X64007686Y-126534516D01*
X63859492Y-126683670D01*
X63726773Y-126824258D01*
X63618320Y-126947725D01*
X63578384Y-126997209D01*
X63415738Y-127218727D01*
X63250159Y-127466128D01*
X63090441Y-127725069D01*
X62945379Y-127981202D01*
X62823768Y-128220180D01*
X62807865Y-128254153D01*
X62653845Y-128631079D01*
X62523835Y-129039811D01*
X62420470Y-129469662D01*
X62346387Y-129909948D01*
X62308899Y-130277413D01*
X62298477Y-130701787D01*
X62012775Y-130701787D01*
X62012253Y-130564625D01*
X62012983Y-130367551D01*
X62014584Y-130209652D01*
X62017618Y-130082541D01*
X62022649Y-129977828D01*
X62030238Y-129887125D01*
X62040949Y-129802044D01*
X62055343Y-129714195D01*
X62073983Y-129615191D01*
X62076924Y-129600164D01*
X62206943Y-129052289D01*
X62376904Y-128529509D01*
X62586535Y-128032340D01*
X62835565Y-127561301D01*
X63123722Y-127116908D01*
X63450736Y-126699680D01*
X63788832Y-126337142D01*
X64185290Y-125976625D01*
X64602485Y-125657843D01*
X65039181Y-125381535D01*
X65494143Y-125148438D01*
X65966136Y-124959289D01*
X66244176Y-124870885D01*
X66553352Y-124781623D01*
X66554166Y-124165165D01*
X66554601Y-123982277D01*
X66555386Y-123800374D01*
X66556452Y-123629474D01*
X66557728Y-123479595D01*
X66559147Y-123360757D01*
X66560111Y-123304934D01*
X66565243Y-123061161D01*
X66833779Y-123061161D01*
X67102316Y-123061161D01*
X67081590Y-122841170D01*
X67070698Y-122658669D01*
X67069623Y-122460829D01*
X67069846Y-122455272D01*
X67408729Y-122455272D01*
X67420681Y-122593799D01*
X67450052Y-122779802D01*
X67485641Y-122919175D01*
X67527644Y-123012469D01*
X67576257Y-123060236D01*
X67587902Y-123064703D01*
X67630490Y-123069994D01*
X67711622Y-123074113D01*
X67822284Y-123076825D01*
X67953466Y-123077894D01*
X68071466Y-123077364D01*
X68224739Y-123075385D01*
X68337383Y-123072537D01*
X68416333Y-123068090D01*
X68468525Y-123061314D01*
X68500894Y-123051478D01*
X68520377Y-123037853D01*
X68527488Y-123029343D01*
X68557339Y-122962895D01*
X68581729Y-122858845D01*
X68600207Y-122726896D01*
X68612322Y-122576748D01*
X68617623Y-122418101D01*
X68615659Y-122260657D01*
X68605978Y-122114115D01*
X68588129Y-121988177D01*
X68577988Y-121943370D01*
X68518571Y-121759663D01*
X68442901Y-121594446D01*
X68355314Y-121454113D01*
X68260147Y-121345058D01*
X68161737Y-121273674D01*
X68109875Y-121253334D01*
X67996075Y-121246139D01*
X67884260Y-121285213D01*
X67776091Y-121369263D01*
X67673226Y-121496995D01*
X67577325Y-121667113D01*
X67576001Y-121669869D01*
X67474208Y-121929604D01*
X67418759Y-122189568D01*
X67408729Y-122455272D01*
X67069846Y-122455272D01*
X67077642Y-122261409D01*
X67094035Y-122074168D01*
X67118081Y-121912863D01*
X67133968Y-121841490D01*
X67212566Y-121597734D01*
X67313000Y-121383053D01*
X67432425Y-121201715D01*
X67567994Y-121057989D01*
X67716865Y-120956144D01*
X67727637Y-120950729D01*
X67886650Y-120897075D01*
X68055526Y-120883097D01*
X68220654Y-120908947D01*
G37*
G36*
X112780460Y-66266524D02*
G01*
X112804487Y-66270889D01*
X112977030Y-66328754D01*
X113133810Y-66430833D01*
X113273986Y-66576176D01*
X113396714Y-66763832D01*
X113501154Y-66992851D01*
X113539087Y-67100299D01*
X113571337Y-67205275D01*
X113593737Y-67297868D01*
X113608643Y-67393102D01*
X113618412Y-67505997D01*
X113625342Y-67650008D01*
X113627746Y-67828306D01*
X113622190Y-68006841D01*
X113609569Y-68173418D01*
X113590780Y-68315845D01*
X113569262Y-68413554D01*
X113568418Y-68430878D01*
X113582749Y-68442898D01*
X113619593Y-68450874D01*
X113686285Y-68456069D01*
X113790164Y-68459744D01*
X113845866Y-68461120D01*
X114134467Y-68467809D01*
X114132507Y-69276423D01*
X114132585Y-69468728D01*
X114133698Y-69646381D01*
X114135731Y-69803655D01*
X114138566Y-69934824D01*
X114142088Y-70034162D01*
X114146180Y-70095945D01*
X114149543Y-70114176D01*
X114177724Y-70131666D01*
X114242781Y-70160536D01*
X114336369Y-70197421D01*
X114450144Y-70238953D01*
X114512350Y-70260532D01*
X115003676Y-70448857D01*
X115474729Y-70671023D01*
X115921416Y-70924324D01*
X116339644Y-71206051D01*
X116725322Y-71513498D01*
X117074357Y-71843956D01*
X117320627Y-72118464D01*
X117606122Y-72494930D01*
X117859858Y-72899749D01*
X118083175Y-73335606D01*
X118277410Y-73805187D01*
X118443906Y-74311179D01*
X118482855Y-74449176D01*
X118520217Y-74586729D01*
X118551024Y-74704641D01*
X118575903Y-74809415D01*
X118595484Y-74907558D01*
X118610398Y-75005573D01*
X118621273Y-75109965D01*
X118628738Y-75227240D01*
X118633424Y-75363900D01*
X118635960Y-75526453D01*
X118636974Y-75721401D01*
X118637098Y-75955251D01*
X118637050Y-76042621D01*
X118636773Y-76281367D01*
X118636089Y-76478165D01*
X118634741Y-76638635D01*
X118632472Y-76768395D01*
X118629025Y-76873062D01*
X118624142Y-76958256D01*
X118617565Y-77029594D01*
X118609038Y-77092695D01*
X118598304Y-77153178D01*
X118585104Y-77216659D01*
X118582805Y-77227201D01*
X118544575Y-77381858D01*
X118491833Y-77567219D01*
X118428856Y-77770292D01*
X118359921Y-77978083D01*
X118289305Y-78177600D01*
X118221284Y-78355850D01*
X118174237Y-78468464D01*
X117995870Y-78830576D01*
X117780226Y-79196027D01*
X117535255Y-79553426D01*
X117268908Y-79891383D01*
X116989135Y-80198508D01*
X116915938Y-80271164D01*
X116506644Y-80637592D01*
X116078593Y-80960330D01*
X115631674Y-81239425D01*
X115165775Y-81474922D01*
X114680783Y-81666869D01*
X114176588Y-81815312D01*
X113653077Y-81920297D01*
X113110139Y-81981871D01*
X112763277Y-81998276D01*
X112622897Y-82000716D01*
X112489535Y-82001620D01*
X112374822Y-82001008D01*
X112290388Y-81998903D01*
X112263839Y-81997352D01*
X111956326Y-81962649D01*
X111623634Y-81907838D01*
X111281955Y-81836280D01*
X110947481Y-81751336D01*
X110661618Y-81664774D01*
X110475378Y-81595714D01*
X110262910Y-81504357D01*
X110036214Y-81396709D01*
X109807289Y-81278779D01*
X109588137Y-81156572D01*
X109390758Y-81036095D01*
X109342516Y-81004483D01*
X108913253Y-80690297D01*
X108515306Y-80342063D01*
X108150568Y-79962450D01*
X107820928Y-79554126D01*
X107528278Y-79119758D01*
X107274509Y-78662014D01*
X107061510Y-78183563D01*
X106891174Y-77687072D01*
X106828750Y-77457696D01*
X106771194Y-77215899D01*
X106727181Y-76999506D01*
X106695119Y-76795192D01*
X106673418Y-76589633D01*
X106660485Y-76369503D01*
X106654729Y-76121478D01*
X106654054Y-75995056D01*
X106655115Y-75888986D01*
X106936383Y-75888986D01*
X106948733Y-76371829D01*
X106985498Y-76709439D01*
X107082627Y-77232049D01*
X107219553Y-77733026D01*
X107395468Y-78210196D01*
X107609558Y-78661389D01*
X107861014Y-79084432D01*
X107886514Y-79122629D01*
X108147304Y-79485190D01*
X108418364Y-79811824D01*
X108710181Y-80114167D01*
X109033244Y-80403856D01*
X109065056Y-80430407D01*
X109386470Y-80674301D01*
X109742906Y-80904013D01*
X110122490Y-81113319D01*
X110513349Y-81295996D01*
X110903610Y-81445820D01*
X111146049Y-81521165D01*
X111266518Y-81551459D01*
X111418781Y-81584692D01*
X111587429Y-81617938D01*
X111757052Y-81648270D01*
X111912241Y-81672762D01*
X112014120Y-81686014D01*
X112112520Y-81693178D01*
X112248138Y-81697707D01*
X112410706Y-81699737D01*
X112589957Y-81699405D01*
X112775623Y-81696847D01*
X112957438Y-81692201D01*
X113125133Y-81685603D01*
X113268442Y-81677189D01*
X113369883Y-81667967D01*
X113853078Y-81590351D01*
X114320972Y-81472225D01*
X114778433Y-81311878D01*
X115230326Y-81107602D01*
X115681520Y-80857686D01*
X115688558Y-80853429D01*
X115944906Y-80683966D01*
X116211553Y-80481852D01*
X116477355Y-80256893D01*
X116731164Y-80018894D01*
X116961836Y-79777662D01*
X117113463Y-79599876D01*
X117418930Y-79182356D01*
X117684660Y-78740209D01*
X117909575Y-78276522D01*
X118092594Y-77794383D01*
X118232640Y-77296877D01*
X118328634Y-76787091D01*
X118379497Y-76268113D01*
X118387902Y-75953402D01*
X118372703Y-75510574D01*
X118325514Y-75090190D01*
X118243946Y-74677461D01*
X118125611Y-74257600D01*
X118102704Y-74187565D01*
X117984511Y-73863536D01*
X117849684Y-73555251D01*
X117692530Y-73251626D01*
X117507358Y-72941577D01*
X117312230Y-72648148D01*
X117043785Y-72297532D01*
X116736198Y-71961030D01*
X116397384Y-71645819D01*
X116035259Y-71359078D01*
X115657737Y-71107984D01*
X115534536Y-71036089D01*
X115352713Y-70939541D01*
X115145606Y-70839552D01*
X114923235Y-70740192D01*
X114695617Y-70645531D01*
X114472772Y-70559638D01*
X114264719Y-70486583D01*
X114081475Y-70430435D01*
X113981058Y-70405077D01*
X113904558Y-70384586D01*
X113848227Y-70363213D01*
X113827803Y-70349319D01*
X113822243Y-70316862D01*
X113818655Y-70247268D01*
X113817356Y-70150938D01*
X113818529Y-70044170D01*
X113820305Y-69915107D01*
X113817090Y-69829078D01*
X113806081Y-69781601D01*
X113784470Y-69768193D01*
X113749453Y-69784374D01*
X113698222Y-69825661D01*
X113687563Y-69834974D01*
X113598756Y-69899801D01*
X113516429Y-69927901D01*
X113433896Y-69918028D01*
X113344470Y-69868938D01*
X113241462Y-69779388D01*
X113208180Y-69745760D01*
X113135913Y-69672411D01*
X113088677Y-69629691D01*
X113059457Y-69613076D01*
X113041242Y-69618042D01*
X113031409Y-69631712D01*
X112985008Y-69697444D01*
X112918418Y-69772379D01*
X112846325Y-69841531D01*
X112783411Y-69889911D01*
X112772191Y-69896315D01*
X112687711Y-69926135D01*
X112605437Y-69923295D01*
X112519281Y-69885256D01*
X112423157Y-69809480D01*
X112326199Y-69710348D01*
X112269326Y-69649483D01*
X112233403Y-69619361D01*
X112208202Y-69614801D01*
X112183495Y-69630622D01*
X112178164Y-69635368D01*
X112137488Y-69684855D01*
X112120090Y-69719718D01*
X112094073Y-69758241D01*
X112042056Y-69810233D01*
X111997149Y-69847387D01*
X111896426Y-69909447D01*
X111805930Y-69928960D01*
X111715311Y-69906263D01*
X111637370Y-69859101D01*
X111577400Y-69818261D01*
X111532581Y-69792443D01*
X111519055Y-69787752D01*
X111512031Y-69809904D01*
X111508084Y-69869996D01*
X111507539Y-69958480D01*
X111510080Y-70050997D01*
X111513228Y-70192559D01*
X111509061Y-70287575D01*
X111497554Y-70336503D01*
X111494287Y-70340881D01*
X111462190Y-70356404D01*
X111393390Y-70379882D01*
X111297476Y-70408325D01*
X111184033Y-70438746D01*
X111164152Y-70443784D01*
X110758894Y-70566491D01*
X110349599Y-70730447D01*
X109945216Y-70931139D01*
X109554692Y-71164058D01*
X109186977Y-71424693D01*
X109130498Y-71468950D01*
X108792132Y-71763893D01*
X108468678Y-72096846D01*
X108167270Y-72458893D01*
X107895046Y-72841118D01*
X107659140Y-73234604D01*
X107554305Y-73438408D01*
X107341479Y-73925431D01*
X107172859Y-74416383D01*
X107048861Y-74908881D01*
X106969897Y-75400543D01*
X106936383Y-75888986D01*
X106655115Y-75888986D01*
X106656783Y-75722139D01*
X106666523Y-75483149D01*
X106684653Y-75264780D01*
X106712551Y-75053727D01*
X106751596Y-74836687D01*
X106794784Y-74636655D01*
X106930158Y-74149924D01*
X107110009Y-73672715D01*
X107331550Y-73209175D01*
X107591999Y-72763449D01*
X107888569Y-72339683D01*
X108218476Y-71942021D01*
X108578937Y-71574610D01*
X108967165Y-71241594D01*
X109183970Y-71079937D01*
X109626004Y-70792969D01*
X110076785Y-70552370D01*
X110537532Y-70357539D01*
X110896329Y-70239357D01*
X111193614Y-70153070D01*
X111199860Y-69304494D01*
X111206106Y-68455917D01*
X111473362Y-68455923D01*
X111740618Y-68455929D01*
X111741153Y-67902974D01*
X111741379Y-67795813D01*
X112062575Y-67795813D01*
X112078276Y-68029478D01*
X112117373Y-68254337D01*
X112168357Y-68426683D01*
X112183071Y-68437299D01*
X112221558Y-68444884D01*
X112288828Y-68449678D01*
X112389889Y-68451923D01*
X112529751Y-68451861D01*
X112661643Y-68450466D01*
X113143801Y-68444026D01*
X113185502Y-68358771D01*
X113228307Y-68238751D01*
X113259330Y-68085459D01*
X113277835Y-67911888D01*
X113283083Y-67731030D01*
X113274338Y-67555880D01*
X113250860Y-67399430D01*
X113242053Y-67362662D01*
X113184155Y-67183450D01*
X113110084Y-67017453D01*
X113024420Y-66871521D01*
X112931739Y-66752504D01*
X112836621Y-66667253D01*
X112748205Y-66623787D01*
X112636505Y-66616977D01*
X112526643Y-66654748D01*
X112421197Y-66734120D01*
X112322745Y-66852114D01*
X112233866Y-67005752D01*
X112157139Y-67192054D01*
X112105211Y-67366664D01*
X112071233Y-67569491D01*
X112062575Y-67795813D01*
X111741379Y-67795813D01*
X111741528Y-67725524D01*
X111742731Y-67587608D01*
X111745461Y-67481197D01*
X111750417Y-67398259D01*
X111758300Y-67330764D01*
X111769807Y-67270680D01*
X111785639Y-67209978D01*
X111806493Y-67140627D01*
X111807933Y-67135973D01*
X111901155Y-66883156D01*
X112011034Y-66671976D01*
X112136719Y-66503172D01*
X112277355Y-66377486D01*
X112432093Y-66295656D01*
X112600078Y-66258422D01*
X112780460Y-66266524D01*
G37*
G36*
X122745332Y-101986300D02*
G01*
X122831297Y-101991643D01*
X122896954Y-101998422D01*
X122929409Y-102005269D01*
X122930412Y-102005981D01*
X122937827Y-102035067D01*
X122941981Y-102093504D01*
X122942303Y-102116657D01*
X122942303Y-102215512D01*
X123156348Y-102220095D01*
X123502281Y-102228118D01*
X123801083Y-102236373D01*
X124053187Y-102244881D01*
X124259026Y-102253663D01*
X124419034Y-102262741D01*
X124533645Y-102272136D01*
X124603291Y-102281869D01*
X124628408Y-102291963D01*
X124628502Y-102292855D01*
X124627225Y-102327677D01*
X124625608Y-102398953D01*
X124623877Y-102495575D01*
X124622556Y-102584194D01*
X124618989Y-102845805D01*
X123786592Y-102845805D01*
X122954195Y-102845805D01*
X122954195Y-102913664D01*
X122951703Y-102974407D01*
X122945267Y-103060629D01*
X122938809Y-103128730D01*
X122923422Y-103275935D01*
X123083007Y-103259586D01*
X123226499Y-103254970D01*
X123355887Y-103269315D01*
X123365949Y-103271508D01*
X123425340Y-103280375D01*
X123523644Y-103289610D01*
X123652216Y-103298644D01*
X123802414Y-103306906D01*
X123965593Y-103313823D01*
X124048202Y-103316566D01*
X124607097Y-103333352D01*
X124613798Y-103612799D01*
X124615546Y-103738674D01*
X124613317Y-103823312D01*
X124606591Y-103872914D01*
X124594843Y-103893684D01*
X124590015Y-103895246D01*
X124559710Y-103895814D01*
X124487602Y-103896054D01*
X124379453Y-103895982D01*
X124241024Y-103895610D01*
X124078077Y-103894954D01*
X123896374Y-103894027D01*
X123756863Y-103893198D01*
X122954195Y-103888151D01*
X122954195Y-104115119D01*
X122954195Y-104342087D01*
X123162294Y-104340965D01*
X123235142Y-104341584D01*
X123340059Y-104343846D01*
X123470011Y-104347476D01*
X123617965Y-104352200D01*
X123776886Y-104357745D01*
X123939740Y-104363835D01*
X124099494Y-104370196D01*
X124249114Y-104376555D01*
X124381565Y-104382637D01*
X124489814Y-104388168D01*
X124566826Y-104392874D01*
X124605569Y-104396480D01*
X124608731Y-104397353D01*
X124611812Y-104422138D01*
X124615518Y-104484711D01*
X124619358Y-104575307D01*
X124622511Y-104672229D01*
X124624802Y-104793941D01*
X124622983Y-104876278D01*
X124616286Y-104927312D01*
X124603943Y-104955116D01*
X124594835Y-104963204D01*
X124562653Y-104968824D01*
X124488073Y-104973880D01*
X124376259Y-104978231D01*
X124232375Y-104981737D01*
X124061586Y-104984259D01*
X123869056Y-104985655D01*
X123759934Y-104985890D01*
X122960336Y-104986254D01*
X122943553Y-105178659D01*
X122936992Y-105269085D01*
X122934373Y-105339569D01*
X122936055Y-105378169D01*
X122937413Y-105381707D01*
X122963331Y-105385514D01*
X123029565Y-105390010D01*
X123128875Y-105394855D01*
X123254023Y-105399704D01*
X123397769Y-105404218D01*
X123435235Y-105405239D01*
X123613660Y-105410323D01*
X123804734Y-105416388D01*
X123992689Y-105422891D01*
X124161758Y-105429292D01*
X124274993Y-105434073D01*
X124627571Y-105450018D01*
X124629226Y-105735412D01*
X124630880Y-106020805D01*
X123792905Y-106027054D01*
X122954930Y-106033304D01*
X122960508Y-106383796D01*
X122966086Y-106734288D01*
X123235887Y-106741034D01*
X123429991Y-106739270D01*
X123595204Y-106721095D01*
X123748345Y-106683252D01*
X123906236Y-106622478D01*
X123949795Y-106602680D01*
X124029867Y-106567347D01*
X124095397Y-106542039D01*
X124132425Y-106532138D01*
X124132767Y-106532134D01*
X124165162Y-106550869D01*
X124202397Y-106596658D01*
X124206573Y-106603483D01*
X124243324Y-106651551D01*
X124277305Y-106674506D01*
X124280536Y-106674831D01*
X124317748Y-106659342D01*
X124380256Y-106617609D01*
X124459434Y-106556732D01*
X124546658Y-106483808D01*
X124633302Y-106405939D01*
X124710741Y-106330224D01*
X124748227Y-106289879D01*
X124820346Y-106193927D01*
X124898706Y-106065937D01*
X124976363Y-105919570D01*
X125046372Y-105768490D01*
X125101791Y-105626359D01*
X125126725Y-105545149D01*
X125140398Y-105482780D01*
X125160019Y-105378537D01*
X125184759Y-105237629D01*
X125213788Y-105065263D01*
X125246277Y-104866647D01*
X125281398Y-104646987D01*
X125318321Y-104411492D01*
X125356217Y-104165368D01*
X125394258Y-103913824D01*
X125431614Y-103662066D01*
X125467456Y-103415302D01*
X125481649Y-103315876D01*
X125558408Y-102775179D01*
X125760562Y-102790153D01*
X125894793Y-102802603D01*
X125986380Y-102817743D01*
X126040234Y-102837184D01*
X126061265Y-102862537D01*
X126057921Y-102887755D01*
X126043118Y-102939457D01*
X126029943Y-103008492D01*
X126029343Y-103012604D01*
X126025361Y-103066210D01*
X126040343Y-103098570D01*
X126084913Y-103125615D01*
X126113252Y-103138446D01*
X126192651Y-103191479D01*
X126228213Y-103261913D01*
X126220329Y-103351026D01*
X126196509Y-103410745D01*
X126143399Y-103485544D01*
X126059188Y-103546109D01*
X126034063Y-103559288D01*
X125968736Y-103597195D01*
X125925544Y-103632307D01*
X125915150Y-103650418D01*
X125933396Y-103681426D01*
X125979725Y-103724278D01*
X126010059Y-103746547D01*
X126091807Y-103816436D01*
X126129182Y-103888884D01*
X126125079Y-103971776D01*
X126109365Y-104017258D01*
X126055797Y-104098558D01*
X125981867Y-104146730D01*
X125884660Y-104197049D01*
X125833171Y-104241716D01*
X125826509Y-104284570D01*
X125863783Y-104329448D01*
X125929541Y-104372165D01*
X125989113Y-104411392D01*
X126016045Y-104450543D01*
X126022172Y-104503851D01*
X126012400Y-104583053D01*
X125988842Y-104663235D01*
X125988303Y-104664534D01*
X125952181Y-104725061D01*
X125898140Y-104754903D01*
X125869127Y-104761598D01*
X125809519Y-104777340D01*
X125773518Y-104795306D01*
X125771144Y-104798110D01*
X125763294Y-104828005D01*
X125750522Y-104895839D01*
X125734413Y-104992434D01*
X125716552Y-105108610D01*
X125711045Y-105146210D01*
X125666057Y-105420379D01*
X125614783Y-105656338D01*
X125554049Y-105863340D01*
X125480685Y-106050638D01*
X125391516Y-106227486D01*
X125283371Y-106403136D01*
X125276624Y-106413221D01*
X125201798Y-106515314D01*
X125109870Y-106626835D01*
X125010518Y-106737292D01*
X124913420Y-106836193D01*
X124828252Y-106913047D01*
X124786777Y-106944296D01*
X124728628Y-106983090D01*
X124783661Y-107081008D01*
X124825658Y-107200212D01*
X124821136Y-107321536D01*
X124770562Y-107439705D01*
X124749120Y-107470323D01*
X124657508Y-107563410D01*
X124553815Y-107613660D01*
X124451339Y-107626142D01*
X124318335Y-107604768D01*
X124206341Y-107542950D01*
X124127892Y-107454040D01*
X124083048Y-107394058D01*
X124046609Y-107373336D01*
X124028832Y-107376099D01*
X123933064Y-107404781D01*
X123802222Y-107432525D01*
X123648792Y-107457679D01*
X123485260Y-107478596D01*
X123324114Y-107493625D01*
X123177838Y-107501117D01*
X123085000Y-107500783D01*
X122942303Y-107495337D01*
X122936004Y-108185037D01*
X122934032Y-108362446D01*
X122931556Y-108524996D01*
X122928723Y-108666430D01*
X122925681Y-108780491D01*
X122922580Y-108860921D01*
X122919569Y-108901464D01*
X122918913Y-108904466D01*
X122889290Y-108928205D01*
X122841498Y-108933515D01*
X122803570Y-108918339D01*
X122799235Y-108891149D01*
X122795352Y-108822971D01*
X122792091Y-108720384D01*
X122789622Y-108589964D01*
X122788114Y-108438291D01*
X122787715Y-108304744D01*
X122786995Y-108102469D01*
X122784723Y-107944090D01*
X122780731Y-107825961D01*
X122774851Y-107744431D01*
X122766916Y-107695853D01*
X122758902Y-107678190D01*
X122741850Y-107637210D01*
X122736093Y-107572252D01*
X122736812Y-107556263D01*
X122730429Y-107481632D01*
X122694344Y-107436148D01*
X122622823Y-107415044D01*
X122563342Y-107412097D01*
X122506306Y-107416421D01*
X122482682Y-107435707D01*
X122478539Y-107470150D01*
X122468511Y-107524491D01*
X122433953Y-107546231D01*
X122368157Y-107538327D01*
X122341323Y-107530617D01*
X122269147Y-107504700D01*
X122180260Y-107467749D01*
X122084700Y-107424614D01*
X121992502Y-107380141D01*
X121913702Y-107339178D01*
X121858337Y-107306574D01*
X121836442Y-107287175D01*
X121836404Y-107286727D01*
X121850526Y-107255642D01*
X121885588Y-107206324D01*
X121896999Y-107192362D01*
X121957595Y-107120349D01*
X121882308Y-107070015D01*
X121664148Y-106902917D01*
X121459793Y-106705704D01*
X121282826Y-106492179D01*
X121212546Y-106389438D01*
X121164375Y-106311273D01*
X121104633Y-106210639D01*
X121037364Y-106094758D01*
X120966609Y-105970855D01*
X120896414Y-105846155D01*
X120830821Y-105727881D01*
X120773874Y-105623257D01*
X120729615Y-105539507D01*
X120702089Y-105483855D01*
X120694831Y-105464455D01*
X120713570Y-105439901D01*
X120724560Y-105437967D01*
X120757271Y-105425676D01*
X120818038Y-105393138D01*
X120895421Y-105346615D01*
X120920048Y-105330944D01*
X120998202Y-105281762D01*
X121060912Y-105244531D01*
X121097717Y-105225387D01*
X121102312Y-105224082D01*
X121119543Y-105243736D01*
X121153631Y-105297023D01*
X121199381Y-105375433D01*
X121243627Y-105455605D01*
X121332924Y-105616579D01*
X121430409Y-105784343D01*
X121529883Y-105948823D01*
X121625147Y-106099944D01*
X121710002Y-106227633D01*
X121770076Y-106311219D01*
X121823148Y-106373828D01*
X121893266Y-106447062D01*
X121971818Y-106523064D01*
X122050193Y-106593978D01*
X122119776Y-106651947D01*
X122171958Y-106689113D01*
X122194729Y-106698614D01*
X122216913Y-106678827D01*
X122244706Y-106629822D01*
X122251070Y-106615374D01*
X122282675Y-106561365D01*
X122316766Y-106533267D01*
X122323416Y-106532134D01*
X122362809Y-106542383D01*
X122429470Y-106569206D01*
X122506301Y-106605491D01*
X122586162Y-106641593D01*
X122642741Y-106658697D01*
X122666156Y-106655451D01*
X122670719Y-106624666D01*
X122673774Y-106555081D01*
X122675155Y-106455446D01*
X122674698Y-106334508D01*
X122673584Y-106261027D01*
X122666475Y-105890000D01*
X122276626Y-105890000D01*
X122145756Y-105888967D01*
X122032616Y-105886111D01*
X121945284Y-105881793D01*
X121891836Y-105876376D01*
X121878924Y-105872163D01*
X121876269Y-105841759D01*
X121875914Y-105775875D01*
X121877841Y-105686543D01*
X121879250Y-105646869D01*
X121887428Y-105439412D01*
X122224604Y-105432824D01*
X122561779Y-105426236D01*
X122566961Y-103702339D01*
X122572143Y-101978442D01*
X122745332Y-101986300D01*
G37*
D11*
X111260000Y-86452500D03*
X111260000Y-88527500D03*
D12*
X109505000Y-169545000D03*
D13*
X106965000Y-169545000D03*
D11*
X123430000Y-120270000D03*
X123430000Y-122345000D03*
D14*
X101820000Y-35880800D03*
D15*
X107910000Y-108590000D03*
X107910000Y-111890000D03*
X112810000Y-111890000D03*
X112810000Y-108590000D03*
X134600000Y-141620000D03*
X134600000Y-144920000D03*
X139500000Y-144920000D03*
X139500000Y-141620000D03*
D16*
X87170000Y-131567500D03*
X87170000Y-129492500D03*
D14*
X101820000Y-105880800D03*
D16*
X88800000Y-97717500D03*
X88800000Y-95642500D03*
D15*
X85670000Y-98432500D03*
X85670000Y-95132500D03*
X80770000Y-95132500D03*
X80770000Y-98432500D03*
D11*
X104760000Y-109342500D03*
X104760000Y-111417500D03*
D15*
X114260000Y-85690000D03*
X114260000Y-88990000D03*
X119160000Y-88990000D03*
X119160000Y-85690000D03*
X110400000Y-130290000D03*
X110400000Y-133590000D03*
X115300000Y-133590000D03*
X115300000Y-130290000D03*
D17*
X92237500Y-49100000D03*
X95537500Y-49100000D03*
X95537500Y-44200000D03*
X92237500Y-44200000D03*
D15*
X66860000Y-144312500D03*
X66860000Y-141012500D03*
X61960000Y-141012500D03*
X61960000Y-144312500D03*
D11*
X107530000Y-130882500D03*
X107530000Y-132957500D03*
D18*
X97872000Y-105830000D03*
D19*
X98380000Y-105830000D03*
D15*
X109270000Y-59900000D03*
X109270000Y-63200000D03*
X114170000Y-63200000D03*
X114170000Y-59900000D03*
D16*
X92170000Y-74040000D03*
X92170000Y-71965000D03*
D11*
X106390000Y-60552500D03*
X106390000Y-62627500D03*
D16*
X69670000Y-143717500D03*
X69670000Y-141642500D03*
D15*
X73630000Y-115590000D03*
X73630000Y-112290000D03*
X68730000Y-112290000D03*
X68730000Y-115590000D03*
D11*
X131770000Y-142312500D03*
X131770000Y-144387500D03*
D15*
X84250000Y-132310000D03*
X84250000Y-129010000D03*
X79350000Y-129010000D03*
X79350000Y-132310000D03*
D18*
X97872000Y-35830000D03*
D19*
X98380000Y-35830000D03*
D12*
X95950000Y-169545000D03*
D13*
X93410000Y-169545000D03*
X90870000Y-169545000D03*
D15*
X126380000Y-119480000D03*
X126380000Y-122780000D03*
X131280000Y-122780000D03*
X131280000Y-119480000D03*
D20*
X92932500Y-52060000D03*
X95007500Y-52060000D03*
D16*
X76620000Y-114927500D03*
X76620000Y-112852500D03*
D15*
X89150000Y-74762500D03*
X89150000Y-71462500D03*
X84250000Y-71462500D03*
X84250000Y-74762500D03*
D21*
X86655000Y-80725000D03*
X85410000Y-144580000D03*
X91345000Y-118525000D03*
X95402500Y-61092500D03*
X82537500Y-102642500D03*
X70850000Y-131200000D03*
X104450000Y-98570000D03*
X127240000Y-130160000D03*
X115820000Y-81960000D03*
X104110000Y-59030000D03*
X117270000Y-112110000D03*
X117190000Y-145400000D03*
X123420000Y-123890000D03*
X141550000Y-145800000D03*
X81540000Y-71440000D03*
X94550000Y-71950000D03*
X67110000Y-112300000D03*
X61960000Y-139460000D03*
X95550000Y-42520000D03*
X76610000Y-111370000D03*
X79080000Y-95140000D03*
X121150000Y-88450000D03*
X114510000Y-111900000D03*
X111260000Y-90000000D03*
X87900000Y-93710000D03*
X106390000Y-64030000D03*
X95620000Y-59350000D03*
X88650000Y-129480000D03*
X95007500Y-55330000D03*
X115920000Y-63220000D03*
X132950000Y-122790000D03*
X68860000Y-139620000D03*
X77450000Y-129610000D03*
X105810000Y-132950000D03*
X130200000Y-144380000D03*
X116920000Y-133600000D03*
X103130000Y-111430000D03*
M02*
