%TF.GenerationSoftware,KiCad,Pcbnew,8.0.6*%
%TF.CreationDate,2024-11-23T10:35:45+01:00*%
%TF.ProjectId,ChristmasTree,43687269-7374-46d6-9173-547265652e6b,rev?*%
%TF.SameCoordinates,Original*%
%TF.FileFunction,Drillmap*%
%TF.FilePolarity,Positive*%
%FSLAX45Y45*%
G04 Gerber Fmt 4.5, Leading zero omitted, Abs format (unit mm)*
G04 Created by KiCad (PCBNEW 8.0.6) date 2024-11-23 10:35:45*
%MOMM*%
%LPD*%
G01*
G04 APERTURE LIST*
%ADD10C,0.100000*%
%ADD11C,0.200000*%
G04 APERTURE END LIST*
D10*
X8163262Y-5390360D02*
X8172243Y-5380016D01*
X8181192Y-5369692D01*
X8190109Y-5359389D01*
X8198991Y-5349108D01*
X8207837Y-5338850D01*
X8216645Y-5328617D01*
X8225412Y-5318408D01*
X8234138Y-5308226D01*
X8242820Y-5298071D01*
X8251455Y-5287945D01*
X8260044Y-5277849D01*
X8268583Y-5267783D01*
X8277070Y-5257749D01*
X8285504Y-5247748D01*
X8293883Y-5237782D01*
X8302205Y-5227850D01*
X8310468Y-5217955D01*
X8318671Y-5208096D01*
X8326810Y-5198277D01*
X8334886Y-5188497D01*
X8342894Y-5178757D01*
X8350835Y-5169059D01*
X8358705Y-5159404D01*
X8366504Y-5149793D01*
X8374228Y-5140227D01*
X8381877Y-5130707D01*
X8389448Y-5121234D01*
X8396940Y-5111810D01*
X8404350Y-5102435D01*
X8411676Y-5093110D01*
X8418918Y-5083837D01*
X8426073Y-5074617D01*
X4288000Y-15290000D02*
X4218846Y-15300272D01*
X4157298Y-15305857D01*
X4103150Y-15306909D01*
X4056197Y-15303582D01*
X4016232Y-15296029D01*
X3983050Y-15284405D01*
X3956446Y-15268864D01*
X3936213Y-15249560D01*
X3922147Y-15226647D01*
X3914041Y-15200279D01*
X3911689Y-15170609D01*
X3914887Y-15137792D01*
X3923428Y-15101982D01*
X3937106Y-15063333D01*
X3955717Y-15021999D01*
X3979054Y-14978134D01*
X4006912Y-14931891D01*
X4039084Y-14883426D01*
X4075366Y-14832891D01*
X4115552Y-14780441D01*
X4159435Y-14726230D01*
X4206811Y-14670413D01*
X4257474Y-14613142D01*
X4311217Y-14554572D01*
X4367836Y-14494856D01*
X4427125Y-14434150D01*
X4488877Y-14372607D01*
X4552888Y-14310381D01*
X4618951Y-14247626D01*
X4686861Y-14184495D01*
X4756413Y-14121144D01*
X4827400Y-14057726D01*
X11104010Y-15482616D02*
X11104010Y-16998492D01*
X15683759Y-15290000D02*
X15611623Y-15276143D01*
X15541161Y-15260107D01*
X15472218Y-15242192D01*
X15404639Y-15222702D01*
X15338269Y-15201935D01*
X15272953Y-15180195D01*
X15208536Y-15157782D01*
X15144863Y-15134997D01*
X15081778Y-15112142D01*
X15019127Y-15089518D01*
X14956754Y-15067426D01*
X14894505Y-15046168D01*
X14832223Y-15026044D01*
X14769755Y-15007356D01*
X14706946Y-14990406D01*
X14643639Y-14975494D01*
X14579680Y-14962923D01*
X14514913Y-14952992D01*
X14449185Y-14946004D01*
X14382339Y-14942259D01*
X14314220Y-14942059D01*
X14244675Y-14945706D01*
X14173546Y-14953500D01*
X14100680Y-14965743D01*
X14025920Y-14982736D01*
X13949113Y-15004780D01*
X13870103Y-15032177D01*
X13788735Y-15065227D01*
X13704853Y-15104233D01*
X13618304Y-15149495D01*
X13528931Y-15201315D01*
X13436579Y-15259994D01*
X6535183Y-15259994D02*
X6442831Y-15201315D01*
X6353457Y-15149495D01*
X6266907Y-15104233D01*
X6183026Y-15065227D01*
X6101657Y-15032177D01*
X6022647Y-15004780D01*
X5945840Y-14982736D01*
X5871080Y-14965743D01*
X5798214Y-14953500D01*
X5727085Y-14945706D01*
X5657539Y-14942059D01*
X5589421Y-14942259D01*
X5522575Y-14946004D01*
X5456846Y-14952992D01*
X5392080Y-14962923D01*
X5328121Y-14975494D01*
X5264814Y-14990406D01*
X5202004Y-15007356D01*
X5139536Y-15026044D01*
X5077255Y-15046168D01*
X5015005Y-15067426D01*
X4952632Y-15089518D01*
X4889981Y-15112142D01*
X4826896Y-15134997D01*
X4763223Y-15157782D01*
X4698806Y-15180195D01*
X4633490Y-15201935D01*
X4567120Y-15222702D01*
X4499541Y-15242192D01*
X4430598Y-15260107D01*
X4360136Y-15276143D01*
X4288000Y-15290000D01*
X11081428Y-4378933D02*
X11093987Y-4400545D01*
X11106662Y-4422183D01*
X11119452Y-4443847D01*
X11132359Y-4465534D01*
X11145384Y-4487242D01*
X11158528Y-4508970D01*
X11171792Y-4530715D01*
X11185178Y-4552477D01*
X11198686Y-4574252D01*
X11212318Y-4596039D01*
X11226074Y-4617836D01*
X11239956Y-4639642D01*
X11253965Y-4661454D01*
X11268102Y-4683271D01*
X11282368Y-4705090D01*
X11296764Y-4726910D01*
X11311291Y-4748729D01*
X11325950Y-4770545D01*
X11340743Y-4792357D01*
X11355670Y-4814161D01*
X11370733Y-4835957D01*
X11385933Y-4857743D01*
X11401270Y-4879517D01*
X11416746Y-4901276D01*
X11432363Y-4923019D01*
X11448120Y-4944745D01*
X11464020Y-4966450D01*
X11480062Y-4988135D01*
X11496250Y-5009795D01*
X11512582Y-5031430D01*
X11529062Y-5053038D01*
X11545689Y-5074617D01*
X6390903Y-20834945D02*
X5990859Y-20834945D01*
X5512490Y-13015277D02*
X5515540Y-13004183D01*
X5516819Y-12992759D01*
X5515386Y-12982685D01*
X5508614Y-12976140D01*
X6461113Y-10879904D02*
X6463689Y-10869393D01*
X6462005Y-10859021D01*
X6454604Y-10850503D01*
X6443983Y-10846742D01*
X6436411Y-10846419D01*
X13580856Y-20834945D02*
X13578382Y-20702275D01*
X13571014Y-20570505D01*
X13558831Y-20439741D01*
X13541910Y-20310089D01*
X13520331Y-20181652D01*
X13494173Y-20054536D01*
X13463514Y-19928847D01*
X13428434Y-19804688D01*
X13389011Y-19682166D01*
X13345323Y-19561385D01*
X13297451Y-19442450D01*
X13245472Y-19325467D01*
X13189465Y-19210539D01*
X13129509Y-19097773D01*
X13065684Y-18987273D01*
X12998067Y-18879144D01*
X12926738Y-18773492D01*
X12851775Y-18670421D01*
X12773257Y-18570037D01*
X12691264Y-18472444D01*
X12605873Y-18377747D01*
X12517164Y-18286052D01*
X12425215Y-18197463D01*
X12330105Y-18112085D01*
X12231914Y-18030025D01*
X12130719Y-17951385D01*
X12026600Y-17876273D01*
X11919636Y-17804791D01*
X11809904Y-17737047D01*
X11697485Y-17673144D01*
X11582457Y-17613188D01*
X11464898Y-17557283D01*
X11464898Y-17557283D02*
X11451190Y-17551095D01*
X11437451Y-17544964D01*
X11423681Y-17538892D01*
X11409880Y-17532877D01*
X11396048Y-17526921D01*
X11382185Y-17521022D01*
X11368291Y-17515181D01*
X11354366Y-17509398D01*
X11340410Y-17503673D01*
X11326423Y-17498006D01*
X11312405Y-17492397D01*
X11298356Y-17486845D01*
X11284276Y-17481352D01*
X11270165Y-17475916D01*
X11256023Y-17470538D01*
X11241850Y-17465218D01*
X11227646Y-17459956D01*
X11213412Y-17454751D01*
X11199146Y-17449605D01*
X11184849Y-17444516D01*
X11170521Y-17439485D01*
X11156162Y-17434512D01*
X11141772Y-17429596D01*
X11127352Y-17424739D01*
X11112900Y-17419939D01*
X11098417Y-17415197D01*
X11083903Y-17410513D01*
X11069358Y-17405886D01*
X11054782Y-17401318D01*
X11040175Y-17396807D01*
X11025538Y-17392353D01*
X11010869Y-17387958D01*
X9984649Y-17387958D02*
X8960888Y-17387958D01*
X7752265Y-6595797D02*
X7682805Y-6602519D01*
X7621603Y-6604738D01*
X7568362Y-6602618D01*
X7522789Y-6596321D01*
X7484588Y-6586013D01*
X7453466Y-6571858D01*
X7429126Y-6554019D01*
X7411275Y-6532660D01*
X7399618Y-6507945D01*
X7393861Y-6480038D01*
X7393707Y-6449103D01*
X7398864Y-6415304D01*
X7409036Y-6378805D01*
X7423928Y-6339770D01*
X7443246Y-6298363D01*
X7466696Y-6254748D01*
X7493982Y-6209088D01*
X7524809Y-6161548D01*
X7558884Y-6112292D01*
X7595911Y-6061483D01*
X7635596Y-6009285D01*
X7677644Y-5955863D01*
X7721760Y-5901381D01*
X7767650Y-5846001D01*
X7815019Y-5789889D01*
X7863572Y-5733208D01*
X7913016Y-5676123D01*
X7963054Y-5618796D01*
X8013392Y-5561393D01*
X8063736Y-5504076D01*
X8113791Y-5447011D01*
X8163262Y-5390360D01*
X8960888Y-17387958D02*
X8820268Y-17432862D01*
X8682447Y-17483276D01*
X8547534Y-17539054D01*
X8415638Y-17600050D01*
X8286868Y-17666119D01*
X8161333Y-17737116D01*
X8039143Y-17812893D01*
X7920407Y-17893306D01*
X7805234Y-17978209D01*
X7693733Y-18067456D01*
X7586014Y-18160901D01*
X7482186Y-18258399D01*
X7382358Y-18359803D01*
X7286639Y-18464969D01*
X7195139Y-18573750D01*
X7107966Y-18686000D01*
X7025230Y-18801575D01*
X6947040Y-18920327D01*
X6873506Y-19042112D01*
X6804737Y-19166783D01*
X6740841Y-19294195D01*
X6681928Y-19424203D01*
X6628108Y-19556660D01*
X6579489Y-19691420D01*
X6536182Y-19828338D01*
X6498294Y-19967269D01*
X6465935Y-20108066D01*
X6439215Y-20250583D01*
X6418242Y-20394676D01*
X6403126Y-20540197D01*
X6393977Y-20687003D01*
X6390903Y-20834945D01*
X13980903Y-20834945D02*
X13580859Y-20834945D01*
X12945859Y-8794659D02*
X12934894Y-8796781D01*
X12925290Y-8802705D01*
X12919652Y-8811665D01*
X12918536Y-8822950D01*
X12920814Y-8832040D01*
X10075668Y-2415024D02*
X10099549Y-2432369D01*
X10123216Y-2453700D01*
X10146740Y-2478904D01*
X10170191Y-2507864D01*
X10193639Y-2540467D01*
X10217154Y-2576598D01*
X10240806Y-2616142D01*
X10264665Y-2658986D01*
X10288801Y-2705013D01*
X10313284Y-2754110D01*
X10338184Y-2806162D01*
X10363571Y-2861054D01*
X10389515Y-2918673D01*
X10416087Y-2978902D01*
X10443355Y-3041629D01*
X10471391Y-3106737D01*
X10500264Y-3174113D01*
X10530044Y-3243642D01*
X10560801Y-3315209D01*
X10592605Y-3388700D01*
X10625527Y-3464000D01*
X10659636Y-3540994D01*
X10695002Y-3619569D01*
X10731696Y-3699609D01*
X10769786Y-3781000D01*
X10809345Y-3863627D01*
X10850440Y-3947376D01*
X10893143Y-4032131D01*
X10937523Y-4117780D01*
X10983650Y-4204206D01*
X11031595Y-4291295D01*
X11081428Y-4378933D01*
X8840587Y-15435349D02*
X8826271Y-15431785D01*
X8811762Y-15428237D01*
X8797059Y-15424706D01*
X8782160Y-15421191D01*
X8767062Y-15417692D01*
X8751764Y-15414209D01*
X8736264Y-15410743D01*
X8720558Y-15407294D01*
X8704646Y-15403861D01*
X8688526Y-15400444D01*
X8672194Y-15397045D01*
X8655650Y-15393662D01*
X8638890Y-15390295D01*
X8621914Y-15386946D01*
X8604718Y-15383613D01*
X8587302Y-15380297D01*
X6436411Y-10846419D02*
X6423818Y-10846835D01*
X6411034Y-10847096D01*
X6398056Y-10847195D01*
X6384882Y-10847126D01*
X6371507Y-10846880D01*
X6357928Y-10846453D01*
X6344142Y-10845835D01*
X6330146Y-10845021D01*
X6315936Y-10844003D01*
X6301509Y-10842775D01*
X6291769Y-10841836D01*
X8890334Y-4378933D02*
X8940009Y-4291522D01*
X8987810Y-4204650D01*
X9033806Y-4118432D01*
X9078067Y-4032983D01*
X9120663Y-3948415D01*
X9161661Y-3864843D01*
X9201132Y-3782381D01*
X9239144Y-3701142D01*
X9275768Y-3621242D01*
X9311072Y-3542794D01*
X9345125Y-3465911D01*
X9377996Y-3390709D01*
X9409756Y-3317300D01*
X9440473Y-3245799D01*
X9470216Y-3176321D01*
X9499055Y-3108978D01*
X9527059Y-3043886D01*
X9554297Y-2981157D01*
X9580839Y-2920906D01*
X9606753Y-2863248D01*
X9632109Y-2808295D01*
X9656976Y-2756163D01*
X9681423Y-2706965D01*
X9705520Y-2660814D01*
X9729336Y-2617826D01*
X9752940Y-2578114D01*
X9776402Y-2541792D01*
X9799790Y-2508974D01*
X9823174Y-2479774D01*
X9846622Y-2454306D01*
X9870206Y-2432685D01*
X9893993Y-2415024D01*
X13006184Y-8790423D02*
X12994552Y-8791529D01*
X12983067Y-8792492D01*
X12971730Y-8793312D01*
X12960542Y-8793987D01*
X12949505Y-8794516D01*
X12945859Y-8794659D01*
X5492027Y-12973314D02*
X5389717Y-12952596D01*
X5303166Y-12929502D01*
X5231655Y-12903981D01*
X5174464Y-12875982D01*
X5130870Y-12845455D01*
X5100155Y-12812349D01*
X5081597Y-12776612D01*
X5074475Y-12738195D01*
X5078070Y-12697045D01*
X5091661Y-12653114D01*
X5114526Y-12606349D01*
X5145946Y-12556701D01*
X5185200Y-12504117D01*
X5231567Y-12448548D01*
X5284327Y-12389943D01*
X5342759Y-12328251D01*
X5406143Y-12263421D01*
X5473758Y-12195402D01*
X5544884Y-12124144D01*
X5618799Y-12049596D01*
X5694784Y-11971707D01*
X5772117Y-11890426D01*
X5850079Y-11805703D01*
X5927949Y-11717486D01*
X6005005Y-11625726D01*
X6080528Y-11530370D01*
X6153797Y-11431369D01*
X6224092Y-11328672D01*
X6290691Y-11222228D01*
X6352875Y-11111985D01*
X6409922Y-10997895D01*
X6461113Y-10879904D01*
X9893993Y-2415024D02*
X9893993Y-9924961D01*
X5990859Y-20834945D02*
X5991746Y-20749894D01*
X5994395Y-20665278D01*
X5998788Y-20581115D01*
X6004909Y-20497421D01*
X6012739Y-20414215D01*
X6022261Y-20331514D01*
X6033457Y-20249335D01*
X6046310Y-20167696D01*
X6060802Y-20086613D01*
X6076916Y-20006106D01*
X6094634Y-19926190D01*
X6113938Y-19846884D01*
X6134811Y-19768205D01*
X6157235Y-19690170D01*
X6181193Y-19612797D01*
X6206667Y-19536102D01*
X6233640Y-19460105D01*
X6262094Y-19384822D01*
X6292012Y-19310270D01*
X6323375Y-19236467D01*
X6356167Y-19163430D01*
X6390369Y-19091177D01*
X6425965Y-19019726D01*
X6462936Y-18949093D01*
X6501265Y-18879296D01*
X6540935Y-18810352D01*
X6581928Y-18742280D01*
X6624226Y-18675096D01*
X6667812Y-18608818D01*
X6712668Y-18543463D01*
X6758777Y-18479049D01*
X6806121Y-18415593D01*
X7779429Y-6627889D02*
X7781262Y-6617122D01*
X7778838Y-6606788D01*
X7770813Y-6598707D01*
X7759889Y-6595625D01*
X7752265Y-6595797D01*
X7025902Y-8794659D02*
X7014916Y-8794183D01*
X7003778Y-8793557D01*
X6992490Y-8792785D01*
X6981054Y-8791868D01*
X6969471Y-8790808D01*
X6965577Y-8790423D01*
X7050948Y-8832040D02*
X7053364Y-8821223D01*
X7051568Y-8810229D01*
X7045329Y-8801661D01*
X7035205Y-8796228D01*
X7025902Y-8794659D01*
X13436579Y-15259994D02*
X13345634Y-15317769D01*
X13258718Y-15368063D01*
X13175601Y-15411274D01*
X13096052Y-15447802D01*
X13019842Y-15478048D01*
X12946742Y-15502410D01*
X12876520Y-15521289D01*
X12808948Y-15535083D01*
X12743796Y-15544194D01*
X12680833Y-15549021D01*
X12619830Y-15549962D01*
X12560558Y-15547419D01*
X12502785Y-15541791D01*
X12446283Y-15533477D01*
X12390822Y-15522878D01*
X12336171Y-15510392D01*
X12282101Y-15496420D01*
X12228382Y-15481362D01*
X12174785Y-15465616D01*
X12121079Y-15449584D01*
X12067034Y-15433664D01*
X12012422Y-15418256D01*
X11957011Y-15403761D01*
X11900572Y-15390577D01*
X11842875Y-15379105D01*
X11783691Y-15369744D01*
X11722790Y-15362893D01*
X11659941Y-15358954D01*
X11594915Y-15358325D01*
X11527482Y-15361406D01*
X11457412Y-15368597D01*
X11384476Y-15380297D01*
X11010869Y-17387958D02*
X9987110Y-17387958D01*
X12920814Y-8832040D02*
X12968669Y-8944744D01*
X13021384Y-9054252D01*
X13078319Y-9160562D01*
X13138830Y-9263671D01*
X13202278Y-9363577D01*
X13268019Y-9460277D01*
X13335412Y-9553770D01*
X13403815Y-9644053D01*
X13472586Y-9731123D01*
X13541085Y-9814979D01*
X13608668Y-9895618D01*
X13674695Y-9973038D01*
X13738522Y-10047236D01*
X13799510Y-10118210D01*
X13857016Y-10185958D01*
X13910397Y-10250478D01*
X13959014Y-10311767D01*
X14002222Y-10369823D01*
X14039382Y-10424643D01*
X14069851Y-10476226D01*
X14092987Y-10524568D01*
X14108149Y-10569669D01*
X14114695Y-10611524D01*
X14111983Y-10650133D01*
X14099371Y-10685493D01*
X14076218Y-10717601D01*
X14041882Y-10746455D01*
X13995721Y-10772053D01*
X13937093Y-10794392D01*
X13865357Y-10813470D01*
X13779871Y-10829286D01*
X13679993Y-10841836D01*
X12192332Y-6627889D02*
X12234579Y-6749522D01*
X12282983Y-6867694D01*
X12336819Y-6982403D01*
X12395364Y-7093646D01*
X12457894Y-7201420D01*
X12523684Y-7305722D01*
X12592011Y-7406551D01*
X12662149Y-7503902D01*
X12733375Y-7597775D01*
X12804965Y-7688165D01*
X12876194Y-7775071D01*
X12946338Y-7858489D01*
X13014673Y-7938417D01*
X13080475Y-8014853D01*
X13143020Y-8087793D01*
X13201584Y-8157235D01*
X13255442Y-8223177D01*
X13303870Y-8285615D01*
X13346143Y-8344548D01*
X13381539Y-8399972D01*
X13409332Y-8451884D01*
X13428799Y-8500283D01*
X13439215Y-8545165D01*
X13439856Y-8586528D01*
X13429998Y-8624369D01*
X13408917Y-8658686D01*
X13375888Y-8689476D01*
X13330187Y-8716735D01*
X13271091Y-8740463D01*
X13197874Y-8760655D01*
X13109813Y-8777309D01*
X13006184Y-8790423D01*
X6965577Y-8790423D02*
X6861949Y-8777309D01*
X6773890Y-8760655D01*
X6700675Y-8740463D01*
X6641579Y-8716735D01*
X6595879Y-8689476D01*
X6562851Y-8658686D01*
X6541770Y-8624369D01*
X6531912Y-8586528D01*
X6532553Y-8545165D01*
X6542969Y-8500283D01*
X6562436Y-8451884D01*
X6590229Y-8399972D01*
X6625624Y-8344548D01*
X6667898Y-8285615D01*
X6716325Y-8223177D01*
X6770183Y-8157235D01*
X6828746Y-8087793D01*
X6891290Y-8014853D01*
X6957092Y-7938417D01*
X7025427Y-7858489D01*
X7095570Y-7775071D01*
X7166799Y-7688165D01*
X7238388Y-7597775D01*
X7309614Y-7503902D01*
X7379752Y-7406551D01*
X7448078Y-7305722D01*
X7513867Y-7201420D01*
X7576397Y-7093646D01*
X7634942Y-6982403D01*
X7688779Y-6867694D01*
X7737182Y-6749522D01*
X7779429Y-6627889D01*
X12801580Y-18000738D02*
X12869024Y-18069381D01*
X12934814Y-18139628D01*
X12998918Y-18211447D01*
X13061304Y-18284805D01*
X13121939Y-18359672D01*
X13180792Y-18436014D01*
X13237831Y-18513801D01*
X13293024Y-18593001D01*
X13346339Y-18673581D01*
X13397745Y-18755510D01*
X13447209Y-18838757D01*
X13494699Y-18923289D01*
X13540184Y-19009075D01*
X13583631Y-19096083D01*
X13625009Y-19184281D01*
X13664286Y-19273637D01*
X13701429Y-19364120D01*
X13736408Y-19455698D01*
X13769190Y-19548339D01*
X13799742Y-19642011D01*
X13828034Y-19736682D01*
X13854033Y-19832321D01*
X13877707Y-19928897D01*
X13899025Y-20026376D01*
X13917955Y-20124727D01*
X13934464Y-20223920D01*
X13948520Y-20323921D01*
X13960093Y-20424699D01*
X13969149Y-20526222D01*
X13975658Y-20628459D01*
X13979586Y-20731377D01*
X13980903Y-20834945D01*
X13535350Y-10846419D02*
X13524386Y-10847424D01*
X13514804Y-10852250D01*
X13508794Y-10861742D01*
X13508509Y-10872755D01*
X13510665Y-10879904D01*
X8867749Y-15482616D02*
X8867027Y-15470838D01*
X8864646Y-15459739D01*
X8860283Y-15449919D01*
X8853617Y-15441978D01*
X8844324Y-15436515D01*
X8840587Y-15435349D01*
X5508614Y-12976140D02*
X5498359Y-12974380D01*
X5492027Y-12973314D01*
X13679993Y-10841836D02*
X13665419Y-10843209D01*
X13651065Y-10844367D01*
X13636928Y-10845318D01*
X13623004Y-10846066D01*
X13609289Y-10846621D01*
X13595780Y-10846987D01*
X13582473Y-10847173D01*
X13569364Y-10847185D01*
X13556450Y-10847030D01*
X13543728Y-10846714D01*
X13535350Y-10846419D01*
X11545689Y-5074617D02*
X11552843Y-5083837D01*
X11560085Y-5093110D01*
X11567411Y-5102435D01*
X11574821Y-5111810D01*
X11582313Y-5121234D01*
X11589884Y-5130707D01*
X11597532Y-5140227D01*
X11605257Y-5149793D01*
X11613055Y-5159404D01*
X11620925Y-5169059D01*
X11628866Y-5178757D01*
X11636875Y-5188497D01*
X11644950Y-5198277D01*
X11653090Y-5208096D01*
X11661293Y-5217955D01*
X11669556Y-5227850D01*
X11677879Y-5237782D01*
X11686258Y-5247748D01*
X11694693Y-5257749D01*
X11703181Y-5267783D01*
X11711720Y-5277849D01*
X11720309Y-5287945D01*
X11728946Y-5298071D01*
X11737629Y-5308226D01*
X11746355Y-5318408D01*
X11755124Y-5328617D01*
X11763933Y-5338850D01*
X11772780Y-5349108D01*
X11781664Y-5359389D01*
X11790582Y-5369692D01*
X11799533Y-5380016D01*
X11808515Y-5390360D01*
X11384476Y-15380297D02*
X11367056Y-15383613D01*
X11349858Y-15386946D01*
X11332879Y-15390295D01*
X11316117Y-15393662D01*
X11299571Y-15397045D01*
X11283239Y-15400444D01*
X11267117Y-15403861D01*
X11251204Y-15407294D01*
X11235499Y-15410743D01*
X11219998Y-15414209D01*
X11204699Y-15417692D01*
X11189602Y-15421191D01*
X11174702Y-15424706D01*
X11160000Y-15428237D01*
X11145491Y-15431785D01*
X11131175Y-15435349D01*
X11104010Y-16998492D02*
X11164696Y-17016654D01*
X11224972Y-17035751D01*
X11284831Y-17055774D01*
X11344263Y-17076713D01*
X11403261Y-17098561D01*
X11461817Y-17121309D01*
X11519921Y-17144949D01*
X11577566Y-17169471D01*
X11634743Y-17194868D01*
X11691444Y-17221131D01*
X11747661Y-17248252D01*
X11803385Y-17276221D01*
X11858608Y-17305031D01*
X11913322Y-17334672D01*
X11967518Y-17365137D01*
X12021188Y-17396416D01*
X12074324Y-17428502D01*
X12126917Y-17461386D01*
X12178959Y-17495058D01*
X12230442Y-17529511D01*
X12281357Y-17564737D01*
X12331696Y-17600726D01*
X12381451Y-17637470D01*
X12430614Y-17674961D01*
X12479175Y-17713189D01*
X12527127Y-17752147D01*
X12574462Y-17791826D01*
X12621171Y-17832218D01*
X12667245Y-17873313D01*
X12712677Y-17915104D01*
X12757458Y-17957582D01*
X12801580Y-18000738D01*
X14459631Y-13015277D02*
X14470973Y-13046292D01*
X14482844Y-13077669D01*
X14495258Y-13109383D01*
X14508227Y-13141406D01*
X14521761Y-13173714D01*
X14535874Y-13206279D01*
X14550576Y-13239076D01*
X14565879Y-13272078D01*
X14581796Y-13305260D01*
X14598338Y-13338595D01*
X14615518Y-13372056D01*
X14633346Y-13405618D01*
X14651834Y-13439255D01*
X14670995Y-13472941D01*
X14690841Y-13506648D01*
X14711382Y-13540352D01*
X14732631Y-13574025D01*
X14754601Y-13607643D01*
X14777301Y-13641178D01*
X14800745Y-13674604D01*
X14824945Y-13707896D01*
X14849911Y-13741026D01*
X14875656Y-13773970D01*
X14902192Y-13806700D01*
X14929530Y-13839191D01*
X14957683Y-13871416D01*
X14986662Y-13903350D01*
X15016479Y-13934966D01*
X15047145Y-13966237D01*
X15078673Y-13997139D01*
X15111075Y-14027643D01*
X15144362Y-14057726D01*
X6291769Y-10841836D02*
X6191891Y-10829286D01*
X6106404Y-10813470D01*
X6034668Y-10794392D01*
X5976041Y-10772053D01*
X5929879Y-10746455D01*
X5895543Y-10717601D01*
X5872390Y-10685493D01*
X5859779Y-10650133D01*
X5857067Y-10611524D01*
X5863612Y-10569669D01*
X5878774Y-10524568D01*
X5901911Y-10476226D01*
X5932379Y-10424643D01*
X5969539Y-10369823D01*
X6012748Y-10311767D01*
X6061364Y-10250478D01*
X6114746Y-10185958D01*
X6172251Y-10118210D01*
X6233239Y-10047236D01*
X6297067Y-9973038D01*
X6363093Y-9895618D01*
X6430677Y-9814979D01*
X6499175Y-9731123D01*
X6567947Y-9644053D01*
X6636350Y-9553770D01*
X6703743Y-9460277D01*
X6769484Y-9363577D01*
X6832931Y-9263671D01*
X6893443Y-9160562D01*
X6950377Y-9054252D01*
X7003093Y-8944744D01*
X7050948Y-8832040D01*
X11808515Y-5390360D02*
X11857985Y-5447011D01*
X11908038Y-5504076D01*
X11958381Y-5561393D01*
X12008718Y-5618796D01*
X12058755Y-5676123D01*
X12108197Y-5733208D01*
X12156749Y-5789889D01*
X12204117Y-5846001D01*
X12250006Y-5901381D01*
X12294122Y-5955863D01*
X12336169Y-6009285D01*
X12375853Y-6061483D01*
X12412880Y-6112292D01*
X12446954Y-6161548D01*
X12477781Y-6209088D01*
X12505067Y-6254748D01*
X12528516Y-6298363D01*
X12547834Y-6339770D01*
X12562726Y-6378805D01*
X12572898Y-6415304D01*
X12578054Y-6449103D01*
X12577901Y-6480038D01*
X12572143Y-6507945D01*
X12560486Y-6532660D01*
X12542635Y-6554019D01*
X12518296Y-6571858D01*
X12487173Y-6586013D01*
X12448972Y-6596321D01*
X12403399Y-6602618D01*
X12350159Y-6604738D01*
X12288956Y-6602519D01*
X12219497Y-6595797D01*
X6806121Y-18415593D02*
X6854651Y-18353147D01*
X6904383Y-18291699D01*
X6955299Y-18231265D01*
X7007382Y-18171864D01*
X7060613Y-18113512D01*
X7114976Y-18056227D01*
X7170453Y-18000026D01*
X7227026Y-17944928D01*
X7284677Y-17890949D01*
X7343388Y-17838106D01*
X7403143Y-17786418D01*
X7463924Y-17735902D01*
X7525712Y-17686575D01*
X7588491Y-17638454D01*
X7652243Y-17591558D01*
X7716949Y-17545902D01*
X7782593Y-17501506D01*
X7849156Y-17458386D01*
X7916622Y-17416560D01*
X7984972Y-17376045D01*
X8054189Y-17336859D01*
X8124255Y-17299019D01*
X8195153Y-17262543D01*
X8266865Y-17227447D01*
X8339374Y-17193750D01*
X8412661Y-17161469D01*
X8486709Y-17130621D01*
X8561500Y-17101224D01*
X8637018Y-17073295D01*
X8713244Y-17046852D01*
X8790160Y-17021911D01*
X8867749Y-16998492D01*
X13510665Y-10879904D02*
X13561854Y-10997895D01*
X13618900Y-11111985D01*
X13681082Y-11222228D01*
X13747680Y-11328672D01*
X13817974Y-11431369D01*
X13891242Y-11530370D01*
X13966764Y-11625726D01*
X14043820Y-11717486D01*
X14121688Y-11805703D01*
X14199649Y-11890426D01*
X14276982Y-11971707D01*
X14352966Y-12049596D01*
X14426881Y-12124144D01*
X14498006Y-12195402D01*
X14565621Y-12263421D01*
X14629004Y-12328251D01*
X14687436Y-12389943D01*
X14740196Y-12448548D01*
X14786563Y-12504117D01*
X14825816Y-12556701D01*
X14857236Y-12606349D01*
X14880101Y-12653114D01*
X14893692Y-12697045D01*
X14897286Y-12738195D01*
X14890165Y-12776612D01*
X14871607Y-12812349D01*
X14840891Y-12845455D01*
X14797298Y-12875982D01*
X14740106Y-12903981D01*
X14668595Y-12929502D01*
X14582045Y-12952596D01*
X14479734Y-12973314D01*
X8587302Y-15380297D02*
X8514364Y-15368597D01*
X8444293Y-15361406D01*
X8376859Y-15358325D01*
X8311831Y-15358954D01*
X8248981Y-15362893D01*
X8188079Y-15369744D01*
X8128893Y-15379105D01*
X8071196Y-15390577D01*
X8014756Y-15403761D01*
X7959345Y-15418256D01*
X7904731Y-15433664D01*
X7850686Y-15449584D01*
X7796979Y-15465616D01*
X7743381Y-15481362D01*
X7689662Y-15496420D01*
X7635592Y-15510392D01*
X7580941Y-15522878D01*
X7525479Y-15533477D01*
X7468976Y-15541791D01*
X7411204Y-15547419D01*
X7351931Y-15549962D01*
X7290928Y-15549021D01*
X7227965Y-15544194D01*
X7162813Y-15535083D01*
X7095240Y-15521289D01*
X7025019Y-15502410D01*
X6951918Y-15478048D01*
X6875709Y-15447802D01*
X6796160Y-15411274D01*
X6713043Y-15368063D01*
X6626127Y-15317769D01*
X6535183Y-15259994D01*
X8867749Y-16998492D02*
X8867749Y-15482616D01*
X10075668Y-9924961D02*
X10075668Y-2415024D01*
X12219497Y-6595797D02*
X12208420Y-6596083D01*
X12198468Y-6600303D01*
X12191770Y-6609460D01*
X12190692Y-6620537D01*
X12192332Y-6627889D01*
X4827400Y-14057726D02*
X4860687Y-14027643D01*
X4893089Y-13997139D01*
X4924617Y-13966237D01*
X4955284Y-13934966D01*
X4985102Y-13903350D01*
X5014082Y-13871416D01*
X5042237Y-13839191D01*
X5069577Y-13806700D01*
X5096116Y-13773970D01*
X5121865Y-13741026D01*
X5146835Y-13707896D01*
X5171039Y-13674604D01*
X5194489Y-13641178D01*
X5217196Y-13607643D01*
X5239173Y-13574025D01*
X5260430Y-13540352D01*
X5280981Y-13506648D01*
X5300837Y-13472941D01*
X5320010Y-13439255D01*
X5338511Y-13405618D01*
X5356353Y-13372056D01*
X5373547Y-13338595D01*
X5390106Y-13305260D01*
X5406041Y-13272078D01*
X5421364Y-13239076D01*
X5436087Y-13206279D01*
X5450222Y-13173714D01*
X5463781Y-13141406D01*
X5476775Y-13109383D01*
X5489217Y-13077669D01*
X5501118Y-13046292D01*
X5512490Y-13015277D01*
X9893993Y-9924961D02*
X10075668Y-9924961D01*
X14479734Y-12973314D02*
X14469758Y-12974959D01*
X14463164Y-12976140D01*
X14463164Y-12976140D02*
X14456059Y-12983731D01*
X14455074Y-12994263D01*
X14456421Y-13004183D01*
X14459631Y-13015277D01*
X13580859Y-20834945D02*
X13580856Y-20834945D01*
X8426073Y-5074617D02*
X8442701Y-5053038D01*
X8459182Y-5031430D01*
X8475516Y-5009795D01*
X8491704Y-4988135D01*
X8507748Y-4966450D01*
X8523649Y-4944745D01*
X8539407Y-4923019D01*
X8555024Y-4901276D01*
X8570501Y-4879517D01*
X8585839Y-4857743D01*
X8601039Y-4835957D01*
X8616103Y-4814161D01*
X8631030Y-4792357D01*
X8645823Y-4770545D01*
X8660483Y-4748729D01*
X8675010Y-4726910D01*
X8689406Y-4705090D01*
X8703671Y-4683271D01*
X8717808Y-4661454D01*
X8731816Y-4639642D01*
X8745698Y-4617836D01*
X8759454Y-4596039D01*
X8773085Y-4574252D01*
X8786592Y-4552477D01*
X8799977Y-4530715D01*
X8813241Y-4508970D01*
X8826384Y-4487242D01*
X8839408Y-4465534D01*
X8852314Y-4443847D01*
X8865103Y-4422183D01*
X8877776Y-4400545D01*
X8890334Y-4378933D01*
X15144362Y-14057726D02*
X15215349Y-14121144D01*
X15284900Y-14184495D01*
X15352810Y-14247626D01*
X15418874Y-14310381D01*
X15482884Y-14372607D01*
X15544637Y-14434150D01*
X15603925Y-14494856D01*
X15660544Y-14554572D01*
X15714287Y-14613142D01*
X15764950Y-14670413D01*
X15812325Y-14726230D01*
X15856209Y-14780441D01*
X15896394Y-14832891D01*
X15932676Y-14883426D01*
X15964849Y-14931891D01*
X15992706Y-14978134D01*
X16016043Y-15021999D01*
X16034654Y-15063333D01*
X16048332Y-15101982D01*
X16056873Y-15137792D01*
X16060070Y-15170609D01*
X16057719Y-15200279D01*
X16049613Y-15226647D01*
X16035546Y-15249560D01*
X16015313Y-15268864D01*
X15988709Y-15284405D01*
X15955527Y-15296029D01*
X15915562Y-15303582D01*
X15868609Y-15306909D01*
X15814461Y-15305857D01*
X15752913Y-15300272D01*
X15683759Y-15290000D01*
X11131175Y-15435349D02*
X11120941Y-15439852D01*
X11113436Y-15447034D01*
X11108338Y-15456294D01*
X11105328Y-15467033D01*
X11104086Y-15478652D01*
X11104010Y-15482616D01*
X9987110Y-17387958D02*
X9984649Y-17387958D01*
D11*
X3764842Y-21151429D02*
X3764842Y-20951429D01*
X3764842Y-20951429D02*
X3812461Y-20951429D01*
X3812461Y-20951429D02*
X3841032Y-20960953D01*
X3841032Y-20960953D02*
X3860080Y-20980001D01*
X3860080Y-20980001D02*
X3869604Y-20999048D01*
X3869604Y-20999048D02*
X3879127Y-21037143D01*
X3879127Y-21037143D02*
X3879127Y-21065715D01*
X3879127Y-21065715D02*
X3869604Y-21103810D01*
X3869604Y-21103810D02*
X3860080Y-21122858D01*
X3860080Y-21122858D02*
X3841032Y-21141905D01*
X3841032Y-21141905D02*
X3812461Y-21151429D01*
X3812461Y-21151429D02*
X3764842Y-21151429D01*
X3964842Y-21151429D02*
X3964842Y-21018096D01*
X3964842Y-21056191D02*
X3974366Y-21037143D01*
X3974366Y-21037143D02*
X3983889Y-21027620D01*
X3983889Y-21027620D02*
X4002937Y-21018096D01*
X4002937Y-21018096D02*
X4021985Y-21018096D01*
X4088651Y-21151429D02*
X4088651Y-21018096D01*
X4088651Y-20951429D02*
X4079127Y-20960953D01*
X4079127Y-20960953D02*
X4088651Y-20970477D01*
X4088651Y-20970477D02*
X4098175Y-20960953D01*
X4098175Y-20960953D02*
X4088651Y-20951429D01*
X4088651Y-20951429D02*
X4088651Y-20970477D01*
X4212461Y-21151429D02*
X4193413Y-21141905D01*
X4193413Y-21141905D02*
X4183889Y-21122858D01*
X4183889Y-21122858D02*
X4183889Y-20951429D01*
X4317223Y-21151429D02*
X4298175Y-21141905D01*
X4298175Y-21141905D02*
X4288651Y-21122858D01*
X4288651Y-21122858D02*
X4288651Y-20951429D01*
X4545794Y-21151429D02*
X4545794Y-20951429D01*
X4545794Y-20951429D02*
X4612461Y-21094286D01*
X4612461Y-21094286D02*
X4679128Y-20951429D01*
X4679128Y-20951429D02*
X4679128Y-21151429D01*
X4860080Y-21151429D02*
X4860080Y-21046667D01*
X4860080Y-21046667D02*
X4850556Y-21027620D01*
X4850556Y-21027620D02*
X4831509Y-21018096D01*
X4831509Y-21018096D02*
X4793413Y-21018096D01*
X4793413Y-21018096D02*
X4774366Y-21027620D01*
X4860080Y-21141905D02*
X4841032Y-21151429D01*
X4841032Y-21151429D02*
X4793413Y-21151429D01*
X4793413Y-21151429D02*
X4774366Y-21141905D01*
X4774366Y-21141905D02*
X4764842Y-21122858D01*
X4764842Y-21122858D02*
X4764842Y-21103810D01*
X4764842Y-21103810D02*
X4774366Y-21084762D01*
X4774366Y-21084762D02*
X4793413Y-21075239D01*
X4793413Y-21075239D02*
X4841032Y-21075239D01*
X4841032Y-21075239D02*
X4860080Y-21065715D01*
X4955318Y-21018096D02*
X4955318Y-21218096D01*
X4955318Y-21027620D02*
X4974366Y-21018096D01*
X4974366Y-21018096D02*
X5012461Y-21018096D01*
X5012461Y-21018096D02*
X5031509Y-21027620D01*
X5031509Y-21027620D02*
X5041032Y-21037143D01*
X5041032Y-21037143D02*
X5050556Y-21056191D01*
X5050556Y-21056191D02*
X5050556Y-21113334D01*
X5050556Y-21113334D02*
X5041032Y-21132381D01*
X5041032Y-21132381D02*
X5031509Y-21141905D01*
X5031509Y-21141905D02*
X5012461Y-21151429D01*
X5012461Y-21151429D02*
X4974366Y-21151429D01*
X4974366Y-21151429D02*
X4955318Y-21141905D01*
X5136270Y-21132381D02*
X5145794Y-21141905D01*
X5145794Y-21141905D02*
X5136270Y-21151429D01*
X5136270Y-21151429D02*
X5126747Y-21141905D01*
X5126747Y-21141905D02*
X5136270Y-21132381D01*
X5136270Y-21132381D02*
X5136270Y-21151429D01*
X5136270Y-21027620D02*
X5145794Y-21037143D01*
X5145794Y-21037143D02*
X5136270Y-21046667D01*
X5136270Y-21046667D02*
X5126747Y-21037143D01*
X5126747Y-21037143D02*
X5136270Y-21027620D01*
X5136270Y-21027620D02*
X5136270Y-21046667D01*
M02*
