G04 #@! TF.GenerationSoftware,KiCad,Pcbnew,8.0.6*
G04 #@! TF.CreationDate,2024-11-23T10:35:43+01:00*
G04 #@! TF.ProjectId,ChristmasTree,43687269-7374-46d6-9173-547265652e6b,rev?*
G04 #@! TF.SameCoordinates,Original*
G04 #@! TF.FileFunction,Paste,Bot*
G04 #@! TF.FilePolarity,Positive*
%FSLAX46Y46*%
G04 Gerber Fmt 4.6, Leading zero omitted, Abs format (unit mm)*
G04 Created by KiCad (PCBNEW 8.0.6) date 2024-11-23 10:35:43*
%MOMM*%
%LPD*%
G01*
G04 APERTURE LIST*
G04 Aperture macros list*
%AMRoundRect*
0 Rectangle with rounded corners*
0 $1 Rounding radius*
0 $2 $3 $4 $5 $6 $7 $8 $9 X,Y pos of 4 corners*
0 Add a 4 corners polygon primitive as box body*
4,1,4,$2,$3,$4,$5,$6,$7,$8,$9,$2,$3,0*
0 Add four circle primitives for the rounded corners*
1,1,$1+$1,$2,$3*
1,1,$1+$1,$4,$5*
1,1,$1+$1,$6,$7*
1,1,$1+$1,$8,$9*
0 Add four rect primitives between the rounded corners*
20,1,$1+$1,$2,$3,$4,$5,0*
20,1,$1+$1,$4,$5,$6,$7,0*
20,1,$1+$1,$6,$7,$8,$9,0*
20,1,$1+$1,$8,$9,$2,$3,0*%
%AMOutline4P*
0 Free polygon, 4 corners , with rotation*
0 The origin of the aperture is its center*
0 number of corners: always 4*
0 $1 to $8 corner X, Y*
0 $9 Rotation angle, in degrees counterclockwise*
0 create outline with 4 corners*
4,1,4,$1,$2,$3,$4,$5,$6,$7,$8,$1,$2,$9*%
G04 Aperture macros list end*
%ADD10Outline4P,-1.000000X-1.250000X1.000000X-0.750000X1.000000X0.750000X-1.000000X1.250000X180.000000*%
%ADD11R,1.500000X0.900000*%
%ADD12RoundRect,0.250000X0.475000X-0.337500X0.475000X0.337500X-0.475000X0.337500X-0.475000X-0.337500X0*%
%ADD13RoundRect,0.250000X-0.475000X0.337500X-0.475000X-0.337500X0.475000X-0.337500X0.475000X0.337500X0*%
%ADD14Outline4P,-0.500000X-1.000000X0.500000X0.000000X0.500000X0.000000X-0.500000X1.000000X0.000000*%
%ADD15R,1.000000X2.000000*%
G04 APERTURE END LIST*
D10*
X97884600Y-105830000D03*
D11*
X90880000Y-60390000D03*
X90880000Y-63690000D03*
X85980000Y-63690000D03*
X85980000Y-60390000D03*
D12*
X104450000Y-96917500D03*
X104450000Y-94842500D03*
D11*
X86600000Y-117822500D03*
X86600000Y-121122500D03*
X81700000Y-121122500D03*
X81700000Y-117822500D03*
D13*
X89410000Y-118525000D03*
X89410000Y-120600000D03*
D11*
X119190000Y-143960000D03*
X119190000Y-140660000D03*
X124090000Y-140660000D03*
X124090000Y-143960000D03*
X77920000Y-101900000D03*
X77920000Y-105200000D03*
X73020000Y-105200000D03*
X73020000Y-101900000D03*
D12*
X118930000Y-112107500D03*
X118930000Y-110032500D03*
D11*
X82250000Y-79992500D03*
X82250000Y-83292500D03*
X77350000Y-83292500D03*
X77350000Y-79992500D03*
X65800000Y-131372500D03*
X65800000Y-134672500D03*
X60900000Y-134672500D03*
X60900000Y-131372500D03*
X107310000Y-97670000D03*
X107310000Y-94370000D03*
X112210000Y-94370000D03*
X112210000Y-97670000D03*
X118660000Y-80810000D03*
X118660000Y-77510000D03*
X123560000Y-77510000D03*
X123560000Y-80810000D03*
D12*
X104140000Y-57477500D03*
X104140000Y-55402500D03*
D11*
X83000000Y-145840000D03*
X83000000Y-149140000D03*
X78100000Y-149140000D03*
X78100000Y-145840000D03*
X107140000Y-58070000D03*
X107140000Y-54770000D03*
X112040000Y-54770000D03*
X112040000Y-58070000D03*
X130070000Y-128980000D03*
X130070000Y-125680000D03*
X134970000Y-125680000D03*
X134970000Y-128980000D03*
D13*
X85100000Y-80725000D03*
X85100000Y-82800000D03*
D10*
X97884600Y-35830000D03*
D14*
X102320000Y-35855400D03*
D15*
X101320000Y-35855400D03*
D12*
X115810000Y-80127500D03*
X115810000Y-78052500D03*
D11*
X121770000Y-112850000D03*
X121770000Y-109550000D03*
X126670000Y-109550000D03*
X126670000Y-112850000D03*
D13*
X68710000Y-132095000D03*
X68710000Y-134170000D03*
X93610000Y-61092500D03*
X93610000Y-63167500D03*
X85960000Y-146735000D03*
X85960000Y-148810000D03*
D12*
X116290000Y-143307500D03*
X116290000Y-141232500D03*
D14*
X102320000Y-105855400D03*
D15*
X101320000Y-105855400D03*
D13*
X80880000Y-102642500D03*
X80880000Y-104717500D03*
D12*
X127260000Y-128287500D03*
X127260000Y-126212500D03*
M02*
