G04 #@! TF.GenerationSoftware,KiCad,Pcbnew,8.0.6*
G04 #@! TF.CreationDate,2024-11-23T10:35:43+01:00*
G04 #@! TF.ProjectId,ChristmasTree,43687269-7374-46d6-9173-547265652e6b,rev?*
G04 #@! TF.SameCoordinates,Original*
G04 #@! TF.FileFunction,Paste,Top*
G04 #@! TF.FilePolarity,Positive*
%FSLAX46Y46*%
G04 Gerber Fmt 4.6, Leading zero omitted, Abs format (unit mm)*
G04 Created by KiCad (PCBNEW 8.0.6) date 2024-11-23 10:35:43*
%MOMM*%
%LPD*%
G01*
G04 APERTURE LIST*
G04 Aperture macros list*
%AMRoundRect*
0 Rectangle with rounded corners*
0 $1 Rounding radius*
0 $2 $3 $4 $5 $6 $7 $8 $9 X,Y pos of 4 corners*
0 Add a 4 corners polygon primitive as box body*
4,1,4,$2,$3,$4,$5,$6,$7,$8,$9,$2,$3,0*
0 Add four circle primitives for the rounded corners*
1,1,$1+$1,$2,$3*
1,1,$1+$1,$4,$5*
1,1,$1+$1,$6,$7*
1,1,$1+$1,$8,$9*
0 Add four rect primitives between the rounded corners*
20,1,$1+$1,$2,$3,$4,$5,0*
20,1,$1+$1,$4,$5,$6,$7,0*
20,1,$1+$1,$6,$7,$8,$9,0*
20,1,$1+$1,$8,$9,$2,$3,0*%
G04 Aperture macros list end*
%ADD10RoundRect,0.250000X-0.475000X0.337500X-0.475000X-0.337500X0.475000X-0.337500X0.475000X0.337500X0*%
%ADD11R,2.000000X2.000000*%
%ADD12R,1.500000X0.900000*%
%ADD13RoundRect,0.250000X0.475000X-0.337500X0.475000X0.337500X-0.475000X0.337500X-0.475000X-0.337500X0*%
%ADD14R,0.900000X1.500000*%
%ADD15C,2.000000*%
%ADD16R,1.000000X2.000000*%
%ADD17RoundRect,0.250000X-0.337500X-0.475000X0.337500X-0.475000X0.337500X0.475000X-0.337500X0.475000X0*%
G04 APERTURE END LIST*
D10*
X111260000Y-86452500D03*
X111260000Y-88527500D03*
X123430000Y-120270000D03*
X123430000Y-122345000D03*
D11*
X101820000Y-35880800D03*
D12*
X107910000Y-108590000D03*
X107910000Y-111890000D03*
X112810000Y-111890000D03*
X112810000Y-108590000D03*
X134600000Y-141620000D03*
X134600000Y-144920000D03*
X139500000Y-144920000D03*
X139500000Y-141620000D03*
D13*
X87170000Y-131567500D03*
X87170000Y-129492500D03*
D11*
X101820000Y-105880800D03*
D13*
X88800000Y-97717500D03*
X88800000Y-95642500D03*
D12*
X85670000Y-98432500D03*
X85670000Y-95132500D03*
X80770000Y-95132500D03*
X80770000Y-98432500D03*
D10*
X104760000Y-109342500D03*
X104760000Y-111417500D03*
D12*
X114260000Y-85690000D03*
X114260000Y-88990000D03*
X119160000Y-88990000D03*
X119160000Y-85690000D03*
X110400000Y-130290000D03*
X110400000Y-133590000D03*
X115300000Y-133590000D03*
X115300000Y-130290000D03*
D14*
X92237500Y-49100000D03*
X95537500Y-49100000D03*
X95537500Y-44200000D03*
X92237500Y-44200000D03*
D12*
X66860000Y-144312500D03*
X66860000Y-141012500D03*
X61960000Y-141012500D03*
X61960000Y-144312500D03*
D10*
X107530000Y-130882500D03*
X107530000Y-132957500D03*
D15*
X97872000Y-105830000D03*
D16*
X98380000Y-105830000D03*
D12*
X109270000Y-59900000D03*
X109270000Y-63200000D03*
X114170000Y-63200000D03*
X114170000Y-59900000D03*
D13*
X92170000Y-74040000D03*
X92170000Y-71965000D03*
D10*
X106390000Y-60552500D03*
X106390000Y-62627500D03*
D13*
X69670000Y-143717500D03*
X69670000Y-141642500D03*
D12*
X73630000Y-115590000D03*
X73630000Y-112290000D03*
X68730000Y-112290000D03*
X68730000Y-115590000D03*
D10*
X131770000Y-142312500D03*
X131770000Y-144387500D03*
D12*
X84250000Y-132310000D03*
X84250000Y-129010000D03*
X79350000Y-129010000D03*
X79350000Y-132310000D03*
D15*
X97872000Y-35830000D03*
D16*
X98380000Y-35830000D03*
D12*
X126380000Y-119480000D03*
X126380000Y-122780000D03*
X131280000Y-122780000D03*
X131280000Y-119480000D03*
D17*
X92932500Y-52060000D03*
X95007500Y-52060000D03*
D13*
X76620000Y-114927500D03*
X76620000Y-112852500D03*
D12*
X89150000Y-74762500D03*
X89150000Y-71462500D03*
X84250000Y-71462500D03*
X84250000Y-74762500D03*
M02*
