G04 #@! TF.GenerationSoftware,KiCad,Pcbnew,8.0.6*
G04 #@! TF.CreationDate,2024-11-23T10:35:43+01:00*
G04 #@! TF.ProjectId,ChristmasTree,43687269-7374-46d6-9173-547265652e6b,rev?*
G04 #@! TF.SameCoordinates,Original*
G04 #@! TF.FileFunction,Profile,NP*
%FSLAX46Y46*%
G04 Gerber Fmt 4.6, Leading zero omitted, Abs format (unit mm)*
G04 Created by KiCad (PCBNEW 8.0.6) date 2024-11-23 10:35:43*
%MOMM*%
%LPD*%
G01*
G04 APERTURE LIST*
%ADD10C,0.100000*%
G04 #@! TA.AperFunction,Profile*
%ADD11C,0.100000*%
G04 #@! TD*
G04 APERTURE END LIST*
D10*
X81632625Y-53903598D02*
X81722426Y-53800161D01*
X81811920Y-53696922D01*
X81901088Y-53593892D01*
X81989911Y-53491082D01*
X82078371Y-53388502D01*
X82166448Y-53286165D01*
X82254123Y-53184080D01*
X82341379Y-53082259D01*
X82428196Y-52980712D01*
X82514555Y-52879452D01*
X82600438Y-52778487D01*
X82685826Y-52677831D01*
X82770700Y-52577493D01*
X82855042Y-52477484D01*
X82938832Y-52377816D01*
X83022052Y-52278499D01*
X83104683Y-52179545D01*
X83186707Y-52080964D01*
X83268104Y-51982767D01*
X83348856Y-51884966D01*
X83428944Y-51787570D01*
X83508350Y-51690592D01*
X83587054Y-51594043D01*
X83665037Y-51497932D01*
X83742282Y-51402271D01*
X83818769Y-51307072D01*
X83894479Y-51212344D01*
X83969395Y-51118100D01*
X84043496Y-51024349D01*
X84116764Y-50931103D01*
X84189181Y-50838374D01*
X84260728Y-50746171D01*
X42880000Y-152900000D02*
X42188462Y-153002722D01*
X41572982Y-153058573D01*
X41031503Y-153069092D01*
X40561969Y-153035818D01*
X40162321Y-152960293D01*
X39830504Y-152844055D01*
X39564461Y-152688645D01*
X39362135Y-152495604D01*
X39221469Y-152266471D01*
X39140408Y-152002786D01*
X39116893Y-151706090D01*
X39148868Y-151377922D01*
X39234278Y-151019823D01*
X39371064Y-150633332D01*
X39557170Y-150219990D01*
X39790540Y-149781337D01*
X40069116Y-149318913D01*
X40390842Y-148834257D01*
X40753662Y-148328911D01*
X41155518Y-147804413D01*
X41594354Y-147262305D01*
X42068113Y-146704126D01*
X42574739Y-146131416D01*
X43112174Y-145545716D01*
X43678362Y-144948565D01*
X44271247Y-144341503D01*
X44888771Y-143726072D01*
X45528878Y-143103809D01*
X46189511Y-142476257D01*
X46868613Y-141844954D01*
X47564128Y-141211441D01*
X48274000Y-140577259D01*
D11*
X111040099Y-154826164D02*
X111040099Y-169984918D01*
D10*
X156837591Y-152900000D02*
X156116227Y-152761429D01*
X155411607Y-152601067D01*
X154722178Y-152421925D01*
X154046390Y-152227017D01*
X153382692Y-152019355D01*
X152729533Y-151801951D01*
X152085362Y-151577819D01*
X151448628Y-151349971D01*
X150817781Y-151121420D01*
X150191268Y-150895179D01*
X149567541Y-150674260D01*
X148945046Y-150461676D01*
X148322235Y-150260440D01*
X147697555Y-150073564D01*
X147069456Y-149904061D01*
X146436386Y-149754945D01*
X145796796Y-149629227D01*
X145149134Y-149529920D01*
X144491848Y-149460037D01*
X143823389Y-149422591D01*
X143142205Y-149420595D01*
X142446746Y-149457061D01*
X141735460Y-149535002D01*
X141006797Y-149657430D01*
X140259205Y-149827359D01*
X139491133Y-150047800D01*
X138701032Y-150321768D01*
X137887349Y-150652274D01*
X137048535Y-151042331D01*
X136183037Y-151494952D01*
X135289306Y-152013149D01*
X134365790Y-152599937D01*
X65351828Y-152599937D02*
X64428309Y-152013149D01*
X63534575Y-151494952D01*
X62669075Y-151042331D01*
X61830259Y-150652274D01*
X61016574Y-150321768D01*
X60226471Y-150047800D01*
X59458398Y-149827359D01*
X58710805Y-149657430D01*
X57982140Y-149535002D01*
X57270853Y-149457061D01*
X56575392Y-149420595D01*
X55894207Y-149422591D01*
X55225747Y-149460037D01*
X54568461Y-149529920D01*
X53920798Y-149629227D01*
X53281207Y-149754945D01*
X52648137Y-149904061D01*
X52020037Y-150073564D01*
X51395357Y-150260440D01*
X50772545Y-150461676D01*
X50150050Y-150674260D01*
X49526322Y-150895179D01*
X48899810Y-151121420D01*
X48268962Y-151349971D01*
X47632228Y-151577819D01*
X46988057Y-151801951D01*
X46334898Y-152019355D01*
X45671200Y-152227017D01*
X44995412Y-152421925D01*
X44305983Y-152601067D01*
X43601363Y-152761429D01*
X42880000Y-152900000D01*
X110814278Y-43789331D02*
X110939873Y-44005446D01*
X111066616Y-44221831D01*
X111194517Y-44438468D01*
X111323587Y-44655337D01*
X111453838Y-44872420D01*
X111585280Y-45089698D01*
X111717924Y-45307153D01*
X111851781Y-45524765D01*
X111986863Y-45742517D01*
X112123180Y-45960388D01*
X112260743Y-46178362D01*
X112399563Y-46396418D01*
X112539652Y-46614539D01*
X112681019Y-46832705D01*
X112823677Y-47050898D01*
X112967636Y-47269100D01*
X113112906Y-47487291D01*
X113259500Y-47705452D01*
X113407428Y-47923566D01*
X113556701Y-48141613D01*
X113707330Y-48359574D01*
X113859326Y-48577432D01*
X114012700Y-48795166D01*
X114167463Y-49012760D01*
X114323626Y-49230193D01*
X114481200Y-49447447D01*
X114640196Y-49664504D01*
X114800625Y-49881345D01*
X114962498Y-50097950D01*
X115125825Y-50314302D01*
X115290618Y-50530382D01*
X115456889Y-50746171D01*
D11*
X63909030Y-208349453D02*
X59908588Y-208349453D01*
D10*
X55124901Y-130152768D02*
X55155400Y-130041835D01*
X55168191Y-129927594D01*
X55153863Y-129826852D01*
X55086139Y-129761397D01*
X64611127Y-108799041D02*
X64636892Y-108693930D01*
X64620055Y-108590210D01*
X64546039Y-108505032D01*
X64439828Y-108467416D01*
X64364113Y-108464185D01*
X135808561Y-208349453D02*
X135783825Y-207022746D01*
X135710144Y-205705049D01*
X135588306Y-204397412D01*
X135419099Y-203100885D01*
X135203310Y-201816518D01*
X134941729Y-200545362D01*
X134635142Y-199288468D01*
X134284338Y-198046884D01*
X133890106Y-196821662D01*
X133453233Y-195613851D01*
X132974507Y-194424502D01*
X132454716Y-193254665D01*
X131894649Y-192105391D01*
X131295094Y-190977729D01*
X130656838Y-189872730D01*
X129980670Y-188791444D01*
X129267378Y-187734921D01*
X128517749Y-186704212D01*
X127732573Y-185700366D01*
X126912637Y-184724435D01*
X126058728Y-183777468D01*
X125171636Y-182860515D01*
X124252148Y-181974626D01*
X123301053Y-181120853D01*
X122319138Y-180300245D01*
X121307192Y-179513852D01*
X120266002Y-178762725D01*
X119196357Y-178047914D01*
X118099044Y-177370468D01*
X116974853Y-176731439D01*
X115824570Y-176131877D01*
X114648985Y-175572832D01*
X114648985Y-175572832D02*
X114511903Y-175510948D01*
X114374512Y-175449644D01*
X114236811Y-175388920D01*
X114098800Y-175328774D01*
X113960479Y-175269208D01*
X113821849Y-175210220D01*
X113682908Y-175151812D01*
X113543658Y-175093982D01*
X113404099Y-175036732D01*
X113264229Y-174980060D01*
X113124049Y-174923966D01*
X112983560Y-174868452D01*
X112842761Y-174813516D01*
X112701651Y-174759158D01*
X112560232Y-174705379D01*
X112418504Y-174652179D01*
X112276465Y-174599556D01*
X112134116Y-174547512D01*
X111991457Y-174496047D01*
X111848489Y-174445159D01*
X111705210Y-174394849D01*
X111561622Y-174345118D01*
X111417723Y-174295964D01*
X111273515Y-174247388D01*
X111128996Y-174199391D01*
X110984168Y-174151970D01*
X110839030Y-174105128D01*
X110693581Y-174058863D01*
X110547823Y-174013176D01*
X110401754Y-173968066D01*
X110255376Y-173923534D01*
X110108688Y-173879580D01*
D11*
X99846492Y-173879580D02*
X89608876Y-173879580D01*
D10*
X77522646Y-65957973D02*
X76828054Y-66025195D01*
X76216029Y-66047383D01*
X75683623Y-66026177D01*
X75227891Y-65963214D01*
X74845885Y-65860135D01*
X74534658Y-65718580D01*
X74291263Y-65540187D01*
X74112755Y-65326596D01*
X73996185Y-65079447D01*
X73938607Y-64800378D01*
X73937075Y-64491030D01*
X73988642Y-64153042D01*
X74090360Y-63788054D01*
X74239283Y-63397704D01*
X74432465Y-62983632D01*
X74666958Y-62547478D01*
X74939816Y-62090881D01*
X75248091Y-61615481D01*
X75588838Y-61122916D01*
X75959109Y-60614827D01*
X76355957Y-60092853D01*
X76776436Y-59558633D01*
X77217600Y-59013807D01*
X77676500Y-58460014D01*
X78150190Y-57898893D01*
X78635725Y-57332085D01*
X79130156Y-56761228D01*
X79630537Y-56187962D01*
X80133921Y-55613927D01*
X80637361Y-55040761D01*
X81137911Y-54470105D01*
X81632625Y-53903598D01*
X89608876Y-173879580D02*
X88202681Y-174328617D01*
X86824471Y-174832755D01*
X85475339Y-175390535D01*
X84156376Y-176000500D01*
X82868676Y-176661192D01*
X81613329Y-177371155D01*
X80391430Y-178128930D01*
X79204069Y-178933060D01*
X78052340Y-179782089D01*
X76937334Y-180674557D01*
X75860144Y-181609009D01*
X74821861Y-182583986D01*
X73823580Y-183598031D01*
X72866390Y-184649687D01*
X71951386Y-185737496D01*
X71079659Y-186860002D01*
X70252301Y-188015745D01*
X69470405Y-189203269D01*
X68735064Y-190421117D01*
X68047368Y-191667831D01*
X67408411Y-192941954D01*
X66819285Y-194242028D01*
X66281083Y-195566596D01*
X65794895Y-196914200D01*
X65361816Y-198283383D01*
X64982936Y-199672688D01*
X64659349Y-201080657D01*
X64392147Y-202505832D01*
X64182422Y-203946757D01*
X64031265Y-205401974D01*
X63939770Y-206870025D01*
X63909030Y-208349453D01*
D11*
X139809029Y-208349453D02*
X135808587Y-208349453D01*
D10*
X129458595Y-87946594D02*
X129348938Y-87967809D01*
X129252905Y-88027048D01*
X129196524Y-88116651D01*
X129185356Y-88229499D01*
X129208141Y-88320396D01*
X100756684Y-24150235D02*
X100995486Y-24323687D01*
X101232158Y-24537003D01*
X101467399Y-24789036D01*
X101701909Y-25078640D01*
X101936389Y-25404670D01*
X102171539Y-25765980D01*
X102408059Y-26161424D01*
X102646648Y-26589855D01*
X102888008Y-27050129D01*
X103132839Y-27541099D01*
X103381839Y-28061619D01*
X103635711Y-28610544D01*
X103895154Y-29186727D01*
X104160868Y-29789023D01*
X104433553Y-30416286D01*
X104713909Y-31067370D01*
X105002638Y-31741129D01*
X105300438Y-32436417D01*
X105608010Y-33152088D01*
X105926054Y-33886997D01*
X106255271Y-34639998D01*
X106596360Y-35409944D01*
X106950021Y-36195691D01*
X107316956Y-36996091D01*
X107697864Y-37809999D01*
X108093445Y-38636270D01*
X108504399Y-39473756D01*
X108931427Y-40321314D01*
X109375228Y-41177796D01*
X109836504Y-42042056D01*
X110315954Y-42912950D01*
X110814278Y-43789331D01*
X88405870Y-154353487D02*
X88262705Y-154317848D01*
X88117619Y-154282372D01*
X87970591Y-154247058D01*
X87821599Y-154211907D01*
X87670622Y-154176919D01*
X87517642Y-154142095D01*
X87362635Y-154107435D01*
X87205583Y-154072939D01*
X87046463Y-154038609D01*
X86885256Y-154004445D01*
X86721941Y-153970447D01*
X86556497Y-153936616D01*
X86388903Y-153902952D01*
X86219139Y-153869456D01*
X86047183Y-153836128D01*
X85873017Y-153802969D01*
X64364113Y-108464185D02*
X64238178Y-108468345D01*
X64110340Y-108470956D01*
X63980564Y-108471950D01*
X63848817Y-108471255D01*
X63715066Y-108468804D01*
X63579279Y-108464525D01*
X63441420Y-108458350D01*
X63301458Y-108450209D01*
X63159360Y-108440033D01*
X63015091Y-108427751D01*
X62917690Y-108418359D01*
X88903339Y-43789331D02*
X89400086Y-42915217D01*
X89878096Y-42046502D01*
X90338061Y-41184325D01*
X90780673Y-40329827D01*
X91206625Y-39484148D01*
X91616609Y-38648427D01*
X92011318Y-37823806D01*
X92391443Y-37011424D01*
X92757678Y-36212420D01*
X93110715Y-35427936D01*
X93451246Y-34659112D01*
X93779964Y-33907087D01*
X94097562Y-33173001D01*
X94404731Y-32457995D01*
X94702164Y-31763209D01*
X94990554Y-31089783D01*
X95270592Y-30438857D01*
X95542973Y-29811571D01*
X95808387Y-29209065D01*
X96067528Y-28632480D01*
X96321087Y-28082955D01*
X96569758Y-27561630D01*
X96814232Y-27069646D01*
X97055203Y-26608143D01*
X97293362Y-26178260D01*
X97529403Y-25781139D01*
X97764017Y-25417918D01*
X97997897Y-25089739D01*
X98231735Y-24797741D01*
X98466224Y-24543064D01*
X98702056Y-24326848D01*
X98939925Y-24150235D01*
X130061844Y-87904234D02*
X129945521Y-87915285D01*
X129830668Y-87924917D01*
X129717296Y-87933115D01*
X129605418Y-87939866D01*
X129495048Y-87945157D01*
X129458595Y-87946594D01*
X54920272Y-129733139D02*
X53897166Y-129525961D01*
X53031662Y-129295021D01*
X52316554Y-129039812D01*
X51744636Y-128759825D01*
X51308703Y-128454553D01*
X51001548Y-128123487D01*
X50815967Y-127766121D01*
X50744753Y-127381946D01*
X50780702Y-126970455D01*
X50916606Y-126531140D01*
X51145261Y-126063493D01*
X51459460Y-125567006D01*
X51851999Y-125041172D01*
X52315671Y-124485483D01*
X52843272Y-123899431D01*
X53427594Y-123282509D01*
X54061432Y-122634208D01*
X54737582Y-121954022D01*
X55448836Y-121241442D01*
X56187990Y-120495960D01*
X56947838Y-119717069D01*
X57721174Y-118904260D01*
X58500792Y-118057028D01*
X59279487Y-117174862D01*
X60050053Y-116257257D01*
X60805284Y-115303703D01*
X61537975Y-114313694D01*
X62240920Y-113286721D01*
X62906913Y-112222277D01*
X63528749Y-111119854D01*
X64099222Y-109978945D01*
X64611127Y-108799041D01*
D11*
X98939925Y-24150235D02*
X98939925Y-99249606D01*
D10*
X59908588Y-208349453D02*
X59917457Y-207498942D01*
X59943947Y-206652782D01*
X59987884Y-205811148D01*
X60049090Y-204974213D01*
X60127390Y-204142152D01*
X60222610Y-203315139D01*
X60334572Y-202493349D01*
X60463101Y-201676956D01*
X60608022Y-200866134D01*
X60769159Y-200061058D01*
X60946336Y-199261902D01*
X61139377Y-198468840D01*
X61348108Y-197682047D01*
X61572351Y-196901697D01*
X61811932Y-196127965D01*
X62066675Y-195361024D01*
X62336404Y-194601049D01*
X62620944Y-193848215D01*
X62920118Y-193102696D01*
X63233751Y-192364666D01*
X63561668Y-191634300D01*
X63903692Y-190911771D01*
X64259648Y-190197255D01*
X64629361Y-189490926D01*
X65012655Y-188792957D01*
X65409353Y-188103524D01*
X65819281Y-187422800D01*
X66242262Y-186750961D01*
X66678121Y-186088180D01*
X67126683Y-185434631D01*
X67587771Y-184790490D01*
X68061210Y-184155931D01*
X77794293Y-66278886D02*
X77812620Y-66171216D01*
X77788383Y-66067881D01*
X77708129Y-65987075D01*
X77598893Y-65956250D01*
X77522646Y-65957973D01*
X70259022Y-87946594D02*
X70149156Y-87941825D01*
X70037779Y-87935569D01*
X69924904Y-87927846D01*
X69810543Y-87918677D01*
X69694709Y-87908080D01*
X69655773Y-87904234D01*
X70509476Y-88320396D02*
X70533644Y-88212234D01*
X70515676Y-88102292D01*
X70453290Y-88016607D01*
X70352047Y-87962275D01*
X70259022Y-87946594D01*
X134365790Y-152599937D02*
X133456345Y-153177693D01*
X132587184Y-153680628D01*
X131756009Y-154112740D01*
X130960522Y-154478024D01*
X130198424Y-154780478D01*
X129467417Y-155024100D01*
X128765202Y-155212886D01*
X128089482Y-155350835D01*
X127437957Y-155441943D01*
X126808331Y-155490207D01*
X126198303Y-155499624D01*
X125605576Y-155474193D01*
X125027851Y-155417909D01*
X124462831Y-155334771D01*
X123908216Y-155228776D01*
X123361709Y-155103920D01*
X122821011Y-154964201D01*
X122283824Y-154813616D01*
X121747849Y-154656163D01*
X121210789Y-154495838D01*
X120670343Y-154336640D01*
X120124216Y-154182564D01*
X119570107Y-154037609D01*
X119005719Y-153905771D01*
X118428754Y-153791048D01*
X117836912Y-153697437D01*
X117227896Y-153628935D01*
X116599407Y-153589540D01*
X115949147Y-153583249D01*
X115274818Y-153614058D01*
X114574121Y-153685966D01*
X113844759Y-153802969D01*
D11*
X110108688Y-173879580D02*
X99871098Y-173879580D01*
D10*
X129208141Y-88320396D02*
X129686688Y-89447438D01*
X130213843Y-90542520D01*
X130783188Y-91605617D01*
X131388305Y-92636706D01*
X132022778Y-93635765D01*
X132680187Y-94602770D01*
X133354117Y-95537698D01*
X134038148Y-96440526D01*
X134725865Y-97311231D01*
X135410848Y-98149790D01*
X136086681Y-98956179D01*
X136746946Y-99730376D01*
X137385225Y-100472358D01*
X137995101Y-101182101D01*
X138570157Y-101859583D01*
X139103974Y-102504780D01*
X139590136Y-103117668D01*
X140022224Y-103698226D01*
X140393821Y-104246430D01*
X140698510Y-104762257D01*
X140929873Y-105245684D01*
X141081492Y-105696687D01*
X141146950Y-106115244D01*
X141119830Y-106501332D01*
X140993713Y-106854927D01*
X140762183Y-107176006D01*
X140418821Y-107464546D01*
X139957210Y-107720525D01*
X139370933Y-107943918D01*
X138653571Y-108134704D01*
X137798708Y-108292858D01*
X136799927Y-108418359D01*
X121923324Y-66278886D02*
X122345790Y-67495218D01*
X122829827Y-68676941D01*
X123368192Y-69824030D01*
X123953645Y-70936458D01*
X124578943Y-72014198D01*
X125236844Y-73057224D01*
X125920107Y-74065508D01*
X126621489Y-75039025D01*
X127333749Y-75977749D01*
X128049646Y-76881651D01*
X128761936Y-77750707D01*
X129463379Y-78584889D01*
X130146733Y-79384171D01*
X130804755Y-80148527D01*
X131430205Y-80877929D01*
X132015839Y-81572352D01*
X132554417Y-82231769D01*
X133038696Y-82856152D01*
X133461435Y-83445477D01*
X133815392Y-83999716D01*
X134093325Y-84518842D01*
X134287992Y-85002830D01*
X134392151Y-85451652D01*
X134398561Y-85865282D01*
X134299980Y-86243694D01*
X134089166Y-86586861D01*
X133758877Y-86894757D01*
X133301871Y-87167354D01*
X132710906Y-87404627D01*
X131978741Y-87606549D01*
X131098134Y-87773093D01*
X130061844Y-87904234D01*
X69655773Y-87904234D02*
X68619495Y-87773093D01*
X67738900Y-87606549D01*
X67006746Y-87404627D01*
X66415790Y-87167354D01*
X65958791Y-86894757D01*
X65628507Y-86586861D01*
X65417697Y-86243694D01*
X65319118Y-85865282D01*
X65325529Y-85451652D01*
X65429689Y-85002830D01*
X65624356Y-84518842D01*
X65902287Y-83999716D01*
X66256241Y-83445477D01*
X66678977Y-82856152D01*
X67163253Y-82231769D01*
X67701827Y-81572352D01*
X68287457Y-80877929D01*
X68912901Y-80148527D01*
X69570919Y-79384171D01*
X70254267Y-78584889D01*
X70955705Y-77750707D01*
X71667991Y-76881651D01*
X72383882Y-75977749D01*
X73096138Y-75039025D01*
X73797517Y-74065508D01*
X74480776Y-73057224D01*
X75138674Y-72014198D01*
X75763970Y-70936458D01*
X76349422Y-69824030D01*
X76887787Y-68676941D01*
X77371824Y-67495218D01*
X77794293Y-66278886D01*
X128015798Y-180007375D02*
X128690243Y-180693812D01*
X129348144Y-181396283D01*
X129989182Y-182114470D01*
X130613036Y-182848053D01*
X131219389Y-183596716D01*
X131807920Y-184360141D01*
X132378311Y-185138010D01*
X132930242Y-185930005D01*
X133463395Y-186735808D01*
X133977451Y-187555102D01*
X134472089Y-188387568D01*
X134946992Y-189232890D01*
X135401839Y-190090749D01*
X135836312Y-190960827D01*
X136250092Y-191842807D01*
X136642860Y-192736370D01*
X137014295Y-193641200D01*
X137364080Y-194556977D01*
X137691896Y-195483385D01*
X137997422Y-196420106D01*
X138280340Y-197366821D01*
X138540331Y-198323213D01*
X138777075Y-199288965D01*
X138990254Y-200263757D01*
X139179548Y-201247274D01*
X139344638Y-202239196D01*
X139485205Y-203239206D01*
X139600931Y-204246986D01*
X139691495Y-205262219D01*
X139756579Y-206284586D01*
X139795863Y-207313770D01*
X139809029Y-208349453D01*
X135353504Y-108464185D02*
X135243858Y-108474243D01*
X135148036Y-108522503D01*
X135087939Y-108617417D01*
X135085086Y-108727549D01*
X135106648Y-108799041D01*
X88677491Y-154826164D02*
X88670270Y-154708381D01*
X88646459Y-154597392D01*
X88602833Y-154499194D01*
X88536167Y-154419782D01*
X88443239Y-154365153D01*
X88405870Y-154353487D01*
X55086139Y-129761397D02*
X54983590Y-129743800D01*
X54920272Y-129733139D01*
X136799927Y-108418359D02*
X136654190Y-108432092D01*
X136510655Y-108443674D01*
X136369284Y-108453176D01*
X136230041Y-108460664D01*
X136092892Y-108466207D01*
X135957799Y-108469873D01*
X135824727Y-108471732D01*
X135693640Y-108471851D01*
X135564501Y-108470299D01*
X135437276Y-108467144D01*
X135353504Y-108464185D01*
X115456889Y-50746171D02*
X115528433Y-50838374D01*
X115600847Y-50931103D01*
X115674113Y-51024349D01*
X115748213Y-51118100D01*
X115823126Y-51212344D01*
X115898836Y-51307072D01*
X115975322Y-51402271D01*
X116052566Y-51497932D01*
X116130550Y-51594043D01*
X116209254Y-51690592D01*
X116288660Y-51787570D01*
X116368749Y-51884966D01*
X116449503Y-51982767D01*
X116530902Y-52080964D01*
X116612929Y-52179545D01*
X116695564Y-52278499D01*
X116778788Y-52377816D01*
X116862583Y-52477484D01*
X116946929Y-52577493D01*
X117031810Y-52677831D01*
X117117205Y-52778487D01*
X117203095Y-52879452D01*
X117289463Y-52980712D01*
X117376289Y-53082259D01*
X117463555Y-53184080D01*
X117551241Y-53286165D01*
X117639330Y-53388502D01*
X117727802Y-53491082D01*
X117816639Y-53593892D01*
X117905822Y-53696922D01*
X117995332Y-53800161D01*
X118085151Y-53903598D01*
X113844759Y-153802969D02*
X113670559Y-153836128D01*
X113498576Y-153869456D01*
X113328789Y-153902952D01*
X113161175Y-153936616D01*
X112995715Y-153970447D01*
X112832387Y-154004445D01*
X112671170Y-154038609D01*
X112512044Y-154072939D01*
X112354986Y-154107435D01*
X112199976Y-154142095D01*
X112046993Y-154176919D01*
X111896016Y-154211907D01*
X111747024Y-154247058D01*
X111599996Y-154282372D01*
X111454910Y-154317848D01*
X111311747Y-154353487D01*
X111040099Y-169984918D02*
X111646957Y-170166543D01*
X112249720Y-170357511D01*
X112848306Y-170557735D01*
X113442632Y-170767129D01*
X114032613Y-170985610D01*
X114618167Y-171213091D01*
X115199210Y-171449487D01*
X115775659Y-171694713D01*
X116347431Y-171948684D01*
X116914443Y-172211313D01*
X117476611Y-172482517D01*
X118033852Y-172762210D01*
X118586083Y-173050306D01*
X119133220Y-173346721D01*
X119675181Y-173651368D01*
X120211882Y-173964163D01*
X120743240Y-174285021D01*
X121269171Y-174613855D01*
X121789592Y-174950581D01*
X122304420Y-175295114D01*
X122813572Y-175647368D01*
X123316965Y-176007258D01*
X123814514Y-176374699D01*
X124306138Y-176749605D01*
X124791752Y-177131891D01*
X125271274Y-177521472D01*
X125744620Y-177918263D01*
X126211707Y-178322178D01*
X126672451Y-178733132D01*
X127126770Y-179151039D01*
X127574580Y-179575815D01*
X128015798Y-180007375D01*
X144596315Y-130152768D02*
X144709726Y-130462917D01*
X144828443Y-130776690D01*
X144952584Y-131093826D01*
X145082268Y-131414063D01*
X145217613Y-131737138D01*
X145358737Y-132062792D01*
X145505757Y-132390761D01*
X145658794Y-132720784D01*
X145817963Y-133052600D01*
X145983385Y-133385946D01*
X146155177Y-133720562D01*
X146333456Y-134056185D01*
X146518342Y-134392554D01*
X146709953Y-134729407D01*
X146908407Y-135066483D01*
X147113822Y-135403520D01*
X147326315Y-135740255D01*
X147546007Y-136076428D01*
X147773014Y-136411777D01*
X148007455Y-136746041D01*
X148249448Y-137078956D01*
X148499111Y-137410263D01*
X148756563Y-137739699D01*
X149021921Y-138067002D01*
X149295305Y-138391911D01*
X149576831Y-138714164D01*
X149866619Y-139033500D01*
X150164787Y-139349657D01*
X150471452Y-139662373D01*
X150786733Y-139971386D01*
X151110749Y-140276435D01*
X151443617Y-140577259D01*
X62917690Y-108418359D02*
X61918908Y-108292858D01*
X61064045Y-108134704D01*
X60346683Y-107943918D01*
X59760406Y-107720525D01*
X59298795Y-107464546D01*
X58955433Y-107176006D01*
X58723903Y-106854927D01*
X58597786Y-106501332D01*
X58570666Y-106115244D01*
X58636124Y-105696687D01*
X58787743Y-105245684D01*
X59019106Y-104762257D01*
X59323795Y-104246430D01*
X59695392Y-103698226D01*
X60127480Y-103117668D01*
X60613642Y-102504780D01*
X61147459Y-101859583D01*
X61722515Y-101182101D01*
X62332391Y-100472358D01*
X62970670Y-99730376D01*
X63630935Y-98956179D01*
X64306768Y-98149790D01*
X64991751Y-97311231D01*
X65679468Y-96440526D01*
X66363499Y-95537698D01*
X67037429Y-94602770D01*
X67694838Y-93635765D01*
X68329311Y-92636706D01*
X68934428Y-91605617D01*
X69503773Y-90542520D01*
X70030928Y-89447438D01*
X70509476Y-88320396D01*
X118085151Y-53903598D02*
X118579847Y-54470105D01*
X119080381Y-55040761D01*
X119583808Y-55613927D01*
X120087179Y-56187962D01*
X120587547Y-56761228D01*
X121081967Y-57332085D01*
X121567491Y-57898893D01*
X122041172Y-58460014D01*
X122500064Y-59013807D01*
X122941220Y-59558633D01*
X123361692Y-60092853D01*
X123758535Y-60614827D01*
X124128800Y-61122916D01*
X124469542Y-61615481D01*
X124777814Y-62090881D01*
X125050668Y-62547478D01*
X125285159Y-62983632D01*
X125478338Y-63397704D01*
X125627259Y-63788054D01*
X125728976Y-64153042D01*
X125780542Y-64491030D01*
X125779009Y-64800378D01*
X125721431Y-65079447D01*
X125604861Y-65326596D01*
X125426352Y-65540187D01*
X125182958Y-65718580D01*
X124871731Y-65860135D01*
X124489725Y-65963214D01*
X124033993Y-66026177D01*
X123501588Y-66047383D01*
X122889563Y-66025195D01*
X122194972Y-65957973D01*
X68061210Y-184155931D02*
X68546511Y-183531473D01*
X69043830Y-182916988D01*
X69552991Y-182312651D01*
X70073818Y-181718635D01*
X70606134Y-181135115D01*
X71149764Y-180562266D01*
X71704530Y-180000262D01*
X72270256Y-179449277D01*
X72846766Y-178909486D01*
X73433885Y-178381063D01*
X74031435Y-177864183D01*
X74639240Y-177359019D01*
X75257125Y-176865747D01*
X75884912Y-176384541D01*
X76522426Y-175915575D01*
X77169490Y-175459024D01*
X77825927Y-175015062D01*
X78491563Y-174583863D01*
X79166219Y-174165603D01*
X79849721Y-173760454D01*
X80541892Y-173368592D01*
X81242555Y-172990192D01*
X81951534Y-172625427D01*
X82668653Y-172274471D01*
X83393736Y-171937501D01*
X84126606Y-171614689D01*
X84867088Y-171306210D01*
X85615004Y-171012238D01*
X86370178Y-170732949D01*
X87132435Y-170468516D01*
X87901598Y-170219114D01*
X88677491Y-169984918D01*
X135106648Y-108799041D02*
X135618538Y-109978945D01*
X136188997Y-111119854D01*
X136810821Y-112222277D01*
X137476802Y-113286721D01*
X138179736Y-114313694D01*
X138912417Y-115303703D01*
X139667639Y-116257257D01*
X140438196Y-117174862D01*
X141216883Y-118057028D01*
X141996494Y-118904260D01*
X142769823Y-119717069D01*
X143529665Y-120495960D01*
X144268813Y-121241442D01*
X144980063Y-121954022D01*
X145656208Y-122634208D01*
X146290042Y-123282509D01*
X146874361Y-123899431D01*
X147401958Y-124485483D01*
X147865628Y-125041172D01*
X148258164Y-125567006D01*
X148572362Y-126063493D01*
X148801015Y-126531140D01*
X148936918Y-126970455D01*
X148972865Y-127381946D01*
X148901651Y-127766121D01*
X148716069Y-128123487D01*
X148408914Y-128454553D01*
X147972980Y-128759825D01*
X147401062Y-129039812D01*
X146685954Y-129295021D01*
X145820450Y-129525961D01*
X144797345Y-129733139D01*
X85873017Y-153802969D02*
X85143639Y-153685966D01*
X84442928Y-153614058D01*
X83768586Y-153583249D01*
X83118314Y-153589540D01*
X82489814Y-153628935D01*
X81880787Y-153697437D01*
X81288935Y-153791048D01*
X80711960Y-153905771D01*
X80147564Y-154037609D01*
X79593447Y-154182564D01*
X79047311Y-154336640D01*
X78506860Y-154495838D01*
X77969792Y-154656163D01*
X77433812Y-154813616D01*
X76896619Y-154964201D01*
X76355917Y-155103920D01*
X75809406Y-155228776D01*
X75254788Y-155334771D01*
X74689764Y-155417909D01*
X74112037Y-155474193D01*
X73519308Y-155499624D01*
X72909279Y-155490207D01*
X72279651Y-155441943D01*
X71628126Y-155350835D01*
X70952405Y-155212886D01*
X70250191Y-155024100D01*
X69519185Y-154780478D01*
X68757088Y-154478024D01*
X67961602Y-154112740D01*
X67130429Y-153680628D01*
X66261270Y-153177693D01*
X65351828Y-152599937D01*
D11*
X88677491Y-169984918D02*
X88677491Y-154826164D01*
X100756684Y-99249606D02*
X100756684Y-24150235D01*
D10*
X122194972Y-65957973D02*
X122084204Y-65960831D01*
X121984685Y-66003035D01*
X121917697Y-66094599D01*
X121906923Y-66205371D01*
X121923324Y-66278886D01*
X48274000Y-140577259D02*
X48606868Y-140276435D01*
X48930885Y-139971386D01*
X49246171Y-139662373D01*
X49552843Y-139349657D01*
X49851020Y-139033500D01*
X50140822Y-138714164D01*
X50422367Y-138391911D01*
X50695773Y-138067002D01*
X50961160Y-137739699D01*
X51218647Y-137410263D01*
X51468351Y-137078956D01*
X51710393Y-136746041D01*
X51944890Y-136411777D01*
X52171962Y-136076428D01*
X52391727Y-135740255D01*
X52604304Y-135403520D01*
X52809812Y-135066483D01*
X53008369Y-134729407D01*
X53200095Y-134392554D01*
X53385108Y-134056185D01*
X53563527Y-133720562D01*
X53735471Y-133385946D01*
X53901058Y-133052600D01*
X54060408Y-132720784D01*
X54213638Y-132390761D01*
X54360869Y-132062792D01*
X54502218Y-131737138D01*
X54637805Y-131414063D01*
X54767747Y-131093826D01*
X54892165Y-130776690D01*
X55011176Y-130462917D01*
X55124901Y-130152768D01*
D11*
X98939925Y-99249606D02*
X100756684Y-99249606D01*
D10*
X144797345Y-129733139D02*
X144697579Y-129749590D01*
X144631636Y-129761397D01*
X144631636Y-129761397D02*
X144560587Y-129837313D01*
X144550738Y-129942627D01*
X144564206Y-130041833D01*
X144596315Y-130152768D01*
D11*
X135808587Y-208349453D02*
X135808561Y-208349453D01*
D10*
X84260728Y-50746171D02*
X84427012Y-50530382D01*
X84591819Y-50314302D01*
X84755159Y-50097950D01*
X84917043Y-49881345D01*
X85077482Y-49664504D01*
X85236488Y-49447447D01*
X85394071Y-49230193D01*
X85550242Y-49012760D01*
X85705012Y-48795166D01*
X85858392Y-48577432D01*
X86010393Y-48359574D01*
X86161026Y-48141613D01*
X86310302Y-47923566D01*
X86458233Y-47705452D01*
X86604828Y-47487291D01*
X86750099Y-47269100D01*
X86894058Y-47050898D01*
X87036714Y-46832705D01*
X87178079Y-46614539D01*
X87318164Y-46396418D01*
X87456980Y-46178362D01*
X87594538Y-45960388D01*
X87730849Y-45742517D01*
X87865924Y-45524765D01*
X87999774Y-45307153D01*
X88132409Y-45089698D01*
X88263841Y-44872420D01*
X88394081Y-44655337D01*
X88523140Y-44438468D01*
X88651028Y-44221831D01*
X88777758Y-44005446D01*
X88903339Y-43789331D01*
X151443617Y-140577259D02*
X152153487Y-141211441D01*
X152849002Y-141844954D01*
X153528104Y-142476257D01*
X154188737Y-143103809D01*
X154828843Y-143726072D01*
X155446367Y-144341503D01*
X156039250Y-144948565D01*
X156605438Y-145545716D01*
X157142872Y-146131416D01*
X157649497Y-146704126D01*
X158123255Y-147262305D01*
X158562090Y-147804413D01*
X158963945Y-148328911D01*
X159326763Y-148834257D01*
X159648488Y-149318913D01*
X159927064Y-149781337D01*
X160160432Y-150219990D01*
X160346537Y-150633332D01*
X160483322Y-151019823D01*
X160568730Y-151377922D01*
X160600704Y-151706090D01*
X160577188Y-152002786D01*
X160496126Y-152266471D01*
X160355459Y-152495604D01*
X160153132Y-152688645D01*
X159887089Y-152844055D01*
X159555271Y-152960293D01*
X159155623Y-153035818D01*
X158686087Y-153069092D01*
X158144608Y-153058573D01*
X157529128Y-153002722D01*
X156837591Y-152900000D01*
X111311747Y-154353487D02*
X111209414Y-154398522D01*
X111134359Y-154470340D01*
X111083383Y-154562942D01*
X111053284Y-154670333D01*
X111040863Y-154786518D01*
X111040099Y-154826164D01*
D11*
X99871098Y-173879580D02*
X99846492Y-173879580D01*
M02*
