%TF.GenerationSoftware,KiCad,Pcbnew,8.0.6*%
%TF.CreationDate,2024-11-23T11:55:01+01:00*%
%TF.ProjectId,ChristmasTreeBrain,43687269-7374-46d6-9173-547265654272,rev?*%
%TF.SameCoordinates,Original*%
%TF.FileFunction,Drillmap*%
%TF.FilePolarity,Positive*%
%FSLAX45Y45*%
G04 Gerber Fmt 4.5, Leading zero omitted, Abs format (unit mm)*
G04 Created by KiCad (PCBNEW 8.0.6) date 2024-11-23 11:55:01*
%MOMM*%
%LPD*%
G01*
G04 APERTURE LIST*
%ADD10C,0.050000*%
%ADD11C,0.200000*%
G04 APERTURE END LIST*
D10*
X22246500Y-5921000D02*
G75*
G02*
X17766500Y-5921000I-2240000J0D01*
G01*
X17766500Y-5921000D02*
G75*
G02*
X22246500Y-5921000I2240000J0D01*
G01*
D11*
X18024777Y-8474984D02*
X18024777Y-8274984D01*
X18024777Y-8274984D02*
X18072396Y-8274984D01*
X18072396Y-8274984D02*
X18100967Y-8284508D01*
X18100967Y-8284508D02*
X18120015Y-8303555D01*
X18120015Y-8303555D02*
X18129539Y-8322603D01*
X18129539Y-8322603D02*
X18139063Y-8360698D01*
X18139063Y-8360698D02*
X18139063Y-8389270D01*
X18139063Y-8389270D02*
X18129539Y-8427365D01*
X18129539Y-8427365D02*
X18120015Y-8446412D01*
X18120015Y-8446412D02*
X18100967Y-8465460D01*
X18100967Y-8465460D02*
X18072396Y-8474984D01*
X18072396Y-8474984D02*
X18024777Y-8474984D01*
X18224777Y-8474984D02*
X18224777Y-8341650D01*
X18224777Y-8379746D02*
X18234301Y-8360698D01*
X18234301Y-8360698D02*
X18243824Y-8351174D01*
X18243824Y-8351174D02*
X18262872Y-8341650D01*
X18262872Y-8341650D02*
X18281920Y-8341650D01*
X18348586Y-8474984D02*
X18348586Y-8341650D01*
X18348586Y-8274984D02*
X18339063Y-8284508D01*
X18339063Y-8284508D02*
X18348586Y-8294031D01*
X18348586Y-8294031D02*
X18358110Y-8284508D01*
X18358110Y-8284508D02*
X18348586Y-8274984D01*
X18348586Y-8274984D02*
X18348586Y-8294031D01*
X18472396Y-8474984D02*
X18453348Y-8465460D01*
X18453348Y-8465460D02*
X18443824Y-8446412D01*
X18443824Y-8446412D02*
X18443824Y-8274984D01*
X18577158Y-8474984D02*
X18558110Y-8465460D01*
X18558110Y-8465460D02*
X18548586Y-8446412D01*
X18548586Y-8446412D02*
X18548586Y-8274984D01*
X18805729Y-8474984D02*
X18805729Y-8274984D01*
X18805729Y-8274984D02*
X18872396Y-8417841D01*
X18872396Y-8417841D02*
X18939063Y-8274984D01*
X18939063Y-8274984D02*
X18939063Y-8474984D01*
X19120015Y-8474984D02*
X19120015Y-8370222D01*
X19120015Y-8370222D02*
X19110491Y-8351174D01*
X19110491Y-8351174D02*
X19091444Y-8341650D01*
X19091444Y-8341650D02*
X19053348Y-8341650D01*
X19053348Y-8341650D02*
X19034301Y-8351174D01*
X19120015Y-8465460D02*
X19100967Y-8474984D01*
X19100967Y-8474984D02*
X19053348Y-8474984D01*
X19053348Y-8474984D02*
X19034301Y-8465460D01*
X19034301Y-8465460D02*
X19024777Y-8446412D01*
X19024777Y-8446412D02*
X19024777Y-8427365D01*
X19024777Y-8427365D02*
X19034301Y-8408317D01*
X19034301Y-8408317D02*
X19053348Y-8398793D01*
X19053348Y-8398793D02*
X19100967Y-8398793D01*
X19100967Y-8398793D02*
X19120015Y-8389270D01*
X19215253Y-8341650D02*
X19215253Y-8541650D01*
X19215253Y-8351174D02*
X19234301Y-8341650D01*
X19234301Y-8341650D02*
X19272396Y-8341650D01*
X19272396Y-8341650D02*
X19291444Y-8351174D01*
X19291444Y-8351174D02*
X19300967Y-8360698D01*
X19300967Y-8360698D02*
X19310491Y-8379746D01*
X19310491Y-8379746D02*
X19310491Y-8436889D01*
X19310491Y-8436889D02*
X19300967Y-8455936D01*
X19300967Y-8455936D02*
X19291444Y-8465460D01*
X19291444Y-8465460D02*
X19272396Y-8474984D01*
X19272396Y-8474984D02*
X19234301Y-8474984D01*
X19234301Y-8474984D02*
X19215253Y-8465460D01*
X19396205Y-8455936D02*
X19405729Y-8465460D01*
X19405729Y-8465460D02*
X19396205Y-8474984D01*
X19396205Y-8474984D02*
X19386682Y-8465460D01*
X19386682Y-8465460D02*
X19396205Y-8455936D01*
X19396205Y-8455936D02*
X19396205Y-8474984D01*
X19396205Y-8351174D02*
X19405729Y-8360698D01*
X19405729Y-8360698D02*
X19396205Y-8370222D01*
X19396205Y-8370222D02*
X19386682Y-8360698D01*
X19386682Y-8360698D02*
X19396205Y-8351174D01*
X19396205Y-8351174D02*
X19396205Y-8370222D01*
M02*
