G04 #@! TF.GenerationSoftware,KiCad,Pcbnew,8.0.6*
G04 #@! TF.CreationDate,2024-11-23T11:54:57+01:00*
G04 #@! TF.ProjectId,ChristmasTreeBrain,43687269-7374-46d6-9173-547265654272,rev?*
G04 #@! TF.SameCoordinates,Original*
G04 #@! TF.FileFunction,Legend,Bot*
G04 #@! TF.FilePolarity,Positive*
%FSLAX46Y46*%
G04 Gerber Fmt 4.6, Leading zero omitted, Abs format (unit mm)*
G04 Created by KiCad (PCBNEW 8.0.6) date 2024-11-23 11:54:57*
%MOMM*%
%LPD*%
G01*
G04 APERTURE LIST*
%ADD10C,0.150000*%
%ADD11C,0.000000*%
%ADD12C,0.120000*%
%ADD13C,2.100000*%
%ADD14C,1.750000*%
%ADD15O,2.000000X1.400000*%
%ADD16R,1.700000X1.700000*%
%ADD17O,1.700000X1.700000*%
G04 APERTURE END LIST*
D10*
X202521019Y-46077128D02*
X202521019Y-46791413D01*
X202521019Y-46791413D02*
X202568638Y-46934270D01*
X202568638Y-46934270D02*
X202663876Y-47029509D01*
X202663876Y-47029509D02*
X202806733Y-47077128D01*
X202806733Y-47077128D02*
X202901971Y-47077128D01*
X202140066Y-46077128D02*
X201521019Y-46077128D01*
X201521019Y-46077128D02*
X201854352Y-46458080D01*
X201854352Y-46458080D02*
X201711495Y-46458080D01*
X201711495Y-46458080D02*
X201616257Y-46505699D01*
X201616257Y-46505699D02*
X201568638Y-46553318D01*
X201568638Y-46553318D02*
X201521019Y-46648556D01*
X201521019Y-46648556D02*
X201521019Y-46886651D01*
X201521019Y-46886651D02*
X201568638Y-46981889D01*
X201568638Y-46981889D02*
X201616257Y-47029509D01*
X201616257Y-47029509D02*
X201711495Y-47077128D01*
X201711495Y-47077128D02*
X201997209Y-47077128D01*
X201997209Y-47077128D02*
X202092447Y-47029509D01*
X202092447Y-47029509D02*
X202140066Y-46981889D01*
X187554814Y-56746666D02*
X188269099Y-56746666D01*
X188269099Y-56746666D02*
X188411956Y-56699047D01*
X188411956Y-56699047D02*
X188507195Y-56603809D01*
X188507195Y-56603809D02*
X188554814Y-56460952D01*
X188554814Y-56460952D02*
X188554814Y-56365714D01*
X187650052Y-57175238D02*
X187602433Y-57222857D01*
X187602433Y-57222857D02*
X187554814Y-57318095D01*
X187554814Y-57318095D02*
X187554814Y-57556190D01*
X187554814Y-57556190D02*
X187602433Y-57651428D01*
X187602433Y-57651428D02*
X187650052Y-57699047D01*
X187650052Y-57699047D02*
X187745290Y-57746666D01*
X187745290Y-57746666D02*
X187840528Y-57746666D01*
X187840528Y-57746666D02*
X187983385Y-57699047D01*
X187983385Y-57699047D02*
X188554814Y-57127619D01*
X188554814Y-57127619D02*
X188554814Y-57746666D01*
X202521019Y-60727128D02*
X202521019Y-61441413D01*
X202521019Y-61441413D02*
X202568638Y-61584270D01*
X202568638Y-61584270D02*
X202663876Y-61679509D01*
X202663876Y-61679509D02*
X202806733Y-61727128D01*
X202806733Y-61727128D02*
X202901971Y-61727128D01*
X201616257Y-61060461D02*
X201616257Y-61727128D01*
X201854352Y-60679509D02*
X202092447Y-61393794D01*
X202092447Y-61393794D02*
X201473400Y-61393794D01*
X211854819Y-56686666D02*
X212569104Y-56686666D01*
X212569104Y-56686666D02*
X212711961Y-56639047D01*
X212711961Y-56639047D02*
X212807200Y-56543809D01*
X212807200Y-56543809D02*
X212854819Y-56400952D01*
X212854819Y-56400952D02*
X212854819Y-56305714D01*
X212854819Y-57686666D02*
X212854819Y-57115238D01*
X212854819Y-57400952D02*
X211854819Y-57400952D01*
X211854819Y-57400952D02*
X211997676Y-57305714D01*
X211997676Y-57305714D02*
X212092914Y-57210476D01*
X212092914Y-57210476D02*
X212140533Y-57115238D01*
D11*
G36*
X191857909Y-45975243D02*
G01*
X191876083Y-45977039D01*
X191991095Y-45984271D01*
X192176459Y-45992530D01*
X192421656Y-46001478D01*
X192716169Y-46010776D01*
X193049481Y-46020086D01*
X193411074Y-46029071D01*
X193790429Y-46037391D01*
X193860208Y-46038828D01*
X194341876Y-46049629D01*
X194747321Y-46061489D01*
X195083257Y-46076057D01*
X195356397Y-46094981D01*
X195573454Y-46119907D01*
X195741142Y-46152483D01*
X195866174Y-46194357D01*
X195955264Y-46247177D01*
X196015126Y-46312589D01*
X196052472Y-46392242D01*
X196074016Y-46487783D01*
X196086472Y-46600859D01*
X196092156Y-46682442D01*
X196088436Y-46785059D01*
X196058673Y-46851328D01*
X195993859Y-46911458D01*
X195938898Y-46949176D01*
X195846716Y-46992558D01*
X195727575Y-47026381D01*
X195572008Y-47051696D01*
X195370547Y-47069555D01*
X195113724Y-47081009D01*
X194792072Y-47087111D01*
X194396122Y-47088911D01*
X193329373Y-47088911D01*
X193329373Y-47319439D01*
X193329373Y-47549967D01*
X194031436Y-47550311D01*
X194329141Y-47552543D01*
X194731716Y-47565068D01*
X195062288Y-47589927D01*
X195327715Y-47628612D01*
X195534860Y-47682615D01*
X195690583Y-47753431D01*
X195801744Y-47842551D01*
X195875204Y-47951468D01*
X195882813Y-47967605D01*
X195919381Y-48066270D01*
X195919452Y-48154062D01*
X195884250Y-48274720D01*
X195856684Y-48347265D01*
X195808030Y-48424331D01*
X195729965Y-48476448D01*
X195596544Y-48526304D01*
X195570614Y-48534414D01*
X195370097Y-48578505D01*
X195103999Y-48614450D01*
X194787649Y-48641996D01*
X194436373Y-48660889D01*
X194065502Y-48670875D01*
X193690362Y-48671700D01*
X193326282Y-48663112D01*
X192988590Y-48644856D01*
X192692615Y-48616678D01*
X192453684Y-48578325D01*
X192235023Y-48524996D01*
X191996253Y-48443802D01*
X191827441Y-48354584D01*
X191735510Y-48260409D01*
X191713763Y-48200683D01*
X191704619Y-48048933D01*
X191736878Y-47884314D01*
X191805556Y-47743606D01*
X191822631Y-47721631D01*
X191916164Y-47639724D01*
X192045230Y-47586835D01*
X192225453Y-47558428D01*
X192472454Y-47549967D01*
X192818537Y-47549967D01*
X192847729Y-47337713D01*
X192857263Y-47259317D01*
X192864851Y-47156527D01*
X192861027Y-47109564D01*
X192827558Y-47101261D01*
X192725428Y-47086015D01*
X192572276Y-47067133D01*
X192385723Y-47046938D01*
X192226493Y-47027893D01*
X191893410Y-46962993D01*
X191638323Y-46871551D01*
X191459976Y-46753032D01*
X191357116Y-46606898D01*
X191347697Y-46582001D01*
X191323662Y-46395963D01*
X191376815Y-46189784D01*
X191426773Y-46094973D01*
X191522882Y-46005549D01*
X191661096Y-45968092D01*
X191857909Y-45975243D01*
G37*
G36*
X196072511Y-42516638D02*
G01*
X196090862Y-42534385D01*
X196169529Y-42585366D01*
X196282914Y-42645324D01*
X196406529Y-42719085D01*
X196497287Y-42815833D01*
X196581524Y-42964379D01*
X196638683Y-43091511D01*
X196670846Y-43204624D01*
X196680417Y-43331374D01*
X196673278Y-43506504D01*
X196631285Y-43785291D01*
X196511360Y-44117354D01*
X196313587Y-44438721D01*
X196034979Y-44755236D01*
X195957027Y-44831373D01*
X195810491Y-44970531D01*
X195680472Y-45089329D01*
X195588194Y-45168155D01*
X195446040Y-45280238D01*
X195571782Y-45329950D01*
X195648353Y-45363417D01*
X195663281Y-45387688D01*
X195613697Y-45414014D01*
X195604718Y-45417437D01*
X195506828Y-45438926D01*
X195383429Y-45449288D01*
X195261671Y-45448537D01*
X195168705Y-45436689D01*
X195131683Y-45413757D01*
X195128928Y-45407249D01*
X195082029Y-45411223D01*
X194995462Y-45451926D01*
X194970770Y-45465132D01*
X194848341Y-45519483D01*
X194682894Y-45583004D01*
X194502971Y-45644534D01*
X194335570Y-45690112D01*
X194012978Y-45747831D01*
X193659689Y-45781636D01*
X193303051Y-45790282D01*
X192970409Y-45772523D01*
X192735725Y-45734639D01*
X192689112Y-45727115D01*
X192349188Y-45619268D01*
X192014127Y-45447483D01*
X191741118Y-45227597D01*
X191534498Y-44963201D01*
X191398601Y-44657888D01*
X191379337Y-44580963D01*
X191366597Y-44322555D01*
X191380669Y-44257342D01*
X191904044Y-44257342D01*
X191919480Y-44382620D01*
X192017149Y-44502293D01*
X192197832Y-44620327D01*
X192271644Y-44657150D01*
X192350113Y-44685943D01*
X192441862Y-44704069D01*
X192564522Y-44713709D01*
X192735725Y-44717047D01*
X192973103Y-44716262D01*
X193137224Y-44712672D01*
X193509177Y-44687011D01*
X193854522Y-44639410D01*
X194161893Y-44572639D01*
X194419923Y-44489470D01*
X194617249Y-44392671D01*
X194742502Y-44285014D01*
X194785902Y-44196359D01*
X194783609Y-44057173D01*
X194713021Y-43912189D01*
X194580751Y-43773390D01*
X194393415Y-43652756D01*
X194308593Y-43616855D01*
X194078501Y-43559153D01*
X193802389Y-43528766D01*
X193503182Y-43526388D01*
X193203804Y-43552710D01*
X192927183Y-43608427D01*
X192840865Y-43632622D01*
X192583920Y-43714309D01*
X192384393Y-43797866D01*
X192222209Y-43892738D01*
X192077295Y-44008373D01*
X191970059Y-44122490D01*
X191904044Y-44257342D01*
X191380669Y-44257342D01*
X191423035Y-44061013D01*
X191542107Y-43817771D01*
X191717267Y-43614260D01*
X191801834Y-43547420D01*
X192063549Y-43397834D01*
X192387951Y-43274992D01*
X192762012Y-43182424D01*
X193172709Y-43123659D01*
X193607014Y-43102225D01*
X193776248Y-43103441D01*
X193945553Y-43108874D01*
X194068852Y-43117699D01*
X194127239Y-43128945D01*
X194162515Y-43133270D01*
X194222839Y-43091407D01*
X194240574Y-43073228D01*
X194329926Y-43015853D01*
X194450578Y-42963327D01*
X194514321Y-42941551D01*
X194592006Y-42921656D01*
X194623070Y-42934429D01*
X194628713Y-42982103D01*
X194640461Y-43027356D01*
X194720737Y-43105222D01*
X194879367Y-43180847D01*
X195119086Y-43255758D01*
X195196089Y-43275081D01*
X195473243Y-43317178D01*
X195707205Y-43299476D01*
X195913134Y-43219176D01*
X196106188Y-43073479D01*
X196112117Y-43067810D01*
X196183649Y-42972904D01*
X196218447Y-42876538D01*
X196212315Y-42801793D01*
X196161055Y-42771750D01*
X196135397Y-42775097D01*
X196074753Y-42813664D01*
X196065140Y-42825127D01*
X195989728Y-42852760D01*
X195890821Y-42845698D01*
X195810693Y-42805281D01*
X195772439Y-42738002D01*
X195765746Y-42624400D01*
X195810693Y-42528647D01*
X195826875Y-42515433D01*
X195914349Y-42483692D01*
X196010308Y-42483448D01*
X196072511Y-42516638D01*
G37*
G36*
X200908596Y-42501457D02*
G01*
X201049253Y-42510742D01*
X201286572Y-42521915D01*
X201568272Y-42531537D01*
X201876855Y-42539118D01*
X202194827Y-42544167D01*
X202504690Y-42546194D01*
X202750955Y-42547005D01*
X203123967Y-42551289D01*
X203432656Y-42560162D01*
X203683932Y-42574723D01*
X203884705Y-42596070D01*
X204041882Y-42625299D01*
X204162375Y-42663510D01*
X204253092Y-42711800D01*
X204320944Y-42771266D01*
X204372838Y-42843006D01*
X204414944Y-42940817D01*
X204437084Y-43089822D01*
X204417445Y-43229100D01*
X204356908Y-43331645D01*
X204314335Y-43364779D01*
X204238962Y-43402005D01*
X204136025Y-43431151D01*
X203997586Y-43453076D01*
X203815703Y-43468636D01*
X203582437Y-43478690D01*
X203289850Y-43484093D01*
X202929999Y-43485704D01*
X201953481Y-43485704D01*
X201953481Y-43692667D01*
X201953481Y-43899629D01*
X202564963Y-43899938D01*
X202802692Y-43901538D01*
X203182550Y-43912701D01*
X203495509Y-43935803D01*
X203746578Y-43972361D01*
X203940767Y-44023893D01*
X204083083Y-44091915D01*
X204178537Y-44177946D01*
X204232135Y-44283503D01*
X204248889Y-44410103D01*
X204244291Y-44516718D01*
X204212743Y-44637701D01*
X204140270Y-44719068D01*
X204014133Y-44780946D01*
X203926189Y-44809440D01*
X203771933Y-44843669D01*
X203580553Y-44869480D01*
X203344466Y-44887390D01*
X203056091Y-44897921D01*
X202707845Y-44901590D01*
X202292148Y-44898919D01*
X202268163Y-44898613D01*
X201943426Y-44893180D01*
X201683260Y-44885804D01*
X201477650Y-44875867D01*
X201316580Y-44862749D01*
X201190035Y-44845832D01*
X201088000Y-44824497D01*
X200963822Y-44790642D01*
X200745636Y-44713763D01*
X200594244Y-44628160D01*
X200503848Y-44528478D01*
X200468652Y-44409360D01*
X200482858Y-44265452D01*
X200498117Y-44207221D01*
X200547440Y-44090054D01*
X200622572Y-44007796D01*
X200735795Y-43953482D01*
X200899388Y-43920145D01*
X201125629Y-43900819D01*
X201483111Y-43880815D01*
X201494299Y-43688611D01*
X201505488Y-43496407D01*
X201212077Y-43469822D01*
X201072502Y-43455440D01*
X200752615Y-43404942D01*
X200503000Y-43335858D01*
X200321558Y-43247496D01*
X200206190Y-43139168D01*
X200193436Y-43117056D01*
X200160235Y-43008805D01*
X200147259Y-42875850D01*
X200151525Y-42785268D01*
X200181975Y-42677188D01*
X200253906Y-42577310D01*
X200360554Y-42457951D01*
X200908596Y-42501457D01*
G37*
G36*
X205670104Y-38724438D02*
G01*
X205846204Y-38795353D01*
X205979256Y-38920567D01*
X206063391Y-39096831D01*
X206092740Y-39320896D01*
X206092178Y-39365861D01*
X206075587Y-39542026D01*
X206038598Y-39660129D01*
X205984736Y-39715936D01*
X205917527Y-39705214D01*
X205840497Y-39623731D01*
X205804308Y-39573080D01*
X205689650Y-39434043D01*
X205567884Y-39310882D01*
X205455345Y-39219142D01*
X205368370Y-39174373D01*
X205311143Y-39167342D01*
X205267560Y-39193612D01*
X205280730Y-39266774D01*
X205350535Y-39388230D01*
X205457317Y-39553908D01*
X205542584Y-39708158D01*
X205589318Y-39829818D01*
X205603555Y-39931854D01*
X205600250Y-39999101D01*
X205576796Y-40049412D01*
X205518622Y-40061407D01*
X205518060Y-40061404D01*
X205446801Y-40037833D01*
X205342352Y-39977009D01*
X205227115Y-39891956D01*
X205145204Y-39826931D01*
X204956699Y-39698608D01*
X204807866Y-39632495D01*
X204699472Y-39628975D01*
X204681541Y-39635440D01*
X204633357Y-39676729D01*
X204640327Y-39745901D01*
X204702610Y-39854444D01*
X204816878Y-40039808D01*
X204908996Y-40235810D01*
X204956732Y-40404678D01*
X204957624Y-40537248D01*
X204909213Y-40624353D01*
X204886969Y-40639643D01*
X204822937Y-40651918D01*
X204739932Y-40622203D01*
X204627754Y-40545621D01*
X204476202Y-40417292D01*
X204374521Y-40331610D01*
X204242803Y-40242263D01*
X204150498Y-40211926D01*
X204121583Y-40215070D01*
X204013221Y-40270127D01*
X203894166Y-40388293D01*
X203772121Y-40562432D01*
X203690465Y-40697262D01*
X203822386Y-40740799D01*
X204002834Y-40827375D01*
X204142200Y-40957665D01*
X204219863Y-41114902D01*
X204232951Y-41287970D01*
X204178593Y-41465749D01*
X204053916Y-41637122D01*
X204003107Y-41693788D01*
X203968417Y-41764742D01*
X204001478Y-41812951D01*
X204104960Y-41849524D01*
X204122393Y-41853265D01*
X204190845Y-41851210D01*
X204265652Y-41812478D01*
X204368367Y-41727044D01*
X204529722Y-41590214D01*
X204678387Y-41490257D01*
X204791436Y-41450235D01*
X204872512Y-41468957D01*
X204925256Y-41545236D01*
X204942128Y-41645707D01*
X204916000Y-41776623D01*
X204840264Y-41939012D01*
X204711602Y-42142142D01*
X204624891Y-42272572D01*
X204579053Y-42356356D01*
X204568910Y-42405929D01*
X204589182Y-42433876D01*
X204592356Y-42435856D01*
X204671340Y-42466548D01*
X204761882Y-42461413D01*
X204874562Y-42416273D01*
X205019962Y-42326950D01*
X205208665Y-42189265D01*
X205340266Y-42103656D01*
X205450799Y-42066364D01*
X205521552Y-42084701D01*
X205550422Y-42153099D01*
X205535310Y-42265992D01*
X205474115Y-42417811D01*
X205364736Y-42602988D01*
X205272359Y-42745841D01*
X205211032Y-42858064D01*
X205194266Y-42923895D01*
X205220610Y-42949790D01*
X205288618Y-42942203D01*
X205373321Y-42912330D01*
X205471003Y-42850154D01*
X205578513Y-42747761D01*
X205710438Y-42593076D01*
X205713586Y-42589183D01*
X205800644Y-42490958D01*
X205873762Y-42424760D01*
X205917401Y-42404729D01*
X205940083Y-42420085D01*
X205985328Y-42496278D01*
X206021119Y-42611315D01*
X206040879Y-42740430D01*
X206038030Y-42858860D01*
X206034672Y-42877883D01*
X205996564Y-43015073D01*
X205942247Y-43146987D01*
X205911096Y-43198829D01*
X205787696Y-43316022D01*
X205624998Y-43383666D01*
X205434873Y-43402924D01*
X205229194Y-43374956D01*
X205019832Y-43300926D01*
X204818658Y-43181993D01*
X204637545Y-43019321D01*
X204569759Y-42945438D01*
X204455834Y-42822669D01*
X204321153Y-42678532D01*
X204182504Y-42531038D01*
X204064107Y-42402641D01*
X203938452Y-42260172D01*
X203835787Y-42137211D01*
X203770867Y-42050965D01*
X203748816Y-42019101D01*
X203679911Y-41944251D01*
X203632211Y-41936899D01*
X203629457Y-41938959D01*
X203549569Y-41982890D01*
X203418393Y-42040407D01*
X203255598Y-42104130D01*
X203080855Y-42166681D01*
X202913835Y-42220680D01*
X202774208Y-42258750D01*
X202508297Y-42310250D01*
X202098155Y-42349241D01*
X201709996Y-42337401D01*
X201596000Y-42318277D01*
X201350227Y-42277047D01*
X201025253Y-42170494D01*
X200741481Y-42020059D01*
X200505315Y-41828057D01*
X200323161Y-41596804D01*
X200201427Y-41328616D01*
X200157401Y-41100290D01*
X200169035Y-40958486D01*
X200674776Y-40958486D01*
X200698730Y-41078717D01*
X200795699Y-41190724D01*
X200964836Y-41291784D01*
X201008644Y-41309654D01*
X201097025Y-41332724D01*
X201214044Y-41346883D01*
X201375203Y-41353673D01*
X201596000Y-41354640D01*
X201708426Y-41352921D01*
X202084194Y-41330419D01*
X202425232Y-41283868D01*
X202721818Y-41215365D01*
X202964234Y-41127008D01*
X203142757Y-41020894D01*
X203170416Y-40996524D01*
X203239702Y-40886023D01*
X203240698Y-40763788D01*
X203176649Y-40637111D01*
X203050799Y-40513284D01*
X202866391Y-40399601D01*
X202860067Y-40396492D01*
X202668965Y-40332692D01*
X202428840Y-40296382D01*
X202160176Y-40288230D01*
X201883458Y-40308900D01*
X201619171Y-40359059D01*
X201593383Y-40365843D01*
X201264152Y-40473214D01*
X200996484Y-40602243D01*
X200796370Y-40750082D01*
X200724681Y-40832751D01*
X200674776Y-40958486D01*
X200169035Y-40958486D01*
X200177391Y-40856643D01*
X200270940Y-40628413D01*
X200437815Y-40416497D01*
X200465525Y-40389248D01*
X200609132Y-40266181D01*
X200761545Y-40172412D01*
X200944848Y-40096348D01*
X201181127Y-40026400D01*
X201488661Y-39956981D01*
X201896215Y-39900965D01*
X202276681Y-39890587D01*
X202622903Y-39924997D01*
X202927727Y-40003343D01*
X203184001Y-40124776D01*
X203384569Y-40288443D01*
X203522883Y-40438264D01*
X203666733Y-40202799D01*
X203704048Y-40147220D01*
X203813629Y-40007481D01*
X203965730Y-39832602D01*
X204151515Y-39632562D01*
X204362150Y-39417339D01*
X204463872Y-39316269D01*
X204636208Y-39148002D01*
X204771033Y-39022352D01*
X204878004Y-38931374D01*
X204966775Y-38867125D01*
X205047003Y-38821662D01*
X205128344Y-38787043D01*
X205212243Y-38758502D01*
X205456828Y-38711071D01*
X205670104Y-38724438D01*
G37*
G36*
X207929274Y-51821080D02*
G01*
X207938869Y-51823863D01*
X208015787Y-51831955D01*
X208160157Y-51840567D01*
X208363265Y-51849387D01*
X208616397Y-51858102D01*
X208910839Y-51866401D01*
X209237879Y-51873973D01*
X209588802Y-51880504D01*
X209918960Y-51886338D01*
X210327763Y-51895311D01*
X210669126Y-51905570D01*
X210950070Y-51917704D01*
X211177614Y-51932304D01*
X211358778Y-51949958D01*
X211500580Y-51971258D01*
X211610042Y-51996792D01*
X211694182Y-52027151D01*
X211760021Y-52062924D01*
X211857808Y-52154222D01*
X211935141Y-52293666D01*
X211968883Y-52446947D01*
X211954473Y-52591133D01*
X211887352Y-52703292D01*
X211885034Y-52705436D01*
X211823639Y-52751370D01*
X211744518Y-52788017D01*
X211638870Y-52816353D01*
X211497893Y-52837351D01*
X211312786Y-52851987D01*
X211074746Y-52861234D01*
X210774974Y-52866068D01*
X210404666Y-52867462D01*
X209350677Y-52867462D01*
X209347370Y-52996447D01*
X209342396Y-53109255D01*
X209334159Y-53214728D01*
X209332232Y-53236255D01*
X209337030Y-53264722D01*
X209362236Y-53283979D01*
X209419645Y-53295945D01*
X209521048Y-53302539D01*
X209678240Y-53305681D01*
X209903013Y-53307289D01*
X209979798Y-53307831D01*
X210188688Y-53310419D01*
X210370035Y-53314223D01*
X210506562Y-53318823D01*
X210580990Y-53323798D01*
X210587006Y-53324573D01*
X210681311Y-53334354D01*
X210823474Y-53346828D01*
X210985165Y-53359494D01*
X211182306Y-53381769D01*
X211435401Y-53444576D01*
X211617670Y-53541797D01*
X211729860Y-53674105D01*
X211772718Y-53842174D01*
X211746990Y-54046678D01*
X211713396Y-54112222D01*
X211614507Y-54191138D01*
X211452838Y-54255157D01*
X211225790Y-54304667D01*
X210930763Y-54340057D01*
X210565159Y-54361713D01*
X210126379Y-54370024D01*
X209611824Y-54365378D01*
X209482487Y-54362541D01*
X209114940Y-54350356D01*
X208813508Y-54332249D01*
X208568145Y-54306595D01*
X208368807Y-54271769D01*
X208205448Y-54226147D01*
X208068022Y-54168103D01*
X207946484Y-54096012D01*
X207935092Y-54088197D01*
X207848867Y-54017277D01*
X207811418Y-53941800D01*
X207803136Y-53824647D01*
X207805666Y-53754482D01*
X207844752Y-53582363D01*
X207935365Y-53454991D01*
X208083014Y-53368632D01*
X208293207Y-53319555D01*
X208571454Y-53304025D01*
X208874427Y-53304025D01*
X208874427Y-53094368D01*
X208874427Y-52884711D01*
X208440366Y-52838578D01*
X208154238Y-52797696D01*
X207870996Y-52727019D01*
X207660072Y-52633957D01*
X207523596Y-52519253D01*
X207481521Y-52450556D01*
X207443473Y-52298493D01*
X207456568Y-52137883D01*
X207514423Y-51989644D01*
X207610650Y-51874698D01*
X207738866Y-51813963D01*
X207750861Y-51811869D01*
X207857180Y-51805593D01*
X207929274Y-51821080D01*
G37*
G36*
X209234871Y-48250332D02*
G01*
X209292479Y-48354155D01*
X209314592Y-48442306D01*
X210414119Y-48442306D01*
X211513646Y-48442306D01*
X211751767Y-48561369D01*
X211963945Y-48700979D01*
X212157251Y-48915114D01*
X212298396Y-49184902D01*
X212385461Y-49506546D01*
X212416527Y-49876250D01*
X212414171Y-50037932D01*
X212398745Y-50178539D01*
X212363021Y-50304935D01*
X212299992Y-50451719D01*
X212279094Y-50493666D01*
X212203053Y-50621031D01*
X212111965Y-50747995D01*
X212014821Y-50865575D01*
X211920616Y-50964784D01*
X211838340Y-51036639D01*
X211776986Y-51072155D01*
X211745547Y-51062347D01*
X211753015Y-50998230D01*
X211767748Y-50917377D01*
X211754563Y-50746435D01*
X211697374Y-50570900D01*
X211604583Y-50423313D01*
X211585101Y-50400875D01*
X211522454Y-50316972D01*
X211506374Y-50254304D01*
X211527891Y-50184995D01*
X211559022Y-50093108D01*
X211569846Y-49946365D01*
X211537467Y-49817992D01*
X211468069Y-49727016D01*
X211367833Y-49692462D01*
X211347995Y-49691474D01*
X211311328Y-49666217D01*
X211319365Y-49590813D01*
X211324701Y-49567119D01*
X211320005Y-49499437D01*
X211260590Y-49467122D01*
X211251795Y-49464652D01*
X211203975Y-49435803D01*
X211181751Y-49372762D01*
X211176302Y-49253139D01*
X211165407Y-49076573D01*
X211125466Y-48949471D01*
X211050684Y-48880076D01*
X210935335Y-48859025D01*
X210892010Y-48860487D01*
X210781912Y-48891207D01*
X210687274Y-48976929D01*
X210630348Y-49067159D01*
X210565222Y-49230922D01*
X210519115Y-49417578D01*
X210501615Y-49595197D01*
X210498036Y-49658450D01*
X210486816Y-49692462D01*
X210465544Y-49685339D01*
X210388785Y-49653020D01*
X210278457Y-49603439D01*
X210207952Y-49573484D01*
X210109197Y-49543353D01*
X209993575Y-49525342D01*
X209840276Y-49516594D01*
X209628490Y-49514253D01*
X209442008Y-49518439D01*
X209071131Y-49559456D01*
X208730991Y-49649014D01*
X208395606Y-49792984D01*
X208309600Y-49843908D01*
X208184153Y-49939580D01*
X208072430Y-50046025D01*
X207992296Y-50145633D01*
X207961615Y-50220794D01*
X207962405Y-50233925D01*
X208007066Y-50334251D01*
X208108878Y-50439982D01*
X208251972Y-50533999D01*
X208373472Y-50580137D01*
X208586326Y-50620538D01*
X208844029Y-50638783D01*
X209131117Y-50636514D01*
X209432127Y-50615372D01*
X209731594Y-50577002D01*
X210014055Y-50523046D01*
X210264047Y-50455145D01*
X210466104Y-50374943D01*
X210604764Y-50284083D01*
X210611082Y-50278153D01*
X210676242Y-50224049D01*
X210721586Y-50222272D01*
X210781801Y-50270079D01*
X210841436Y-50354599D01*
X210841935Y-50465122D01*
X210838539Y-50527279D01*
X210875856Y-50669932D01*
X210959764Y-50800768D01*
X211073192Y-50888536D01*
X211147112Y-50949246D01*
X211184475Y-51067167D01*
X211187471Y-51094880D01*
X211186315Y-51159365D01*
X211157982Y-51206612D01*
X211087423Y-51253269D01*
X210959592Y-51315986D01*
X210861957Y-51360430D01*
X210452166Y-51512267D01*
X210040957Y-51612607D01*
X209635643Y-51663194D01*
X209243536Y-51665774D01*
X208871946Y-51622092D01*
X208528188Y-51533893D01*
X208219571Y-51402921D01*
X207953409Y-51230922D01*
X207737013Y-51019641D01*
X207577696Y-50770823D01*
X207482768Y-50486212D01*
X207467552Y-50296205D01*
X207512066Y-50047691D01*
X207623732Y-49812187D01*
X207795950Y-49602598D01*
X208022121Y-49431824D01*
X208082559Y-49399860D01*
X208283894Y-49319808D01*
X208536420Y-49245928D01*
X208819878Y-49182974D01*
X209114011Y-49135698D01*
X209398561Y-49108854D01*
X209823476Y-49085441D01*
X209537467Y-48942190D01*
X209523297Y-48935124D01*
X209368182Y-48863983D01*
X209274650Y-48835632D01*
X209238632Y-48848799D01*
X209204033Y-48888409D01*
X209122690Y-48924539D01*
X209086848Y-48931282D01*
X209070202Y-48928140D01*
X209007774Y-48916358D01*
X208927157Y-48842978D01*
X208925828Y-48841424D01*
X208849325Y-48696200D01*
X208846974Y-48651936D01*
X208922858Y-48651936D01*
X208990673Y-48785175D01*
X209015964Y-48814430D01*
X209070202Y-48852099D01*
X209116730Y-48830203D01*
X209141208Y-48786153D01*
X209171962Y-48681354D01*
X209195771Y-48552568D01*
X209207138Y-48431328D01*
X209200569Y-48349168D01*
X209199177Y-48345261D01*
X209153188Y-48305280D01*
X209080526Y-48327641D01*
X208996371Y-48407971D01*
X208934307Y-48515044D01*
X208922858Y-48651936D01*
X208846974Y-48651936D01*
X208840823Y-48536100D01*
X208897290Y-48381357D01*
X209015693Y-48252205D01*
X209033235Y-48240308D01*
X209141921Y-48209976D01*
X209234871Y-48250332D01*
G37*
G36*
X218017871Y-59536208D02*
G01*
X218236149Y-59601382D01*
X218440271Y-59709570D01*
X218623253Y-59860797D01*
X218778110Y-60055087D01*
X218785846Y-60067335D01*
X218887525Y-60280338D01*
X218943785Y-60511650D01*
X218955056Y-60750633D01*
X218921770Y-60986643D01*
X218844360Y-61209042D01*
X218723257Y-61407188D01*
X218655169Y-61494188D01*
X218763964Y-61710570D01*
X218837791Y-61862702D01*
X219052363Y-62376493D01*
X219232343Y-62925272D01*
X219375631Y-63500986D01*
X219480126Y-64095583D01*
X219543728Y-64701009D01*
X219549193Y-64789116D01*
X219553506Y-65231847D01*
X219515506Y-65650008D01*
X219433077Y-66051930D01*
X219304105Y-66445943D01*
X219126473Y-66840377D01*
X218898066Y-67243562D01*
X218781529Y-67422100D01*
X218542013Y-67746587D01*
X218271058Y-68068678D01*
X217977132Y-68380089D01*
X217668705Y-68672538D01*
X217354245Y-68937742D01*
X217042220Y-69167417D01*
X216741099Y-69353281D01*
X216664177Y-69396544D01*
X216594208Y-69442661D01*
X216589466Y-69445787D01*
X216537246Y-69497603D01*
X216492414Y-69568029D01*
X216439868Y-69673099D01*
X216335109Y-69850061D01*
X216189787Y-70029427D01*
X216023462Y-70185267D01*
X215850847Y-70301873D01*
X215653235Y-70396113D01*
X215400333Y-70479625D01*
X215162835Y-70514353D01*
X215129939Y-70512187D01*
X214943772Y-70499928D01*
X214746178Y-70435983D01*
X214664176Y-70392473D01*
X214573861Y-70334711D01*
X214513216Y-70284384D01*
X214446994Y-70212479D01*
X214179737Y-70484573D01*
X214008233Y-70650693D01*
X213721255Y-70889052D01*
X213435128Y-71075359D01*
X213146119Y-71211572D01*
X212850494Y-71299646D01*
X212544520Y-71341538D01*
X212425097Y-71345974D01*
X212413727Y-71345495D01*
X212138211Y-71333900D01*
X211854357Y-71292351D01*
X211583624Y-71224194D01*
X211336102Y-71132297D01*
X211121880Y-71019525D01*
X210951047Y-70888747D01*
X210879767Y-70820865D01*
X210719071Y-70876153D01*
X210427737Y-70958935D01*
X210113601Y-71007884D01*
X209814762Y-71011582D01*
X209536840Y-70970002D01*
X209285456Y-70883116D01*
X209219999Y-70848453D01*
X209060346Y-70731993D01*
X208900210Y-70575118D01*
X208747170Y-70387680D01*
X208608805Y-70179528D01*
X208492693Y-69960513D01*
X208406412Y-69740488D01*
X208330111Y-69499690D01*
X207926173Y-69306010D01*
X207706935Y-69195666D01*
X207315335Y-68969459D01*
X206961498Y-68725283D01*
X206647643Y-68465736D01*
X206375988Y-68193417D01*
X206148751Y-67910924D01*
X205968150Y-67620856D01*
X205836403Y-67325811D01*
X205755728Y-67028388D01*
X205728344Y-66731186D01*
X205728344Y-66597340D01*
X205624132Y-66596457D01*
X205531515Y-66584560D01*
X205448122Y-66536257D01*
X205380037Y-66441864D01*
X205362314Y-66401059D01*
X205349277Y-66335845D01*
X205346494Y-66243873D01*
X205352802Y-66111017D01*
X205393021Y-65748397D01*
X205454601Y-65464263D01*
X206033369Y-65464263D01*
X206132697Y-65445629D01*
X206156779Y-65441966D01*
X206279324Y-65447488D01*
X206388237Y-65488794D01*
X206465066Y-65559558D01*
X206495952Y-65640025D01*
X206497135Y-65748143D01*
X206467361Y-65889207D01*
X206405922Y-66069332D01*
X206386275Y-66121563D01*
X206358848Y-66204596D01*
X206341215Y-66282747D01*
X206331250Y-66371128D01*
X206326829Y-66484850D01*
X206325828Y-66639025D01*
X206326026Y-66720384D01*
X206328380Y-66852245D01*
X206334955Y-66949525D01*
X206347685Y-67026314D01*
X206368503Y-67096703D01*
X206399343Y-67174782D01*
X206463049Y-67315171D01*
X206574161Y-67512822D01*
X206709452Y-67697922D01*
X206881626Y-67889296D01*
X206958145Y-67965826D01*
X207262371Y-68230788D01*
X207607510Y-68473768D01*
X207997895Y-68697593D01*
X208437863Y-68905095D01*
X208552122Y-68954894D01*
X208678966Y-69015471D01*
X208768432Y-69070749D01*
X208828962Y-69129684D01*
X208869002Y-69201236D01*
X208896997Y-69294361D01*
X208921390Y-69418019D01*
X208922905Y-69426255D01*
X208972288Y-69601141D01*
X209051642Y-69780663D01*
X209153788Y-69955046D01*
X209271548Y-70114515D01*
X209397744Y-70249295D01*
X209525195Y-70349610D01*
X209646725Y-70405687D01*
X209694544Y-70416439D01*
X209881459Y-70432894D01*
X210097323Y-70419669D01*
X210329110Y-70378129D01*
X210563793Y-70309639D01*
X210661377Y-70275926D01*
X210779857Y-70236633D01*
X210875025Y-70206917D01*
X210932397Y-70191423D01*
X210932519Y-70191398D01*
X211043855Y-70195356D01*
X211148874Y-70246293D01*
X211231602Y-70336464D01*
X211232386Y-70337728D01*
X211336942Y-70457231D01*
X211488154Y-70560989D01*
X211678730Y-70646354D01*
X211901379Y-70710679D01*
X212148809Y-70751317D01*
X212413727Y-70765621D01*
X212478846Y-70764449D01*
X212712110Y-70737040D01*
X212936089Y-70670368D01*
X213161327Y-70560557D01*
X213398366Y-70403731D01*
X213435490Y-70375084D01*
X213519819Y-70304307D01*
X213615537Y-70218731D01*
X213713764Y-70126909D01*
X213805619Y-70037397D01*
X213882225Y-69958750D01*
X213934700Y-69899522D01*
X213954165Y-69868269D01*
X213937437Y-69869074D01*
X213877665Y-69883729D01*
X213784714Y-69910627D01*
X213669318Y-69946811D01*
X213526960Y-69991666D01*
X213308864Y-70053034D01*
X213113109Y-70095694D01*
X212921836Y-70122560D01*
X212717186Y-70136543D01*
X212515246Y-70139979D01*
X212481298Y-70140557D01*
X212452711Y-70140546D01*
X212290559Y-70139539D01*
X212168341Y-70135757D01*
X212072456Y-70127589D01*
X211989305Y-70113425D01*
X211905288Y-70091653D01*
X211806805Y-70060662D01*
X211762256Y-70045432D01*
X211489604Y-69921009D01*
X211254129Y-69756452D01*
X211057499Y-69554215D01*
X210901376Y-69316755D01*
X210787427Y-69046525D01*
X210717315Y-68745982D01*
X210692706Y-68417581D01*
X210692783Y-68384744D01*
X211268924Y-68384744D01*
X211288015Y-68655615D01*
X211349885Y-68898125D01*
X211453006Y-69108922D01*
X211595850Y-69284654D01*
X211776889Y-69421969D01*
X211983375Y-69513475D01*
X212231927Y-69567162D01*
X212515246Y-69579439D01*
X212832273Y-69550407D01*
X213181946Y-69480165D01*
X213563206Y-69368812D01*
X213974991Y-69216447D01*
X214232031Y-69112329D01*
X214232037Y-67967663D01*
X214819670Y-67967663D01*
X214819888Y-68294661D01*
X214820690Y-68581778D01*
X214822193Y-68831672D01*
X214824512Y-69047004D01*
X214827764Y-69230432D01*
X214832065Y-69384617D01*
X214837532Y-69512217D01*
X214844281Y-69615893D01*
X214852428Y-69698303D01*
X214862090Y-69762107D01*
X214873382Y-69809965D01*
X214886421Y-69844536D01*
X214901324Y-69868480D01*
X214918206Y-69884455D01*
X214937184Y-69895122D01*
X214958375Y-69903140D01*
X214981894Y-69911168D01*
X215007858Y-69921866D01*
X215032723Y-69933321D01*
X215080804Y-69949582D01*
X215129939Y-69950861D01*
X215197296Y-69936129D01*
X215300045Y-69904357D01*
X215302695Y-69903501D01*
X215410060Y-69866037D01*
X215504472Y-69828305D01*
X215565767Y-69798349D01*
X215696414Y-69698309D01*
X215824990Y-69562332D01*
X215922703Y-69418019D01*
X215996725Y-69279069D01*
X216004191Y-65773019D01*
X216010538Y-62793040D01*
X216594208Y-62793040D01*
X216594208Y-65780332D01*
X216594208Y-68767625D01*
X216726210Y-68677637D01*
X216926064Y-68532421D01*
X217197479Y-68310862D01*
X217469598Y-68063867D01*
X217727964Y-67804712D01*
X217958117Y-67546668D01*
X218016310Y-67475867D01*
X218310189Y-67078366D01*
X218552323Y-66676671D01*
X218741780Y-66272714D01*
X218877632Y-65868431D01*
X218958947Y-65465756D01*
X218966632Y-65401455D01*
X218982931Y-65101480D01*
X218973796Y-64764081D01*
X218940489Y-64398289D01*
X218884274Y-64013134D01*
X218806412Y-63617647D01*
X218708166Y-63220861D01*
X218590798Y-62831804D01*
X218530044Y-62653427D01*
X218445740Y-62422923D01*
X218365576Y-62223110D01*
X218291651Y-62058573D01*
X218226067Y-61933898D01*
X218170924Y-61853668D01*
X218128324Y-61822470D01*
X218109238Y-61819833D01*
X218084599Y-61821341D01*
X218066082Y-61838693D01*
X218048943Y-61881447D01*
X218028439Y-61959160D01*
X217999827Y-62081389D01*
X217974733Y-62178692D01*
X217885645Y-62423168D01*
X217789359Y-62594685D01*
X217769625Y-62629838D01*
X217629873Y-62793701D01*
X217469591Y-62909756D01*
X217332045Y-62959016D01*
X217156512Y-62974067D01*
X216968834Y-62948167D01*
X216781790Y-62881835D01*
X216594208Y-62793040D01*
X216010538Y-62793040D01*
X216011658Y-62266970D01*
X215951285Y-62105609D01*
X215866110Y-61941451D01*
X215730318Y-61783926D01*
X215559052Y-61656626D01*
X215361326Y-61566117D01*
X215146153Y-61518968D01*
X215134867Y-61517819D01*
X215051973Y-61515993D01*
X214991260Y-61536893D01*
X214923834Y-61589716D01*
X214829547Y-61673958D01*
X214823180Y-65698833D01*
X214822313Y-66207666D01*
X214821357Y-66720785D01*
X214820521Y-67183385D01*
X214819920Y-67598124D01*
X214819670Y-67967663D01*
X214232037Y-67967663D01*
X214232048Y-65728555D01*
X214232064Y-62344780D01*
X214072272Y-62274048D01*
X213946581Y-62221180D01*
X213698540Y-62128277D01*
X213429807Y-62039668D01*
X213162151Y-61962799D01*
X213035921Y-61931726D01*
X212922014Y-61910282D01*
X212805735Y-61897302D01*
X212669366Y-61890821D01*
X212495193Y-61888876D01*
X212421868Y-61888910D01*
X212278258Y-61890837D01*
X212172042Y-61896548D01*
X212090369Y-61907507D01*
X212020393Y-61925176D01*
X211949265Y-61951018D01*
X211746723Y-62053152D01*
X211573486Y-62192866D01*
X211437676Y-62370316D01*
X211334081Y-62590925D01*
X211315109Y-62648392D01*
X211291933Y-62752781D01*
X211279326Y-62877587D01*
X211274997Y-63040229D01*
X211274922Y-63058942D01*
X211275967Y-63167072D01*
X211281255Y-63262368D01*
X211293030Y-63354074D01*
X211313531Y-63451436D01*
X211345001Y-63563700D01*
X211389680Y-63700110D01*
X211449809Y-63869912D01*
X211527631Y-64082351D01*
X211543797Y-64126725D01*
X211605598Y-64305542D01*
X211665353Y-64491180D01*
X211716942Y-64664132D01*
X211754249Y-64804890D01*
X211757761Y-64819694D01*
X211781539Y-64925069D01*
X211799206Y-65019008D01*
X211811668Y-65112679D01*
X211819834Y-65217251D01*
X211824610Y-65343894D01*
X211826905Y-65503774D01*
X211827625Y-65708063D01*
X211827647Y-65736775D01*
X211827017Y-65926957D01*
X211823837Y-66091409D01*
X211816479Y-66237931D01*
X211803315Y-66374328D01*
X211782718Y-66508401D01*
X211753060Y-66647953D01*
X211712713Y-66800786D01*
X211660050Y-66974704D01*
X211593443Y-67177508D01*
X211511264Y-67417000D01*
X211411886Y-67700985D01*
X211368144Y-67828571D01*
X211324760Y-67968952D01*
X211296562Y-68085756D01*
X211279881Y-68194916D01*
X211271045Y-68312363D01*
X211268924Y-68384744D01*
X210692783Y-68384744D01*
X210692879Y-68344171D01*
X210696879Y-68211625D01*
X210707671Y-68089906D01*
X210727552Y-67968605D01*
X210758818Y-67837313D01*
X210803768Y-67685619D01*
X210864700Y-67503115D01*
X210943909Y-67279389D01*
X210994236Y-67136506D01*
X211054127Y-66959151D01*
X211107821Y-66792491D01*
X211150896Y-66650314D01*
X211178930Y-66546409D01*
X211228707Y-66276979D01*
X211260190Y-65937186D01*
X211263665Y-65585427D01*
X211239047Y-65241077D01*
X211186246Y-64923508D01*
X211166651Y-64848021D01*
X211129001Y-64721387D01*
X211079587Y-64566510D01*
X211022548Y-64396305D01*
X210962021Y-64223689D01*
X210899187Y-64047116D01*
X210831204Y-63848721D01*
X210779736Y-63685217D01*
X210742567Y-63546978D01*
X210717476Y-63424376D01*
X210702247Y-63307785D01*
X210694659Y-63187576D01*
X210692495Y-63054124D01*
X210704628Y-62810498D01*
X210761519Y-62499301D01*
X210864126Y-62217078D01*
X211011524Y-61965682D01*
X211202789Y-61746964D01*
X211436996Y-61562776D01*
X211601781Y-61470704D01*
X211871721Y-61371001D01*
X212173477Y-61312679D01*
X212503797Y-61295838D01*
X212859431Y-61320578D01*
X213237128Y-61387000D01*
X213633638Y-61495203D01*
X213747072Y-61530333D01*
X213849170Y-61559749D01*
X213920311Y-61577697D01*
X213949583Y-61581207D01*
X213935745Y-61558797D01*
X213889385Y-61505518D01*
X213817771Y-61429408D01*
X213728206Y-61338474D01*
X213710357Y-61320829D01*
X213444418Y-61086350D01*
X213175655Y-60901485D01*
X212908176Y-60769086D01*
X212892100Y-60762759D01*
X212806077Y-60731751D01*
X212728175Y-60711734D01*
X212642477Y-60700462D01*
X212533069Y-60695692D01*
X212384033Y-60695178D01*
X212320639Y-60696022D01*
X212040738Y-60715653D01*
X211801589Y-60763034D01*
X211595613Y-60840870D01*
X211415231Y-60951863D01*
X211252861Y-61098719D01*
X211175030Y-61180207D01*
X211120381Y-61229589D01*
X211075862Y-61253241D01*
X211027437Y-61258588D01*
X210961066Y-61253054D01*
X210908223Y-61244124D01*
X210800119Y-61217665D01*
X210670144Y-61179577D01*
X210536003Y-61134786D01*
X210409912Y-61091232D01*
X210299127Y-61058903D01*
X210199981Y-61040165D01*
X210091427Y-61031169D01*
X209952414Y-61028065D01*
X209870066Y-61027777D01*
X209754862Y-61030761D01*
X209672476Y-61040058D01*
X209608260Y-61057764D01*
X209547564Y-61085973D01*
X209419474Y-61174654D01*
X209277708Y-61318434D01*
X209147660Y-61496653D01*
X209036367Y-61698046D01*
X208950869Y-61911348D01*
X208898204Y-62125293D01*
X208881624Y-62204842D01*
X208852213Y-62295083D01*
X208820629Y-62349472D01*
X208819577Y-62350486D01*
X208775332Y-62384379D01*
X208694872Y-62438864D01*
X208589295Y-62506638D01*
X208469699Y-62580397D01*
X208410550Y-62616552D01*
X207950735Y-62926337D01*
X207528895Y-63263059D01*
X207148374Y-63623297D01*
X206812519Y-64003631D01*
X206524677Y-64400639D01*
X206288191Y-64810901D01*
X206276098Y-64835593D01*
X206225301Y-64949288D01*
X206170021Y-65084808D01*
X206120247Y-65217946D01*
X206033369Y-65464263D01*
X205454601Y-65464263D01*
X205493666Y-65284018D01*
X205648646Y-64830513D01*
X205857783Y-64388303D01*
X206120898Y-63957810D01*
X206437814Y-63539457D01*
X206638483Y-63315273D01*
X206898333Y-63057416D01*
X207186161Y-62799183D01*
X207489543Y-62551163D01*
X207796058Y-62323947D01*
X208093284Y-62128126D01*
X208145230Y-62096236D01*
X208236336Y-62038004D01*
X208294035Y-61993327D01*
X208328197Y-61951536D01*
X208348691Y-61901957D01*
X208365387Y-61833919D01*
X208415989Y-61665511D01*
X208514197Y-61443001D01*
X208644271Y-61216746D01*
X208797842Y-61001001D01*
X208966541Y-60810021D01*
X208986911Y-60790000D01*
X209188566Y-60629847D01*
X209412260Y-60517987D01*
X209660392Y-60453771D01*
X209935362Y-60436549D01*
X210239571Y-60465673D01*
X210313420Y-60478548D01*
X210460092Y-60508191D01*
X210595732Y-60540275D01*
X210698322Y-60569806D01*
X210866460Y-60626587D01*
X211013868Y-60516449D01*
X211112288Y-60447225D01*
X211365626Y-60307818D01*
X211646293Y-60207886D01*
X211684310Y-60197824D01*
X211861945Y-60159925D01*
X212058091Y-60129741D01*
X212254785Y-60109251D01*
X212434066Y-60100433D01*
X212577972Y-60105266D01*
X212644014Y-60113090D01*
X212966870Y-60182929D01*
X213282312Y-60304963D01*
X213591880Y-60480035D01*
X213897114Y-60708989D01*
X214199553Y-60992665D01*
X214431047Y-61231655D01*
X214569586Y-61122147D01*
X214593260Y-61103987D01*
X214782170Y-60995458D01*
X214986453Y-60939876D01*
X215207061Y-60937094D01*
X215444946Y-60986964D01*
X215656576Y-61064114D01*
X215924388Y-61204824D01*
X216149940Y-61380499D01*
X216332369Y-61590428D01*
X216470812Y-61833898D01*
X216480104Y-61853435D01*
X216550826Y-61964027D01*
X216648332Y-62076183D01*
X216762662Y-62182185D01*
X216883856Y-62274317D01*
X217001951Y-62344862D01*
X217106989Y-62386103D01*
X217189008Y-62390322D01*
X217217136Y-62379880D01*
X217281717Y-62325113D01*
X217342385Y-62224965D01*
X217402560Y-62074374D01*
X217438697Y-61962017D01*
X217450246Y-61887250D01*
X217432050Y-61836243D01*
X217379058Y-61794866D01*
X217286217Y-61748989D01*
X217192662Y-61699386D01*
X217006444Y-61560166D01*
X216846833Y-61385178D01*
X216726898Y-61187539D01*
X216654170Y-60977101D01*
X216621957Y-60739880D01*
X216624853Y-60685625D01*
X217183492Y-60685625D01*
X217190838Y-60747678D01*
X217210643Y-60840127D01*
X217264823Y-60972143D01*
X217363158Y-61095795D01*
X217491867Y-61196477D01*
X217638188Y-61264283D01*
X217789359Y-61289308D01*
X217885557Y-61280294D01*
X218037482Y-61227392D01*
X218170707Y-61135109D01*
X218277936Y-61012648D01*
X218351873Y-60869211D01*
X218385220Y-60713999D01*
X218370681Y-60556214D01*
X218320443Y-60423488D01*
X218226211Y-60288461D01*
X218105285Y-60189403D01*
X217966085Y-60126555D01*
X217817030Y-60100158D01*
X217666539Y-60110451D01*
X217523032Y-60157675D01*
X217394928Y-60242071D01*
X217290646Y-60363878D01*
X217218606Y-60523336D01*
X217208579Y-60557100D01*
X217189205Y-60630067D01*
X217183492Y-60685625D01*
X216624853Y-60685625D01*
X216634776Y-60499741D01*
X216691882Y-60269478D01*
X216792529Y-60061886D01*
X216802061Y-60047136D01*
X216958600Y-59854724D01*
X217142889Y-59705182D01*
X217347946Y-59598536D01*
X217566785Y-59534810D01*
X217792421Y-59514026D01*
X218017871Y-59536208D01*
G37*
G36*
X210529374Y-64301354D02*
G01*
X210612109Y-64374828D01*
X210660442Y-64482504D01*
X210666179Y-64519782D01*
X210659781Y-64590200D01*
X210625583Y-64665362D01*
X210558284Y-64755132D01*
X210452584Y-64869378D01*
X210380583Y-64948331D01*
X210229199Y-65165312D01*
X210130712Y-65397088D01*
X210085752Y-65641848D01*
X210094948Y-65897781D01*
X210110886Y-65985710D01*
X210179608Y-66189754D01*
X210294373Y-66387202D01*
X210459518Y-66586239D01*
X210478644Y-66606694D01*
X210570316Y-66713420D01*
X210634411Y-66803711D01*
X210663699Y-66867606D01*
X210661780Y-66966385D01*
X210617185Y-67066022D01*
X210539703Y-67145594D01*
X210441150Y-67193307D01*
X210333341Y-67197366D01*
X210295115Y-67186656D01*
X210178494Y-67123339D01*
X210054936Y-67017938D01*
X209930704Y-66878824D01*
X209812056Y-66714371D01*
X209705254Y-66532951D01*
X209616558Y-66342937D01*
X209552228Y-66152701D01*
X209512649Y-65918927D01*
X209509535Y-65656080D01*
X209542590Y-65386761D01*
X209609796Y-65127181D01*
X209709133Y-64893550D01*
X209714864Y-64882974D01*
X209805731Y-64740895D01*
X209923359Y-64589339D01*
X210051088Y-64448297D01*
X210172261Y-64337761D01*
X210194352Y-64321606D01*
X210308537Y-64271197D01*
X210424197Y-64265629D01*
X210529374Y-64301354D01*
G37*
G36*
X213258780Y-66671277D02*
G01*
X213408305Y-66755728D01*
X213526793Y-66880106D01*
X213530462Y-66885422D01*
X213570987Y-66951366D01*
X213594047Y-67014211D01*
X213604397Y-67093486D01*
X213606790Y-67208719D01*
X213606782Y-67218508D01*
X213603980Y-67330541D01*
X213592884Y-67408004D01*
X213568740Y-67470425D01*
X213526793Y-67537332D01*
X213461338Y-67615243D01*
X213322967Y-67716768D01*
X213161187Y-67774872D01*
X212988922Y-67783639D01*
X212969714Y-67781361D01*
X212798941Y-67732300D01*
X212655683Y-67638035D01*
X212546892Y-67504646D01*
X212479522Y-67338213D01*
X212464903Y-67182620D01*
X212497114Y-67023535D01*
X212572169Y-66880055D01*
X212683521Y-66761236D01*
X212824622Y-66676132D01*
X212988922Y-66633799D01*
X213091142Y-66632671D01*
X213258780Y-66671277D01*
G37*
G36*
X213212679Y-63690628D02*
G01*
X213257345Y-63705618D01*
X213406129Y-63790068D01*
X213520803Y-63912432D01*
X213594584Y-64063662D01*
X213620685Y-64234709D01*
X213618495Y-64291746D01*
X213580592Y-64466706D01*
X213499636Y-64612143D01*
X213380882Y-64722682D01*
X213229582Y-64792948D01*
X213050992Y-64817564D01*
X213005009Y-64815876D01*
X212834709Y-64778466D01*
X212686723Y-64696791D01*
X212570144Y-64577239D01*
X212494063Y-64426199D01*
X212467750Y-64299963D01*
X212475357Y-64135398D01*
X212526962Y-63985349D01*
X212615930Y-63856610D01*
X212735622Y-63755975D01*
X212879402Y-63690238D01*
X213040633Y-63666191D01*
X213212679Y-63690628D01*
G37*
G36*
X193598106Y-62048342D02*
G01*
X193749999Y-62114753D01*
X193881199Y-62218179D01*
X193981907Y-62349747D01*
X194042326Y-62500587D01*
X194052657Y-62661828D01*
X194041131Y-62734984D01*
X194010053Y-62845280D01*
X193958170Y-62968298D01*
X193881263Y-63112500D01*
X193775112Y-63286348D01*
X193635498Y-63498302D01*
X193610575Y-63535604D01*
X193513006Y-63688759D01*
X193428736Y-63832024D01*
X193365066Y-63952542D01*
X193329302Y-64037453D01*
X193318950Y-64076249D01*
X193296475Y-64202189D01*
X193278736Y-64359508D01*
X193266387Y-64533097D01*
X193260080Y-64707845D01*
X193260467Y-64868644D01*
X193268201Y-65000384D01*
X193283935Y-65087956D01*
X193290297Y-65106180D01*
X193329766Y-65176598D01*
X193381012Y-65198018D01*
X193388002Y-65196582D01*
X193440156Y-65164304D01*
X193530069Y-65091300D01*
X193655127Y-64979882D01*
X193812713Y-64832361D01*
X194000210Y-64651047D01*
X194250388Y-64409834D01*
X194479745Y-64198165D01*
X194684350Y-64021255D01*
X194871306Y-63873501D01*
X195047720Y-63749297D01*
X195220694Y-63643041D01*
X195397335Y-63549130D01*
X195421720Y-63537133D01*
X195669720Y-63427149D01*
X195892340Y-63354255D01*
X196105688Y-63314175D01*
X196325873Y-63302631D01*
X196513965Y-63317136D01*
X196746825Y-63377489D01*
X196948694Y-63480415D01*
X197114426Y-63621248D01*
X197238873Y-63795325D01*
X197316886Y-63997981D01*
X197343319Y-64224551D01*
X197337803Y-64326519D01*
X197293554Y-64517274D01*
X197200711Y-64695320D01*
X197054085Y-64872279D01*
X197033054Y-64893600D01*
X196918741Y-64998529D01*
X196791908Y-65095264D01*
X196646029Y-65187007D01*
X196474581Y-65276960D01*
X196271038Y-65368326D01*
X196028876Y-65464308D01*
X195741571Y-65568108D01*
X195402598Y-65682930D01*
X195331157Y-65706606D01*
X195087220Y-65788541D01*
X194889204Y-65857700D01*
X194728119Y-65918003D01*
X194594976Y-65973369D01*
X194480784Y-66027719D01*
X194376555Y-66084971D01*
X194273298Y-66149047D01*
X194162024Y-66223866D01*
X194047583Y-66308876D01*
X193900508Y-66433529D01*
X193754680Y-66571837D01*
X193616482Y-66716355D01*
X193492299Y-66859639D01*
X193388516Y-66994247D01*
X193311516Y-67112734D01*
X193267684Y-67207657D01*
X193263405Y-67271572D01*
X193280709Y-67296482D01*
X193349895Y-67334504D01*
X193469639Y-67363425D01*
X193642147Y-67383560D01*
X193869629Y-67395224D01*
X194154292Y-67398733D01*
X194708420Y-67397914D01*
X195127759Y-67254792D01*
X195181940Y-67236462D01*
X195367104Y-67177456D01*
X195512409Y-67138638D01*
X195629933Y-67117113D01*
X195731754Y-67109985D01*
X195781558Y-67111035D01*
X195961387Y-67144094D01*
X196105006Y-67217622D01*
X196209820Y-67323967D01*
X196273231Y-67455474D01*
X196292642Y-67604492D01*
X196265458Y-67763366D01*
X196189081Y-67924444D01*
X196060914Y-68080072D01*
X195951398Y-68170356D01*
X195740617Y-68288741D01*
X195485939Y-68379584D01*
X195193441Y-68442060D01*
X194869197Y-68475343D01*
X194519284Y-68478608D01*
X194149778Y-68451028D01*
X193766756Y-68391779D01*
X193508934Y-68346398D01*
X193245639Y-68313663D01*
X193036877Y-68305444D01*
X192882690Y-68321743D01*
X192783119Y-68362562D01*
X192698301Y-68448671D01*
X192606162Y-68583680D01*
X192511693Y-68757164D01*
X192419535Y-68958952D01*
X192334332Y-69178873D01*
X192260728Y-69406757D01*
X192203367Y-69632432D01*
X192187565Y-69708612D01*
X192168321Y-69817252D01*
X192154428Y-69926298D01*
X192145061Y-70047650D01*
X192139394Y-70193203D01*
X192136599Y-70374856D01*
X192135852Y-70604504D01*
X192136148Y-70760111D01*
X192138135Y-70957153D01*
X192142707Y-71113946D01*
X192150689Y-71242388D01*
X192162909Y-71354376D01*
X192180193Y-71461806D01*
X192203367Y-71576576D01*
X192260443Y-71801266D01*
X192333986Y-72029162D01*
X192419149Y-72249139D01*
X192511286Y-72451027D01*
X192605756Y-72624655D01*
X192697915Y-72759852D01*
X192783119Y-72846447D01*
X192861173Y-72881851D01*
X193005737Y-72902472D01*
X193204882Y-72898575D01*
X193458569Y-72870160D01*
X193766756Y-72817229D01*
X194014270Y-72775455D01*
X194389299Y-72736664D01*
X194746904Y-72729011D01*
X195081010Y-72751672D01*
X195385539Y-72803821D01*
X195654417Y-72884631D01*
X195881567Y-72993278D01*
X196060914Y-73128936D01*
X196097604Y-73166535D01*
X196212709Y-73324225D01*
X196276668Y-73485470D01*
X196292076Y-73642618D01*
X196261532Y-73788014D01*
X196187630Y-73914006D01*
X196072969Y-74012940D01*
X195920145Y-74077164D01*
X195731754Y-74099023D01*
X195707001Y-74098429D01*
X195602372Y-74087958D01*
X195479008Y-74062363D01*
X195324829Y-74018748D01*
X195127759Y-73954217D01*
X194708420Y-73811095D01*
X194154292Y-73810276D01*
X193990497Y-73811216D01*
X193737561Y-73819172D01*
X193540592Y-73835456D01*
X193397382Y-73860385D01*
X193305723Y-73894274D01*
X193263405Y-73937436D01*
X193263481Y-73985943D01*
X193299960Y-74075296D01*
X193370876Y-74189692D01*
X193469845Y-74321688D01*
X193590481Y-74463841D01*
X193726402Y-74608706D01*
X193871222Y-74748841D01*
X194018558Y-74876801D01*
X194162024Y-74985142D01*
X194191982Y-75005680D01*
X194300329Y-75077353D01*
X194402976Y-75139295D01*
X194508914Y-75195424D01*
X194627131Y-75249660D01*
X194766619Y-75305924D01*
X194936366Y-75368135D01*
X195145363Y-75440214D01*
X195402598Y-75526079D01*
X195471896Y-75549097D01*
X195800458Y-75661557D01*
X196078602Y-75763610D01*
X196312854Y-75858459D01*
X196509738Y-75949306D01*
X196675778Y-76039354D01*
X196817500Y-76131806D01*
X196941427Y-76229863D01*
X197054085Y-76336730D01*
X197133210Y-76424312D01*
X197252749Y-76600354D01*
X197321056Y-76783195D01*
X197343319Y-76984457D01*
X197343297Y-77010897D01*
X197335671Y-77140953D01*
X197310261Y-77248617D01*
X197260217Y-77365291D01*
X197169847Y-77514799D01*
X197011279Y-77681806D01*
X196815349Y-77804135D01*
X196585674Y-77879691D01*
X196325873Y-77906377D01*
X196305129Y-77906394D01*
X196086233Y-77892431D01*
X195872707Y-77849542D01*
X195648444Y-77773449D01*
X195397335Y-77659878D01*
X195227572Y-77569883D01*
X195054587Y-77464223D01*
X194878446Y-77340837D01*
X194692042Y-77194121D01*
X194488271Y-77018472D01*
X194260029Y-76808287D01*
X194000210Y-76557961D01*
X193949275Y-76508229D01*
X193769220Y-76335385D01*
X193619751Y-76196929D01*
X193503482Y-76095170D01*
X193423030Y-76032420D01*
X193381012Y-76010990D01*
X193370745Y-76011619D01*
X193322171Y-76041021D01*
X193283935Y-76121053D01*
X193276525Y-76150390D01*
X193264126Y-76257759D01*
X193259460Y-76403147D01*
X193261876Y-76571446D01*
X193270720Y-76747545D01*
X193285341Y-76916336D01*
X193305086Y-77062710D01*
X193329302Y-77171556D01*
X193335170Y-77188587D01*
X193378475Y-77283408D01*
X193447821Y-77410628D01*
X193535891Y-77557357D01*
X193635366Y-77710707D01*
X193655427Y-77740542D01*
X193802794Y-77967208D01*
X193914216Y-78156122D01*
X193992235Y-78314345D01*
X194039395Y-78448934D01*
X194058239Y-78566948D01*
X194051309Y-78675447D01*
X194021150Y-78781488D01*
X193993084Y-78842003D01*
X193894276Y-78975444D01*
X193762974Y-79084835D01*
X193614802Y-79158806D01*
X193465377Y-79185990D01*
X193338869Y-79167831D01*
X193179086Y-79093737D01*
X193023132Y-78965588D01*
X192873291Y-78786664D01*
X192731847Y-78560242D01*
X192601084Y-78289602D01*
X192483285Y-77978022D01*
X192380734Y-77628782D01*
X192372946Y-77597927D01*
X192323047Y-77363849D01*
X192290336Y-77126753D01*
X192274446Y-76875662D01*
X192275012Y-76599599D01*
X192291668Y-76287587D01*
X192324047Y-75928648D01*
X192325605Y-75913595D01*
X192344996Y-75716787D01*
X192361767Y-75529509D01*
X192374919Y-75364262D01*
X192383452Y-75233550D01*
X192386364Y-75149874D01*
X192378815Y-75041529D01*
X192345711Y-74896711D01*
X192282560Y-74738315D01*
X192185337Y-74556669D01*
X192050014Y-74342102D01*
X191969399Y-74219742D01*
X191857606Y-74047857D01*
X191742189Y-73868509D01*
X191638329Y-73705184D01*
X191590565Y-73629955D01*
X191445713Y-73409731D01*
X191321471Y-73235283D01*
X191213093Y-73100587D01*
X191115833Y-72999616D01*
X191024946Y-72926347D01*
X190982519Y-72897769D01*
X190898736Y-72849326D01*
X190851410Y-72841090D01*
X190834089Y-72873830D01*
X190840322Y-72948313D01*
X190841529Y-72955987D01*
X190851439Y-73035870D01*
X190864040Y-73157927D01*
X190877837Y-73306964D01*
X190891340Y-73467781D01*
X190906642Y-73751295D01*
X190900378Y-74091683D01*
X190862460Y-74384422D01*
X190792187Y-74631779D01*
X190688859Y-74836026D01*
X190551775Y-74999431D01*
X190380236Y-75124265D01*
X190326953Y-75151658D01*
X190136736Y-75210659D01*
X189947004Y-75213870D01*
X189764845Y-75164011D01*
X189597347Y-75063801D01*
X189451597Y-74915958D01*
X189334682Y-74723201D01*
X189323070Y-74697849D01*
X189289329Y-74611180D01*
X189269628Y-74524995D01*
X189260572Y-74419207D01*
X189258770Y-74273726D01*
X189270132Y-74049235D01*
X189307191Y-73844674D01*
X189374934Y-73642899D01*
X189376206Y-73633582D01*
X189348999Y-73630147D01*
X189276155Y-73655479D01*
X189225644Y-73678359D01*
X189154734Y-73710480D01*
X188922431Y-73816247D01*
X188530319Y-73967079D01*
X188150341Y-74074624D01*
X187768295Y-74142574D01*
X187369976Y-74174624D01*
X187362319Y-74174904D01*
X186870557Y-74168460D01*
X186405219Y-74113867D01*
X186063497Y-74034424D01*
X185968805Y-74012410D01*
X185563815Y-73865375D01*
X185192749Y-73674048D01*
X184858105Y-73439714D01*
X184562385Y-73163660D01*
X184308088Y-72847171D01*
X184097714Y-72491533D01*
X184017368Y-72318301D01*
X183893695Y-71979099D01*
X183799643Y-71606058D01*
X183732240Y-71188584D01*
X183730704Y-71175676D01*
X183718550Y-71010652D01*
X183713439Y-70804108D01*
X183714879Y-70572395D01*
X183715373Y-70556563D01*
X184560678Y-70556563D01*
X184577928Y-70852837D01*
X184647896Y-71135362D01*
X184767414Y-71398252D01*
X184933316Y-71635623D01*
X185142433Y-71841589D01*
X185391597Y-72010266D01*
X185677641Y-72135768D01*
X185684479Y-72138023D01*
X185857288Y-72175690D01*
X186063497Y-72192532D01*
X186281461Y-72188866D01*
X186489539Y-72165009D01*
X186666085Y-72121279D01*
X186686773Y-72113909D01*
X186965426Y-71981785D01*
X187211278Y-71802609D01*
X187418786Y-71582191D01*
X187582407Y-71326342D01*
X187611876Y-71252673D01*
X188570010Y-71252673D01*
X188595935Y-71355865D01*
X188656402Y-71452926D01*
X188765021Y-71546406D01*
X188902414Y-71611863D01*
X189059112Y-71650186D01*
X189225644Y-71662266D01*
X189392539Y-71648989D01*
X189550327Y-71611246D01*
X189689536Y-71549925D01*
X189800697Y-71465915D01*
X189874339Y-71360105D01*
X189900991Y-71233383D01*
X189900306Y-71213996D01*
X189865233Y-71099449D01*
X189784053Y-71003747D01*
X189666483Y-70928158D01*
X189522236Y-70873950D01*
X189361028Y-70842393D01*
X189192574Y-70834755D01*
X189187981Y-70835241D01*
X189026590Y-70852305D01*
X188872790Y-70896312D01*
X188740890Y-70968045D01*
X188640605Y-71068773D01*
X188590916Y-71153773D01*
X188570010Y-71252673D01*
X187611876Y-71252673D01*
X187696601Y-71040872D01*
X187725088Y-70900421D01*
X187741292Y-70712949D01*
X187741945Y-70512720D01*
X187727048Y-70323270D01*
X187696601Y-70168136D01*
X187690302Y-70147214D01*
X187590954Y-69908157D01*
X188583333Y-69908157D01*
X188588167Y-70028171D01*
X188644675Y-70141498D01*
X188749663Y-70240682D01*
X188899937Y-70318265D01*
X189008529Y-70350972D01*
X189187981Y-70375466D01*
X189366037Y-70368532D01*
X189533143Y-70333432D01*
X189679745Y-70273426D01*
X189796290Y-70191775D01*
X189873223Y-70091740D01*
X189900991Y-69976582D01*
X189900239Y-69952860D01*
X189864031Y-69820378D01*
X189776889Y-69711596D01*
X189643527Y-69629576D01*
X189468661Y-69577383D01*
X189257005Y-69558080D01*
X189172816Y-69559500D01*
X188954928Y-69588295D01*
X188783329Y-69653647D01*
X188658800Y-69755299D01*
X188633366Y-69788914D01*
X188583333Y-69908157D01*
X187590954Y-69908157D01*
X187572452Y-69863637D01*
X187405562Y-69610090D01*
X187195177Y-69392382D01*
X186946837Y-69216325D01*
X186666085Y-69087729D01*
X186658661Y-69085184D01*
X186479994Y-69042354D01*
X186270956Y-69019457D01*
X186053151Y-69016805D01*
X185848178Y-69034708D01*
X185677641Y-69073478D01*
X185602201Y-69100901D01*
X185326488Y-69238243D01*
X185084901Y-69419515D01*
X184882911Y-69639044D01*
X184725991Y-69891159D01*
X184619612Y-70170188D01*
X184599315Y-70252424D01*
X184560678Y-70556563D01*
X183715373Y-70556563D01*
X183722378Y-70331865D01*
X183735447Y-70098871D01*
X183753594Y-69889764D01*
X183776327Y-69720896D01*
X183787529Y-69659268D01*
X183891787Y-69240762D01*
X184039040Y-68848986D01*
X184226103Y-68490184D01*
X184449791Y-68170599D01*
X184706922Y-67896474D01*
X184817640Y-67800163D01*
X185161913Y-67553656D01*
X185541933Y-67353632D01*
X185955223Y-67200891D01*
X186399310Y-67096236D01*
X186871720Y-67040467D01*
X187369976Y-67034385D01*
X187597886Y-67048300D01*
X187985264Y-67100182D01*
X188364396Y-67190052D01*
X188749485Y-67321603D01*
X189154734Y-67498529D01*
X189209719Y-67524330D01*
X189311201Y-67567261D01*
X189365293Y-67580887D01*
X189374934Y-67566110D01*
X189306139Y-67352569D01*
X189263923Y-67114832D01*
X189254235Y-66881085D01*
X189277634Y-66666389D01*
X189334682Y-66485808D01*
X189341252Y-66472002D01*
X189461370Y-66281617D01*
X189609573Y-66138256D01*
X189778098Y-66042894D01*
X189959183Y-65996506D01*
X190145065Y-66000066D01*
X190327981Y-66054548D01*
X190500169Y-66160928D01*
X190653867Y-66320180D01*
X190672293Y-66345266D01*
X190777003Y-66536237D01*
X190850871Y-66770619D01*
X190894259Y-67050609D01*
X190907532Y-67378405D01*
X190891051Y-67756204D01*
X190887785Y-67797773D01*
X190874379Y-67957280D01*
X190861132Y-68099546D01*
X190849420Y-68210400D01*
X190840619Y-68275672D01*
X190837381Y-68296236D01*
X190840817Y-68355546D01*
X190874370Y-68371008D01*
X190941502Y-68342528D01*
X191045678Y-68270011D01*
X191162161Y-68162544D01*
X191302982Y-67996383D01*
X191462230Y-67776549D01*
X191638863Y-67504386D01*
X191711982Y-67388182D01*
X191811833Y-67232131D01*
X191919394Y-67066101D01*
X192021268Y-66910884D01*
X192092579Y-66802469D01*
X192189740Y-66648632D01*
X192264718Y-66514776D01*
X192319402Y-66390969D01*
X192355682Y-66267276D01*
X192375449Y-66133765D01*
X192380591Y-65980500D01*
X192372999Y-65797549D01*
X192354562Y-65574978D01*
X192327170Y-65302853D01*
X192311636Y-65143635D01*
X192294170Y-64937502D01*
X192280251Y-64741773D01*
X192271017Y-64572813D01*
X192267607Y-64446988D01*
X192275873Y-64217684D01*
X192310528Y-63915792D01*
X192369481Y-63615129D01*
X192449778Y-63322212D01*
X192548465Y-63043555D01*
X192662585Y-62785672D01*
X192789184Y-62555078D01*
X192925307Y-62358288D01*
X193067999Y-62201815D01*
X193214305Y-62092175D01*
X193361271Y-62035882D01*
X193435317Y-62027815D01*
X193598106Y-62048342D01*
G37*
D12*
X200857686Y-48062309D02*
X202187686Y-48062309D01*
X200857686Y-49392309D02*
X200857686Y-48062309D01*
X200857686Y-50662309D02*
X203517686Y-50662309D01*
X200857686Y-58342309D02*
X200857686Y-50662309D01*
X200857686Y-58342309D02*
X203517686Y-58342309D01*
X203517686Y-58342309D02*
X203517686Y-50662309D01*
X189539995Y-58410000D02*
X189539995Y-57080000D01*
X190869995Y-58410000D02*
X189539995Y-58410000D01*
X192139995Y-58410000D02*
X192139995Y-55750000D01*
X197279995Y-55750000D02*
X192139995Y-55750000D01*
X197279995Y-58410000D02*
X192139995Y-58410000D01*
X197279995Y-58410000D02*
X197279995Y-55750000D01*
X200857686Y-62712309D02*
X202187686Y-62712309D01*
X200857686Y-64042309D02*
X200857686Y-62712309D01*
X200857686Y-65312309D02*
X203517686Y-65312309D01*
X200857686Y-67912309D02*
X200857686Y-65312309D01*
X200857686Y-67912309D02*
X203517686Y-67912309D01*
X203517686Y-67912309D02*
X203517686Y-65312309D01*
X205634995Y-58410000D02*
X205634995Y-57080000D01*
X206964995Y-58410000D02*
X205634995Y-58410000D01*
X208234995Y-58410000D02*
X208234995Y-55750000D01*
X210834995Y-55750000D02*
X208234995Y-55750000D01*
X210834995Y-58410000D02*
X208234995Y-58410000D01*
X210834995Y-58410000D02*
X210834995Y-55750000D01*
%LPC*%
D13*
X206680000Y-48150000D03*
X213690000Y-48150000D03*
D14*
X207930000Y-45660000D03*
X212430000Y-45660000D03*
D15*
X183740000Y-46240000D03*
X183740000Y-48780000D03*
X183740000Y-51320000D03*
X183740000Y-53860000D03*
X183740000Y-56400000D03*
X183740000Y-58940000D03*
X183740000Y-61480000D03*
X183740000Y-64020000D03*
X183740000Y-66560000D03*
X198980000Y-66560000D03*
X198980000Y-64020000D03*
X198980000Y-61480000D03*
X198980000Y-58940000D03*
X198980000Y-56400000D03*
X198980000Y-53860000D03*
X198980000Y-51320000D03*
X198980000Y-48780000D03*
X198980000Y-46240000D03*
D16*
X202187686Y-49392309D03*
D17*
X202187686Y-51932309D03*
X202187686Y-54472309D03*
X202187686Y-57012309D03*
D16*
X190869995Y-57080000D03*
D17*
X193409995Y-57080000D03*
X195949995Y-57080000D03*
D16*
X202187686Y-64042309D03*
D17*
X202187686Y-66582309D03*
D16*
X206964995Y-57080000D03*
D17*
X209504995Y-57080000D03*
%LPD*%
M02*
