%TF.GenerationSoftware,KiCad,Pcbnew,8.0.6*%
%TF.CreationDate,2024-11-23T11:55:01+01:00*%
%TF.ProjectId,ChristmasTreeBrain,43687269-7374-46d6-9173-547265654272,rev?*%
%TF.SameCoordinates,Original*%
%TF.FileFunction,Drillmap*%
%TF.FilePolarity,Positive*%
%FSLAX45Y45*%
G04 Gerber Fmt 4.5, Leading zero omitted, Abs format (unit mm)*
G04 Created by KiCad (PCBNEW 8.0.6) date 2024-11-23 11:55:01*
%MOMM*%
%LPD*%
G01*
G04 APERTURE LIST*
%ADD10C,0.050000*%
%ADD11C,0.200000*%
%ADD12C,0.100000*%
%ADD13C,0.130000*%
G04 APERTURE END LIST*
D10*
X22246500Y-5921000D02*
G75*
G02*
X17766500Y-5921000I-2240000J0D01*
G01*
X17766500Y-5921000D02*
G75*
G02*
X22246500Y-5921000I2240000J0D01*
G01*
D11*
D12*
X20743500Y-4516500D02*
X20842500Y-4615500D01*
X20842500Y-4516500D02*
X20743500Y-4615500D01*
X21193500Y-4516500D02*
X21292500Y-4615500D01*
X21292500Y-4516500D02*
X21193500Y-4615500D01*
X18424000Y-4624000D02*
G75*
G02*
X18324000Y-4624000I-50000J0D01*
G01*
X18324000Y-4624000D02*
G75*
G02*
X18424000Y-4624000I50000J0D01*
G01*
X18424000Y-4878000D02*
G75*
G02*
X18324000Y-4878000I-50000J0D01*
G01*
X18324000Y-4878000D02*
G75*
G02*
X18424000Y-4878000I50000J0D01*
G01*
X18424000Y-5132000D02*
G75*
G02*
X18324000Y-5132000I-50000J0D01*
G01*
X18324000Y-5132000D02*
G75*
G02*
X18424000Y-5132000I50000J0D01*
G01*
X18424000Y-5386000D02*
G75*
G02*
X18324000Y-5386000I-50000J0D01*
G01*
X18324000Y-5386000D02*
G75*
G02*
X18424000Y-5386000I50000J0D01*
G01*
X18424000Y-5640000D02*
G75*
G02*
X18324000Y-5640000I-50000J0D01*
G01*
X18324000Y-5640000D02*
G75*
G02*
X18424000Y-5640000I50000J0D01*
G01*
X18424000Y-5894000D02*
G75*
G02*
X18324000Y-5894000I-50000J0D01*
G01*
X18324000Y-5894000D02*
G75*
G02*
X18424000Y-5894000I50000J0D01*
G01*
X18424000Y-6148000D02*
G75*
G02*
X18324000Y-6148000I-50000J0D01*
G01*
X18324000Y-6148000D02*
G75*
G02*
X18424000Y-6148000I50000J0D01*
G01*
X18424000Y-6402000D02*
G75*
G02*
X18324000Y-6402000I-50000J0D01*
G01*
X18324000Y-6402000D02*
G75*
G02*
X18424000Y-6402000I50000J0D01*
G01*
X18424000Y-6656000D02*
G75*
G02*
X18324000Y-6656000I-50000J0D01*
G01*
X18324000Y-6656000D02*
G75*
G02*
X18424000Y-6656000I50000J0D01*
G01*
X19137000Y-5708000D02*
G75*
G02*
X19037000Y-5708000I-50000J0D01*
G01*
X19037000Y-5708000D02*
G75*
G02*
X19137000Y-5708000I50000J0D01*
G01*
X19391000Y-5708000D02*
G75*
G02*
X19291000Y-5708000I-50000J0D01*
G01*
X19291000Y-5708000D02*
G75*
G02*
X19391000Y-5708000I50000J0D01*
G01*
X19645000Y-5708000D02*
G75*
G02*
X19545000Y-5708000I-50000J0D01*
G01*
X19545000Y-5708000D02*
G75*
G02*
X19645000Y-5708000I50000J0D01*
G01*
X19948000Y-4624000D02*
G75*
G02*
X19848000Y-4624000I-50000J0D01*
G01*
X19848000Y-4624000D02*
G75*
G02*
X19948000Y-4624000I50000J0D01*
G01*
X19948000Y-4878000D02*
G75*
G02*
X19848000Y-4878000I-50000J0D01*
G01*
X19848000Y-4878000D02*
G75*
G02*
X19948000Y-4878000I50000J0D01*
G01*
X19948000Y-5132000D02*
G75*
G02*
X19848000Y-5132000I-50000J0D01*
G01*
X19848000Y-5132000D02*
G75*
G02*
X19948000Y-5132000I50000J0D01*
G01*
X19948000Y-5386000D02*
G75*
G02*
X19848000Y-5386000I-50000J0D01*
G01*
X19848000Y-5386000D02*
G75*
G02*
X19948000Y-5386000I50000J0D01*
G01*
X19948000Y-5640000D02*
G75*
G02*
X19848000Y-5640000I-50000J0D01*
G01*
X19848000Y-5640000D02*
G75*
G02*
X19948000Y-5640000I50000J0D01*
G01*
X19948000Y-5894000D02*
G75*
G02*
X19848000Y-5894000I-50000J0D01*
G01*
X19848000Y-5894000D02*
G75*
G02*
X19948000Y-5894000I50000J0D01*
G01*
X19948000Y-6148000D02*
G75*
G02*
X19848000Y-6148000I-50000J0D01*
G01*
X19848000Y-6148000D02*
G75*
G02*
X19948000Y-6148000I50000J0D01*
G01*
X19948000Y-6402000D02*
G75*
G02*
X19848000Y-6402000I-50000J0D01*
G01*
X19848000Y-6402000D02*
G75*
G02*
X19948000Y-6402000I50000J0D01*
G01*
X19948000Y-6656000D02*
G75*
G02*
X19848000Y-6656000I-50000J0D01*
G01*
X19848000Y-6656000D02*
G75*
G02*
X19948000Y-6656000I50000J0D01*
G01*
X20268769Y-4939231D02*
G75*
G02*
X20168769Y-4939231I-50000J0D01*
G01*
X20168769Y-4939231D02*
G75*
G02*
X20268769Y-4939231I50000J0D01*
G01*
X20268769Y-5193231D02*
G75*
G02*
X20168769Y-5193231I-50000J0D01*
G01*
X20168769Y-5193231D02*
G75*
G02*
X20268769Y-5193231I50000J0D01*
G01*
X20268769Y-5447231D02*
G75*
G02*
X20168769Y-5447231I-50000J0D01*
G01*
X20168769Y-5447231D02*
G75*
G02*
X20268769Y-5447231I50000J0D01*
G01*
X20268769Y-5701231D02*
G75*
G02*
X20168769Y-5701231I-50000J0D01*
G01*
X20168769Y-5701231D02*
G75*
G02*
X20268769Y-5701231I50000J0D01*
G01*
X20268769Y-6404231D02*
G75*
G02*
X20168769Y-6404231I-50000J0D01*
G01*
X20168769Y-6404231D02*
G75*
G02*
X20268769Y-6404231I50000J0D01*
G01*
X20268769Y-6658231D02*
G75*
G02*
X20168769Y-6658231I-50000J0D01*
G01*
X20168769Y-6658231D02*
G75*
G02*
X20268769Y-6658231I50000J0D01*
G01*
X20746500Y-5708000D02*
G75*
G02*
X20646500Y-5708000I-50000J0D01*
G01*
X20646500Y-5708000D02*
G75*
G02*
X20746500Y-5708000I50000J0D01*
G01*
X21000500Y-5708000D02*
G75*
G02*
X20900500Y-5708000I-50000J0D01*
G01*
X20900500Y-5708000D02*
G75*
G02*
X21000500Y-5708000I50000J0D01*
G01*
D13*
X20668000Y-4750000D02*
X20668000Y-4880000D01*
X20603000Y-4815000D02*
X20733000Y-4815000D01*
X21369000Y-4750000D02*
X21369000Y-4880000D01*
X21304000Y-4815000D02*
X21434000Y-4815000D01*
D11*
X18024777Y-8474984D02*
X18024777Y-8274984D01*
X18024777Y-8274984D02*
X18072396Y-8274984D01*
X18072396Y-8274984D02*
X18100967Y-8284508D01*
X18100967Y-8284508D02*
X18120015Y-8303555D01*
X18120015Y-8303555D02*
X18129539Y-8322603D01*
X18129539Y-8322603D02*
X18139063Y-8360698D01*
X18139063Y-8360698D02*
X18139063Y-8389270D01*
X18139063Y-8389270D02*
X18129539Y-8427365D01*
X18129539Y-8427365D02*
X18120015Y-8446412D01*
X18120015Y-8446412D02*
X18100967Y-8465460D01*
X18100967Y-8465460D02*
X18072396Y-8474984D01*
X18072396Y-8474984D02*
X18024777Y-8474984D01*
X18224777Y-8474984D02*
X18224777Y-8341650D01*
X18224777Y-8379746D02*
X18234301Y-8360698D01*
X18234301Y-8360698D02*
X18243824Y-8351174D01*
X18243824Y-8351174D02*
X18262872Y-8341650D01*
X18262872Y-8341650D02*
X18281920Y-8341650D01*
X18348586Y-8474984D02*
X18348586Y-8341650D01*
X18348586Y-8274984D02*
X18339063Y-8284508D01*
X18339063Y-8284508D02*
X18348586Y-8294031D01*
X18348586Y-8294031D02*
X18358110Y-8284508D01*
X18358110Y-8284508D02*
X18348586Y-8274984D01*
X18348586Y-8274984D02*
X18348586Y-8294031D01*
X18472396Y-8474984D02*
X18453348Y-8465460D01*
X18453348Y-8465460D02*
X18443824Y-8446412D01*
X18443824Y-8446412D02*
X18443824Y-8274984D01*
X18577158Y-8474984D02*
X18558110Y-8465460D01*
X18558110Y-8465460D02*
X18548586Y-8446412D01*
X18548586Y-8446412D02*
X18548586Y-8274984D01*
X18805729Y-8474984D02*
X18805729Y-8274984D01*
X18805729Y-8274984D02*
X18872396Y-8417841D01*
X18872396Y-8417841D02*
X18939063Y-8274984D01*
X18939063Y-8274984D02*
X18939063Y-8474984D01*
X19120015Y-8474984D02*
X19120015Y-8370222D01*
X19120015Y-8370222D02*
X19110491Y-8351174D01*
X19110491Y-8351174D02*
X19091444Y-8341650D01*
X19091444Y-8341650D02*
X19053348Y-8341650D01*
X19053348Y-8341650D02*
X19034301Y-8351174D01*
X19120015Y-8465460D02*
X19100967Y-8474984D01*
X19100967Y-8474984D02*
X19053348Y-8474984D01*
X19053348Y-8474984D02*
X19034301Y-8465460D01*
X19034301Y-8465460D02*
X19024777Y-8446412D01*
X19024777Y-8446412D02*
X19024777Y-8427365D01*
X19024777Y-8427365D02*
X19034301Y-8408317D01*
X19034301Y-8408317D02*
X19053348Y-8398793D01*
X19053348Y-8398793D02*
X19100967Y-8398793D01*
X19100967Y-8398793D02*
X19120015Y-8389270D01*
X19215253Y-8341650D02*
X19215253Y-8541650D01*
X19215253Y-8351174D02*
X19234301Y-8341650D01*
X19234301Y-8341650D02*
X19272396Y-8341650D01*
X19272396Y-8341650D02*
X19291444Y-8351174D01*
X19291444Y-8351174D02*
X19300967Y-8360698D01*
X19300967Y-8360698D02*
X19310491Y-8379746D01*
X19310491Y-8379746D02*
X19310491Y-8436889D01*
X19310491Y-8436889D02*
X19300967Y-8455936D01*
X19300967Y-8455936D02*
X19291444Y-8465460D01*
X19291444Y-8465460D02*
X19272396Y-8474984D01*
X19272396Y-8474984D02*
X19234301Y-8474984D01*
X19234301Y-8474984D02*
X19215253Y-8465460D01*
X19396205Y-8455936D02*
X19405729Y-8465460D01*
X19405729Y-8465460D02*
X19396205Y-8474984D01*
X19396205Y-8474984D02*
X19386682Y-8465460D01*
X19386682Y-8465460D02*
X19396205Y-8455936D01*
X19396205Y-8455936D02*
X19396205Y-8474984D01*
X19396205Y-8351174D02*
X19405729Y-8360698D01*
X19405729Y-8360698D02*
X19396205Y-8370222D01*
X19396205Y-8370222D02*
X19386682Y-8360698D01*
X19386682Y-8360698D02*
X19396205Y-8351174D01*
X19396205Y-8351174D02*
X19396205Y-8370222D01*
D12*
X17665000Y-8754000D02*
X17764000Y-8853000D01*
X17764000Y-8754000D02*
X17665000Y-8853000D01*
D11*
X18062872Y-8694984D02*
X18081920Y-8694984D01*
X18081920Y-8694984D02*
X18100967Y-8704508D01*
X18100967Y-8704508D02*
X18110491Y-8714031D01*
X18110491Y-8714031D02*
X18120015Y-8733079D01*
X18120015Y-8733079D02*
X18129539Y-8771174D01*
X18129539Y-8771174D02*
X18129539Y-8818793D01*
X18129539Y-8818793D02*
X18120015Y-8856889D01*
X18120015Y-8856889D02*
X18110491Y-8875936D01*
X18110491Y-8875936D02*
X18100967Y-8885460D01*
X18100967Y-8885460D02*
X18081920Y-8894984D01*
X18081920Y-8894984D02*
X18062872Y-8894984D01*
X18062872Y-8894984D02*
X18043824Y-8885460D01*
X18043824Y-8885460D02*
X18034301Y-8875936D01*
X18034301Y-8875936D02*
X18024777Y-8856889D01*
X18024777Y-8856889D02*
X18015253Y-8818793D01*
X18015253Y-8818793D02*
X18015253Y-8771174D01*
X18015253Y-8771174D02*
X18024777Y-8733079D01*
X18024777Y-8733079D02*
X18034301Y-8714031D01*
X18034301Y-8714031D02*
X18043824Y-8704508D01*
X18043824Y-8704508D02*
X18062872Y-8694984D01*
X18215253Y-8875936D02*
X18224777Y-8885460D01*
X18224777Y-8885460D02*
X18215253Y-8894984D01*
X18215253Y-8894984D02*
X18205729Y-8885460D01*
X18205729Y-8885460D02*
X18215253Y-8875936D01*
X18215253Y-8875936D02*
X18215253Y-8894984D01*
X18320015Y-8894984D02*
X18358110Y-8894984D01*
X18358110Y-8894984D02*
X18377158Y-8885460D01*
X18377158Y-8885460D02*
X18386682Y-8875936D01*
X18386682Y-8875936D02*
X18405729Y-8847365D01*
X18405729Y-8847365D02*
X18415253Y-8809270D01*
X18415253Y-8809270D02*
X18415253Y-8733079D01*
X18415253Y-8733079D02*
X18405729Y-8714031D01*
X18405729Y-8714031D02*
X18396205Y-8704508D01*
X18396205Y-8704508D02*
X18377158Y-8694984D01*
X18377158Y-8694984D02*
X18339063Y-8694984D01*
X18339063Y-8694984D02*
X18320015Y-8704508D01*
X18320015Y-8704508D02*
X18310491Y-8714031D01*
X18310491Y-8714031D02*
X18300967Y-8733079D01*
X18300967Y-8733079D02*
X18300967Y-8780698D01*
X18300967Y-8780698D02*
X18310491Y-8799746D01*
X18310491Y-8799746D02*
X18320015Y-8809270D01*
X18320015Y-8809270D02*
X18339063Y-8818793D01*
X18339063Y-8818793D02*
X18377158Y-8818793D01*
X18377158Y-8818793D02*
X18396205Y-8809270D01*
X18396205Y-8809270D02*
X18405729Y-8799746D01*
X18405729Y-8799746D02*
X18415253Y-8780698D01*
X18510491Y-8894984D02*
X18548586Y-8894984D01*
X18548586Y-8894984D02*
X18567634Y-8885460D01*
X18567634Y-8885460D02*
X18577158Y-8875936D01*
X18577158Y-8875936D02*
X18596205Y-8847365D01*
X18596205Y-8847365D02*
X18605729Y-8809270D01*
X18605729Y-8809270D02*
X18605729Y-8733079D01*
X18605729Y-8733079D02*
X18596205Y-8714031D01*
X18596205Y-8714031D02*
X18586682Y-8704508D01*
X18586682Y-8704508D02*
X18567634Y-8694984D01*
X18567634Y-8694984D02*
X18529539Y-8694984D01*
X18529539Y-8694984D02*
X18510491Y-8704508D01*
X18510491Y-8704508D02*
X18500967Y-8714031D01*
X18500967Y-8714031D02*
X18491444Y-8733079D01*
X18491444Y-8733079D02*
X18491444Y-8780698D01*
X18491444Y-8780698D02*
X18500967Y-8799746D01*
X18500967Y-8799746D02*
X18510491Y-8809270D01*
X18510491Y-8809270D02*
X18529539Y-8818793D01*
X18529539Y-8818793D02*
X18567634Y-8818793D01*
X18567634Y-8818793D02*
X18586682Y-8809270D01*
X18586682Y-8809270D02*
X18596205Y-8799746D01*
X18596205Y-8799746D02*
X18605729Y-8780698D01*
X18729539Y-8694984D02*
X18748586Y-8694984D01*
X18748586Y-8694984D02*
X18767634Y-8704508D01*
X18767634Y-8704508D02*
X18777158Y-8714031D01*
X18777158Y-8714031D02*
X18786682Y-8733079D01*
X18786682Y-8733079D02*
X18796205Y-8771174D01*
X18796205Y-8771174D02*
X18796205Y-8818793D01*
X18796205Y-8818793D02*
X18786682Y-8856889D01*
X18786682Y-8856889D02*
X18777158Y-8875936D01*
X18777158Y-8875936D02*
X18767634Y-8885460D01*
X18767634Y-8885460D02*
X18748586Y-8894984D01*
X18748586Y-8894984D02*
X18729539Y-8894984D01*
X18729539Y-8894984D02*
X18710491Y-8885460D01*
X18710491Y-8885460D02*
X18700967Y-8875936D01*
X18700967Y-8875936D02*
X18691444Y-8856889D01*
X18691444Y-8856889D02*
X18681920Y-8818793D01*
X18681920Y-8818793D02*
X18681920Y-8771174D01*
X18681920Y-8771174D02*
X18691444Y-8733079D01*
X18691444Y-8733079D02*
X18700967Y-8714031D01*
X18700967Y-8714031D02*
X18710491Y-8704508D01*
X18710491Y-8704508D02*
X18729539Y-8694984D01*
X18881920Y-8894984D02*
X18881920Y-8761650D01*
X18881920Y-8780698D02*
X18891444Y-8771174D01*
X18891444Y-8771174D02*
X18910491Y-8761650D01*
X18910491Y-8761650D02*
X18939063Y-8761650D01*
X18939063Y-8761650D02*
X18958110Y-8771174D01*
X18958110Y-8771174D02*
X18967634Y-8790222D01*
X18967634Y-8790222D02*
X18967634Y-8894984D01*
X18967634Y-8790222D02*
X18977158Y-8771174D01*
X18977158Y-8771174D02*
X18996205Y-8761650D01*
X18996205Y-8761650D02*
X19024777Y-8761650D01*
X19024777Y-8761650D02*
X19043825Y-8771174D01*
X19043825Y-8771174D02*
X19053348Y-8790222D01*
X19053348Y-8790222D02*
X19053348Y-8894984D01*
X19148586Y-8894984D02*
X19148586Y-8761650D01*
X19148586Y-8780698D02*
X19158110Y-8771174D01*
X19158110Y-8771174D02*
X19177158Y-8761650D01*
X19177158Y-8761650D02*
X19205729Y-8761650D01*
X19205729Y-8761650D02*
X19224777Y-8771174D01*
X19224777Y-8771174D02*
X19234301Y-8790222D01*
X19234301Y-8790222D02*
X19234301Y-8894984D01*
X19234301Y-8790222D02*
X19243825Y-8771174D01*
X19243825Y-8771174D02*
X19262872Y-8761650D01*
X19262872Y-8761650D02*
X19291444Y-8761650D01*
X19291444Y-8761650D02*
X19310491Y-8771174D01*
X19310491Y-8771174D02*
X19320015Y-8790222D01*
X19320015Y-8790222D02*
X19320015Y-8894984D01*
X19710491Y-8685460D02*
X19539063Y-8942603D01*
X19967634Y-8694984D02*
X19986682Y-8694984D01*
X19986682Y-8694984D02*
X20005729Y-8704508D01*
X20005729Y-8704508D02*
X20015253Y-8714031D01*
X20015253Y-8714031D02*
X20024777Y-8733079D01*
X20024777Y-8733079D02*
X20034301Y-8771174D01*
X20034301Y-8771174D02*
X20034301Y-8818793D01*
X20034301Y-8818793D02*
X20024777Y-8856889D01*
X20024777Y-8856889D02*
X20015253Y-8875936D01*
X20015253Y-8875936D02*
X20005729Y-8885460D01*
X20005729Y-8885460D02*
X19986682Y-8894984D01*
X19986682Y-8894984D02*
X19967634Y-8894984D01*
X19967634Y-8894984D02*
X19948587Y-8885460D01*
X19948587Y-8885460D02*
X19939063Y-8875936D01*
X19939063Y-8875936D02*
X19929539Y-8856889D01*
X19929539Y-8856889D02*
X19920015Y-8818793D01*
X19920015Y-8818793D02*
X19920015Y-8771174D01*
X19920015Y-8771174D02*
X19929539Y-8733079D01*
X19929539Y-8733079D02*
X19939063Y-8714031D01*
X19939063Y-8714031D02*
X19948587Y-8704508D01*
X19948587Y-8704508D02*
X19967634Y-8694984D01*
X20120015Y-8875936D02*
X20129539Y-8885460D01*
X20129539Y-8885460D02*
X20120015Y-8894984D01*
X20120015Y-8894984D02*
X20110491Y-8885460D01*
X20110491Y-8885460D02*
X20120015Y-8875936D01*
X20120015Y-8875936D02*
X20120015Y-8894984D01*
X20253348Y-8694984D02*
X20272396Y-8694984D01*
X20272396Y-8694984D02*
X20291444Y-8704508D01*
X20291444Y-8704508D02*
X20300968Y-8714031D01*
X20300968Y-8714031D02*
X20310491Y-8733079D01*
X20310491Y-8733079D02*
X20320015Y-8771174D01*
X20320015Y-8771174D02*
X20320015Y-8818793D01*
X20320015Y-8818793D02*
X20310491Y-8856889D01*
X20310491Y-8856889D02*
X20300968Y-8875936D01*
X20300968Y-8875936D02*
X20291444Y-8885460D01*
X20291444Y-8885460D02*
X20272396Y-8894984D01*
X20272396Y-8894984D02*
X20253348Y-8894984D01*
X20253348Y-8894984D02*
X20234301Y-8885460D01*
X20234301Y-8885460D02*
X20224777Y-8875936D01*
X20224777Y-8875936D02*
X20215253Y-8856889D01*
X20215253Y-8856889D02*
X20205729Y-8818793D01*
X20205729Y-8818793D02*
X20205729Y-8771174D01*
X20205729Y-8771174D02*
X20215253Y-8733079D01*
X20215253Y-8733079D02*
X20224777Y-8714031D01*
X20224777Y-8714031D02*
X20234301Y-8704508D01*
X20234301Y-8704508D02*
X20253348Y-8694984D01*
X20386682Y-8694984D02*
X20510491Y-8694984D01*
X20510491Y-8694984D02*
X20443825Y-8771174D01*
X20443825Y-8771174D02*
X20472396Y-8771174D01*
X20472396Y-8771174D02*
X20491444Y-8780698D01*
X20491444Y-8780698D02*
X20500968Y-8790222D01*
X20500968Y-8790222D02*
X20510491Y-8809270D01*
X20510491Y-8809270D02*
X20510491Y-8856889D01*
X20510491Y-8856889D02*
X20500968Y-8875936D01*
X20500968Y-8875936D02*
X20491444Y-8885460D01*
X20491444Y-8885460D02*
X20472396Y-8894984D01*
X20472396Y-8894984D02*
X20415253Y-8894984D01*
X20415253Y-8894984D02*
X20396206Y-8885460D01*
X20396206Y-8885460D02*
X20386682Y-8875936D01*
X20605729Y-8894984D02*
X20643825Y-8894984D01*
X20643825Y-8894984D02*
X20662872Y-8885460D01*
X20662872Y-8885460D02*
X20672396Y-8875936D01*
X20672396Y-8875936D02*
X20691444Y-8847365D01*
X20691444Y-8847365D02*
X20700968Y-8809270D01*
X20700968Y-8809270D02*
X20700968Y-8733079D01*
X20700968Y-8733079D02*
X20691444Y-8714031D01*
X20691444Y-8714031D02*
X20681920Y-8704508D01*
X20681920Y-8704508D02*
X20662872Y-8694984D01*
X20662872Y-8694984D02*
X20624777Y-8694984D01*
X20624777Y-8694984D02*
X20605729Y-8704508D01*
X20605729Y-8704508D02*
X20596206Y-8714031D01*
X20596206Y-8714031D02*
X20586682Y-8733079D01*
X20586682Y-8733079D02*
X20586682Y-8780698D01*
X20586682Y-8780698D02*
X20596206Y-8799746D01*
X20596206Y-8799746D02*
X20605729Y-8809270D01*
X20605729Y-8809270D02*
X20624777Y-8818793D01*
X20624777Y-8818793D02*
X20662872Y-8818793D01*
X20662872Y-8818793D02*
X20681920Y-8809270D01*
X20681920Y-8809270D02*
X20691444Y-8799746D01*
X20691444Y-8799746D02*
X20700968Y-8780698D01*
X20824777Y-8694984D02*
X20843825Y-8694984D01*
X20843825Y-8694984D02*
X20862872Y-8704508D01*
X20862872Y-8704508D02*
X20872396Y-8714031D01*
X20872396Y-8714031D02*
X20881920Y-8733079D01*
X20881920Y-8733079D02*
X20891444Y-8771174D01*
X20891444Y-8771174D02*
X20891444Y-8818793D01*
X20891444Y-8818793D02*
X20881920Y-8856889D01*
X20881920Y-8856889D02*
X20872396Y-8875936D01*
X20872396Y-8875936D02*
X20862872Y-8885460D01*
X20862872Y-8885460D02*
X20843825Y-8894984D01*
X20843825Y-8894984D02*
X20824777Y-8894984D01*
X20824777Y-8894984D02*
X20805729Y-8885460D01*
X20805729Y-8885460D02*
X20796206Y-8875936D01*
X20796206Y-8875936D02*
X20786682Y-8856889D01*
X20786682Y-8856889D02*
X20777158Y-8818793D01*
X20777158Y-8818793D02*
X20777158Y-8771174D01*
X20777158Y-8771174D02*
X20786682Y-8733079D01*
X20786682Y-8733079D02*
X20796206Y-8714031D01*
X20796206Y-8714031D02*
X20805729Y-8704508D01*
X20805729Y-8704508D02*
X20824777Y-8694984D01*
X20967634Y-8694984D02*
X20967634Y-8733079D01*
X21043825Y-8694984D02*
X21043825Y-8733079D01*
X21339063Y-8971174D02*
X21329539Y-8961650D01*
X21329539Y-8961650D02*
X21310491Y-8933079D01*
X21310491Y-8933079D02*
X21300968Y-8914031D01*
X21300968Y-8914031D02*
X21291444Y-8885460D01*
X21291444Y-8885460D02*
X21281920Y-8837841D01*
X21281920Y-8837841D02*
X21281920Y-8799746D01*
X21281920Y-8799746D02*
X21291444Y-8752127D01*
X21291444Y-8752127D02*
X21300968Y-8723555D01*
X21300968Y-8723555D02*
X21310491Y-8704508D01*
X21310491Y-8704508D02*
X21329539Y-8675936D01*
X21329539Y-8675936D02*
X21339063Y-8666412D01*
X21405730Y-8714031D02*
X21415253Y-8704508D01*
X21415253Y-8704508D02*
X21434301Y-8694984D01*
X21434301Y-8694984D02*
X21481920Y-8694984D01*
X21481920Y-8694984D02*
X21500968Y-8704508D01*
X21500968Y-8704508D02*
X21510491Y-8714031D01*
X21510491Y-8714031D02*
X21520015Y-8733079D01*
X21520015Y-8733079D02*
X21520015Y-8752127D01*
X21520015Y-8752127D02*
X21510491Y-8780698D01*
X21510491Y-8780698D02*
X21396206Y-8894984D01*
X21396206Y-8894984D02*
X21520015Y-8894984D01*
X21758111Y-8894984D02*
X21758111Y-8694984D01*
X21843825Y-8894984D02*
X21843825Y-8790222D01*
X21843825Y-8790222D02*
X21834301Y-8771174D01*
X21834301Y-8771174D02*
X21815253Y-8761650D01*
X21815253Y-8761650D02*
X21786682Y-8761650D01*
X21786682Y-8761650D02*
X21767634Y-8771174D01*
X21767634Y-8771174D02*
X21758111Y-8780698D01*
X21967634Y-8894984D02*
X21948587Y-8885460D01*
X21948587Y-8885460D02*
X21939063Y-8875936D01*
X21939063Y-8875936D02*
X21929539Y-8856889D01*
X21929539Y-8856889D02*
X21929539Y-8799746D01*
X21929539Y-8799746D02*
X21939063Y-8780698D01*
X21939063Y-8780698D02*
X21948587Y-8771174D01*
X21948587Y-8771174D02*
X21967634Y-8761650D01*
X21967634Y-8761650D02*
X21996206Y-8761650D01*
X21996206Y-8761650D02*
X22015253Y-8771174D01*
X22015253Y-8771174D02*
X22024777Y-8780698D01*
X22024777Y-8780698D02*
X22034301Y-8799746D01*
X22034301Y-8799746D02*
X22034301Y-8856889D01*
X22034301Y-8856889D02*
X22024777Y-8875936D01*
X22024777Y-8875936D02*
X22015253Y-8885460D01*
X22015253Y-8885460D02*
X21996206Y-8894984D01*
X21996206Y-8894984D02*
X21967634Y-8894984D01*
X22148587Y-8894984D02*
X22129539Y-8885460D01*
X22129539Y-8885460D02*
X22120015Y-8866412D01*
X22120015Y-8866412D02*
X22120015Y-8694984D01*
X22300968Y-8885460D02*
X22281920Y-8894984D01*
X22281920Y-8894984D02*
X22243825Y-8894984D01*
X22243825Y-8894984D02*
X22224777Y-8885460D01*
X22224777Y-8885460D02*
X22215253Y-8866412D01*
X22215253Y-8866412D02*
X22215253Y-8790222D01*
X22215253Y-8790222D02*
X22224777Y-8771174D01*
X22224777Y-8771174D02*
X22243825Y-8761650D01*
X22243825Y-8761650D02*
X22281920Y-8761650D01*
X22281920Y-8761650D02*
X22300968Y-8771174D01*
X22300968Y-8771174D02*
X22310492Y-8790222D01*
X22310492Y-8790222D02*
X22310492Y-8809270D01*
X22310492Y-8809270D02*
X22215253Y-8828317D01*
X22386682Y-8885460D02*
X22405730Y-8894984D01*
X22405730Y-8894984D02*
X22443825Y-8894984D01*
X22443825Y-8894984D02*
X22462872Y-8885460D01*
X22462872Y-8885460D02*
X22472396Y-8866412D01*
X22472396Y-8866412D02*
X22472396Y-8856889D01*
X22472396Y-8856889D02*
X22462872Y-8837841D01*
X22462872Y-8837841D02*
X22443825Y-8828317D01*
X22443825Y-8828317D02*
X22415253Y-8828317D01*
X22415253Y-8828317D02*
X22396206Y-8818793D01*
X22396206Y-8818793D02*
X22386682Y-8799746D01*
X22386682Y-8799746D02*
X22386682Y-8790222D01*
X22386682Y-8790222D02*
X22396206Y-8771174D01*
X22396206Y-8771174D02*
X22415253Y-8761650D01*
X22415253Y-8761650D02*
X22443825Y-8761650D01*
X22443825Y-8761650D02*
X22462872Y-8771174D01*
X22539063Y-8971174D02*
X22548587Y-8961650D01*
X22548587Y-8961650D02*
X22567634Y-8933079D01*
X22567634Y-8933079D02*
X22577158Y-8914031D01*
X22577158Y-8914031D02*
X22586682Y-8885460D01*
X22586682Y-8885460D02*
X22596206Y-8837841D01*
X22596206Y-8837841D02*
X22596206Y-8799746D01*
X22596206Y-8799746D02*
X22586682Y-8752127D01*
X22586682Y-8752127D02*
X22577158Y-8723555D01*
X22577158Y-8723555D02*
X22567634Y-8704508D01*
X22567634Y-8704508D02*
X22548587Y-8675936D01*
X22548587Y-8675936D02*
X22539063Y-8666412D01*
D12*
X17764000Y-9067500D02*
G75*
G02*
X17664000Y-9067500I-50000J0D01*
G01*
X17664000Y-9067500D02*
G75*
G02*
X17764000Y-9067500I50000J0D01*
G01*
D11*
X18129539Y-9158984D02*
X18015253Y-9158984D01*
X18072396Y-9158984D02*
X18072396Y-8958984D01*
X18072396Y-8958984D02*
X18053348Y-8987555D01*
X18053348Y-8987555D02*
X18034301Y-9006603D01*
X18034301Y-9006603D02*
X18015253Y-9016127D01*
X18215253Y-9139936D02*
X18224777Y-9149460D01*
X18224777Y-9149460D02*
X18215253Y-9158984D01*
X18215253Y-9158984D02*
X18205729Y-9149460D01*
X18205729Y-9149460D02*
X18215253Y-9139936D01*
X18215253Y-9139936D02*
X18215253Y-9158984D01*
X18348586Y-8958984D02*
X18367634Y-8958984D01*
X18367634Y-8958984D02*
X18386682Y-8968508D01*
X18386682Y-8968508D02*
X18396205Y-8978031D01*
X18396205Y-8978031D02*
X18405729Y-8997079D01*
X18405729Y-8997079D02*
X18415253Y-9035174D01*
X18415253Y-9035174D02*
X18415253Y-9082793D01*
X18415253Y-9082793D02*
X18405729Y-9120889D01*
X18405729Y-9120889D02*
X18396205Y-9139936D01*
X18396205Y-9139936D02*
X18386682Y-9149460D01*
X18386682Y-9149460D02*
X18367634Y-9158984D01*
X18367634Y-9158984D02*
X18348586Y-9158984D01*
X18348586Y-9158984D02*
X18329539Y-9149460D01*
X18329539Y-9149460D02*
X18320015Y-9139936D01*
X18320015Y-9139936D02*
X18310491Y-9120889D01*
X18310491Y-9120889D02*
X18300967Y-9082793D01*
X18300967Y-9082793D02*
X18300967Y-9035174D01*
X18300967Y-9035174D02*
X18310491Y-8997079D01*
X18310491Y-8997079D02*
X18320015Y-8978031D01*
X18320015Y-8978031D02*
X18329539Y-8968508D01*
X18329539Y-8968508D02*
X18348586Y-8958984D01*
X18539063Y-8958984D02*
X18558110Y-8958984D01*
X18558110Y-8958984D02*
X18577158Y-8968508D01*
X18577158Y-8968508D02*
X18586682Y-8978031D01*
X18586682Y-8978031D02*
X18596205Y-8997079D01*
X18596205Y-8997079D02*
X18605729Y-9035174D01*
X18605729Y-9035174D02*
X18605729Y-9082793D01*
X18605729Y-9082793D02*
X18596205Y-9120889D01*
X18596205Y-9120889D02*
X18586682Y-9139936D01*
X18586682Y-9139936D02*
X18577158Y-9149460D01*
X18577158Y-9149460D02*
X18558110Y-9158984D01*
X18558110Y-9158984D02*
X18539063Y-9158984D01*
X18539063Y-9158984D02*
X18520015Y-9149460D01*
X18520015Y-9149460D02*
X18510491Y-9139936D01*
X18510491Y-9139936D02*
X18500967Y-9120889D01*
X18500967Y-9120889D02*
X18491444Y-9082793D01*
X18491444Y-9082793D02*
X18491444Y-9035174D01*
X18491444Y-9035174D02*
X18500967Y-8997079D01*
X18500967Y-8997079D02*
X18510491Y-8978031D01*
X18510491Y-8978031D02*
X18520015Y-8968508D01*
X18520015Y-8968508D02*
X18539063Y-8958984D01*
X18729539Y-8958984D02*
X18748586Y-8958984D01*
X18748586Y-8958984D02*
X18767634Y-8968508D01*
X18767634Y-8968508D02*
X18777158Y-8978031D01*
X18777158Y-8978031D02*
X18786682Y-8997079D01*
X18786682Y-8997079D02*
X18796205Y-9035174D01*
X18796205Y-9035174D02*
X18796205Y-9082793D01*
X18796205Y-9082793D02*
X18786682Y-9120889D01*
X18786682Y-9120889D02*
X18777158Y-9139936D01*
X18777158Y-9139936D02*
X18767634Y-9149460D01*
X18767634Y-9149460D02*
X18748586Y-9158984D01*
X18748586Y-9158984D02*
X18729539Y-9158984D01*
X18729539Y-9158984D02*
X18710491Y-9149460D01*
X18710491Y-9149460D02*
X18700967Y-9139936D01*
X18700967Y-9139936D02*
X18691444Y-9120889D01*
X18691444Y-9120889D02*
X18681920Y-9082793D01*
X18681920Y-9082793D02*
X18681920Y-9035174D01*
X18681920Y-9035174D02*
X18691444Y-8997079D01*
X18691444Y-8997079D02*
X18700967Y-8978031D01*
X18700967Y-8978031D02*
X18710491Y-8968508D01*
X18710491Y-8968508D02*
X18729539Y-8958984D01*
X18881920Y-9158984D02*
X18881920Y-9025650D01*
X18881920Y-9044698D02*
X18891444Y-9035174D01*
X18891444Y-9035174D02*
X18910491Y-9025650D01*
X18910491Y-9025650D02*
X18939063Y-9025650D01*
X18939063Y-9025650D02*
X18958110Y-9035174D01*
X18958110Y-9035174D02*
X18967634Y-9054222D01*
X18967634Y-9054222D02*
X18967634Y-9158984D01*
X18967634Y-9054222D02*
X18977158Y-9035174D01*
X18977158Y-9035174D02*
X18996205Y-9025650D01*
X18996205Y-9025650D02*
X19024777Y-9025650D01*
X19024777Y-9025650D02*
X19043825Y-9035174D01*
X19043825Y-9035174D02*
X19053348Y-9054222D01*
X19053348Y-9054222D02*
X19053348Y-9158984D01*
X19148586Y-9158984D02*
X19148586Y-9025650D01*
X19148586Y-9044698D02*
X19158110Y-9035174D01*
X19158110Y-9035174D02*
X19177158Y-9025650D01*
X19177158Y-9025650D02*
X19205729Y-9025650D01*
X19205729Y-9025650D02*
X19224777Y-9035174D01*
X19224777Y-9035174D02*
X19234301Y-9054222D01*
X19234301Y-9054222D02*
X19234301Y-9158984D01*
X19234301Y-9054222D02*
X19243825Y-9035174D01*
X19243825Y-9035174D02*
X19262872Y-9025650D01*
X19262872Y-9025650D02*
X19291444Y-9025650D01*
X19291444Y-9025650D02*
X19310491Y-9035174D01*
X19310491Y-9035174D02*
X19320015Y-9054222D01*
X19320015Y-9054222D02*
X19320015Y-9158984D01*
X19710491Y-8949460D02*
X19539063Y-9206603D01*
X19967634Y-8958984D02*
X19986682Y-8958984D01*
X19986682Y-8958984D02*
X20005729Y-8968508D01*
X20005729Y-8968508D02*
X20015253Y-8978031D01*
X20015253Y-8978031D02*
X20024777Y-8997079D01*
X20024777Y-8997079D02*
X20034301Y-9035174D01*
X20034301Y-9035174D02*
X20034301Y-9082793D01*
X20034301Y-9082793D02*
X20024777Y-9120889D01*
X20024777Y-9120889D02*
X20015253Y-9139936D01*
X20015253Y-9139936D02*
X20005729Y-9149460D01*
X20005729Y-9149460D02*
X19986682Y-9158984D01*
X19986682Y-9158984D02*
X19967634Y-9158984D01*
X19967634Y-9158984D02*
X19948587Y-9149460D01*
X19948587Y-9149460D02*
X19939063Y-9139936D01*
X19939063Y-9139936D02*
X19929539Y-9120889D01*
X19929539Y-9120889D02*
X19920015Y-9082793D01*
X19920015Y-9082793D02*
X19920015Y-9035174D01*
X19920015Y-9035174D02*
X19929539Y-8997079D01*
X19929539Y-8997079D02*
X19939063Y-8978031D01*
X19939063Y-8978031D02*
X19948587Y-8968508D01*
X19948587Y-8968508D02*
X19967634Y-8958984D01*
X20120015Y-9139936D02*
X20129539Y-9149460D01*
X20129539Y-9149460D02*
X20120015Y-9158984D01*
X20120015Y-9158984D02*
X20110491Y-9149460D01*
X20110491Y-9149460D02*
X20120015Y-9139936D01*
X20120015Y-9139936D02*
X20120015Y-9158984D01*
X20253348Y-8958984D02*
X20272396Y-8958984D01*
X20272396Y-8958984D02*
X20291444Y-8968508D01*
X20291444Y-8968508D02*
X20300968Y-8978031D01*
X20300968Y-8978031D02*
X20310491Y-8997079D01*
X20310491Y-8997079D02*
X20320015Y-9035174D01*
X20320015Y-9035174D02*
X20320015Y-9082793D01*
X20320015Y-9082793D02*
X20310491Y-9120889D01*
X20310491Y-9120889D02*
X20300968Y-9139936D01*
X20300968Y-9139936D02*
X20291444Y-9149460D01*
X20291444Y-9149460D02*
X20272396Y-9158984D01*
X20272396Y-9158984D02*
X20253348Y-9158984D01*
X20253348Y-9158984D02*
X20234301Y-9149460D01*
X20234301Y-9149460D02*
X20224777Y-9139936D01*
X20224777Y-9139936D02*
X20215253Y-9120889D01*
X20215253Y-9120889D02*
X20205729Y-9082793D01*
X20205729Y-9082793D02*
X20205729Y-9035174D01*
X20205729Y-9035174D02*
X20215253Y-8997079D01*
X20215253Y-8997079D02*
X20224777Y-8978031D01*
X20224777Y-8978031D02*
X20234301Y-8968508D01*
X20234301Y-8968508D02*
X20253348Y-8958984D01*
X20386682Y-8958984D02*
X20510491Y-8958984D01*
X20510491Y-8958984D02*
X20443825Y-9035174D01*
X20443825Y-9035174D02*
X20472396Y-9035174D01*
X20472396Y-9035174D02*
X20491444Y-9044698D01*
X20491444Y-9044698D02*
X20500968Y-9054222D01*
X20500968Y-9054222D02*
X20510491Y-9073270D01*
X20510491Y-9073270D02*
X20510491Y-9120889D01*
X20510491Y-9120889D02*
X20500968Y-9139936D01*
X20500968Y-9139936D02*
X20491444Y-9149460D01*
X20491444Y-9149460D02*
X20472396Y-9158984D01*
X20472396Y-9158984D02*
X20415253Y-9158984D01*
X20415253Y-9158984D02*
X20396206Y-9149460D01*
X20396206Y-9149460D02*
X20386682Y-9139936D01*
X20605729Y-9158984D02*
X20643825Y-9158984D01*
X20643825Y-9158984D02*
X20662872Y-9149460D01*
X20662872Y-9149460D02*
X20672396Y-9139936D01*
X20672396Y-9139936D02*
X20691444Y-9111365D01*
X20691444Y-9111365D02*
X20700968Y-9073270D01*
X20700968Y-9073270D02*
X20700968Y-8997079D01*
X20700968Y-8997079D02*
X20691444Y-8978031D01*
X20691444Y-8978031D02*
X20681920Y-8968508D01*
X20681920Y-8968508D02*
X20662872Y-8958984D01*
X20662872Y-8958984D02*
X20624777Y-8958984D01*
X20624777Y-8958984D02*
X20605729Y-8968508D01*
X20605729Y-8968508D02*
X20596206Y-8978031D01*
X20596206Y-8978031D02*
X20586682Y-8997079D01*
X20586682Y-8997079D02*
X20586682Y-9044698D01*
X20586682Y-9044698D02*
X20596206Y-9063746D01*
X20596206Y-9063746D02*
X20605729Y-9073270D01*
X20605729Y-9073270D02*
X20624777Y-9082793D01*
X20624777Y-9082793D02*
X20662872Y-9082793D01*
X20662872Y-9082793D02*
X20681920Y-9073270D01*
X20681920Y-9073270D02*
X20691444Y-9063746D01*
X20691444Y-9063746D02*
X20700968Y-9044698D01*
X20872396Y-9025650D02*
X20872396Y-9158984D01*
X20824777Y-8949460D02*
X20777158Y-9092317D01*
X20777158Y-9092317D02*
X20900968Y-9092317D01*
X20967634Y-8958984D02*
X20967634Y-8997079D01*
X21043825Y-8958984D02*
X21043825Y-8997079D01*
X21339063Y-9235174D02*
X21329539Y-9225650D01*
X21329539Y-9225650D02*
X21310491Y-9197079D01*
X21310491Y-9197079D02*
X21300968Y-9178031D01*
X21300968Y-9178031D02*
X21291444Y-9149460D01*
X21291444Y-9149460D02*
X21281920Y-9101841D01*
X21281920Y-9101841D02*
X21281920Y-9063746D01*
X21281920Y-9063746D02*
X21291444Y-9016127D01*
X21291444Y-9016127D02*
X21300968Y-8987555D01*
X21300968Y-8987555D02*
X21310491Y-8968508D01*
X21310491Y-8968508D02*
X21329539Y-8939936D01*
X21329539Y-8939936D02*
X21339063Y-8930412D01*
X21405730Y-8978031D02*
X21415253Y-8968508D01*
X21415253Y-8968508D02*
X21434301Y-8958984D01*
X21434301Y-8958984D02*
X21481920Y-8958984D01*
X21481920Y-8958984D02*
X21500968Y-8968508D01*
X21500968Y-8968508D02*
X21510491Y-8978031D01*
X21510491Y-8978031D02*
X21520015Y-8997079D01*
X21520015Y-8997079D02*
X21520015Y-9016127D01*
X21520015Y-9016127D02*
X21510491Y-9044698D01*
X21510491Y-9044698D02*
X21396206Y-9158984D01*
X21396206Y-9158984D02*
X21520015Y-9158984D01*
X21615253Y-9158984D02*
X21653349Y-9158984D01*
X21653349Y-9158984D02*
X21672396Y-9149460D01*
X21672396Y-9149460D02*
X21681920Y-9139936D01*
X21681920Y-9139936D02*
X21700968Y-9111365D01*
X21700968Y-9111365D02*
X21710491Y-9073270D01*
X21710491Y-9073270D02*
X21710491Y-8997079D01*
X21710491Y-8997079D02*
X21700968Y-8978031D01*
X21700968Y-8978031D02*
X21691444Y-8968508D01*
X21691444Y-8968508D02*
X21672396Y-8958984D01*
X21672396Y-8958984D02*
X21634301Y-8958984D01*
X21634301Y-8958984D02*
X21615253Y-8968508D01*
X21615253Y-8968508D02*
X21605730Y-8978031D01*
X21605730Y-8978031D02*
X21596206Y-8997079D01*
X21596206Y-8997079D02*
X21596206Y-9044698D01*
X21596206Y-9044698D02*
X21605730Y-9063746D01*
X21605730Y-9063746D02*
X21615253Y-9073270D01*
X21615253Y-9073270D02*
X21634301Y-9082793D01*
X21634301Y-9082793D02*
X21672396Y-9082793D01*
X21672396Y-9082793D02*
X21691444Y-9073270D01*
X21691444Y-9073270D02*
X21700968Y-9063746D01*
X21700968Y-9063746D02*
X21710491Y-9044698D01*
X21948587Y-9158984D02*
X21948587Y-8958984D01*
X22034301Y-9158984D02*
X22034301Y-9054222D01*
X22034301Y-9054222D02*
X22024777Y-9035174D01*
X22024777Y-9035174D02*
X22005730Y-9025650D01*
X22005730Y-9025650D02*
X21977158Y-9025650D01*
X21977158Y-9025650D02*
X21958111Y-9035174D01*
X21958111Y-9035174D02*
X21948587Y-9044698D01*
X22158111Y-9158984D02*
X22139063Y-9149460D01*
X22139063Y-9149460D02*
X22129539Y-9139936D01*
X22129539Y-9139936D02*
X22120015Y-9120889D01*
X22120015Y-9120889D02*
X22120015Y-9063746D01*
X22120015Y-9063746D02*
X22129539Y-9044698D01*
X22129539Y-9044698D02*
X22139063Y-9035174D01*
X22139063Y-9035174D02*
X22158111Y-9025650D01*
X22158111Y-9025650D02*
X22186682Y-9025650D01*
X22186682Y-9025650D02*
X22205730Y-9035174D01*
X22205730Y-9035174D02*
X22215253Y-9044698D01*
X22215253Y-9044698D02*
X22224777Y-9063746D01*
X22224777Y-9063746D02*
X22224777Y-9120889D01*
X22224777Y-9120889D02*
X22215253Y-9139936D01*
X22215253Y-9139936D02*
X22205730Y-9149460D01*
X22205730Y-9149460D02*
X22186682Y-9158984D01*
X22186682Y-9158984D02*
X22158111Y-9158984D01*
X22339063Y-9158984D02*
X22320015Y-9149460D01*
X22320015Y-9149460D02*
X22310492Y-9130412D01*
X22310492Y-9130412D02*
X22310492Y-8958984D01*
X22491444Y-9149460D02*
X22472396Y-9158984D01*
X22472396Y-9158984D02*
X22434301Y-9158984D01*
X22434301Y-9158984D02*
X22415253Y-9149460D01*
X22415253Y-9149460D02*
X22405730Y-9130412D01*
X22405730Y-9130412D02*
X22405730Y-9054222D01*
X22405730Y-9054222D02*
X22415253Y-9035174D01*
X22415253Y-9035174D02*
X22434301Y-9025650D01*
X22434301Y-9025650D02*
X22472396Y-9025650D01*
X22472396Y-9025650D02*
X22491444Y-9035174D01*
X22491444Y-9035174D02*
X22500968Y-9054222D01*
X22500968Y-9054222D02*
X22500968Y-9073270D01*
X22500968Y-9073270D02*
X22405730Y-9092317D01*
X22577158Y-9149460D02*
X22596206Y-9158984D01*
X22596206Y-9158984D02*
X22634301Y-9158984D01*
X22634301Y-9158984D02*
X22653349Y-9149460D01*
X22653349Y-9149460D02*
X22662872Y-9130412D01*
X22662872Y-9130412D02*
X22662872Y-9120889D01*
X22662872Y-9120889D02*
X22653349Y-9101841D01*
X22653349Y-9101841D02*
X22634301Y-9092317D01*
X22634301Y-9092317D02*
X22605730Y-9092317D01*
X22605730Y-9092317D02*
X22586682Y-9082793D01*
X22586682Y-9082793D02*
X22577158Y-9063746D01*
X22577158Y-9063746D02*
X22577158Y-9054222D01*
X22577158Y-9054222D02*
X22586682Y-9035174D01*
X22586682Y-9035174D02*
X22605730Y-9025650D01*
X22605730Y-9025650D02*
X22634301Y-9025650D01*
X22634301Y-9025650D02*
X22653349Y-9035174D01*
X22729539Y-9235174D02*
X22739063Y-9225650D01*
X22739063Y-9225650D02*
X22758111Y-9197079D01*
X22758111Y-9197079D02*
X22767634Y-9178031D01*
X22767634Y-9178031D02*
X22777158Y-9149460D01*
X22777158Y-9149460D02*
X22786682Y-9101841D01*
X22786682Y-9101841D02*
X22786682Y-9063746D01*
X22786682Y-9063746D02*
X22777158Y-9016127D01*
X22777158Y-9016127D02*
X22767634Y-8987555D01*
X22767634Y-8987555D02*
X22758111Y-8968508D01*
X22758111Y-8968508D02*
X22739063Y-8939936D01*
X22739063Y-8939936D02*
X22729539Y-8930412D01*
D13*
X17699000Y-9266500D02*
X17699000Y-9396500D01*
X17634000Y-9331500D02*
X17764000Y-9331500D01*
D11*
X18129539Y-9422984D02*
X18015253Y-9422984D01*
X18072396Y-9422984D02*
X18072396Y-9222984D01*
X18072396Y-9222984D02*
X18053348Y-9251555D01*
X18053348Y-9251555D02*
X18034301Y-9270603D01*
X18034301Y-9270603D02*
X18015253Y-9280127D01*
X18215253Y-9403936D02*
X18224777Y-9413460D01*
X18224777Y-9413460D02*
X18215253Y-9422984D01*
X18215253Y-9422984D02*
X18205729Y-9413460D01*
X18205729Y-9413460D02*
X18215253Y-9403936D01*
X18215253Y-9403936D02*
X18215253Y-9422984D01*
X18291444Y-9222984D02*
X18415253Y-9222984D01*
X18415253Y-9222984D02*
X18348586Y-9299174D01*
X18348586Y-9299174D02*
X18377158Y-9299174D01*
X18377158Y-9299174D02*
X18396205Y-9308698D01*
X18396205Y-9308698D02*
X18405729Y-9318222D01*
X18405729Y-9318222D02*
X18415253Y-9337270D01*
X18415253Y-9337270D02*
X18415253Y-9384889D01*
X18415253Y-9384889D02*
X18405729Y-9403936D01*
X18405729Y-9403936D02*
X18396205Y-9413460D01*
X18396205Y-9413460D02*
X18377158Y-9422984D01*
X18377158Y-9422984D02*
X18320015Y-9422984D01*
X18320015Y-9422984D02*
X18300967Y-9413460D01*
X18300967Y-9413460D02*
X18291444Y-9403936D01*
X18539063Y-9222984D02*
X18558110Y-9222984D01*
X18558110Y-9222984D02*
X18577158Y-9232508D01*
X18577158Y-9232508D02*
X18586682Y-9242031D01*
X18586682Y-9242031D02*
X18596205Y-9261079D01*
X18596205Y-9261079D02*
X18605729Y-9299174D01*
X18605729Y-9299174D02*
X18605729Y-9346793D01*
X18605729Y-9346793D02*
X18596205Y-9384889D01*
X18596205Y-9384889D02*
X18586682Y-9403936D01*
X18586682Y-9403936D02*
X18577158Y-9413460D01*
X18577158Y-9413460D02*
X18558110Y-9422984D01*
X18558110Y-9422984D02*
X18539063Y-9422984D01*
X18539063Y-9422984D02*
X18520015Y-9413460D01*
X18520015Y-9413460D02*
X18510491Y-9403936D01*
X18510491Y-9403936D02*
X18500967Y-9384889D01*
X18500967Y-9384889D02*
X18491444Y-9346793D01*
X18491444Y-9346793D02*
X18491444Y-9299174D01*
X18491444Y-9299174D02*
X18500967Y-9261079D01*
X18500967Y-9261079D02*
X18510491Y-9242031D01*
X18510491Y-9242031D02*
X18520015Y-9232508D01*
X18520015Y-9232508D02*
X18539063Y-9222984D01*
X18729539Y-9222984D02*
X18748586Y-9222984D01*
X18748586Y-9222984D02*
X18767634Y-9232508D01*
X18767634Y-9232508D02*
X18777158Y-9242031D01*
X18777158Y-9242031D02*
X18786682Y-9261079D01*
X18786682Y-9261079D02*
X18796205Y-9299174D01*
X18796205Y-9299174D02*
X18796205Y-9346793D01*
X18796205Y-9346793D02*
X18786682Y-9384889D01*
X18786682Y-9384889D02*
X18777158Y-9403936D01*
X18777158Y-9403936D02*
X18767634Y-9413460D01*
X18767634Y-9413460D02*
X18748586Y-9422984D01*
X18748586Y-9422984D02*
X18729539Y-9422984D01*
X18729539Y-9422984D02*
X18710491Y-9413460D01*
X18710491Y-9413460D02*
X18700967Y-9403936D01*
X18700967Y-9403936D02*
X18691444Y-9384889D01*
X18691444Y-9384889D02*
X18681920Y-9346793D01*
X18681920Y-9346793D02*
X18681920Y-9299174D01*
X18681920Y-9299174D02*
X18691444Y-9261079D01*
X18691444Y-9261079D02*
X18700967Y-9242031D01*
X18700967Y-9242031D02*
X18710491Y-9232508D01*
X18710491Y-9232508D02*
X18729539Y-9222984D01*
X18881920Y-9422984D02*
X18881920Y-9289650D01*
X18881920Y-9308698D02*
X18891444Y-9299174D01*
X18891444Y-9299174D02*
X18910491Y-9289650D01*
X18910491Y-9289650D02*
X18939063Y-9289650D01*
X18939063Y-9289650D02*
X18958110Y-9299174D01*
X18958110Y-9299174D02*
X18967634Y-9318222D01*
X18967634Y-9318222D02*
X18967634Y-9422984D01*
X18967634Y-9318222D02*
X18977158Y-9299174D01*
X18977158Y-9299174D02*
X18996205Y-9289650D01*
X18996205Y-9289650D02*
X19024777Y-9289650D01*
X19024777Y-9289650D02*
X19043825Y-9299174D01*
X19043825Y-9299174D02*
X19053348Y-9318222D01*
X19053348Y-9318222D02*
X19053348Y-9422984D01*
X19148586Y-9422984D02*
X19148586Y-9289650D01*
X19148586Y-9308698D02*
X19158110Y-9299174D01*
X19158110Y-9299174D02*
X19177158Y-9289650D01*
X19177158Y-9289650D02*
X19205729Y-9289650D01*
X19205729Y-9289650D02*
X19224777Y-9299174D01*
X19224777Y-9299174D02*
X19234301Y-9318222D01*
X19234301Y-9318222D02*
X19234301Y-9422984D01*
X19234301Y-9318222D02*
X19243825Y-9299174D01*
X19243825Y-9299174D02*
X19262872Y-9289650D01*
X19262872Y-9289650D02*
X19291444Y-9289650D01*
X19291444Y-9289650D02*
X19310491Y-9299174D01*
X19310491Y-9299174D02*
X19320015Y-9318222D01*
X19320015Y-9318222D02*
X19320015Y-9422984D01*
X19710491Y-9213460D02*
X19539063Y-9470603D01*
X19967634Y-9222984D02*
X19986682Y-9222984D01*
X19986682Y-9222984D02*
X20005729Y-9232508D01*
X20005729Y-9232508D02*
X20015253Y-9242031D01*
X20015253Y-9242031D02*
X20024777Y-9261079D01*
X20024777Y-9261079D02*
X20034301Y-9299174D01*
X20034301Y-9299174D02*
X20034301Y-9346793D01*
X20034301Y-9346793D02*
X20024777Y-9384889D01*
X20024777Y-9384889D02*
X20015253Y-9403936D01*
X20015253Y-9403936D02*
X20005729Y-9413460D01*
X20005729Y-9413460D02*
X19986682Y-9422984D01*
X19986682Y-9422984D02*
X19967634Y-9422984D01*
X19967634Y-9422984D02*
X19948587Y-9413460D01*
X19948587Y-9413460D02*
X19939063Y-9403936D01*
X19939063Y-9403936D02*
X19929539Y-9384889D01*
X19929539Y-9384889D02*
X19920015Y-9346793D01*
X19920015Y-9346793D02*
X19920015Y-9299174D01*
X19920015Y-9299174D02*
X19929539Y-9261079D01*
X19929539Y-9261079D02*
X19939063Y-9242031D01*
X19939063Y-9242031D02*
X19948587Y-9232508D01*
X19948587Y-9232508D02*
X19967634Y-9222984D01*
X20120015Y-9403936D02*
X20129539Y-9413460D01*
X20129539Y-9413460D02*
X20120015Y-9422984D01*
X20120015Y-9422984D02*
X20110491Y-9413460D01*
X20110491Y-9413460D02*
X20120015Y-9403936D01*
X20120015Y-9403936D02*
X20120015Y-9422984D01*
X20253348Y-9222984D02*
X20272396Y-9222984D01*
X20272396Y-9222984D02*
X20291444Y-9232508D01*
X20291444Y-9232508D02*
X20300968Y-9242031D01*
X20300968Y-9242031D02*
X20310491Y-9261079D01*
X20310491Y-9261079D02*
X20320015Y-9299174D01*
X20320015Y-9299174D02*
X20320015Y-9346793D01*
X20320015Y-9346793D02*
X20310491Y-9384889D01*
X20310491Y-9384889D02*
X20300968Y-9403936D01*
X20300968Y-9403936D02*
X20291444Y-9413460D01*
X20291444Y-9413460D02*
X20272396Y-9422984D01*
X20272396Y-9422984D02*
X20253348Y-9422984D01*
X20253348Y-9422984D02*
X20234301Y-9413460D01*
X20234301Y-9413460D02*
X20224777Y-9403936D01*
X20224777Y-9403936D02*
X20215253Y-9384889D01*
X20215253Y-9384889D02*
X20205729Y-9346793D01*
X20205729Y-9346793D02*
X20205729Y-9299174D01*
X20205729Y-9299174D02*
X20215253Y-9261079D01*
X20215253Y-9261079D02*
X20224777Y-9242031D01*
X20224777Y-9242031D02*
X20234301Y-9232508D01*
X20234301Y-9232508D02*
X20253348Y-9222984D01*
X20500968Y-9222984D02*
X20405729Y-9222984D01*
X20405729Y-9222984D02*
X20396206Y-9318222D01*
X20396206Y-9318222D02*
X20405729Y-9308698D01*
X20405729Y-9308698D02*
X20424777Y-9299174D01*
X20424777Y-9299174D02*
X20472396Y-9299174D01*
X20472396Y-9299174D02*
X20491444Y-9308698D01*
X20491444Y-9308698D02*
X20500968Y-9318222D01*
X20500968Y-9318222D02*
X20510491Y-9337270D01*
X20510491Y-9337270D02*
X20510491Y-9384889D01*
X20510491Y-9384889D02*
X20500968Y-9403936D01*
X20500968Y-9403936D02*
X20491444Y-9413460D01*
X20491444Y-9413460D02*
X20472396Y-9422984D01*
X20472396Y-9422984D02*
X20424777Y-9422984D01*
X20424777Y-9422984D02*
X20405729Y-9413460D01*
X20405729Y-9413460D02*
X20396206Y-9403936D01*
X20700968Y-9422984D02*
X20586682Y-9422984D01*
X20643825Y-9422984D02*
X20643825Y-9222984D01*
X20643825Y-9222984D02*
X20624777Y-9251555D01*
X20624777Y-9251555D02*
X20605729Y-9270603D01*
X20605729Y-9270603D02*
X20586682Y-9280127D01*
X20777158Y-9242031D02*
X20786682Y-9232508D01*
X20786682Y-9232508D02*
X20805729Y-9222984D01*
X20805729Y-9222984D02*
X20853349Y-9222984D01*
X20853349Y-9222984D02*
X20872396Y-9232508D01*
X20872396Y-9232508D02*
X20881920Y-9242031D01*
X20881920Y-9242031D02*
X20891444Y-9261079D01*
X20891444Y-9261079D02*
X20891444Y-9280127D01*
X20891444Y-9280127D02*
X20881920Y-9308698D01*
X20881920Y-9308698D02*
X20767634Y-9422984D01*
X20767634Y-9422984D02*
X20891444Y-9422984D01*
X20967634Y-9222984D02*
X20967634Y-9261079D01*
X21043825Y-9222984D02*
X21043825Y-9261079D01*
X21339063Y-9499174D02*
X21329539Y-9489650D01*
X21329539Y-9489650D02*
X21310491Y-9461079D01*
X21310491Y-9461079D02*
X21300968Y-9442031D01*
X21300968Y-9442031D02*
X21291444Y-9413460D01*
X21291444Y-9413460D02*
X21281920Y-9365841D01*
X21281920Y-9365841D02*
X21281920Y-9327746D01*
X21281920Y-9327746D02*
X21291444Y-9280127D01*
X21291444Y-9280127D02*
X21300968Y-9251555D01*
X21300968Y-9251555D02*
X21310491Y-9232508D01*
X21310491Y-9232508D02*
X21329539Y-9203936D01*
X21329539Y-9203936D02*
X21339063Y-9194412D01*
X21405730Y-9242031D02*
X21415253Y-9232508D01*
X21415253Y-9232508D02*
X21434301Y-9222984D01*
X21434301Y-9222984D02*
X21481920Y-9222984D01*
X21481920Y-9222984D02*
X21500968Y-9232508D01*
X21500968Y-9232508D02*
X21510491Y-9242031D01*
X21510491Y-9242031D02*
X21520015Y-9261079D01*
X21520015Y-9261079D02*
X21520015Y-9280127D01*
X21520015Y-9280127D02*
X21510491Y-9308698D01*
X21510491Y-9308698D02*
X21396206Y-9422984D01*
X21396206Y-9422984D02*
X21520015Y-9422984D01*
X21758111Y-9422984D02*
X21758111Y-9222984D01*
X21843825Y-9422984D02*
X21843825Y-9318222D01*
X21843825Y-9318222D02*
X21834301Y-9299174D01*
X21834301Y-9299174D02*
X21815253Y-9289650D01*
X21815253Y-9289650D02*
X21786682Y-9289650D01*
X21786682Y-9289650D02*
X21767634Y-9299174D01*
X21767634Y-9299174D02*
X21758111Y-9308698D01*
X21967634Y-9422984D02*
X21948587Y-9413460D01*
X21948587Y-9413460D02*
X21939063Y-9403936D01*
X21939063Y-9403936D02*
X21929539Y-9384889D01*
X21929539Y-9384889D02*
X21929539Y-9327746D01*
X21929539Y-9327746D02*
X21939063Y-9308698D01*
X21939063Y-9308698D02*
X21948587Y-9299174D01*
X21948587Y-9299174D02*
X21967634Y-9289650D01*
X21967634Y-9289650D02*
X21996206Y-9289650D01*
X21996206Y-9289650D02*
X22015253Y-9299174D01*
X22015253Y-9299174D02*
X22024777Y-9308698D01*
X22024777Y-9308698D02*
X22034301Y-9327746D01*
X22034301Y-9327746D02*
X22034301Y-9384889D01*
X22034301Y-9384889D02*
X22024777Y-9403936D01*
X22024777Y-9403936D02*
X22015253Y-9413460D01*
X22015253Y-9413460D02*
X21996206Y-9422984D01*
X21996206Y-9422984D02*
X21967634Y-9422984D01*
X22148587Y-9422984D02*
X22129539Y-9413460D01*
X22129539Y-9413460D02*
X22120015Y-9394412D01*
X22120015Y-9394412D02*
X22120015Y-9222984D01*
X22300968Y-9413460D02*
X22281920Y-9422984D01*
X22281920Y-9422984D02*
X22243825Y-9422984D01*
X22243825Y-9422984D02*
X22224777Y-9413460D01*
X22224777Y-9413460D02*
X22215253Y-9394412D01*
X22215253Y-9394412D02*
X22215253Y-9318222D01*
X22215253Y-9318222D02*
X22224777Y-9299174D01*
X22224777Y-9299174D02*
X22243825Y-9289650D01*
X22243825Y-9289650D02*
X22281920Y-9289650D01*
X22281920Y-9289650D02*
X22300968Y-9299174D01*
X22300968Y-9299174D02*
X22310492Y-9318222D01*
X22310492Y-9318222D02*
X22310492Y-9337270D01*
X22310492Y-9337270D02*
X22215253Y-9356317D01*
X22386682Y-9413460D02*
X22405730Y-9422984D01*
X22405730Y-9422984D02*
X22443825Y-9422984D01*
X22443825Y-9422984D02*
X22462872Y-9413460D01*
X22462872Y-9413460D02*
X22472396Y-9394412D01*
X22472396Y-9394412D02*
X22472396Y-9384889D01*
X22472396Y-9384889D02*
X22462872Y-9365841D01*
X22462872Y-9365841D02*
X22443825Y-9356317D01*
X22443825Y-9356317D02*
X22415253Y-9356317D01*
X22415253Y-9356317D02*
X22396206Y-9346793D01*
X22396206Y-9346793D02*
X22386682Y-9327746D01*
X22386682Y-9327746D02*
X22386682Y-9318222D01*
X22386682Y-9318222D02*
X22396206Y-9299174D01*
X22396206Y-9299174D02*
X22415253Y-9289650D01*
X22415253Y-9289650D02*
X22443825Y-9289650D01*
X22443825Y-9289650D02*
X22462872Y-9299174D01*
X22539063Y-9499174D02*
X22548587Y-9489650D01*
X22548587Y-9489650D02*
X22567634Y-9461079D01*
X22567634Y-9461079D02*
X22577158Y-9442031D01*
X22577158Y-9442031D02*
X22586682Y-9413460D01*
X22586682Y-9413460D02*
X22596206Y-9365841D01*
X22596206Y-9365841D02*
X22596206Y-9327746D01*
X22596206Y-9327746D02*
X22586682Y-9280127D01*
X22586682Y-9280127D02*
X22577158Y-9251555D01*
X22577158Y-9251555D02*
X22567634Y-9232508D01*
X22567634Y-9232508D02*
X22548587Y-9203936D01*
X22548587Y-9203936D02*
X22539063Y-9194412D01*
M02*
