G04 #@! TF.GenerationSoftware,KiCad,Pcbnew,8.0.6*
G04 #@! TF.CreationDate,2024-11-23T11:54:57+01:00*
G04 #@! TF.ProjectId,ChristmasTreeBrain,43687269-7374-46d6-9173-547265654272,rev?*
G04 #@! TF.SameCoordinates,Original*
G04 #@! TF.FileFunction,Legend,Top*
G04 #@! TF.FilePolarity,Positive*
%FSLAX46Y46*%
G04 Gerber Fmt 4.6, Leading zero omitted, Abs format (unit mm)*
G04 Created by KiCad (PCBNEW 8.0.6) date 2024-11-23 11:54:57*
%MOMM*%
%LPD*%
G01*
G04 APERTURE LIST*
G04 Aperture macros list*
%AMRoundRect*
0 Rectangle with rounded corners*
0 $1 Rounding radius*
0 $2 $3 $4 $5 $6 $7 $8 $9 X,Y pos of 4 corners*
0 Add a 4 corners polygon primitive as box body*
4,1,4,$2,$3,$4,$5,$6,$7,$8,$9,$2,$3,0*
0 Add four circle primitives for the rounded corners*
1,1,$1+$1,$2,$3*
1,1,$1+$1,$4,$5*
1,1,$1+$1,$6,$7*
1,1,$1+$1,$8,$9*
0 Add four rect primitives between the rounded corners*
20,1,$1+$1,$2,$3,$4,$5,0*
20,1,$1+$1,$4,$5,$6,$7,0*
20,1,$1+$1,$6,$7,$8,$9,0*
20,1,$1+$1,$8,$9,$2,$3,0*%
G04 Aperture macros list end*
%ADD10C,0.100000*%
%ADD11C,0.150000*%
%ADD12C,0.200000*%
%ADD13C,0.300000*%
%ADD14C,0.010000*%
%ADD15C,0.120000*%
%ADD16C,2.100000*%
%ADD17C,1.750000*%
%ADD18O,2.000000X1.400000*%
%ADD19RoundRect,0.250000X0.262500X0.450000X-0.262500X0.450000X-0.262500X-0.450000X0.262500X-0.450000X0*%
%ADD20R,1.700000X1.700000*%
%ADD21O,1.700000X1.700000*%
G04 APERTURE END LIST*
D10*
X188360000Y-51570000D02*
G75*
G02*
X187320000Y-51570000I-520000J0D01*
G01*
X187320000Y-51570000D02*
G75*
G02*
X188360000Y-51570000I520000J0D01*
G01*
X195610000Y-51570000D02*
G75*
G02*
X194570000Y-51570000I-520000J0D01*
G01*
X194570000Y-51570000D02*
G75*
G02*
X195610000Y-51570000I520000J0D01*
G01*
X193590000Y-50820000D02*
X196590000Y-50820000D01*
X196590000Y-52320000D01*
X193590000Y-52320000D01*
X193590000Y-50820000D01*
X186350000Y-50820000D02*
X189350000Y-50820000D01*
X189350000Y-52320000D01*
X186350000Y-52320000D01*
X186350000Y-50820000D01*
X194913301Y-62317767D02*
X191377767Y-65853301D01*
X187842233Y-62317767D01*
X191377767Y-58782233D01*
X194913301Y-62317767D01*
D11*
X183532493Y-68179819D02*
X183532493Y-68894104D01*
X183532493Y-68894104D02*
X183484874Y-69036961D01*
X183484874Y-69036961D02*
X183389636Y-69132200D01*
X183389636Y-69132200D02*
X183246779Y-69179819D01*
X183246779Y-69179819D02*
X183151541Y-69179819D01*
X184437255Y-68179819D02*
X184246779Y-68179819D01*
X184246779Y-68179819D02*
X184151541Y-68227438D01*
X184151541Y-68227438D02*
X184103922Y-68275057D01*
X184103922Y-68275057D02*
X184008684Y-68417914D01*
X184008684Y-68417914D02*
X183961065Y-68608390D01*
X183961065Y-68608390D02*
X183961065Y-68989342D01*
X183961065Y-68989342D02*
X184008684Y-69084580D01*
X184008684Y-69084580D02*
X184056303Y-69132200D01*
X184056303Y-69132200D02*
X184151541Y-69179819D01*
X184151541Y-69179819D02*
X184342017Y-69179819D01*
X184342017Y-69179819D02*
X184437255Y-69132200D01*
X184437255Y-69132200D02*
X184484874Y-69084580D01*
X184484874Y-69084580D02*
X184532493Y-68989342D01*
X184532493Y-68989342D02*
X184532493Y-68751247D01*
X184532493Y-68751247D02*
X184484874Y-68656009D01*
X184484874Y-68656009D02*
X184437255Y-68608390D01*
X184437255Y-68608390D02*
X184342017Y-68560771D01*
X184342017Y-68560771D02*
X184151541Y-68560771D01*
X184151541Y-68560771D02*
X184056303Y-68608390D01*
X184056303Y-68608390D02*
X184008684Y-68656009D01*
X184008684Y-68656009D02*
X183961065Y-68751247D01*
X198532493Y-68159819D02*
X198532493Y-68874104D01*
X198532493Y-68874104D02*
X198484874Y-69016961D01*
X198484874Y-69016961D02*
X198389636Y-69112200D01*
X198389636Y-69112200D02*
X198246779Y-69159819D01*
X198246779Y-69159819D02*
X198151541Y-69159819D01*
X199484874Y-68159819D02*
X199008684Y-68159819D01*
X199008684Y-68159819D02*
X198961065Y-68636009D01*
X198961065Y-68636009D02*
X199008684Y-68588390D01*
X199008684Y-68588390D02*
X199103922Y-68540771D01*
X199103922Y-68540771D02*
X199342017Y-68540771D01*
X199342017Y-68540771D02*
X199437255Y-68588390D01*
X199437255Y-68588390D02*
X199484874Y-68636009D01*
X199484874Y-68636009D02*
X199532493Y-68731247D01*
X199532493Y-68731247D02*
X199532493Y-68969342D01*
X199532493Y-68969342D02*
X199484874Y-69064580D01*
X199484874Y-69064580D02*
X199437255Y-69112200D01*
X199437255Y-69112200D02*
X199342017Y-69159819D01*
X199342017Y-69159819D02*
X199103922Y-69159819D01*
X199103922Y-69159819D02*
X199008684Y-69112200D01*
X199008684Y-69112200D02*
X198961065Y-69064580D01*
D10*
X197440000Y-45140000D02*
X197440000Y-67690000D01*
X185280001Y-45140000D02*
X185280001Y-67650000D01*
D12*
X209703006Y-69713409D02*
X209845863Y-69761028D01*
X209845863Y-69761028D02*
X209893482Y-69808647D01*
X209893482Y-69808647D02*
X209941101Y-69903885D01*
X209941101Y-69903885D02*
X209941101Y-70046742D01*
X209941101Y-70046742D02*
X209893482Y-70141980D01*
X209893482Y-70141980D02*
X209845863Y-70189600D01*
X209845863Y-70189600D02*
X209750625Y-70237219D01*
X209750625Y-70237219D02*
X209369673Y-70237219D01*
X209369673Y-70237219D02*
X209369673Y-69237219D01*
X209369673Y-69237219D02*
X209703006Y-69237219D01*
X209703006Y-69237219D02*
X209798244Y-69284838D01*
X209798244Y-69284838D02*
X209845863Y-69332457D01*
X209845863Y-69332457D02*
X209893482Y-69427695D01*
X209893482Y-69427695D02*
X209893482Y-69522933D01*
X209893482Y-69522933D02*
X209845863Y-69618171D01*
X209845863Y-69618171D02*
X209798244Y-69665790D01*
X209798244Y-69665790D02*
X209703006Y-69713409D01*
X209703006Y-69713409D02*
X209369673Y-69713409D01*
X210369673Y-70141980D02*
X210417292Y-70189600D01*
X210417292Y-70189600D02*
X210369673Y-70237219D01*
X210369673Y-70237219D02*
X210322054Y-70189600D01*
X210322054Y-70189600D02*
X210369673Y-70141980D01*
X210369673Y-70141980D02*
X210369673Y-70237219D01*
X210845863Y-70237219D02*
X210845863Y-69237219D01*
X211322053Y-70141980D02*
X211369672Y-70189600D01*
X211369672Y-70189600D02*
X211322053Y-70237219D01*
X211322053Y-70237219D02*
X211274434Y-70189600D01*
X211274434Y-70189600D02*
X211322053Y-70141980D01*
X211322053Y-70141980D02*
X211322053Y-70237219D01*
X211798243Y-69713409D02*
X212131576Y-69713409D01*
X212274433Y-70237219D02*
X211798243Y-70237219D01*
X211798243Y-70237219D02*
X211798243Y-69237219D01*
X211798243Y-69237219D02*
X212274433Y-69237219D01*
X212703005Y-70141980D02*
X212750624Y-70189600D01*
X212750624Y-70189600D02*
X212703005Y-70237219D01*
X212703005Y-70237219D02*
X212655386Y-70189600D01*
X212655386Y-70189600D02*
X212703005Y-70141980D01*
X212703005Y-70141980D02*
X212703005Y-70237219D01*
X213750623Y-70237219D02*
X213417290Y-69761028D01*
X213179195Y-70237219D02*
X213179195Y-69237219D01*
X213179195Y-69237219D02*
X213560147Y-69237219D01*
X213560147Y-69237219D02*
X213655385Y-69284838D01*
X213655385Y-69284838D02*
X213703004Y-69332457D01*
X213703004Y-69332457D02*
X213750623Y-69427695D01*
X213750623Y-69427695D02*
X213750623Y-69570552D01*
X213750623Y-69570552D02*
X213703004Y-69665790D01*
X213703004Y-69665790D02*
X213655385Y-69713409D01*
X213655385Y-69713409D02*
X213560147Y-69761028D01*
X213560147Y-69761028D02*
X213179195Y-69761028D01*
D13*
X190541653Y-71820996D02*
X191470225Y-71820996D01*
X191470225Y-71820996D02*
X190970225Y-72392425D01*
X190970225Y-72392425D02*
X191184510Y-72392425D01*
X191184510Y-72392425D02*
X191327368Y-72463853D01*
X191327368Y-72463853D02*
X191398796Y-72535282D01*
X191398796Y-72535282D02*
X191470225Y-72678139D01*
X191470225Y-72678139D02*
X191470225Y-73035282D01*
X191470225Y-73035282D02*
X191398796Y-73178139D01*
X191398796Y-73178139D02*
X191327368Y-73249568D01*
X191327368Y-73249568D02*
X191184510Y-73320996D01*
X191184510Y-73320996D02*
X190755939Y-73320996D01*
X190755939Y-73320996D02*
X190613082Y-73249568D01*
X190613082Y-73249568D02*
X190541653Y-73178139D01*
X192113081Y-73320996D02*
X192113081Y-71820996D01*
X192113081Y-71820996D02*
X192470224Y-71820996D01*
X192470224Y-71820996D02*
X192684510Y-71892425D01*
X192684510Y-71892425D02*
X192827367Y-72035282D01*
X192827367Y-72035282D02*
X192898796Y-72178139D01*
X192898796Y-72178139D02*
X192970224Y-72463853D01*
X192970224Y-72463853D02*
X192970224Y-72678139D01*
X192970224Y-72678139D02*
X192898796Y-72963853D01*
X192898796Y-72963853D02*
X192827367Y-73106710D01*
X192827367Y-73106710D02*
X192684510Y-73249568D01*
X192684510Y-73249568D02*
X192470224Y-73320996D01*
X192470224Y-73320996D02*
X192113081Y-73320996D01*
X194613081Y-71820996D02*
X194970224Y-73320996D01*
X194970224Y-73320996D02*
X195255938Y-72249568D01*
X195255938Y-72249568D02*
X195541653Y-73320996D01*
X195541653Y-73320996D02*
X195898796Y-71820996D01*
X197041653Y-73249568D02*
X196898796Y-73320996D01*
X196898796Y-73320996D02*
X196613082Y-73320996D01*
X196613082Y-73320996D02*
X196470224Y-73249568D01*
X196470224Y-73249568D02*
X196398796Y-73106710D01*
X196398796Y-73106710D02*
X196398796Y-72535282D01*
X196398796Y-72535282D02*
X196470224Y-72392425D01*
X196470224Y-72392425D02*
X196613082Y-72320996D01*
X196613082Y-72320996D02*
X196898796Y-72320996D01*
X196898796Y-72320996D02*
X197041653Y-72392425D01*
X197041653Y-72392425D02*
X197113082Y-72535282D01*
X197113082Y-72535282D02*
X197113082Y-72678139D01*
X197113082Y-72678139D02*
X196398796Y-72820996D01*
X197755938Y-73320996D02*
X197755938Y-72320996D01*
X197755938Y-71820996D02*
X197684510Y-71892425D01*
X197684510Y-71892425D02*
X197755938Y-71963853D01*
X197755938Y-71963853D02*
X197827367Y-71892425D01*
X197827367Y-71892425D02*
X197755938Y-71820996D01*
X197755938Y-71820996D02*
X197755938Y-71963853D01*
X198470224Y-73320996D02*
X198470224Y-71820996D01*
X199113082Y-73320996D02*
X199113082Y-72535282D01*
X199113082Y-72535282D02*
X199041653Y-72392425D01*
X199041653Y-72392425D02*
X198898796Y-72320996D01*
X198898796Y-72320996D02*
X198684510Y-72320996D01*
X198684510Y-72320996D02*
X198541653Y-72392425D01*
X198541653Y-72392425D02*
X198470224Y-72463853D01*
X199827367Y-72320996D02*
X199827367Y-73320996D01*
X199827367Y-72463853D02*
X199898796Y-72392425D01*
X199898796Y-72392425D02*
X200041653Y-72320996D01*
X200041653Y-72320996D02*
X200255939Y-72320996D01*
X200255939Y-72320996D02*
X200398796Y-72392425D01*
X200398796Y-72392425D02*
X200470225Y-72535282D01*
X200470225Y-72535282D02*
X200470225Y-73320996D01*
X201827368Y-73320996D02*
X201827368Y-72535282D01*
X201827368Y-72535282D02*
X201755939Y-72392425D01*
X201755939Y-72392425D02*
X201613082Y-72320996D01*
X201613082Y-72320996D02*
X201327368Y-72320996D01*
X201327368Y-72320996D02*
X201184510Y-72392425D01*
X201827368Y-73249568D02*
X201684510Y-73320996D01*
X201684510Y-73320996D02*
X201327368Y-73320996D01*
X201327368Y-73320996D02*
X201184510Y-73249568D01*
X201184510Y-73249568D02*
X201113082Y-73106710D01*
X201113082Y-73106710D02*
X201113082Y-72963853D01*
X201113082Y-72963853D02*
X201184510Y-72820996D01*
X201184510Y-72820996D02*
X201327368Y-72749568D01*
X201327368Y-72749568D02*
X201684510Y-72749568D01*
X201684510Y-72749568D02*
X201827368Y-72678139D01*
X203184511Y-73249568D02*
X203041653Y-73320996D01*
X203041653Y-73320996D02*
X202755939Y-73320996D01*
X202755939Y-73320996D02*
X202613082Y-73249568D01*
X202613082Y-73249568D02*
X202541653Y-73178139D01*
X202541653Y-73178139D02*
X202470225Y-73035282D01*
X202470225Y-73035282D02*
X202470225Y-72606710D01*
X202470225Y-72606710D02*
X202541653Y-72463853D01*
X202541653Y-72463853D02*
X202613082Y-72392425D01*
X202613082Y-72392425D02*
X202755939Y-72320996D01*
X202755939Y-72320996D02*
X203041653Y-72320996D01*
X203041653Y-72320996D02*
X203184511Y-72392425D01*
X203827367Y-73320996D02*
X203827367Y-71820996D01*
X204470225Y-73320996D02*
X204470225Y-72535282D01*
X204470225Y-72535282D02*
X204398796Y-72392425D01*
X204398796Y-72392425D02*
X204255939Y-72320996D01*
X204255939Y-72320996D02*
X204041653Y-72320996D01*
X204041653Y-72320996D02*
X203898796Y-72392425D01*
X203898796Y-72392425D02*
X203827367Y-72463853D01*
X204970225Y-72320996D02*
X205541653Y-72320996D01*
X205184510Y-71820996D02*
X205184510Y-73106710D01*
X205184510Y-73106710D02*
X205255939Y-73249568D01*
X205255939Y-73249568D02*
X205398796Y-73320996D01*
X205398796Y-73320996D02*
X205541653Y-73320996D01*
X205970225Y-73249568D02*
X206113082Y-73320996D01*
X206113082Y-73320996D02*
X206398796Y-73320996D01*
X206398796Y-73320996D02*
X206541653Y-73249568D01*
X206541653Y-73249568D02*
X206613082Y-73106710D01*
X206613082Y-73106710D02*
X206613082Y-73035282D01*
X206613082Y-73035282D02*
X206541653Y-72892425D01*
X206541653Y-72892425D02*
X206398796Y-72820996D01*
X206398796Y-72820996D02*
X206184511Y-72820996D01*
X206184511Y-72820996D02*
X206041653Y-72749568D01*
X206041653Y-72749568D02*
X205970225Y-72606710D01*
X205970225Y-72606710D02*
X205970225Y-72535282D01*
X205970225Y-72535282D02*
X206041653Y-72392425D01*
X206041653Y-72392425D02*
X206184511Y-72320996D01*
X206184511Y-72320996D02*
X206398796Y-72320996D01*
X206398796Y-72320996D02*
X206541653Y-72392425D01*
X207255939Y-73320996D02*
X207255939Y-71820996D01*
X207255939Y-72392425D02*
X207398797Y-72320996D01*
X207398797Y-72320996D02*
X207684511Y-72320996D01*
X207684511Y-72320996D02*
X207827368Y-72392425D01*
X207827368Y-72392425D02*
X207898797Y-72463853D01*
X207898797Y-72463853D02*
X207970225Y-72606710D01*
X207970225Y-72606710D02*
X207970225Y-73035282D01*
X207970225Y-73035282D02*
X207898797Y-73178139D01*
X207898797Y-73178139D02*
X207827368Y-73249568D01*
X207827368Y-73249568D02*
X207684511Y-73320996D01*
X207684511Y-73320996D02*
X207398797Y-73320996D01*
X207398797Y-73320996D02*
X207255939Y-73249568D01*
X209255940Y-73320996D02*
X209255940Y-72535282D01*
X209255940Y-72535282D02*
X209184511Y-72392425D01*
X209184511Y-72392425D02*
X209041654Y-72320996D01*
X209041654Y-72320996D02*
X208755940Y-72320996D01*
X208755940Y-72320996D02*
X208613082Y-72392425D01*
X209255940Y-73249568D02*
X209113082Y-73320996D01*
X209113082Y-73320996D02*
X208755940Y-73320996D01*
X208755940Y-73320996D02*
X208613082Y-73249568D01*
X208613082Y-73249568D02*
X208541654Y-73106710D01*
X208541654Y-73106710D02*
X208541654Y-72963853D01*
X208541654Y-72963853D02*
X208613082Y-72820996D01*
X208613082Y-72820996D02*
X208755940Y-72749568D01*
X208755940Y-72749568D02*
X209113082Y-72749568D01*
X209113082Y-72749568D02*
X209255940Y-72678139D01*
X210613083Y-72320996D02*
X210613083Y-73320996D01*
X209970225Y-72320996D02*
X209970225Y-73106710D01*
X209970225Y-73106710D02*
X210041654Y-73249568D01*
X210041654Y-73249568D02*
X210184511Y-73320996D01*
X210184511Y-73320996D02*
X210398797Y-73320996D01*
X210398797Y-73320996D02*
X210541654Y-73249568D01*
X210541654Y-73249568D02*
X210613083Y-73178139D01*
X211327368Y-73320996D02*
X211327368Y-72320996D01*
X211327368Y-72463853D02*
X211398797Y-72392425D01*
X211398797Y-72392425D02*
X211541654Y-72320996D01*
X211541654Y-72320996D02*
X211755940Y-72320996D01*
X211755940Y-72320996D02*
X211898797Y-72392425D01*
X211898797Y-72392425D02*
X211970226Y-72535282D01*
X211970226Y-72535282D02*
X211970226Y-73320996D01*
X211970226Y-72535282D02*
X212041654Y-72392425D01*
X212041654Y-72392425D02*
X212184511Y-72320996D01*
X212184511Y-72320996D02*
X212398797Y-72320996D01*
X212398797Y-72320996D02*
X212541654Y-72392425D01*
X212541654Y-72392425D02*
X212613083Y-72535282D01*
X212613083Y-72535282D02*
X212613083Y-73320996D01*
X190613082Y-74378769D02*
X190684510Y-74307341D01*
X190684510Y-74307341D02*
X190827368Y-74235912D01*
X190827368Y-74235912D02*
X191184510Y-74235912D01*
X191184510Y-74235912D02*
X191327368Y-74307341D01*
X191327368Y-74307341D02*
X191398796Y-74378769D01*
X191398796Y-74378769D02*
X191470225Y-74521626D01*
X191470225Y-74521626D02*
X191470225Y-74664484D01*
X191470225Y-74664484D02*
X191398796Y-74878769D01*
X191398796Y-74878769D02*
X190541653Y-75735912D01*
X190541653Y-75735912D02*
X191470225Y-75735912D01*
X191970224Y-74235912D02*
X192898796Y-74235912D01*
X192898796Y-74235912D02*
X192398796Y-74807341D01*
X192398796Y-74807341D02*
X192613081Y-74807341D01*
X192613081Y-74807341D02*
X192755939Y-74878769D01*
X192755939Y-74878769D02*
X192827367Y-74950198D01*
X192827367Y-74950198D02*
X192898796Y-75093055D01*
X192898796Y-75093055D02*
X192898796Y-75450198D01*
X192898796Y-75450198D02*
X192827367Y-75593055D01*
X192827367Y-75593055D02*
X192755939Y-75664484D01*
X192755939Y-75664484D02*
X192613081Y-75735912D01*
X192613081Y-75735912D02*
X192184510Y-75735912D01*
X192184510Y-75735912D02*
X192041653Y-75664484D01*
X192041653Y-75664484D02*
X191970224Y-75593055D01*
X193541652Y-75593055D02*
X193613081Y-75664484D01*
X193613081Y-75664484D02*
X193541652Y-75735912D01*
X193541652Y-75735912D02*
X193470224Y-75664484D01*
X193470224Y-75664484D02*
X193541652Y-75593055D01*
X193541652Y-75593055D02*
X193541652Y-75735912D01*
X195041653Y-75735912D02*
X194184510Y-75735912D01*
X194613081Y-75735912D02*
X194613081Y-74235912D01*
X194613081Y-74235912D02*
X194470224Y-74450198D01*
X194470224Y-74450198D02*
X194327367Y-74593055D01*
X194327367Y-74593055D02*
X194184510Y-74664484D01*
X196470224Y-75735912D02*
X195613081Y-75735912D01*
X196041652Y-75735912D02*
X196041652Y-74235912D01*
X196041652Y-74235912D02*
X195898795Y-74450198D01*
X195898795Y-74450198D02*
X195755938Y-74593055D01*
X195755938Y-74593055D02*
X195613081Y-74664484D01*
X197113080Y-75593055D02*
X197184509Y-75664484D01*
X197184509Y-75664484D02*
X197113080Y-75735912D01*
X197113080Y-75735912D02*
X197041652Y-75664484D01*
X197041652Y-75664484D02*
X197113080Y-75593055D01*
X197113080Y-75593055D02*
X197113080Y-75735912D01*
X197755938Y-74378769D02*
X197827366Y-74307341D01*
X197827366Y-74307341D02*
X197970224Y-74235912D01*
X197970224Y-74235912D02*
X198327366Y-74235912D01*
X198327366Y-74235912D02*
X198470224Y-74307341D01*
X198470224Y-74307341D02*
X198541652Y-74378769D01*
X198541652Y-74378769D02*
X198613081Y-74521626D01*
X198613081Y-74521626D02*
X198613081Y-74664484D01*
X198613081Y-74664484D02*
X198541652Y-74878769D01*
X198541652Y-74878769D02*
X197684509Y-75735912D01*
X197684509Y-75735912D02*
X198613081Y-75735912D01*
X199541652Y-74235912D02*
X199684509Y-74235912D01*
X199684509Y-74235912D02*
X199827366Y-74307341D01*
X199827366Y-74307341D02*
X199898795Y-74378769D01*
X199898795Y-74378769D02*
X199970223Y-74521626D01*
X199970223Y-74521626D02*
X200041652Y-74807341D01*
X200041652Y-74807341D02*
X200041652Y-75164484D01*
X200041652Y-75164484D02*
X199970223Y-75450198D01*
X199970223Y-75450198D02*
X199898795Y-75593055D01*
X199898795Y-75593055D02*
X199827366Y-75664484D01*
X199827366Y-75664484D02*
X199684509Y-75735912D01*
X199684509Y-75735912D02*
X199541652Y-75735912D01*
X199541652Y-75735912D02*
X199398795Y-75664484D01*
X199398795Y-75664484D02*
X199327366Y-75593055D01*
X199327366Y-75593055D02*
X199255937Y-75450198D01*
X199255937Y-75450198D02*
X199184509Y-75164484D01*
X199184509Y-75164484D02*
X199184509Y-74807341D01*
X199184509Y-74807341D02*
X199255937Y-74521626D01*
X199255937Y-74521626D02*
X199327366Y-74378769D01*
X199327366Y-74378769D02*
X199398795Y-74307341D01*
X199398795Y-74307341D02*
X199541652Y-74235912D01*
X200613080Y-74378769D02*
X200684508Y-74307341D01*
X200684508Y-74307341D02*
X200827366Y-74235912D01*
X200827366Y-74235912D02*
X201184508Y-74235912D01*
X201184508Y-74235912D02*
X201327366Y-74307341D01*
X201327366Y-74307341D02*
X201398794Y-74378769D01*
X201398794Y-74378769D02*
X201470223Y-74521626D01*
X201470223Y-74521626D02*
X201470223Y-74664484D01*
X201470223Y-74664484D02*
X201398794Y-74878769D01*
X201398794Y-74878769D02*
X200541651Y-75735912D01*
X200541651Y-75735912D02*
X201470223Y-75735912D01*
X202755937Y-74735912D02*
X202755937Y-75735912D01*
X202398794Y-74164484D02*
X202041651Y-75235912D01*
X202041651Y-75235912D02*
X202970222Y-75235912D01*
X191541653Y-78007971D02*
X191470225Y-78079400D01*
X191470225Y-78079400D02*
X191255939Y-78150828D01*
X191255939Y-78150828D02*
X191113082Y-78150828D01*
X191113082Y-78150828D02*
X190898796Y-78079400D01*
X190898796Y-78079400D02*
X190755939Y-77936542D01*
X190755939Y-77936542D02*
X190684510Y-77793685D01*
X190684510Y-77793685D02*
X190613082Y-77507971D01*
X190613082Y-77507971D02*
X190613082Y-77293685D01*
X190613082Y-77293685D02*
X190684510Y-77007971D01*
X190684510Y-77007971D02*
X190755939Y-76865114D01*
X190755939Y-76865114D02*
X190898796Y-76722257D01*
X190898796Y-76722257D02*
X191113082Y-76650828D01*
X191113082Y-76650828D02*
X191255939Y-76650828D01*
X191255939Y-76650828D02*
X191470225Y-76722257D01*
X191470225Y-76722257D02*
X191541653Y-76793685D01*
X192184510Y-78007971D02*
X192255939Y-78079400D01*
X192255939Y-78079400D02*
X192184510Y-78150828D01*
X192184510Y-78150828D02*
X192113082Y-78079400D01*
X192113082Y-78079400D02*
X192184510Y-78007971D01*
X192184510Y-78007971D02*
X192184510Y-78150828D01*
X194041653Y-78150828D02*
X194041653Y-76650828D01*
X194898796Y-78150828D02*
X194255939Y-77293685D01*
X194898796Y-76650828D02*
X194041653Y-77507971D01*
X196184511Y-78150828D02*
X196184511Y-77365114D01*
X196184511Y-77365114D02*
X196113082Y-77222257D01*
X196113082Y-77222257D02*
X195970225Y-77150828D01*
X195970225Y-77150828D02*
X195684511Y-77150828D01*
X195684511Y-77150828D02*
X195541653Y-77222257D01*
X196184511Y-78079400D02*
X196041653Y-78150828D01*
X196041653Y-78150828D02*
X195684511Y-78150828D01*
X195684511Y-78150828D02*
X195541653Y-78079400D01*
X195541653Y-78079400D02*
X195470225Y-77936542D01*
X195470225Y-77936542D02*
X195470225Y-77793685D01*
X195470225Y-77793685D02*
X195541653Y-77650828D01*
X195541653Y-77650828D02*
X195684511Y-77579400D01*
X195684511Y-77579400D02*
X196041653Y-77579400D01*
X196041653Y-77579400D02*
X196184511Y-77507971D01*
X196898796Y-78150828D02*
X196898796Y-77150828D01*
X196898796Y-77293685D02*
X196970225Y-77222257D01*
X196970225Y-77222257D02*
X197113082Y-77150828D01*
X197113082Y-77150828D02*
X197327368Y-77150828D01*
X197327368Y-77150828D02*
X197470225Y-77222257D01*
X197470225Y-77222257D02*
X197541654Y-77365114D01*
X197541654Y-77365114D02*
X197541654Y-78150828D01*
X197541654Y-77365114D02*
X197613082Y-77222257D01*
X197613082Y-77222257D02*
X197755939Y-77150828D01*
X197755939Y-77150828D02*
X197970225Y-77150828D01*
X197970225Y-77150828D02*
X198113082Y-77222257D01*
X198113082Y-77222257D02*
X198184511Y-77365114D01*
X198184511Y-77365114D02*
X198184511Y-78150828D01*
X198898796Y-77150828D02*
X198898796Y-78650828D01*
X198898796Y-77222257D02*
X199041654Y-77150828D01*
X199041654Y-77150828D02*
X199327368Y-77150828D01*
X199327368Y-77150828D02*
X199470225Y-77222257D01*
X199470225Y-77222257D02*
X199541654Y-77293685D01*
X199541654Y-77293685D02*
X199613082Y-77436542D01*
X199613082Y-77436542D02*
X199613082Y-77865114D01*
X199613082Y-77865114D02*
X199541654Y-78007971D01*
X199541654Y-78007971D02*
X199470225Y-78079400D01*
X199470225Y-78079400D02*
X199327368Y-78150828D01*
X199327368Y-78150828D02*
X199041654Y-78150828D01*
X199041654Y-78150828D02*
X198898796Y-78079400D01*
X200898797Y-78150828D02*
X200898797Y-77365114D01*
X200898797Y-77365114D02*
X200827368Y-77222257D01*
X200827368Y-77222257D02*
X200684511Y-77150828D01*
X200684511Y-77150828D02*
X200398797Y-77150828D01*
X200398797Y-77150828D02*
X200255939Y-77222257D01*
X200898797Y-78079400D02*
X200755939Y-78150828D01*
X200755939Y-78150828D02*
X200398797Y-78150828D01*
X200398797Y-78150828D02*
X200255939Y-78079400D01*
X200255939Y-78079400D02*
X200184511Y-77936542D01*
X200184511Y-77936542D02*
X200184511Y-77793685D01*
X200184511Y-77793685D02*
X200255939Y-77650828D01*
X200255939Y-77650828D02*
X200398797Y-77579400D01*
X200398797Y-77579400D02*
X200755939Y-77579400D01*
X200755939Y-77579400D02*
X200898797Y-77507971D01*
D11*
X208846667Y-47997200D02*
X208989524Y-48044819D01*
X208989524Y-48044819D02*
X209227619Y-48044819D01*
X209227619Y-48044819D02*
X209322857Y-47997200D01*
X209322857Y-47997200D02*
X209370476Y-47949580D01*
X209370476Y-47949580D02*
X209418095Y-47854342D01*
X209418095Y-47854342D02*
X209418095Y-47759104D01*
X209418095Y-47759104D02*
X209370476Y-47663866D01*
X209370476Y-47663866D02*
X209322857Y-47616247D01*
X209322857Y-47616247D02*
X209227619Y-47568628D01*
X209227619Y-47568628D02*
X209037143Y-47521009D01*
X209037143Y-47521009D02*
X208941905Y-47473390D01*
X208941905Y-47473390D02*
X208894286Y-47425771D01*
X208894286Y-47425771D02*
X208846667Y-47330533D01*
X208846667Y-47330533D02*
X208846667Y-47235295D01*
X208846667Y-47235295D02*
X208894286Y-47140057D01*
X208894286Y-47140057D02*
X208941905Y-47092438D01*
X208941905Y-47092438D02*
X209037143Y-47044819D01*
X209037143Y-47044819D02*
X209275238Y-47044819D01*
X209275238Y-47044819D02*
X209418095Y-47092438D01*
X209751429Y-47044819D02*
X209989524Y-48044819D01*
X209989524Y-48044819D02*
X210180000Y-47330533D01*
X210180000Y-47330533D02*
X210370476Y-48044819D01*
X210370476Y-48044819D02*
X210608572Y-47044819D01*
X211513333Y-48044819D02*
X210941905Y-48044819D01*
X211227619Y-48044819D02*
X211227619Y-47044819D01*
X211227619Y-47044819D02*
X211132381Y-47187676D01*
X211132381Y-47187676D02*
X211037143Y-47282914D01*
X211037143Y-47282914D02*
X210941905Y-47330533D01*
X190598095Y-43594819D02*
X190598095Y-44404342D01*
X190598095Y-44404342D02*
X190645714Y-44499580D01*
X190645714Y-44499580D02*
X190693333Y-44547200D01*
X190693333Y-44547200D02*
X190788571Y-44594819D01*
X190788571Y-44594819D02*
X190979047Y-44594819D01*
X190979047Y-44594819D02*
X191074285Y-44547200D01*
X191074285Y-44547200D02*
X191121904Y-44499580D01*
X191121904Y-44499580D02*
X191169523Y-44404342D01*
X191169523Y-44404342D02*
X191169523Y-43594819D01*
X192169523Y-44594819D02*
X191598095Y-44594819D01*
X191883809Y-44594819D02*
X191883809Y-43594819D01*
X191883809Y-43594819D02*
X191788571Y-43737676D01*
X191788571Y-43737676D02*
X191693333Y-43832914D01*
X191693333Y-43832914D02*
X191598095Y-43880533D01*
X195493333Y-44144819D02*
X195160000Y-43668628D01*
X194921905Y-44144819D02*
X194921905Y-43144819D01*
X194921905Y-43144819D02*
X195302857Y-43144819D01*
X195302857Y-43144819D02*
X195398095Y-43192438D01*
X195398095Y-43192438D02*
X195445714Y-43240057D01*
X195445714Y-43240057D02*
X195493333Y-43335295D01*
X195493333Y-43335295D02*
X195493333Y-43478152D01*
X195493333Y-43478152D02*
X195445714Y-43573390D01*
X195445714Y-43573390D02*
X195398095Y-43621009D01*
X195398095Y-43621009D02*
X195302857Y-43668628D01*
X195302857Y-43668628D02*
X194921905Y-43668628D01*
X196445714Y-44144819D02*
X195874286Y-44144819D01*
X196160000Y-44144819D02*
X196160000Y-43144819D01*
X196160000Y-43144819D02*
X196064762Y-43287676D01*
X196064762Y-43287676D02*
X195969524Y-43382914D01*
X195969524Y-43382914D02*
X195874286Y-43430533D01*
D14*
X212497111Y-61647333D02*
X210944889Y-61647333D01*
X210944889Y-61125222D01*
X212497111Y-61125222D01*
X212497111Y-61647333D01*
G36*
X212497111Y-61647333D02*
G01*
X210944889Y-61647333D01*
X210944889Y-61125222D01*
X212497111Y-61125222D01*
X212497111Y-61647333D01*
G37*
X210933843Y-62314083D02*
X210937833Y-62472833D01*
X211675139Y-62476486D01*
X212412445Y-62480140D01*
X212412445Y-63044333D01*
X210930778Y-63044333D01*
X210930778Y-63439444D01*
X212412445Y-63439444D01*
X212412445Y-64045965D01*
X211689250Y-64049621D01*
X210966056Y-64053277D01*
X210966056Y-64406055D01*
X211689250Y-64409711D01*
X212412445Y-64413367D01*
X212412445Y-65019632D01*
X211689250Y-65023288D01*
X210966056Y-65026944D01*
X210966056Y-65379722D01*
X211689250Y-65383378D01*
X212412445Y-65387034D01*
X212412445Y-65993555D01*
X210958586Y-65993555D01*
X210966056Y-66847277D01*
X211190881Y-66851176D01*
X211328575Y-66850856D01*
X211446358Y-66843943D01*
X211552005Y-66829323D01*
X211653290Y-66805884D01*
X211757986Y-66772514D01*
X211769600Y-66768350D01*
X211927547Y-66696958D01*
X212079857Y-66600318D01*
X212223623Y-66481272D01*
X212355938Y-66342662D01*
X212473894Y-66187331D01*
X212574584Y-66018120D01*
X212609195Y-65947575D01*
X212628534Y-65905412D01*
X212645988Y-65866037D01*
X212661902Y-65827613D01*
X212676622Y-65788307D01*
X212690494Y-65746285D01*
X212703864Y-65699712D01*
X212717076Y-65646754D01*
X212730478Y-65585576D01*
X212744413Y-65514344D01*
X212759229Y-65431224D01*
X212775270Y-65334381D01*
X212792882Y-65221980D01*
X212812411Y-65092188D01*
X212834203Y-64943170D01*
X212858603Y-64773092D01*
X212885957Y-64580118D01*
X212916609Y-64362416D01*
X212942187Y-64180277D01*
X212969525Y-63986022D01*
X212995884Y-63799688D01*
X213020990Y-63623174D01*
X213044566Y-63458380D01*
X213066335Y-63307204D01*
X213086022Y-63171546D01*
X213103350Y-63053304D01*
X213118042Y-62954377D01*
X213129823Y-62876665D01*
X213138417Y-62822066D01*
X213143546Y-62792479D01*
X213144789Y-62787558D01*
X213160389Y-62787477D01*
X213196986Y-62793242D01*
X213248315Y-62803400D01*
X213308112Y-62816497D01*
X213370112Y-62831078D01*
X213428049Y-62845689D01*
X213475661Y-62858877D01*
X213506682Y-62869187D01*
X213514778Y-62873438D01*
X213516330Y-62889838D01*
X213514566Y-62928892D01*
X213509877Y-62985277D01*
X213502651Y-63053667D01*
X213499948Y-63076540D01*
X213491874Y-63147375D01*
X213485959Y-63207645D01*
X213482646Y-63252094D01*
X213482377Y-63275466D01*
X213482994Y-63277624D01*
X213500820Y-63282948D01*
X213520005Y-63284222D01*
X213575512Y-63293295D01*
X213637767Y-63316729D01*
X213693649Y-63348839D01*
X213719217Y-63370485D01*
X213742417Y-63398197D01*
X213754692Y-63426186D01*
X213759342Y-63465003D01*
X213759838Y-63500412D01*
X213748551Y-63586777D01*
X213715056Y-63655915D01*
X213659191Y-63707988D01*
X213580795Y-63743161D01*
X213505377Y-63758779D01*
X213445685Y-63769121D01*
X213409230Y-63783202D01*
X213391032Y-63804204D01*
X213386111Y-63835052D01*
X213389111Y-63863595D01*
X213403900Y-63874973D01*
X213433394Y-63876888D01*
X213516931Y-63888628D01*
X213586004Y-63921272D01*
X213638024Y-63970961D01*
X213670402Y-64033833D01*
X213680549Y-64106028D01*
X213665876Y-64183685D01*
X213655774Y-64208500D01*
X213611678Y-64277737D01*
X213550581Y-64328468D01*
X213469836Y-64362334D01*
X213380097Y-64379530D01*
X213335358Y-64385743D01*
X213311893Y-64393707D01*
X213302868Y-64407731D01*
X213301445Y-64429165D01*
X213307201Y-64459615D01*
X213320050Y-64469555D01*
X213378117Y-64479147D01*
X213444449Y-64504651D01*
X213508257Y-64541159D01*
X213548857Y-64573655D01*
X213584346Y-64609850D01*
X213603286Y-64638149D01*
X213610757Y-64668786D01*
X213611889Y-64700670D01*
X213600103Y-64781369D01*
X213564508Y-64848069D01*
X213504746Y-64901102D01*
X213420460Y-64940798D01*
X213326077Y-64964894D01*
X213276245Y-64975026D01*
X213247489Y-64984996D01*
X213232974Y-64998799D01*
X213225861Y-65020429D01*
X213225158Y-65023847D01*
X213219474Y-65067120D01*
X213216806Y-65116666D01*
X213216778Y-65121391D01*
X213213403Y-65182223D01*
X213203997Y-65263837D01*
X213189634Y-65359705D01*
X213171392Y-65463297D01*
X213150345Y-65568083D01*
X213127571Y-65667534D01*
X213125202Y-65677088D01*
X213051958Y-65923350D01*
X212959504Y-66150543D01*
X212846158Y-66361716D01*
X212710238Y-66559916D01*
X212550065Y-66748194D01*
X212513513Y-66786425D01*
X212407801Y-66894906D01*
X212448261Y-66983981D01*
X212476795Y-67065825D01*
X212493032Y-67153700D01*
X212495921Y-67237870D01*
X212484411Y-67308604D01*
X212483577Y-67311195D01*
X212458341Y-67356753D01*
X212415190Y-67406133D01*
X212362154Y-67452050D01*
X212307262Y-67487218D01*
X212274661Y-67500780D01*
X212196595Y-67515338D01*
X212116521Y-67515322D01*
X212045410Y-67501174D01*
X212019665Y-67490522D01*
X211965189Y-67453252D01*
X211907299Y-67398037D01*
X211853628Y-67332903D01*
X211819364Y-67279947D01*
X211805043Y-67254085D01*
X211792828Y-67237118D01*
X211777610Y-67228819D01*
X211754277Y-67228959D01*
X211717721Y-67237311D01*
X211662831Y-67253646D01*
X211608111Y-67270522D01*
X211461282Y-67307691D01*
X211303508Y-67333929D01*
X211149217Y-67347048D01*
X211096583Y-67348139D01*
X210973111Y-67348222D01*
X210973111Y-68463000D01*
X210634445Y-68463000D01*
X210634445Y-67290337D01*
X210585509Y-67269891D01*
X210548406Y-67256349D01*
X210520741Y-67249611D01*
X210517967Y-67249444D01*
X210502544Y-67261160D01*
X210480375Y-67291796D01*
X210457541Y-67332300D01*
X210415722Y-67415157D01*
X210187313Y-67272328D01*
X210115476Y-67227209D01*
X210051869Y-67186883D01*
X210000382Y-67153848D01*
X209964902Y-67130597D01*
X209949318Y-67119628D01*
X209949137Y-67119453D01*
X209950932Y-67103252D01*
X209965502Y-67071383D01*
X209984866Y-67038506D01*
X210030362Y-66967606D01*
X209947875Y-66893801D01*
X209755611Y-66709619D01*
X209582276Y-66517000D01*
X209423314Y-66310271D01*
X209274173Y-66083759D01*
X209208202Y-65972388D01*
X209176727Y-65915731D01*
X209139336Y-65845479D01*
X209097970Y-65765588D01*
X209054569Y-65680013D01*
X209011075Y-65592711D01*
X208969427Y-65507636D01*
X208931567Y-65428745D01*
X208899434Y-65359992D01*
X208874970Y-65305335D01*
X208860114Y-65268727D01*
X208856444Y-65255369D01*
X208868314Y-65244074D01*
X208900205Y-65223788D01*
X208946544Y-65197407D01*
X209001756Y-65167828D01*
X209060267Y-65137947D01*
X209116503Y-65110660D01*
X209164888Y-65088865D01*
X209199850Y-65075457D01*
X209206094Y-65073692D01*
X209219610Y-65084302D01*
X209241166Y-65118682D01*
X209269185Y-65174066D01*
X209292083Y-65224500D01*
X209417492Y-65496757D01*
X209543242Y-65741242D01*
X209669599Y-65958402D01*
X209796832Y-66148687D01*
X209925209Y-66312547D01*
X209973104Y-66366623D01*
X210072082Y-66465902D01*
X210184227Y-66563973D01*
X210301177Y-66654127D01*
X210414568Y-66729653D01*
X210454595Y-66752907D01*
X210510396Y-66782992D01*
X210557915Y-66807081D01*
X210591272Y-66822281D01*
X210603535Y-66826111D01*
X210608658Y-66818742D01*
X210612729Y-66795217D01*
X210615834Y-66753406D01*
X210618057Y-66691179D01*
X210619485Y-66606405D01*
X210620205Y-66496956D01*
X210620333Y-66409833D01*
X210620333Y-65993555D01*
X209943000Y-65993555D01*
X209943000Y-65386777D01*
X210620333Y-65386777D01*
X210620333Y-62155333D01*
X210929854Y-62155333D01*
X210933843Y-62314083D01*
G36*
X210933843Y-62314083D02*
G01*
X210937833Y-62472833D01*
X211675139Y-62476486D01*
X212412445Y-62480140D01*
X212412445Y-63044333D01*
X210930778Y-63044333D01*
X210930778Y-63439444D01*
X212412445Y-63439444D01*
X212412445Y-64045965D01*
X211689250Y-64049621D01*
X210966056Y-64053277D01*
X210966056Y-64406055D01*
X211689250Y-64409711D01*
X212412445Y-64413367D01*
X212412445Y-65019632D01*
X211689250Y-65023288D01*
X210966056Y-65026944D01*
X210966056Y-65379722D01*
X211689250Y-65383378D01*
X212412445Y-65387034D01*
X212412445Y-65993555D01*
X210958586Y-65993555D01*
X210966056Y-66847277D01*
X211190881Y-66851176D01*
X211328575Y-66850856D01*
X211446358Y-66843943D01*
X211552005Y-66829323D01*
X211653290Y-66805884D01*
X211757986Y-66772514D01*
X211769600Y-66768350D01*
X211927547Y-66696958D01*
X212079857Y-66600318D01*
X212223623Y-66481272D01*
X212355938Y-66342662D01*
X212473894Y-66187331D01*
X212574584Y-66018120D01*
X212609195Y-65947575D01*
X212628534Y-65905412D01*
X212645988Y-65866037D01*
X212661902Y-65827613D01*
X212676622Y-65788307D01*
X212690494Y-65746285D01*
X212703864Y-65699712D01*
X212717076Y-65646754D01*
X212730478Y-65585576D01*
X212744413Y-65514344D01*
X212759229Y-65431224D01*
X212775270Y-65334381D01*
X212792882Y-65221980D01*
X212812411Y-65092188D01*
X212834203Y-64943170D01*
X212858603Y-64773092D01*
X212885957Y-64580118D01*
X212916609Y-64362416D01*
X212942187Y-64180277D01*
X212969525Y-63986022D01*
X212995884Y-63799688D01*
X213020990Y-63623174D01*
X213044566Y-63458380D01*
X213066335Y-63307204D01*
X213086022Y-63171546D01*
X213103350Y-63053304D01*
X213118042Y-62954377D01*
X213129823Y-62876665D01*
X213138417Y-62822066D01*
X213143546Y-62792479D01*
X213144789Y-62787558D01*
X213160389Y-62787477D01*
X213196986Y-62793242D01*
X213248315Y-62803400D01*
X213308112Y-62816497D01*
X213370112Y-62831078D01*
X213428049Y-62845689D01*
X213475661Y-62858877D01*
X213506682Y-62869187D01*
X213514778Y-62873438D01*
X213516330Y-62889838D01*
X213514566Y-62928892D01*
X213509877Y-62985277D01*
X213502651Y-63053667D01*
X213499948Y-63076540D01*
X213491874Y-63147375D01*
X213485959Y-63207645D01*
X213482646Y-63252094D01*
X213482377Y-63275466D01*
X213482994Y-63277624D01*
X213500820Y-63282948D01*
X213520005Y-63284222D01*
X213575512Y-63293295D01*
X213637767Y-63316729D01*
X213693649Y-63348839D01*
X213719217Y-63370485D01*
X213742417Y-63398197D01*
X213754692Y-63426186D01*
X213759342Y-63465003D01*
X213759838Y-63500412D01*
X213748551Y-63586777D01*
X213715056Y-63655915D01*
X213659191Y-63707988D01*
X213580795Y-63743161D01*
X213505377Y-63758779D01*
X213445685Y-63769121D01*
X213409230Y-63783202D01*
X213391032Y-63804204D01*
X213386111Y-63835052D01*
X213389111Y-63863595D01*
X213403900Y-63874973D01*
X213433394Y-63876888D01*
X213516931Y-63888628D01*
X213586004Y-63921272D01*
X213638024Y-63970961D01*
X213670402Y-64033833D01*
X213680549Y-64106028D01*
X213665876Y-64183685D01*
X213655774Y-64208500D01*
X213611678Y-64277737D01*
X213550581Y-64328468D01*
X213469836Y-64362334D01*
X213380097Y-64379530D01*
X213335358Y-64385743D01*
X213311893Y-64393707D01*
X213302868Y-64407731D01*
X213301445Y-64429165D01*
X213307201Y-64459615D01*
X213320050Y-64469555D01*
X213378117Y-64479147D01*
X213444449Y-64504651D01*
X213508257Y-64541159D01*
X213548857Y-64573655D01*
X213584346Y-64609850D01*
X213603286Y-64638149D01*
X213610757Y-64668786D01*
X213611889Y-64700670D01*
X213600103Y-64781369D01*
X213564508Y-64848069D01*
X213504746Y-64901102D01*
X213420460Y-64940798D01*
X213326077Y-64964894D01*
X213276245Y-64975026D01*
X213247489Y-64984996D01*
X213232974Y-64998799D01*
X213225861Y-65020429D01*
X213225158Y-65023847D01*
X213219474Y-65067120D01*
X213216806Y-65116666D01*
X213216778Y-65121391D01*
X213213403Y-65182223D01*
X213203997Y-65263837D01*
X213189634Y-65359705D01*
X213171392Y-65463297D01*
X213150345Y-65568083D01*
X213127571Y-65667534D01*
X213125202Y-65677088D01*
X213051958Y-65923350D01*
X212959504Y-66150543D01*
X212846158Y-66361716D01*
X212710238Y-66559916D01*
X212550065Y-66748194D01*
X212513513Y-66786425D01*
X212407801Y-66894906D01*
X212448261Y-66983981D01*
X212476795Y-67065825D01*
X212493032Y-67153700D01*
X212495921Y-67237870D01*
X212484411Y-67308604D01*
X212483577Y-67311195D01*
X212458341Y-67356753D01*
X212415190Y-67406133D01*
X212362154Y-67452050D01*
X212307262Y-67487218D01*
X212274661Y-67500780D01*
X212196595Y-67515338D01*
X212116521Y-67515322D01*
X212045410Y-67501174D01*
X212019665Y-67490522D01*
X211965189Y-67453252D01*
X211907299Y-67398037D01*
X211853628Y-67332903D01*
X211819364Y-67279947D01*
X211805043Y-67254085D01*
X211792828Y-67237118D01*
X211777610Y-67228819D01*
X211754277Y-67228959D01*
X211717721Y-67237311D01*
X211662831Y-67253646D01*
X211608111Y-67270522D01*
X211461282Y-67307691D01*
X211303508Y-67333929D01*
X211149217Y-67347048D01*
X211096583Y-67348139D01*
X210973111Y-67348222D01*
X210973111Y-68463000D01*
X210634445Y-68463000D01*
X210634445Y-67290337D01*
X210585509Y-67269891D01*
X210548406Y-67256349D01*
X210520741Y-67249611D01*
X210517967Y-67249444D01*
X210502544Y-67261160D01*
X210480375Y-67291796D01*
X210457541Y-67332300D01*
X210415722Y-67415157D01*
X210187313Y-67272328D01*
X210115476Y-67227209D01*
X210051869Y-67186883D01*
X210000382Y-67153848D01*
X209964902Y-67130597D01*
X209949318Y-67119628D01*
X209949137Y-67119453D01*
X209950932Y-67103252D01*
X209965502Y-67071383D01*
X209984866Y-67038506D01*
X210030362Y-66967606D01*
X209947875Y-66893801D01*
X209755611Y-66709619D01*
X209582276Y-66517000D01*
X209423314Y-66310271D01*
X209274173Y-66083759D01*
X209208202Y-65972388D01*
X209176727Y-65915731D01*
X209139336Y-65845479D01*
X209097970Y-65765588D01*
X209054569Y-65680013D01*
X209011075Y-65592711D01*
X208969427Y-65507636D01*
X208931567Y-65428745D01*
X208899434Y-65359992D01*
X208874970Y-65305335D01*
X208860114Y-65268727D01*
X208856444Y-65255369D01*
X208868314Y-65244074D01*
X208900205Y-65223788D01*
X208946544Y-65197407D01*
X209001756Y-65167828D01*
X209060267Y-65137947D01*
X209116503Y-65110660D01*
X209164888Y-65088865D01*
X209199850Y-65075457D01*
X209206094Y-65073692D01*
X209219610Y-65084302D01*
X209241166Y-65118682D01*
X209269185Y-65174066D01*
X209292083Y-65224500D01*
X209417492Y-65496757D01*
X209543242Y-65741242D01*
X209669599Y-65958402D01*
X209796832Y-66148687D01*
X209925209Y-66312547D01*
X209973104Y-66366623D01*
X210072082Y-66465902D01*
X210184227Y-66563973D01*
X210301177Y-66654127D01*
X210414568Y-66729653D01*
X210454595Y-66752907D01*
X210510396Y-66782992D01*
X210557915Y-66807081D01*
X210591272Y-66822281D01*
X210603535Y-66826111D01*
X210608658Y-66818742D01*
X210612729Y-66795217D01*
X210615834Y-66753406D01*
X210618057Y-66691179D01*
X210619485Y-66606405D01*
X210620205Y-66496956D01*
X210620333Y-66409833D01*
X210620333Y-65993555D01*
X209943000Y-65993555D01*
X209943000Y-65386777D01*
X210620333Y-65386777D01*
X210620333Y-62155333D01*
X210929854Y-62155333D01*
X210933843Y-62314083D01*
G37*
D15*
X206320000Y-44760000D02*
X206320000Y-46860000D01*
X206320000Y-49460000D02*
X206320000Y-49970000D01*
X206320000Y-49970000D02*
X206840000Y-49970000D01*
X206840000Y-46630000D02*
X206840000Y-46860000D01*
X206840000Y-46630000D02*
X207380000Y-46630000D01*
X206840000Y-49460000D02*
X206840000Y-49970000D01*
X208480000Y-46630000D02*
X211880000Y-46630000D01*
X212980000Y-46630000D02*
X213520000Y-46630000D01*
X213520000Y-46630000D02*
X213520000Y-46860000D01*
X213520000Y-49460000D02*
X213520000Y-49970000D01*
X213520000Y-49970000D02*
X214040000Y-49970000D01*
X214040000Y-44760000D02*
X214040000Y-46860000D01*
X214040000Y-49460000D02*
X214040000Y-49970000D01*
X182240000Y-45140000D02*
X182240000Y-67660000D01*
X182240000Y-67660000D02*
X200480000Y-67660000D01*
X188320001Y-45140000D02*
X182240000Y-45140000D01*
X188320001Y-45500000D02*
X188320001Y-45140000D01*
X194400000Y-45140000D02*
X194400000Y-45500000D01*
X194400000Y-45500000D02*
X188320001Y-45500000D01*
X200480000Y-45140000D02*
X194400000Y-45140000D01*
X200480000Y-67660000D02*
X200480000Y-45140000D01*
X198787064Y-42965000D02*
X198332936Y-42965000D01*
X198787064Y-44435000D02*
X198332936Y-44435000D01*
%LPC*%
D16*
X206680000Y-48150000D03*
X213690000Y-48150000D03*
D17*
X207930000Y-45660000D03*
X212430000Y-45660000D03*
D18*
X183740000Y-46240000D03*
X183740000Y-48780000D03*
X183740000Y-51320000D03*
X183740000Y-53860000D03*
X183740000Y-56400000D03*
X183740000Y-58940000D03*
X183740000Y-61480000D03*
X183740000Y-64020000D03*
X183740000Y-66560000D03*
X198980000Y-66560000D03*
X198980000Y-64020000D03*
X198980000Y-61480000D03*
X198980000Y-58940000D03*
X198980000Y-56400000D03*
X198980000Y-53860000D03*
X198980000Y-51320000D03*
X198980000Y-48780000D03*
X198980000Y-46240000D03*
D19*
X199472500Y-43700000D03*
X197647500Y-43700000D03*
D20*
X202187686Y-49392309D03*
D21*
X202187686Y-51932309D03*
X202187686Y-54472309D03*
X202187686Y-57012309D03*
D20*
X190869995Y-57080000D03*
D21*
X193409995Y-57080000D03*
X195949995Y-57080000D03*
D20*
X202187686Y-64042309D03*
D21*
X202187686Y-66582309D03*
D20*
X206964995Y-57080000D03*
D21*
X209504995Y-57080000D03*
%LPD*%
M02*
