G04 #@! TF.GenerationSoftware,KiCad,Pcbnew,8.0.6*
G04 #@! TF.CreationDate,2024-11-23T11:54:57+01:00*
G04 #@! TF.ProjectId,ChristmasTreeBrain,43687269-7374-46d6-9173-547265654272,rev?*
G04 #@! TF.SameCoordinates,Original*
G04 #@! TF.FileFunction,Copper,L1,Top*
G04 #@! TF.FilePolarity,Positive*
%FSLAX46Y46*%
G04 Gerber Fmt 4.6, Leading zero omitted, Abs format (unit mm)*
G04 Created by KiCad (PCBNEW 8.0.6) date 2024-11-23 11:54:57*
%MOMM*%
%LPD*%
G01*
G04 APERTURE LIST*
G04 Aperture macros list*
%AMRoundRect*
0 Rectangle with rounded corners*
0 $1 Rounding radius*
0 $2 $3 $4 $5 $6 $7 $8 $9 X,Y pos of 4 corners*
0 Add a 4 corners polygon primitive as box body*
4,1,4,$2,$3,$4,$5,$6,$7,$8,$9,$2,$3,0*
0 Add four circle primitives for the rounded corners*
1,1,$1+$1,$2,$3*
1,1,$1+$1,$4,$5*
1,1,$1+$1,$6,$7*
1,1,$1+$1,$8,$9*
0 Add four rect primitives between the rounded corners*
20,1,$1+$1,$2,$3,$4,$5,0*
20,1,$1+$1,$4,$5,$6,$7,0*
20,1,$1+$1,$6,$7,$8,$9,0*
20,1,$1+$1,$8,$9,$2,$3,0*%
G04 Aperture macros list end*
G04 #@! TA.AperFunction,ComponentPad*
%ADD10C,2.100000*%
G04 #@! TD*
G04 #@! TA.AperFunction,ComponentPad*
%ADD11C,1.750000*%
G04 #@! TD*
G04 #@! TA.AperFunction,ComponentPad*
%ADD12O,2.000000X1.400000*%
G04 #@! TD*
G04 #@! TA.AperFunction,SMDPad,CuDef*
%ADD13RoundRect,0.250000X0.262500X0.450000X-0.262500X0.450000X-0.262500X-0.450000X0.262500X-0.450000X0*%
G04 #@! TD*
G04 #@! TA.AperFunction,ComponentPad*
%ADD14R,1.700000X1.700000*%
G04 #@! TD*
G04 #@! TA.AperFunction,ComponentPad*
%ADD15O,1.700000X1.700000*%
G04 #@! TD*
G04 #@! TA.AperFunction,Conductor*
%ADD16C,0.800000*%
G04 #@! TD*
G04 #@! TA.AperFunction,Conductor*
%ADD17C,0.400000*%
G04 #@! TD*
G04 APERTURE END LIST*
D10*
X206680000Y-48150000D03*
X213690000Y-48150000D03*
D11*
X207930000Y-45660000D03*
X212430000Y-45660000D03*
D12*
X183740000Y-46240000D03*
X183740000Y-48780000D03*
X183740000Y-51320000D03*
X183740000Y-53860000D03*
X183740000Y-56400000D03*
X183740000Y-58940000D03*
X183740000Y-61480000D03*
X183740000Y-64020000D03*
X183740000Y-66560000D03*
X198980000Y-66560000D03*
X198980000Y-64020000D03*
X198980000Y-61480000D03*
X198980000Y-58940000D03*
X198980000Y-56400000D03*
X198980000Y-53860000D03*
X198980000Y-51320000D03*
X198980000Y-48780000D03*
X198980000Y-46240000D03*
D13*
X199472500Y-43700000D03*
X197647500Y-43700000D03*
D14*
X202187686Y-49392309D03*
D15*
X202187686Y-51932309D03*
X202187686Y-54472309D03*
X202187686Y-57012309D03*
D14*
X190869995Y-57080000D03*
D15*
X193409995Y-57080000D03*
X195949995Y-57080000D03*
D14*
X202187686Y-64042309D03*
D15*
X202187686Y-66582309D03*
D14*
X206964995Y-57080000D03*
D15*
X209504995Y-57080000D03*
D16*
X195970000Y-47210000D02*
X195970000Y-57059995D01*
X183740000Y-46240000D02*
X195000000Y-46240000D01*
X195000000Y-46240000D02*
X195970000Y-47210000D01*
D17*
X203840000Y-45660000D02*
X207930000Y-45660000D01*
X202255377Y-57080000D02*
X202187686Y-57012309D01*
X205790000Y-55350000D02*
X209230000Y-55350000D01*
X204960000Y-50650000D02*
X204960000Y-54520000D01*
X204960000Y-54520000D02*
X205790000Y-55350000D01*
X209540000Y-55660000D02*
X209540000Y-57044995D01*
X209230000Y-55350000D02*
X209540000Y-55660000D01*
X203702309Y-49392309D02*
X204960000Y-50650000D01*
X202187686Y-49392309D02*
X203702309Y-49392309D01*
X209540000Y-57044995D02*
X209504995Y-57080000D01*
X191530000Y-68760000D02*
X190869995Y-68099995D01*
X202187686Y-66582309D02*
X202187686Y-68362314D01*
X190869995Y-68099995D02*
X190869995Y-57080000D01*
X201790000Y-68760000D02*
X191530000Y-68760000D01*
X202187686Y-68362314D02*
X201790000Y-68760000D01*
X202169995Y-54490000D02*
X202187686Y-54472309D01*
X201880000Y-43700000D02*
X203840000Y-45660000D01*
X199472500Y-43700000D02*
X201880000Y-43700000D01*
G04 #@! TA.AperFunction,Conductor*
G36*
X200991841Y-37330176D02*
G01*
X200997016Y-37330396D01*
X201919607Y-37389227D01*
X201924824Y-37389671D01*
X202844029Y-37487599D01*
X202849184Y-37488258D01*
X203763470Y-37625120D01*
X203768595Y-37625999D01*
X204676224Y-37801536D01*
X204681292Y-37802628D01*
X205580658Y-38016528D01*
X205585685Y-38017837D01*
X206475182Y-38269721D01*
X206480157Y-38271246D01*
X207358090Y-38560629D01*
X207363025Y-38562372D01*
X208227952Y-38888781D01*
X208232764Y-38890715D01*
X209083025Y-39253525D01*
X209087775Y-39255672D01*
X209921858Y-39654233D01*
X209926558Y-39656603D01*
X210742951Y-40090193D01*
X210747546Y-40092760D01*
X211109185Y-40304978D01*
X211544804Y-40560610D01*
X211549261Y-40563354D01*
X212171692Y-40965065D01*
X212325963Y-41064630D01*
X212330324Y-41067578D01*
X213085020Y-41601345D01*
X213089252Y-41604475D01*
X213820616Y-42169792D01*
X213824711Y-42173099D01*
X214531428Y-42768951D01*
X214535380Y-42772429D01*
X215216188Y-43397754D01*
X215219988Y-43401396D01*
X215873603Y-44055011D01*
X215877245Y-44058811D01*
X216502570Y-44739619D01*
X216506048Y-44743571D01*
X217101900Y-45450288D01*
X217105207Y-45454383D01*
X217670524Y-46185747D01*
X217673654Y-46189979D01*
X218207421Y-46944675D01*
X218210369Y-46949036D01*
X218711637Y-47725725D01*
X218714397Y-47730208D01*
X219182239Y-48527453D01*
X219184806Y-48532048D01*
X219618396Y-49348441D01*
X219620766Y-49353141D01*
X219689474Y-49496928D01*
X220017342Y-50183070D01*
X220019312Y-50187191D01*
X220021480Y-50191988D01*
X220067624Y-50300128D01*
X220344968Y-50950097D01*
X220384269Y-51042199D01*
X220386227Y-51047071D01*
X220391974Y-51062299D01*
X220712622Y-51911960D01*
X220714375Y-51916924D01*
X221003744Y-52794813D01*
X221005286Y-52799846D01*
X221257153Y-53689281D01*
X221258478Y-53694374D01*
X221437639Y-54447674D01*
X221472362Y-54593668D01*
X221473471Y-54598814D01*
X221648994Y-55506372D01*
X221649884Y-55511560D01*
X221786736Y-56425782D01*
X221787404Y-56431003D01*
X221885326Y-57350161D01*
X221885773Y-57355406D01*
X221944601Y-58277941D01*
X221944824Y-58283200D01*
X221964444Y-59207368D01*
X221964444Y-59212632D01*
X221944824Y-60136799D01*
X221944601Y-60142058D01*
X221885773Y-61064593D01*
X221885326Y-61069838D01*
X221787404Y-61988996D01*
X221786736Y-61994217D01*
X221649884Y-62908439D01*
X221648994Y-62913627D01*
X221473471Y-63821185D01*
X221472362Y-63826331D01*
X221258479Y-64725624D01*
X221257153Y-64730718D01*
X221005286Y-65620153D01*
X221003744Y-65625186D01*
X220714375Y-66503075D01*
X220712622Y-66508039D01*
X220386232Y-67372916D01*
X220384269Y-67377800D01*
X220021480Y-68228011D01*
X220019312Y-68232808D01*
X219620766Y-69066858D01*
X219618396Y-69071558D01*
X219184806Y-69887951D01*
X219182239Y-69892546D01*
X218714397Y-70689791D01*
X218711637Y-70694274D01*
X218210369Y-71470963D01*
X218207421Y-71475324D01*
X217673654Y-72230020D01*
X217670524Y-72234252D01*
X217105207Y-72965616D01*
X217101900Y-72969711D01*
X216506048Y-73676428D01*
X216502570Y-73680380D01*
X215877245Y-74361188D01*
X215873603Y-74364988D01*
X215219988Y-75018603D01*
X215216188Y-75022245D01*
X214535380Y-75647570D01*
X214531428Y-75651048D01*
X213824711Y-76246900D01*
X213820616Y-76250207D01*
X213089252Y-76815524D01*
X213085020Y-76818654D01*
X212330324Y-77352421D01*
X212325963Y-77355369D01*
X211549274Y-77856637D01*
X211544791Y-77859397D01*
X210747546Y-78327239D01*
X210742951Y-78329806D01*
X209926558Y-78763396D01*
X209921858Y-78765766D01*
X209087808Y-79164312D01*
X209083011Y-79166480D01*
X208232800Y-79529269D01*
X208227916Y-79531232D01*
X207363039Y-79857622D01*
X207358075Y-79859375D01*
X206480186Y-80148744D01*
X206475153Y-80150286D01*
X205585718Y-80402153D01*
X205580624Y-80403479D01*
X204681331Y-80617362D01*
X204676185Y-80618471D01*
X203768627Y-80793994D01*
X203763439Y-80794884D01*
X202849217Y-80931736D01*
X202843996Y-80932404D01*
X201924838Y-81030326D01*
X201919593Y-81030773D01*
X200997058Y-81089601D01*
X200991799Y-81089824D01*
X200067632Y-81109444D01*
X200062368Y-81109444D01*
X199138200Y-81089824D01*
X199132941Y-81089601D01*
X198210406Y-81030773D01*
X198205161Y-81030326D01*
X197286003Y-80932404D01*
X197280782Y-80931736D01*
X196366560Y-80794884D01*
X196361372Y-80793994D01*
X195453814Y-80618471D01*
X195448668Y-80617362D01*
X194549375Y-80403479D01*
X194544281Y-80402153D01*
X193654846Y-80150286D01*
X193649813Y-80148744D01*
X192771924Y-79859375D01*
X192766960Y-79857622D01*
X192320157Y-79689006D01*
X191902071Y-79531227D01*
X191897211Y-79529274D01*
X191046988Y-79166480D01*
X191042203Y-79164317D01*
X190625166Y-78965039D01*
X190208141Y-78765766D01*
X190203441Y-78763396D01*
X189387048Y-78329806D01*
X189382453Y-78327239D01*
X188585208Y-77859397D01*
X188580725Y-77856637D01*
X187804036Y-77355369D01*
X187799675Y-77352421D01*
X187044979Y-76818654D01*
X187040747Y-76815524D01*
X186309383Y-76250207D01*
X186305288Y-76246900D01*
X185598571Y-75651048D01*
X185594619Y-75647570D01*
X184913811Y-75022245D01*
X184910011Y-75018603D01*
X184256396Y-74364988D01*
X184252754Y-74361188D01*
X183627429Y-73680380D01*
X183623951Y-73676428D01*
X183028099Y-72969711D01*
X183024792Y-72965616D01*
X182459475Y-72234252D01*
X182456345Y-72230020D01*
X181922578Y-71475324D01*
X181919630Y-71470963D01*
X181418362Y-70694274D01*
X181415602Y-70689791D01*
X180947760Y-69892546D01*
X180945193Y-69887951D01*
X180511603Y-69071558D01*
X180509233Y-69066858D01*
X180251034Y-68526516D01*
X180110672Y-68232775D01*
X180108519Y-68228011D01*
X179745715Y-67377764D01*
X179743781Y-67372952D01*
X179417372Y-66508025D01*
X179415624Y-66503075D01*
X179405839Y-66473389D01*
X182339500Y-66473389D01*
X182339500Y-66646611D01*
X182347677Y-66698239D01*
X182359882Y-66775302D01*
X182366598Y-66817701D01*
X182420127Y-66982445D01*
X182498768Y-67136788D01*
X182600586Y-67276928D01*
X182723072Y-67399414D01*
X182863212Y-67501232D01*
X183017555Y-67579873D01*
X183182299Y-67633402D01*
X183353389Y-67660500D01*
X183353390Y-67660500D01*
X184126610Y-67660500D01*
X184126611Y-67660500D01*
X184297701Y-67633402D01*
X184462445Y-67579873D01*
X184616788Y-67501232D01*
X184756928Y-67399414D01*
X184879414Y-67276928D01*
X184981232Y-67136788D01*
X185059873Y-66982445D01*
X185113402Y-66817701D01*
X185140500Y-66646611D01*
X185140500Y-66473389D01*
X185113402Y-66302299D01*
X185059873Y-66137555D01*
X184981232Y-65983212D01*
X184879414Y-65843072D01*
X184756928Y-65720586D01*
X184616788Y-65618768D01*
X184462445Y-65540127D01*
X184297701Y-65486598D01*
X184297699Y-65486597D01*
X184297698Y-65486597D01*
X184166271Y-65465781D01*
X184126611Y-65459500D01*
X183353389Y-65459500D01*
X183313728Y-65465781D01*
X183182302Y-65486597D01*
X183182299Y-65486598D01*
X183070085Y-65523059D01*
X183017552Y-65540128D01*
X182863211Y-65618768D01*
X182784249Y-65676138D01*
X182723072Y-65720586D01*
X182723070Y-65720588D01*
X182723069Y-65720588D01*
X182600588Y-65843069D01*
X182600588Y-65843070D01*
X182600586Y-65843072D01*
X182575829Y-65877147D01*
X182498768Y-65983211D01*
X182420128Y-66137552D01*
X182366597Y-66302302D01*
X182352816Y-66389316D01*
X182339500Y-66473389D01*
X179405839Y-66473389D01*
X179378127Y-66389316D01*
X179126246Y-65625157D01*
X179124721Y-65620182D01*
X178872837Y-64730685D01*
X178871528Y-64725658D01*
X178683099Y-63933389D01*
X182339500Y-63933389D01*
X182339500Y-64106611D01*
X182366598Y-64277701D01*
X182420127Y-64442445D01*
X182498768Y-64596788D01*
X182600586Y-64736928D01*
X182723072Y-64859414D01*
X182863212Y-64961232D01*
X183017555Y-65039873D01*
X183182299Y-65093402D01*
X183353389Y-65120500D01*
X183353390Y-65120500D01*
X184126610Y-65120500D01*
X184126611Y-65120500D01*
X184297701Y-65093402D01*
X184462445Y-65039873D01*
X184616788Y-64961232D01*
X184756928Y-64859414D01*
X184879414Y-64736928D01*
X184981232Y-64596788D01*
X185059873Y-64442445D01*
X185113402Y-64277701D01*
X185140500Y-64106611D01*
X185140500Y-63933389D01*
X185113402Y-63762299D01*
X185059873Y-63597555D01*
X184981232Y-63443212D01*
X184879414Y-63303072D01*
X184756928Y-63180586D01*
X184616788Y-63078768D01*
X184462445Y-63000127D01*
X184297701Y-62946598D01*
X184297699Y-62946597D01*
X184297698Y-62946597D01*
X184166271Y-62925781D01*
X184126611Y-62919500D01*
X183353389Y-62919500D01*
X183313728Y-62925781D01*
X183182302Y-62946597D01*
X183017552Y-63000128D01*
X182863211Y-63078768D01*
X182783256Y-63136859D01*
X182723072Y-63180586D01*
X182723070Y-63180588D01*
X182723069Y-63180588D01*
X182600588Y-63303069D01*
X182600588Y-63303070D01*
X182600586Y-63303072D01*
X182556859Y-63363256D01*
X182498768Y-63443211D01*
X182420128Y-63597552D01*
X182366597Y-63762302D01*
X182356456Y-63826331D01*
X182339500Y-63933389D01*
X178683099Y-63933389D01*
X178657628Y-63826292D01*
X178656536Y-63821224D01*
X178480999Y-62913595D01*
X178480120Y-62908470D01*
X178343258Y-61994184D01*
X178342599Y-61989029D01*
X178279142Y-61393389D01*
X182339500Y-61393389D01*
X182339500Y-61566611D01*
X182366598Y-61737701D01*
X182420127Y-61902445D01*
X182498768Y-62056788D01*
X182600586Y-62196928D01*
X182723072Y-62319414D01*
X182863212Y-62421232D01*
X183017555Y-62499873D01*
X183182299Y-62553402D01*
X183353389Y-62580500D01*
X183353390Y-62580500D01*
X184126610Y-62580500D01*
X184126611Y-62580500D01*
X184297701Y-62553402D01*
X184462445Y-62499873D01*
X184616788Y-62421232D01*
X184756928Y-62319414D01*
X184879414Y-62196928D01*
X184981232Y-62056788D01*
X185059873Y-61902445D01*
X185113402Y-61737701D01*
X185140500Y-61566611D01*
X185140500Y-61393389D01*
X185113402Y-61222299D01*
X185059873Y-61057555D01*
X184981232Y-60903212D01*
X184879414Y-60763072D01*
X184756928Y-60640586D01*
X184616788Y-60538768D01*
X184462445Y-60460127D01*
X184297701Y-60406598D01*
X184297699Y-60406597D01*
X184297698Y-60406597D01*
X184166271Y-60385781D01*
X184126611Y-60379500D01*
X183353389Y-60379500D01*
X183313728Y-60385781D01*
X183182302Y-60406597D01*
X183017552Y-60460128D01*
X182863211Y-60538768D01*
X182783256Y-60596859D01*
X182723072Y-60640586D01*
X182723070Y-60640588D01*
X182723069Y-60640588D01*
X182600588Y-60763069D01*
X182600588Y-60763070D01*
X182600586Y-60763072D01*
X182556859Y-60823256D01*
X182498768Y-60903211D01*
X182420128Y-61057552D01*
X182366597Y-61222302D01*
X182339500Y-61393389D01*
X178279142Y-61393389D01*
X178244671Y-61069824D01*
X178244226Y-61064593D01*
X178185396Y-60142016D01*
X178185176Y-60136841D01*
X178165555Y-59212590D01*
X178165555Y-59207409D01*
X178173070Y-58853389D01*
X182339500Y-58853389D01*
X182339500Y-59026611D01*
X182366598Y-59197701D01*
X182420127Y-59362445D01*
X182498768Y-59516788D01*
X182600586Y-59656928D01*
X182723072Y-59779414D01*
X182863212Y-59881232D01*
X183017555Y-59959873D01*
X183182299Y-60013402D01*
X183353389Y-60040500D01*
X183353390Y-60040500D01*
X184126610Y-60040500D01*
X184126611Y-60040500D01*
X184297701Y-60013402D01*
X184462445Y-59959873D01*
X184616788Y-59881232D01*
X184756928Y-59779414D01*
X184879414Y-59656928D01*
X184981232Y-59516788D01*
X185059873Y-59362445D01*
X185113402Y-59197701D01*
X185140500Y-59026611D01*
X185140500Y-58853389D01*
X185113402Y-58682299D01*
X185059873Y-58517555D01*
X184981232Y-58363212D01*
X184879414Y-58223072D01*
X184756928Y-58100586D01*
X184616788Y-57998768D01*
X184462445Y-57920127D01*
X184297701Y-57866598D01*
X184297699Y-57866597D01*
X184297698Y-57866597D01*
X184166271Y-57845781D01*
X184126611Y-57839500D01*
X183353389Y-57839500D01*
X183313728Y-57845781D01*
X183182302Y-57866597D01*
X183119887Y-57886877D01*
X183057125Y-57907270D01*
X183017552Y-57920128D01*
X182863211Y-57998768D01*
X182785401Y-58055301D01*
X182723072Y-58100586D01*
X182723070Y-58100588D01*
X182723069Y-58100588D01*
X182600588Y-58223069D01*
X182600588Y-58223070D01*
X182600586Y-58223072D01*
X182560721Y-58277941D01*
X182498768Y-58363211D01*
X182420128Y-58517552D01*
X182366597Y-58682302D01*
X182339500Y-58853389D01*
X178173070Y-58853389D01*
X178185176Y-58283155D01*
X178185396Y-58277985D01*
X178244227Y-57355388D01*
X178244673Y-57350161D01*
X178342599Y-56430965D01*
X178343257Y-56425821D01*
X178360087Y-56313389D01*
X182339500Y-56313389D01*
X182339500Y-56486610D01*
X182365485Y-56650677D01*
X182366598Y-56657701D01*
X182420127Y-56822445D01*
X182498768Y-56976788D01*
X182600586Y-57116928D01*
X182723072Y-57239414D01*
X182863212Y-57341232D01*
X183017555Y-57419873D01*
X183182299Y-57473402D01*
X183353389Y-57500500D01*
X183353390Y-57500500D01*
X184126610Y-57500500D01*
X184126611Y-57500500D01*
X184297701Y-57473402D01*
X184462445Y-57419873D01*
X184616788Y-57341232D01*
X184756928Y-57239414D01*
X184879414Y-57116928D01*
X184981232Y-56976788D01*
X185059873Y-56822445D01*
X185113402Y-56657701D01*
X185140500Y-56486611D01*
X185140500Y-56313389D01*
X185113402Y-56142299D01*
X185059873Y-55977555D01*
X184981232Y-55823212D01*
X184879414Y-55683072D01*
X184756928Y-55560586D01*
X184616788Y-55458768D01*
X184462445Y-55380127D01*
X184297701Y-55326598D01*
X184297699Y-55326597D01*
X184297698Y-55326597D01*
X184166271Y-55305781D01*
X184126611Y-55299500D01*
X183353389Y-55299500D01*
X183313728Y-55305781D01*
X183182302Y-55326597D01*
X183017552Y-55380128D01*
X182863211Y-55458768D01*
X182797691Y-55506372D01*
X182723072Y-55560586D01*
X182723069Y-55560588D01*
X182600588Y-55683069D01*
X182600588Y-55683070D01*
X182600586Y-55683072D01*
X182566491Y-55730000D01*
X182498768Y-55823211D01*
X182420128Y-55977552D01*
X182366597Y-56142302D01*
X182339500Y-56313389D01*
X178360087Y-56313389D01*
X178480121Y-55511521D01*
X178480998Y-55506412D01*
X178656538Y-54598766D01*
X178657626Y-54593717D01*
X178852728Y-53773389D01*
X182339500Y-53773389D01*
X182339500Y-53946611D01*
X182366598Y-54117701D01*
X182420127Y-54282445D01*
X182498768Y-54436788D01*
X182600586Y-54576928D01*
X182723072Y-54699414D01*
X182863212Y-54801232D01*
X183017555Y-54879873D01*
X183182299Y-54933402D01*
X183353389Y-54960500D01*
X183353390Y-54960500D01*
X184126610Y-54960500D01*
X184126611Y-54960500D01*
X184297701Y-54933402D01*
X184462445Y-54879873D01*
X184616788Y-54801232D01*
X184756928Y-54699414D01*
X184879414Y-54576928D01*
X184981232Y-54436788D01*
X185059873Y-54282445D01*
X185113402Y-54117701D01*
X185140500Y-53946611D01*
X185140500Y-53773389D01*
X185113402Y-53602299D01*
X185059873Y-53437555D01*
X184981232Y-53283212D01*
X184879414Y-53143072D01*
X184756928Y-53020586D01*
X184616788Y-52918768D01*
X184462445Y-52840127D01*
X184297701Y-52786598D01*
X184297699Y-52786597D01*
X184297698Y-52786597D01*
X184147781Y-52762853D01*
X184126611Y-52759500D01*
X183353389Y-52759500D01*
X183332219Y-52762853D01*
X183182302Y-52786597D01*
X183017552Y-52840128D01*
X182863211Y-52918768D01*
X182784684Y-52975822D01*
X182723072Y-53020586D01*
X182723070Y-53020588D01*
X182723069Y-53020588D01*
X182600588Y-53143069D01*
X182600588Y-53143070D01*
X182600586Y-53143072D01*
X182581568Y-53169248D01*
X182498768Y-53283211D01*
X182420128Y-53437552D01*
X182366597Y-53602302D01*
X182339500Y-53773389D01*
X178852728Y-53773389D01*
X178871531Y-53694330D01*
X178872834Y-53689325D01*
X179124725Y-52799804D01*
X179126241Y-52794855D01*
X179415634Y-51916894D01*
X179417366Y-51911989D01*
X179743787Y-51047030D01*
X179745708Y-51042252D01*
X180108533Y-50191956D01*
X180110664Y-50187241D01*
X180509246Y-49353114D01*
X180511603Y-49348441D01*
X180945197Y-48532039D01*
X180947760Y-48527453D01*
X180950783Y-48522302D01*
X181415622Y-47730174D01*
X181418340Y-47725759D01*
X181919656Y-46948995D01*
X181922550Y-46944714D01*
X182183573Y-46575651D01*
X182238354Y-46532286D01*
X182307885Y-46525421D01*
X182370091Y-46557237D01*
X182402741Y-46608936D01*
X182420128Y-46662449D01*
X182474334Y-46768834D01*
X182498768Y-46816788D01*
X182600586Y-46956928D01*
X182723072Y-47079414D01*
X182863212Y-47181232D01*
X183017555Y-47259873D01*
X183182299Y-47313402D01*
X183182302Y-47313402D01*
X183182303Y-47313403D01*
X183281615Y-47329132D01*
X183332277Y-47337156D01*
X183395412Y-47367085D01*
X183432344Y-47426396D01*
X183431346Y-47496259D01*
X183392737Y-47554492D01*
X183332279Y-47582102D01*
X183158997Y-47609548D01*
X182980952Y-47667397D01*
X182980952Y-47667398D01*
X183610591Y-48297037D01*
X183547007Y-48314075D01*
X183432993Y-48379901D01*
X183339901Y-48472993D01*
X183274075Y-48587007D01*
X183257037Y-48650590D01*
X182564695Y-47958248D01*
X182524689Y-47998253D01*
X182524685Y-47998258D01*
X182413670Y-48151059D01*
X182327914Y-48319362D01*
X182269548Y-48498997D01*
X182240000Y-48685552D01*
X182240000Y-48874447D01*
X182269548Y-49061002D01*
X182327914Y-49240637D01*
X182413670Y-49408940D01*
X182524685Y-49561741D01*
X182524689Y-49561746D01*
X182564695Y-49601752D01*
X183257037Y-48909409D01*
X183274075Y-48972993D01*
X183339901Y-49087007D01*
X183432993Y-49180099D01*
X183547007Y-49245925D01*
X183610590Y-49262962D01*
X182980951Y-49892601D01*
X183158996Y-49950451D01*
X183332278Y-49977897D01*
X183395413Y-50007826D01*
X183432344Y-50067138D01*
X183431346Y-50137000D01*
X183392736Y-50195233D01*
X183332278Y-50222843D01*
X183182302Y-50246597D01*
X183182299Y-50246598D01*
X183075554Y-50281282D01*
X183017552Y-50300128D01*
X182863211Y-50378768D01*
X182783256Y-50436859D01*
X182723072Y-50480586D01*
X182723070Y-50480588D01*
X182723069Y-50480588D01*
X182600588Y-50603069D01*
X182600588Y-50603070D01*
X182600586Y-50603072D01*
X182582507Y-50627956D01*
X182498768Y-50743211D01*
X182420128Y-50897552D01*
X182366597Y-51062302D01*
X182339500Y-51233389D01*
X182339500Y-51406611D01*
X182366598Y-51577701D01*
X182420127Y-51742445D01*
X182498768Y-51896788D01*
X182600586Y-52036928D01*
X182723072Y-52159414D01*
X182863212Y-52261232D01*
X183017555Y-52339873D01*
X183182299Y-52393402D01*
X183353389Y-52420500D01*
X183353390Y-52420500D01*
X184126610Y-52420500D01*
X184126611Y-52420500D01*
X184297701Y-52393402D01*
X184462445Y-52339873D01*
X184616788Y-52261232D01*
X184756928Y-52159414D01*
X184879414Y-52036928D01*
X184981232Y-51896788D01*
X185059873Y-51742445D01*
X185113402Y-51577701D01*
X185140500Y-51406611D01*
X185140500Y-51233389D01*
X185113402Y-51062299D01*
X185059873Y-50897555D01*
X184981232Y-50743212D01*
X184879414Y-50603072D01*
X184756928Y-50480586D01*
X184616788Y-50378768D01*
X184462445Y-50300127D01*
X184297701Y-50246598D01*
X184297699Y-50246597D01*
X184297697Y-50246597D01*
X184147721Y-50222843D01*
X184084586Y-50192914D01*
X184047655Y-50133602D01*
X184048653Y-50063740D01*
X184087263Y-50005507D01*
X184147721Y-49977897D01*
X184320997Y-49950452D01*
X184320998Y-49950452D01*
X184499047Y-49892601D01*
X183869410Y-49262962D01*
X183932993Y-49245925D01*
X184047007Y-49180099D01*
X184140099Y-49087007D01*
X184205925Y-48972993D01*
X184222962Y-48909409D01*
X184915305Y-49601752D01*
X184955310Y-49561746D01*
X184955314Y-49561741D01*
X185066329Y-49408940D01*
X185152085Y-49240637D01*
X185210451Y-49061002D01*
X185240000Y-48874447D01*
X185240000Y-48685552D01*
X185210451Y-48498997D01*
X185152085Y-48319362D01*
X185066329Y-48151059D01*
X184955314Y-47998258D01*
X184955310Y-47998253D01*
X184915305Y-47958248D01*
X184222962Y-48650590D01*
X184205925Y-48587007D01*
X184140099Y-48472993D01*
X184047007Y-48379901D01*
X183932993Y-48314075D01*
X183869409Y-48297037D01*
X184499046Y-47667398D01*
X184499046Y-47667397D01*
X184321002Y-47609548D01*
X184147720Y-47582102D01*
X184084586Y-47552172D01*
X184047655Y-47492861D01*
X184048653Y-47422998D01*
X184087263Y-47364766D01*
X184147720Y-47337156D01*
X184241306Y-47322334D01*
X184297696Y-47313403D01*
X184297696Y-47313402D01*
X184297701Y-47313402D01*
X184462445Y-47259873D01*
X184616788Y-47181232D01*
X184756928Y-47079414D01*
X184759523Y-47076819D01*
X184820846Y-47043334D01*
X184847204Y-47040500D01*
X194617060Y-47040500D01*
X194684099Y-47060185D01*
X194704741Y-47076819D01*
X195133181Y-47505259D01*
X195166666Y-47566582D01*
X195169500Y-47592940D01*
X195169500Y-52780500D01*
X195149815Y-52847539D01*
X195097011Y-52893294D01*
X195045500Y-52904500D01*
X194951361Y-52904500D01*
X194908003Y-52906824D01*
X194881648Y-52909658D01*
X194850162Y-52914299D01*
X194776419Y-52940611D01*
X194730668Y-52956935D01*
X194730666Y-52956935D01*
X194730663Y-52956937D01*
X194669350Y-52990416D01*
X194669342Y-52990421D01*
X194576956Y-53059580D01*
X194576946Y-53059589D01*
X194499582Y-53136954D01*
X194499553Y-53136985D01*
X194470580Y-53169241D01*
X194470574Y-53169248D01*
X194453951Y-53189877D01*
X194434957Y-53215440D01*
X194380612Y-53330072D01*
X194360926Y-53397114D01*
X194360924Y-53397122D01*
X194344500Y-53511361D01*
X194344500Y-55969566D01*
X194324815Y-56036605D01*
X194272011Y-56082360D01*
X194202853Y-56092304D01*
X194149377Y-56071141D01*
X194037638Y-55992900D01*
X194037634Y-55992898D01*
X193975490Y-55963920D01*
X193839325Y-55900425D01*
X193839321Y-55900424D01*
X193839317Y-55900422D01*
X193627972Y-55843793D01*
X193409997Y-55824723D01*
X193409993Y-55824723D01*
X193264677Y-55837436D01*
X193192018Y-55843793D01*
X193192015Y-55843793D01*
X192980672Y-55900422D01*
X192980663Y-55900426D01*
X192782356Y-55992898D01*
X192782352Y-55992900D01*
X192603116Y-56118402D01*
X192448398Y-56273120D01*
X192445567Y-56277164D01*
X192390988Y-56320786D01*
X192321489Y-56327977D01*
X192259136Y-56296451D01*
X192223725Y-56236220D01*
X192219995Y-56206036D01*
X192219995Y-56182172D01*
X192219994Y-56182155D01*
X192213593Y-56122627D01*
X192213591Y-56122620D01*
X192163349Y-55987913D01*
X192163345Y-55987906D01*
X192077185Y-55872812D01*
X192077182Y-55872809D01*
X191962088Y-55786649D01*
X191962081Y-55786645D01*
X191827374Y-55736403D01*
X191827367Y-55736401D01*
X191767839Y-55730000D01*
X191119995Y-55730000D01*
X191119995Y-56646988D01*
X191062988Y-56614075D01*
X190935821Y-56580000D01*
X190804169Y-56580000D01*
X190677002Y-56614075D01*
X190619995Y-56646988D01*
X190619995Y-55730000D01*
X189972150Y-55730000D01*
X189912622Y-55736401D01*
X189912615Y-55736403D01*
X189777908Y-55786645D01*
X189777901Y-55786649D01*
X189662807Y-55872809D01*
X189662804Y-55872812D01*
X189576644Y-55987906D01*
X189576640Y-55987913D01*
X189526398Y-56122620D01*
X189526396Y-56122627D01*
X189519995Y-56182155D01*
X189519995Y-56830000D01*
X190436983Y-56830000D01*
X190404070Y-56887007D01*
X190369995Y-57014174D01*
X190369995Y-57145826D01*
X190404070Y-57272993D01*
X190436983Y-57330000D01*
X189519995Y-57330000D01*
X189519995Y-57977844D01*
X189526396Y-58037372D01*
X189526398Y-58037379D01*
X189576640Y-58172086D01*
X189576644Y-58172093D01*
X189662804Y-58287187D01*
X189662807Y-58287190D01*
X189777901Y-58373350D01*
X189777908Y-58373354D01*
X189912615Y-58423596D01*
X189912622Y-58423598D01*
X189972150Y-58429999D01*
X189972167Y-58430000D01*
X190619995Y-58430000D01*
X190619995Y-57513012D01*
X190677002Y-57545925D01*
X190804169Y-57580000D01*
X190935821Y-57580000D01*
X191062988Y-57545925D01*
X191119995Y-57513012D01*
X191119995Y-58430000D01*
X191767823Y-58430000D01*
X191767839Y-58429999D01*
X191827367Y-58423598D01*
X191827374Y-58423596D01*
X191962081Y-58373354D01*
X191962088Y-58373350D01*
X192077182Y-58287190D01*
X192077185Y-58287187D01*
X192163345Y-58172093D01*
X192163349Y-58172086D01*
X192213591Y-58037379D01*
X192213593Y-58037372D01*
X192219994Y-57977844D01*
X192219995Y-57977827D01*
X192219995Y-57953961D01*
X192239680Y-57886922D01*
X192292484Y-57841167D01*
X192361642Y-57831223D01*
X192425198Y-57860248D01*
X192445566Y-57882835D01*
X192448397Y-57886877D01*
X192603118Y-58041598D01*
X192782356Y-58167102D01*
X192980665Y-58259575D01*
X193192018Y-58316207D01*
X193374921Y-58332208D01*
X193409993Y-58335277D01*
X193409995Y-58335277D01*
X193409997Y-58335277D01*
X193438249Y-58332805D01*
X193627972Y-58316207D01*
X193839325Y-58259575D01*
X194037634Y-58167102D01*
X194149376Y-58088858D01*
X194215582Y-58066531D01*
X194283349Y-58083541D01*
X194331163Y-58134488D01*
X194344500Y-58190433D01*
X194344500Y-65206008D01*
X194353767Y-65292197D01*
X194364973Y-65343706D01*
X194364974Y-65343710D01*
X194387690Y-65415360D01*
X194387691Y-65415361D01*
X194387691Y-65415362D01*
X194454751Y-65523059D01*
X194500498Y-65575854D01*
X194500502Y-65575857D01*
X194500505Y-65575861D01*
X194578077Y-65645042D01*
X194578078Y-65645042D01*
X194578079Y-65645043D01*
X194692712Y-65699388D01*
X194692714Y-65699388D01*
X194692715Y-65699389D01*
X194759754Y-65719074D01*
X194759758Y-65719074D01*
X194759760Y-65719075D01*
X194770270Y-65720586D01*
X194874000Y-65735500D01*
X197675378Y-65735500D01*
X197742417Y-65755185D01*
X197788172Y-65807989D01*
X197798116Y-65877147D01*
X197775695Y-65932386D01*
X197738770Y-65983207D01*
X197660128Y-66137552D01*
X197606597Y-66302302D01*
X197592816Y-66389316D01*
X197579500Y-66473389D01*
X197579500Y-66646611D01*
X197587677Y-66698239D01*
X197599882Y-66775302D01*
X197606598Y-66817701D01*
X197660127Y-66982445D01*
X197738768Y-67136788D01*
X197840586Y-67276928D01*
X197963072Y-67399414D01*
X198103212Y-67501232D01*
X198257555Y-67579873D01*
X198422299Y-67633402D01*
X198593389Y-67660500D01*
X198593390Y-67660500D01*
X199366610Y-67660500D01*
X199366611Y-67660500D01*
X199537701Y-67633402D01*
X199702445Y-67579873D01*
X199856788Y-67501232D01*
X199996928Y-67399414D01*
X200119414Y-67276928D01*
X200221232Y-67136788D01*
X200299873Y-66982445D01*
X200353402Y-66817701D01*
X200380500Y-66646611D01*
X200380500Y-66473389D01*
X200353402Y-66302299D01*
X200299873Y-66137555D01*
X200221232Y-65983212D01*
X200221230Y-65983209D01*
X200221229Y-65983207D01*
X200184305Y-65932386D01*
X200160824Y-65866580D01*
X200176649Y-65798526D01*
X200226754Y-65749831D01*
X200284622Y-65735500D01*
X200793035Y-65735500D01*
X200793038Y-65735500D01*
X200793046Y-65735499D01*
X200889087Y-65723437D01*
X200958056Y-65734613D01*
X201010035Y-65781304D01*
X201028519Y-65848684D01*
X201014577Y-65898986D01*
X201016374Y-65899824D01*
X200914256Y-66118816D01*
X200914253Y-66118822D01*
X200857050Y-66332308D01*
X200857050Y-66332309D01*
X201754674Y-66332309D01*
X201721761Y-66389316D01*
X201687686Y-66516483D01*
X201687686Y-66648135D01*
X201721761Y-66775302D01*
X201754674Y-66832309D01*
X200857050Y-66832309D01*
X200914253Y-67045795D01*
X200914256Y-67045801D01*
X201014085Y-67259887D01*
X201149580Y-67453391D01*
X201316603Y-67620414D01*
X201510107Y-67755909D01*
X201724193Y-67855738D01*
X201724202Y-67855742D01*
X201937686Y-67912943D01*
X201937686Y-67015321D01*
X201994693Y-67048234D01*
X202121860Y-67082309D01*
X202253512Y-67082309D01*
X202380679Y-67048234D01*
X202437686Y-67015321D01*
X202437686Y-67912942D01*
X202651169Y-67855742D01*
X202651178Y-67855738D01*
X202865264Y-67755909D01*
X203058768Y-67620414D01*
X203225791Y-67453391D01*
X203361286Y-67259887D01*
X203461115Y-67045801D01*
X203461118Y-67045795D01*
X203518322Y-66832309D01*
X202620698Y-66832309D01*
X202653611Y-66775302D01*
X202687686Y-66648135D01*
X202687686Y-66516483D01*
X202653611Y-66389316D01*
X202620698Y-66332309D01*
X203518322Y-66332309D01*
X203518321Y-66332308D01*
X203461118Y-66118822D01*
X203461115Y-66118816D01*
X203358998Y-65899824D01*
X203360542Y-65899103D01*
X203345886Y-65838685D01*
X203368739Y-65772658D01*
X203423661Y-65729469D01*
X203487390Y-65721849D01*
X203582334Y-65735500D01*
X203582337Y-65735500D01*
X205075991Y-65735500D01*
X205076000Y-65735500D01*
X205162199Y-65726232D01*
X205213710Y-65715026D01*
X205285360Y-65692310D01*
X205393057Y-65625250D01*
X205445861Y-65579495D01*
X205515042Y-65501923D01*
X205569389Y-65387285D01*
X205589074Y-65320246D01*
X205605500Y-65206000D01*
X205605500Y-58286260D01*
X205625185Y-58219221D01*
X205677989Y-58173466D01*
X205747147Y-58163522D01*
X205810703Y-58192547D01*
X205817181Y-58198579D01*
X205876647Y-58258045D01*
X205876649Y-58258046D01*
X205876653Y-58258050D01*
X205989689Y-58315645D01*
X205989693Y-58315647D01*
X206083470Y-58330499D01*
X206083476Y-58330500D01*
X207846513Y-58330499D01*
X207940299Y-58315646D01*
X208053337Y-58258050D01*
X208143045Y-58168342D01*
X208200641Y-58055304D01*
X208200641Y-58055302D01*
X208200642Y-58055301D01*
X208215494Y-57961524D01*
X208215495Y-57961519D01*
X208215494Y-57811859D01*
X208235178Y-57744823D01*
X208287982Y-57699068D01*
X208357140Y-57689124D01*
X208420696Y-57718149D01*
X208441068Y-57740738D01*
X208510223Y-57839500D01*
X208543397Y-57886877D01*
X208698118Y-58041598D01*
X208877356Y-58167102D01*
X209075665Y-58259575D01*
X209287018Y-58316207D01*
X209469921Y-58332208D01*
X209504993Y-58335277D01*
X209504995Y-58335277D01*
X209504997Y-58335277D01*
X209533249Y-58332805D01*
X209722972Y-58316207D01*
X209934325Y-58259575D01*
X210132634Y-58167102D01*
X210311872Y-58041598D01*
X210466593Y-57886877D01*
X210592097Y-57707639D01*
X210684570Y-57509330D01*
X210741202Y-57297977D01*
X210760272Y-57080000D01*
X210741202Y-56862023D01*
X210706543Y-56732675D01*
X210684572Y-56650677D01*
X210684571Y-56650676D01*
X210684570Y-56650670D01*
X210592097Y-56452362D01*
X210592095Y-56452359D01*
X210592094Y-56452357D01*
X210466594Y-56273124D01*
X210391951Y-56198481D01*
X210311872Y-56118402D01*
X210311867Y-56118399D01*
X210311864Y-56118396D01*
X210193376Y-56035428D01*
X210149751Y-55980851D01*
X210140500Y-55933854D01*
X210140500Y-55580945D01*
X210140498Y-55580936D01*
X210135046Y-55560586D01*
X210099577Y-55428215D01*
X210025263Y-55299500D01*
X210020520Y-55291284D01*
X209908716Y-55179480D01*
X209908715Y-55179479D01*
X209904385Y-55175149D01*
X209904374Y-55175139D01*
X209717590Y-54988355D01*
X209717588Y-54988352D01*
X209598717Y-54869481D01*
X209598716Y-54869480D01*
X209511904Y-54819360D01*
X209511904Y-54819359D01*
X209511900Y-54819358D01*
X209461785Y-54790423D01*
X209309057Y-54749499D01*
X209150943Y-54749499D01*
X209143347Y-54749499D01*
X209143331Y-54749500D01*
X206090097Y-54749500D01*
X206023058Y-54729815D01*
X206002416Y-54713181D01*
X205596819Y-54307584D01*
X205563334Y-54246261D01*
X205560500Y-54219903D01*
X205560500Y-50739060D01*
X205560501Y-50739047D01*
X205560501Y-50570944D01*
X205560501Y-50570943D01*
X205519577Y-50418216D01*
X205490362Y-50367613D01*
X205440524Y-50281290D01*
X205440518Y-50281282D01*
X204189899Y-49030664D01*
X204189897Y-49030661D01*
X204071026Y-48911790D01*
X204071018Y-48911784D01*
X203951408Y-48842728D01*
X203951405Y-48842727D01*
X203934094Y-48832732D01*
X203781366Y-48791808D01*
X203623252Y-48791808D01*
X203615656Y-48791808D01*
X203615640Y-48791809D01*
X203562185Y-48791809D01*
X203495146Y-48772124D01*
X203449391Y-48719320D01*
X203438185Y-48667809D01*
X203438185Y-48510791D01*
X203436317Y-48498997D01*
X203423332Y-48417005D01*
X203365736Y-48303967D01*
X203365732Y-48303963D01*
X203365731Y-48303961D01*
X203276033Y-48214263D01*
X203276030Y-48214261D01*
X203276028Y-48214259D01*
X203199203Y-48175114D01*
X203162987Y-48156661D01*
X203069210Y-48141809D01*
X201306168Y-48141809D01*
X201225205Y-48154632D01*
X201212382Y-48156663D01*
X201099344Y-48214259D01*
X201099343Y-48214260D01*
X201099338Y-48214263D01*
X201009640Y-48303961D01*
X201009637Y-48303966D01*
X200952038Y-48417007D01*
X200937186Y-48510784D01*
X200937186Y-50273826D01*
X200941352Y-50300127D01*
X200952040Y-50367613D01*
X201009636Y-50480651D01*
X201009638Y-50480653D01*
X201009640Y-50480656D01*
X201099338Y-50570354D01*
X201099340Y-50570355D01*
X201099344Y-50570359D01*
X201212382Y-50627955D01*
X201212383Y-50627955D01*
X201212385Y-50627956D01*
X201304341Y-50642520D01*
X201367476Y-50672449D01*
X201404408Y-50731760D01*
X201403410Y-50801622D01*
X201364801Y-50859855D01*
X201356069Y-50866567D01*
X201316610Y-50894196D01*
X201149577Y-51061229D01*
X201149572Y-51061235D01*
X201014086Y-51254729D01*
X201014085Y-51254731D01*
X200914256Y-51468816D01*
X200914253Y-51468822D01*
X200857050Y-51682308D01*
X200857050Y-51682309D01*
X201754674Y-51682309D01*
X201721761Y-51739316D01*
X201687686Y-51866483D01*
X201687686Y-51998135D01*
X201721761Y-52125302D01*
X201754674Y-52182309D01*
X200857050Y-52182309D01*
X200914253Y-52395795D01*
X200914256Y-52395801D01*
X201014085Y-52609887D01*
X201083749Y-52709376D01*
X201106076Y-52775582D01*
X201089066Y-52843350D01*
X201038118Y-52891163D01*
X200982174Y-52904500D01*
X200266559Y-52904500D01*
X200216030Y-52907662D01*
X200185397Y-52911510D01*
X200185345Y-52911518D01*
X200146895Y-52918242D01*
X200024470Y-52966915D01*
X200023805Y-52965244D01*
X199962546Y-52975822D01*
X199903842Y-52952954D01*
X199856798Y-52918775D01*
X199856789Y-52918769D01*
X199856790Y-52918769D01*
X199856788Y-52918768D01*
X199702445Y-52840127D01*
X199537701Y-52786598D01*
X199537699Y-52786597D01*
X199537698Y-52786597D01*
X199387781Y-52762853D01*
X199366611Y-52759500D01*
X198593389Y-52759500D01*
X198572219Y-52762853D01*
X198422302Y-52786597D01*
X198257552Y-52840128D01*
X198103206Y-52918771D01*
X198054312Y-52954294D01*
X197988506Y-52977773D01*
X197928311Y-52966022D01*
X197874711Y-52940611D01*
X197807671Y-52920926D01*
X197807663Y-52920924D01*
X197693424Y-52904500D01*
X196894500Y-52904500D01*
X196827461Y-52884815D01*
X196781706Y-52832011D01*
X196770500Y-52780500D01*
X196770500Y-51233389D01*
X197579500Y-51233389D01*
X197579500Y-51406611D01*
X197606598Y-51577701D01*
X197660127Y-51742445D01*
X197738768Y-51896788D01*
X197840586Y-52036928D01*
X197963072Y-52159414D01*
X198103212Y-52261232D01*
X198257555Y-52339873D01*
X198422299Y-52393402D01*
X198593389Y-52420500D01*
X198593390Y-52420500D01*
X199366610Y-52420500D01*
X199366611Y-52420500D01*
X199537701Y-52393402D01*
X199702445Y-52339873D01*
X199856788Y-52261232D01*
X199996928Y-52159414D01*
X200119414Y-52036928D01*
X200221232Y-51896788D01*
X200299873Y-51742445D01*
X200353402Y-51577701D01*
X200380500Y-51406611D01*
X200380500Y-51233389D01*
X200353402Y-51062299D01*
X200299873Y-50897555D01*
X200221232Y-50743212D01*
X200119414Y-50603072D01*
X199996928Y-50480586D01*
X199856788Y-50378768D01*
X199702445Y-50300127D01*
X199537701Y-50246598D01*
X199537699Y-50246597D01*
X199537698Y-50246597D01*
X199406271Y-50225781D01*
X199366611Y-50219500D01*
X198593389Y-50219500D01*
X198553728Y-50225781D01*
X198422302Y-50246597D01*
X198422299Y-50246598D01*
X198315554Y-50281282D01*
X198257552Y-50300128D01*
X198103211Y-50378768D01*
X198023256Y-50436859D01*
X197963072Y-50480586D01*
X197963070Y-50480588D01*
X197963069Y-50480588D01*
X197840588Y-50603069D01*
X197840588Y-50603070D01*
X197840586Y-50603072D01*
X197822507Y-50627956D01*
X197738768Y-50743211D01*
X197660128Y-50897552D01*
X197606597Y-51062302D01*
X197579500Y-51233389D01*
X196770500Y-51233389D01*
X196770500Y-48693389D01*
X197579500Y-48693389D01*
X197579500Y-48866611D01*
X197586656Y-48911790D01*
X197604363Y-49023593D01*
X197606598Y-49037701D01*
X197660127Y-49202445D01*
X197738768Y-49356788D01*
X197840586Y-49496928D01*
X197963072Y-49619414D01*
X198103212Y-49721232D01*
X198257555Y-49799873D01*
X198422299Y-49853402D01*
X198593389Y-49880500D01*
X198593390Y-49880500D01*
X199366610Y-49880500D01*
X199366611Y-49880500D01*
X199537701Y-49853402D01*
X199702445Y-49799873D01*
X199856788Y-49721232D01*
X199996928Y-49619414D01*
X200119414Y-49496928D01*
X200221232Y-49356788D01*
X200299873Y-49202445D01*
X200353402Y-49037701D01*
X200380500Y-48866611D01*
X200380500Y-48693389D01*
X200353402Y-48522299D01*
X200299873Y-48357555D01*
X200221232Y-48203212D01*
X200119414Y-48063072D01*
X199996928Y-47940586D01*
X199856788Y-47838768D01*
X199702445Y-47760127D01*
X199537701Y-47706598D01*
X199537699Y-47706597D01*
X199537698Y-47706597D01*
X199406271Y-47685781D01*
X199366611Y-47679500D01*
X198593389Y-47679500D01*
X198553728Y-47685781D01*
X198422302Y-47706597D01*
X198257552Y-47760128D01*
X198103211Y-47838768D01*
X198023256Y-47896859D01*
X197963072Y-47940586D01*
X197963070Y-47940588D01*
X197963069Y-47940588D01*
X197840588Y-48063069D01*
X197840588Y-48063070D01*
X197840586Y-48063072D01*
X197796859Y-48123256D01*
X197738768Y-48203211D01*
X197660128Y-48357552D01*
X197606597Y-48522302D01*
X197590713Y-48622591D01*
X197579500Y-48693389D01*
X196770500Y-48693389D01*
X196770500Y-47131157D01*
X196760207Y-47079415D01*
X196760207Y-47079413D01*
X196739738Y-46976509D01*
X196739737Y-46976503D01*
X196692787Y-46863156D01*
X196679394Y-46830821D01*
X196618085Y-46739066D01*
X196591790Y-46699712D01*
X196550138Y-46658060D01*
X196480289Y-46588211D01*
X196045467Y-46153389D01*
X197579500Y-46153389D01*
X197579500Y-46326610D01*
X197604270Y-46483007D01*
X197606598Y-46497701D01*
X197660127Y-46662445D01*
X197738768Y-46816788D01*
X197840586Y-46956928D01*
X197963072Y-47079414D01*
X198103212Y-47181232D01*
X198257555Y-47259873D01*
X198422299Y-47313402D01*
X198593389Y-47340500D01*
X198593390Y-47340500D01*
X199366610Y-47340500D01*
X199366611Y-47340500D01*
X199537701Y-47313402D01*
X199702445Y-47259873D01*
X199856788Y-47181232D01*
X199996928Y-47079414D01*
X200119414Y-46956928D01*
X200221232Y-46816788D01*
X200299873Y-46662445D01*
X200353402Y-46497701D01*
X200380500Y-46326611D01*
X200380500Y-46153389D01*
X200353402Y-45982299D01*
X200299873Y-45817555D01*
X200221232Y-45663212D01*
X200119414Y-45523072D01*
X199996928Y-45400586D01*
X199856788Y-45298768D01*
X199702447Y-45220128D01*
X199702446Y-45220127D01*
X199702445Y-45220127D01*
X199537701Y-45166598D01*
X199537699Y-45166597D01*
X199537698Y-45166597D01*
X199406271Y-45145781D01*
X199366611Y-45139500D01*
X198593389Y-45139500D01*
X198553728Y-45145781D01*
X198422302Y-45166597D01*
X198257552Y-45220128D01*
X198103211Y-45298768D01*
X198023256Y-45356859D01*
X197963072Y-45400586D01*
X197963070Y-45400588D01*
X197963069Y-45400588D01*
X197840588Y-45523069D01*
X197840588Y-45523070D01*
X197840586Y-45523072D01*
X197796859Y-45583256D01*
X197738768Y-45663211D01*
X197660128Y-45817552D01*
X197606597Y-45982302D01*
X197579500Y-46153389D01*
X196045467Y-46153389D01*
X196032596Y-46140518D01*
X195510292Y-45618213D01*
X195510288Y-45618210D01*
X195379185Y-45530609D01*
X195379172Y-45530602D01*
X195233501Y-45470264D01*
X195233489Y-45470261D01*
X195078845Y-45439500D01*
X195078842Y-45439500D01*
X184847204Y-45439500D01*
X184780165Y-45419815D01*
X184759523Y-45403181D01*
X184756930Y-45400588D01*
X184756928Y-45400586D01*
X184616788Y-45298768D01*
X184462447Y-45220128D01*
X184462446Y-45220127D01*
X184462445Y-45220127D01*
X184297701Y-45166598D01*
X184297699Y-45166597D01*
X184297698Y-45166597D01*
X184166271Y-45145781D01*
X184126611Y-45139500D01*
X183556872Y-45139500D01*
X183489833Y-45119815D01*
X183444078Y-45067011D01*
X183434134Y-44997853D01*
X183462071Y-44935571D01*
X183575954Y-44800499D01*
X183623960Y-44743560D01*
X183627429Y-44739619D01*
X183682945Y-44679178D01*
X184123084Y-44199986D01*
X196635001Y-44199986D01*
X196645494Y-44302697D01*
X196700641Y-44469119D01*
X196700643Y-44469124D01*
X196792684Y-44618345D01*
X196916654Y-44742315D01*
X197065875Y-44834356D01*
X197065880Y-44834358D01*
X197232302Y-44889505D01*
X197232309Y-44889506D01*
X197335019Y-44899999D01*
X197897500Y-44899999D01*
X197959972Y-44899999D01*
X197959986Y-44899998D01*
X198062697Y-44889505D01*
X198229119Y-44834358D01*
X198229124Y-44834356D01*
X198378345Y-44742315D01*
X198502316Y-44618344D01*
X198517679Y-44593436D01*
X198569626Y-44546709D01*
X198638588Y-44535485D01*
X198702671Y-44563326D01*
X198710901Y-44570848D01*
X198808129Y-44668076D01*
X198808133Y-44668079D01*
X198808135Y-44668081D01*
X198949602Y-44751744D01*
X198991224Y-44763836D01*
X199107426Y-44797597D01*
X199107429Y-44797597D01*
X199107431Y-44797598D01*
X199144306Y-44800500D01*
X199144314Y-44800500D01*
X199800686Y-44800500D01*
X199800694Y-44800500D01*
X199837569Y-44797598D01*
X199837571Y-44797597D01*
X199837573Y-44797597D01*
X199879191Y-44785505D01*
X199995398Y-44751744D01*
X200136865Y-44668081D01*
X200253081Y-44551865D01*
X200336744Y-44410398D01*
X200342697Y-44389906D01*
X200380303Y-44331020D01*
X200443775Y-44301813D01*
X200461774Y-44300500D01*
X201579903Y-44300500D01*
X201646942Y-44320185D01*
X201667583Y-44336818D01*
X203471284Y-46140520D01*
X203471286Y-46140521D01*
X203471290Y-46140524D01*
X203556950Y-46189979D01*
X203608216Y-46219577D01*
X203760943Y-46260501D01*
X203760945Y-46260501D01*
X203926654Y-46260501D01*
X203926670Y-46260500D01*
X206728826Y-46260500D01*
X206795865Y-46280185D01*
X206830400Y-46313376D01*
X206949178Y-46483007D01*
X206965174Y-46499003D01*
X206998659Y-46560326D01*
X206993675Y-46630018D01*
X206951803Y-46685951D01*
X206886339Y-46710368D01*
X206857084Y-46708993D01*
X206800192Y-46699500D01*
X206559808Y-46699500D01*
X206512387Y-46707413D01*
X206322699Y-46739066D01*
X206095347Y-46817116D01*
X206095342Y-46817118D01*
X205883930Y-46931529D01*
X205883924Y-46931533D01*
X205694242Y-47079169D01*
X205694239Y-47079172D01*
X205531430Y-47256029D01*
X205531427Y-47256033D01*
X205399951Y-47457270D01*
X205303389Y-47677410D01*
X205244379Y-47910440D01*
X205224529Y-48149994D01*
X205224529Y-48150005D01*
X205244379Y-48389559D01*
X205303389Y-48622589D01*
X205399951Y-48842729D01*
X205485058Y-48972993D01*
X205531429Y-49043969D01*
X205694236Y-49220825D01*
X205694239Y-49220827D01*
X205694242Y-49220830D01*
X205883924Y-49368466D01*
X205883930Y-49368470D01*
X205883933Y-49368472D01*
X206095344Y-49482882D01*
X206095347Y-49482883D01*
X206322699Y-49560933D01*
X206322701Y-49560933D01*
X206322703Y-49560934D01*
X206559808Y-49600500D01*
X206559809Y-49600500D01*
X206800191Y-49600500D01*
X206800192Y-49600500D01*
X207037297Y-49560934D01*
X207264656Y-49482882D01*
X207476067Y-49368472D01*
X207665764Y-49220825D01*
X207828571Y-49043969D01*
X207960049Y-48842728D01*
X208056610Y-48622591D01*
X208115620Y-48389563D01*
X208134919Y-48156661D01*
X208135471Y-48150005D01*
X208135471Y-48149994D01*
X208115620Y-47910440D01*
X208115620Y-47910437D01*
X208056610Y-47677409D01*
X207960049Y-47457272D01*
X207899611Y-47364766D01*
X207866054Y-47313403D01*
X207828571Y-47256031D01*
X207720346Y-47138467D01*
X207689424Y-47075812D01*
X207697284Y-47006386D01*
X207741432Y-46952231D01*
X207807849Y-46930540D01*
X207822372Y-46930955D01*
X207930000Y-46940372D01*
X207930001Y-46940372D01*
X207967055Y-46937130D01*
X208152334Y-46920920D01*
X208367913Y-46863156D01*
X208570186Y-46768835D01*
X208753007Y-46640822D01*
X208910822Y-46483007D01*
X209038835Y-46300186D01*
X209133156Y-46097913D01*
X209190920Y-45882334D01*
X209210372Y-45660000D01*
X209210372Y-45659999D01*
X211149628Y-45659999D01*
X211149628Y-45660000D01*
X211169079Y-45882329D01*
X211169081Y-45882339D01*
X211226841Y-46097905D01*
X211226843Y-46097909D01*
X211226844Y-46097913D01*
X211321165Y-46300186D01*
X211449178Y-46483007D01*
X211606993Y-46640822D01*
X211789814Y-46768835D01*
X211992087Y-46863156D01*
X212207666Y-46920920D01*
X212385533Y-46936481D01*
X212429999Y-46940372D01*
X212430000Y-46940372D01*
X212430001Y-46940372D01*
X212463357Y-46937453D01*
X212548491Y-46930005D01*
X212616991Y-46943771D01*
X212667174Y-46992386D01*
X212683108Y-47060415D01*
X212659733Y-47126259D01*
X212650529Y-47137515D01*
X212541435Y-47256022D01*
X212541427Y-47256033D01*
X212409951Y-47457270D01*
X212313389Y-47677410D01*
X212254379Y-47910440D01*
X212234529Y-48149994D01*
X212234529Y-48150005D01*
X212254379Y-48389559D01*
X212313389Y-48622589D01*
X212409951Y-48842729D01*
X212495058Y-48972993D01*
X212541429Y-49043969D01*
X212704236Y-49220825D01*
X212704239Y-49220827D01*
X212704242Y-49220830D01*
X212893924Y-49368466D01*
X212893930Y-49368470D01*
X212893933Y-49368472D01*
X213105344Y-49482882D01*
X213105347Y-49482883D01*
X213332699Y-49560933D01*
X213332701Y-49560933D01*
X213332703Y-49560934D01*
X213569808Y-49600500D01*
X213569809Y-49600500D01*
X213810191Y-49600500D01*
X213810192Y-49600500D01*
X214047297Y-49560934D01*
X214274656Y-49482882D01*
X214486067Y-49368472D01*
X214675764Y-49220825D01*
X214838571Y-49043969D01*
X214970049Y-48842728D01*
X215066610Y-48622591D01*
X215125620Y-48389563D01*
X215144919Y-48156661D01*
X215145471Y-48150005D01*
X215145471Y-48149994D01*
X215125620Y-47910440D01*
X215125620Y-47910437D01*
X215066610Y-47677409D01*
X214970049Y-47457272D01*
X214909611Y-47364766D01*
X214876054Y-47313403D01*
X214838571Y-47256031D01*
X214675764Y-47079175D01*
X214675759Y-47079171D01*
X214675757Y-47079169D01*
X214486075Y-46931533D01*
X214486069Y-46931529D01*
X214274657Y-46817118D01*
X214274652Y-46817116D01*
X214047300Y-46739066D01*
X213867080Y-46708993D01*
X213810192Y-46699500D01*
X213569808Y-46699500D01*
X213500912Y-46710996D01*
X213431547Y-46702614D01*
X213377725Y-46658060D01*
X213356534Y-46591481D01*
X213374703Y-46524015D01*
X213392820Y-46501008D01*
X213410822Y-46483007D01*
X213538835Y-46300186D01*
X213633156Y-46097913D01*
X213690920Y-45882334D01*
X213710372Y-45660000D01*
X213690920Y-45437666D01*
X213633156Y-45222087D01*
X213538835Y-45019814D01*
X213410822Y-44836993D01*
X213253007Y-44679178D01*
X213070186Y-44551165D01*
X212867913Y-44456844D01*
X212867909Y-44456843D01*
X212867905Y-44456841D01*
X212652339Y-44399081D01*
X212652329Y-44399079D01*
X212430001Y-44379628D01*
X212429999Y-44379628D01*
X212207670Y-44399079D01*
X212207660Y-44399081D01*
X211992094Y-44456841D01*
X211992087Y-44456843D01*
X211992087Y-44456844D01*
X211789814Y-44551165D01*
X211606993Y-44679178D01*
X211606991Y-44679179D01*
X211606988Y-44679182D01*
X211449182Y-44836988D01*
X211449179Y-44836991D01*
X211449178Y-44836993D01*
X211321165Y-45019814D01*
X211227758Y-45220128D01*
X211226845Y-45222085D01*
X211226841Y-45222094D01*
X211169081Y-45437660D01*
X211169079Y-45437670D01*
X211149628Y-45659999D01*
X209210372Y-45659999D01*
X209190920Y-45437666D01*
X209133156Y-45222087D01*
X209038835Y-45019814D01*
X208910822Y-44836993D01*
X208753007Y-44679178D01*
X208570186Y-44551165D01*
X208367913Y-44456844D01*
X208367909Y-44456843D01*
X208367905Y-44456841D01*
X208152339Y-44399081D01*
X208152329Y-44399079D01*
X207930001Y-44379628D01*
X207929999Y-44379628D01*
X207707670Y-44399079D01*
X207707660Y-44399081D01*
X207492094Y-44456841D01*
X207492087Y-44456843D01*
X207492087Y-44456844D01*
X207289814Y-44551165D01*
X207106993Y-44679178D01*
X207106991Y-44679179D01*
X207106988Y-44679182D01*
X206949178Y-44836992D01*
X206830400Y-45006624D01*
X206775823Y-45050249D01*
X206728826Y-45059500D01*
X204140098Y-45059500D01*
X204073059Y-45039815D01*
X204052417Y-45023181D01*
X202367590Y-43338355D01*
X202367588Y-43338352D01*
X202248717Y-43219481D01*
X202248716Y-43219480D01*
X202161904Y-43169360D01*
X202161904Y-43169359D01*
X202161900Y-43169358D01*
X202111785Y-43140423D01*
X201959057Y-43099499D01*
X201800943Y-43099499D01*
X201793347Y-43099499D01*
X201793331Y-43099500D01*
X200461774Y-43099500D01*
X200394735Y-43079815D01*
X200348980Y-43027011D01*
X200342697Y-43010093D01*
X200336744Y-42989603D01*
X200336744Y-42989602D01*
X200253081Y-42848135D01*
X200253079Y-42848133D01*
X200253076Y-42848129D01*
X200136870Y-42731923D01*
X200136862Y-42731917D01*
X199995396Y-42648255D01*
X199995393Y-42648254D01*
X199837573Y-42602402D01*
X199837567Y-42602401D01*
X199800701Y-42599500D01*
X199800694Y-42599500D01*
X199144306Y-42599500D01*
X199144298Y-42599500D01*
X199107432Y-42602401D01*
X199107426Y-42602402D01*
X198949606Y-42648254D01*
X198949603Y-42648255D01*
X198808137Y-42731917D01*
X198808133Y-42731920D01*
X198710901Y-42829152D01*
X198649578Y-42862636D01*
X198579886Y-42857652D01*
X198523953Y-42815780D01*
X198517680Y-42806565D01*
X198502315Y-42781654D01*
X198378345Y-42657684D01*
X198229124Y-42565643D01*
X198229119Y-42565641D01*
X198062697Y-42510494D01*
X198062690Y-42510493D01*
X197959986Y-42500000D01*
X197897500Y-42500000D01*
X197897500Y-44899999D01*
X197335019Y-44899999D01*
X197397499Y-44899998D01*
X197397500Y-44899998D01*
X197397500Y-43950000D01*
X196635001Y-43950000D01*
X196635001Y-44199986D01*
X184123084Y-44199986D01*
X184252754Y-44058811D01*
X184256372Y-44055035D01*
X184910035Y-43401372D01*
X184913811Y-43397754D01*
X185129097Y-43200013D01*
X196635000Y-43200013D01*
X196635000Y-43450000D01*
X197397500Y-43450000D01*
X197397500Y-42500000D01*
X197397499Y-42499999D01*
X197335028Y-42500000D01*
X197335011Y-42500001D01*
X197232302Y-42510494D01*
X197065880Y-42565641D01*
X197065875Y-42565643D01*
X196916654Y-42657684D01*
X196792684Y-42781654D01*
X196700643Y-42930875D01*
X196700641Y-42930880D01*
X196645494Y-43097302D01*
X196645493Y-43097309D01*
X196635000Y-43200013D01*
X185129097Y-43200013D01*
X185238529Y-43099499D01*
X185594626Y-42772422D01*
X185598571Y-42768951D01*
X185642489Y-42731923D01*
X186305288Y-42173099D01*
X186309359Y-42169811D01*
X187040772Y-41604456D01*
X187044954Y-41601363D01*
X187799692Y-41067565D01*
X187804017Y-41064642D01*
X188580759Y-40563340D01*
X188585174Y-40560622D01*
X189382462Y-40092754D01*
X189387048Y-40090193D01*
X190203441Y-39656603D01*
X190208114Y-39654246D01*
X191042241Y-39255664D01*
X191046956Y-39253533D01*
X191897252Y-38890708D01*
X191902030Y-38888787D01*
X192766989Y-38562366D01*
X192771894Y-38560634D01*
X193649855Y-38271241D01*
X193654804Y-38269725D01*
X194544325Y-38017834D01*
X194549330Y-38016531D01*
X195448717Y-37802626D01*
X195453766Y-37801538D01*
X196361412Y-37625998D01*
X196366521Y-37625121D01*
X197280821Y-37488257D01*
X197285965Y-37487599D01*
X198205179Y-37389671D01*
X198210388Y-37389227D01*
X199132985Y-37330396D01*
X199138155Y-37330176D01*
X200062409Y-37310555D01*
X200067591Y-37310555D01*
X200991841Y-37330176D01*
G37*
G04 #@! TD.AperFunction*
G04 #@! TA.AperFunction,Conductor*
G36*
X203643389Y-50183070D02*
G01*
X203649867Y-50189102D01*
X204323181Y-50862416D01*
X204356666Y-50923739D01*
X204359500Y-50950097D01*
X204359500Y-52780500D01*
X204339815Y-52847539D01*
X204287011Y-52893294D01*
X204235500Y-52904500D01*
X203393198Y-52904500D01*
X203326159Y-52884815D01*
X203280404Y-52832011D01*
X203270460Y-52762853D01*
X203291623Y-52709376D01*
X203361286Y-52609887D01*
X203461115Y-52395801D01*
X203461118Y-52395795D01*
X203518322Y-52182309D01*
X202620698Y-52182309D01*
X202653611Y-52125302D01*
X202687686Y-51998135D01*
X202687686Y-51866483D01*
X202653611Y-51739316D01*
X202620698Y-51682309D01*
X203518322Y-51682309D01*
X203518321Y-51682308D01*
X203461118Y-51468822D01*
X203461115Y-51468816D01*
X203361286Y-51254731D01*
X203361285Y-51254729D01*
X203225799Y-51061235D01*
X203225794Y-51061229D01*
X203058766Y-50894201D01*
X203019300Y-50866566D01*
X202975676Y-50811988D01*
X202968484Y-50742490D01*
X203000007Y-50680135D01*
X203060238Y-50644723D01*
X203071007Y-50642522D01*
X203162990Y-50627955D01*
X203276028Y-50570359D01*
X203365736Y-50480651D01*
X203423332Y-50367613D01*
X203423332Y-50367611D01*
X203423333Y-50367610D01*
X203438186Y-50273831D01*
X203438568Y-50268978D01*
X203440434Y-50269124D01*
X203457871Y-50209744D01*
X203510675Y-50163989D01*
X203579833Y-50154045D01*
X203643389Y-50183070D01*
G37*
G04 #@! TD.AperFunction*
G04 #@! TA.AperFunction,Conductor*
G36*
X197760463Y-53329685D02*
G01*
X197806218Y-53382489D01*
X197816162Y-53451647D01*
X197807985Y-53481452D01*
X197766028Y-53582744D01*
X197766025Y-53582756D01*
X197729500Y-53766379D01*
X197729500Y-53953620D01*
X197766025Y-54137243D01*
X197766027Y-54137251D01*
X197837676Y-54310228D01*
X197837681Y-54310237D01*
X197941697Y-54465907D01*
X197941700Y-54465911D01*
X198074088Y-54598299D01*
X198074092Y-54598302D01*
X198229762Y-54702318D01*
X198229768Y-54702321D01*
X198229769Y-54702322D01*
X198402749Y-54773973D01*
X198586379Y-54810499D01*
X198586383Y-54810500D01*
X198586384Y-54810500D01*
X199373617Y-54810500D01*
X199373618Y-54810499D01*
X199557251Y-54773973D01*
X199730231Y-54702322D01*
X199885908Y-54598302D01*
X200018302Y-54465908D01*
X200122322Y-54310231D01*
X200193973Y-54137251D01*
X200230500Y-53953616D01*
X200230500Y-53766384D01*
X200193973Y-53582749D01*
X200168678Y-53521681D01*
X200152015Y-53481452D01*
X200144546Y-53411983D01*
X200175821Y-53349504D01*
X200235910Y-53313852D01*
X200266576Y-53310000D01*
X201141445Y-53310000D01*
X201208484Y-53329685D01*
X201254239Y-53382489D01*
X201264183Y-53451647D01*
X201235158Y-53515203D01*
X201229126Y-53521681D01*
X201149577Y-53601229D01*
X201149572Y-53601235D01*
X201014086Y-53794729D01*
X201014085Y-53794731D01*
X200914256Y-54008816D01*
X200914253Y-54008822D01*
X200857050Y-54222308D01*
X200857050Y-54222309D01*
X201754674Y-54222309D01*
X201721761Y-54279316D01*
X201687686Y-54406483D01*
X201687686Y-54538135D01*
X201721761Y-54665302D01*
X201754674Y-54722309D01*
X200857050Y-54722309D01*
X200914253Y-54935795D01*
X200914256Y-54935801D01*
X201014085Y-55149887D01*
X201149580Y-55343391D01*
X201316603Y-55510414D01*
X201510107Y-55645909D01*
X201724193Y-55745738D01*
X201724202Y-55745742D01*
X201763269Y-55756210D01*
X201822930Y-55792575D01*
X201853459Y-55855422D01*
X201845165Y-55924797D01*
X201800679Y-55978675D01*
X201775970Y-55991611D01*
X201695059Y-56022956D01*
X201695043Y-56022964D01*
X201521646Y-56130326D01*
X201521644Y-56130328D01*
X201370923Y-56267727D01*
X201248013Y-56430487D01*
X201157108Y-56613048D01*
X201157103Y-56613061D01*
X201101288Y-56809226D01*
X201082471Y-57012308D01*
X201082471Y-57012309D01*
X201101288Y-57215391D01*
X201157103Y-57411556D01*
X201157108Y-57411569D01*
X201248013Y-57594130D01*
X201370923Y-57756890D01*
X201521644Y-57894289D01*
X201521646Y-57894291D01*
X201613367Y-57951082D01*
X201695049Y-58001657D01*
X201885230Y-58075333D01*
X202085710Y-58112809D01*
X202085712Y-58112809D01*
X202289660Y-58112809D01*
X202289662Y-58112809D01*
X202490142Y-58075333D01*
X202680323Y-58001657D01*
X202853727Y-57894290D01*
X203004450Y-57756888D01*
X203127359Y-57594130D01*
X203218268Y-57411559D01*
X203274083Y-57215392D01*
X203292901Y-57012309D01*
X203274083Y-56809226D01*
X203218268Y-56613059D01*
X203127359Y-56430488D01*
X203033640Y-56306384D01*
X203004448Y-56267727D01*
X202853727Y-56130328D01*
X202853725Y-56130326D01*
X202680328Y-56022964D01*
X202680321Y-56022960D01*
X202599401Y-55991612D01*
X202543999Y-55949039D01*
X202520409Y-55883272D01*
X202536120Y-55815192D01*
X202586144Y-55766413D01*
X202612103Y-55756210D01*
X202651167Y-55745743D01*
X202651178Y-55745738D01*
X202865264Y-55645909D01*
X203058768Y-55510414D01*
X203225791Y-55343391D01*
X203361286Y-55149887D01*
X203461115Y-54935801D01*
X203461118Y-54935795D01*
X203518322Y-54722309D01*
X202620698Y-54722309D01*
X202653611Y-54665302D01*
X202687686Y-54538135D01*
X202687686Y-54406483D01*
X202653611Y-54279316D01*
X202620698Y-54222309D01*
X203518322Y-54222309D01*
X203518321Y-54222308D01*
X203461118Y-54008822D01*
X203461115Y-54008816D01*
X203361286Y-53794731D01*
X203361285Y-53794729D01*
X203225799Y-53601235D01*
X203225794Y-53601229D01*
X203146246Y-53521681D01*
X203112761Y-53460358D01*
X203117745Y-53390666D01*
X203159617Y-53334733D01*
X203225081Y-53310316D01*
X203233927Y-53310000D01*
X204385500Y-53310000D01*
X204452539Y-53329685D01*
X204498294Y-53382489D01*
X204509500Y-53434000D01*
X204509500Y-54579311D01*
X204517857Y-54610497D01*
X204517857Y-54610500D01*
X204517858Y-54610500D01*
X204540201Y-54693887D01*
X204599511Y-54796614D01*
X204599513Y-54796616D01*
X205163681Y-55360784D01*
X205197166Y-55422107D01*
X205200000Y-55448465D01*
X205200000Y-65206000D01*
X205180315Y-65273039D01*
X205127511Y-65318794D01*
X205076000Y-65330000D01*
X203582334Y-65330000D01*
X203515295Y-65310315D01*
X203469540Y-65257511D01*
X203459596Y-65188353D01*
X203478364Y-65143041D01*
X203476789Y-65142181D01*
X203481040Y-65134395D01*
X203531282Y-64999688D01*
X203531284Y-64999681D01*
X203537685Y-64940153D01*
X203537686Y-64940136D01*
X203537686Y-64292309D01*
X202620698Y-64292309D01*
X202653611Y-64235302D01*
X202687686Y-64108135D01*
X202687686Y-63976483D01*
X202653611Y-63849316D01*
X202620698Y-63792309D01*
X203537686Y-63792309D01*
X203537686Y-63144481D01*
X203537685Y-63144464D01*
X203531284Y-63084936D01*
X203531282Y-63084929D01*
X203481040Y-62950222D01*
X203481036Y-62950215D01*
X203394876Y-62835121D01*
X203394873Y-62835118D01*
X203279779Y-62748958D01*
X203279772Y-62748954D01*
X203145065Y-62698712D01*
X203145058Y-62698710D01*
X203085530Y-62692309D01*
X202437686Y-62692309D01*
X202437686Y-63609297D01*
X202380679Y-63576384D01*
X202253512Y-63542309D01*
X202121860Y-63542309D01*
X201994693Y-63576384D01*
X201937686Y-63609297D01*
X201937686Y-62692309D01*
X201289841Y-62692309D01*
X201230313Y-62698710D01*
X201230306Y-62698712D01*
X201095599Y-62748954D01*
X201095592Y-62748958D01*
X200980498Y-62835118D01*
X200980495Y-62835121D01*
X200894335Y-62950215D01*
X200894331Y-62950222D01*
X200844089Y-63084929D01*
X200844087Y-63084936D01*
X200837686Y-63144464D01*
X200837686Y-63792309D01*
X201754674Y-63792309D01*
X201721761Y-63849316D01*
X201687686Y-63976483D01*
X201687686Y-64108135D01*
X201721761Y-64235302D01*
X201754674Y-64292309D01*
X200837686Y-64292309D01*
X200837686Y-64940153D01*
X200844087Y-64999681D01*
X200844089Y-64999688D01*
X200894331Y-65134395D01*
X200898583Y-65142181D01*
X200896618Y-65143253D01*
X200916722Y-65197155D01*
X200901870Y-65265428D01*
X200852464Y-65314833D01*
X200793038Y-65330000D01*
X194874000Y-65330000D01*
X194806961Y-65310315D01*
X194761206Y-65257511D01*
X194750000Y-65206000D01*
X194750000Y-63926379D01*
X197729500Y-63926379D01*
X197729500Y-64113620D01*
X197766025Y-64297243D01*
X197766027Y-64297251D01*
X197837676Y-64470228D01*
X197837681Y-64470237D01*
X197941697Y-64625907D01*
X197941700Y-64625911D01*
X198074088Y-64758299D01*
X198074092Y-64758302D01*
X198229762Y-64862318D01*
X198229768Y-64862321D01*
X198229769Y-64862322D01*
X198402749Y-64933973D01*
X198586379Y-64970499D01*
X198586383Y-64970500D01*
X198586384Y-64970500D01*
X199373617Y-64970500D01*
X199373618Y-64970499D01*
X199557251Y-64933973D01*
X199730231Y-64862322D01*
X199885908Y-64758302D01*
X200018302Y-64625908D01*
X200122322Y-64470231D01*
X200193973Y-64297251D01*
X200230500Y-64113616D01*
X200230500Y-63926384D01*
X200193973Y-63742749D01*
X200122322Y-63569769D01*
X200122321Y-63569768D01*
X200122318Y-63569762D01*
X200018302Y-63414092D01*
X200018299Y-63414088D01*
X199885911Y-63281700D01*
X199885907Y-63281697D01*
X199730237Y-63177681D01*
X199730228Y-63177676D01*
X199557251Y-63106027D01*
X199557243Y-63106025D01*
X199373620Y-63069500D01*
X199373616Y-63069500D01*
X198586384Y-63069500D01*
X198586379Y-63069500D01*
X198402756Y-63106025D01*
X198402748Y-63106027D01*
X198229771Y-63177676D01*
X198229762Y-63177681D01*
X198074092Y-63281697D01*
X198074088Y-63281700D01*
X197941700Y-63414088D01*
X197941697Y-63414092D01*
X197837681Y-63569762D01*
X197837676Y-63569771D01*
X197766027Y-63742748D01*
X197766025Y-63742756D01*
X197729500Y-63926379D01*
X194750000Y-63926379D01*
X194750000Y-61386379D01*
X197729500Y-61386379D01*
X197729500Y-61573620D01*
X197766025Y-61757243D01*
X197766027Y-61757251D01*
X197837676Y-61930228D01*
X197837681Y-61930237D01*
X197941697Y-62085907D01*
X197941700Y-62085911D01*
X198074088Y-62218299D01*
X198074092Y-62218302D01*
X198229762Y-62322318D01*
X198229768Y-62322321D01*
X198229769Y-62322322D01*
X198402749Y-62393973D01*
X198586379Y-62430499D01*
X198586383Y-62430500D01*
X198586384Y-62430500D01*
X199373617Y-62430500D01*
X199373618Y-62430499D01*
X199557251Y-62393973D01*
X199730231Y-62322322D01*
X199885908Y-62218302D01*
X200018302Y-62085908D01*
X200122322Y-61930231D01*
X200193973Y-61757251D01*
X200230500Y-61573616D01*
X200230500Y-61386384D01*
X200193973Y-61202749D01*
X200122322Y-61029769D01*
X200122321Y-61029768D01*
X200122318Y-61029762D01*
X200018302Y-60874092D01*
X200018299Y-60874088D01*
X199885911Y-60741700D01*
X199885907Y-60741697D01*
X199730237Y-60637681D01*
X199730228Y-60637676D01*
X199557251Y-60566027D01*
X199557243Y-60566025D01*
X199373620Y-60529500D01*
X199373616Y-60529500D01*
X198586384Y-60529500D01*
X198586379Y-60529500D01*
X198402756Y-60566025D01*
X198402748Y-60566027D01*
X198229771Y-60637676D01*
X198229762Y-60637681D01*
X198074092Y-60741697D01*
X198074088Y-60741700D01*
X197941700Y-60874088D01*
X197941697Y-60874092D01*
X197837681Y-61029762D01*
X197837676Y-61029771D01*
X197766027Y-61202748D01*
X197766025Y-61202756D01*
X197729500Y-61386379D01*
X194750000Y-61386379D01*
X194750000Y-58846379D01*
X197729500Y-58846379D01*
X197729500Y-59033620D01*
X197766025Y-59217243D01*
X197766027Y-59217251D01*
X197837676Y-59390228D01*
X197837681Y-59390237D01*
X197941697Y-59545907D01*
X197941700Y-59545911D01*
X198074088Y-59678299D01*
X198074092Y-59678302D01*
X198229762Y-59782318D01*
X198229768Y-59782321D01*
X198229769Y-59782322D01*
X198402749Y-59853973D01*
X198586379Y-59890499D01*
X198586383Y-59890500D01*
X198586384Y-59890500D01*
X199373617Y-59890500D01*
X199373618Y-59890499D01*
X199557251Y-59853973D01*
X199730231Y-59782322D01*
X199885908Y-59678302D01*
X200018302Y-59545908D01*
X200122322Y-59390231D01*
X200193973Y-59217251D01*
X200230500Y-59033616D01*
X200230500Y-58846384D01*
X200193973Y-58662749D01*
X200122322Y-58489769D01*
X200122321Y-58489768D01*
X200122318Y-58489762D01*
X200018302Y-58334092D01*
X200018299Y-58334088D01*
X199885911Y-58201700D01*
X199885907Y-58201697D01*
X199730237Y-58097681D01*
X199730228Y-58097676D01*
X199557251Y-58026027D01*
X199557243Y-58026025D01*
X199373620Y-57989500D01*
X199373616Y-57989500D01*
X198586384Y-57989500D01*
X198586379Y-57989500D01*
X198402756Y-58026025D01*
X198402748Y-58026027D01*
X198229771Y-58097676D01*
X198229762Y-58097681D01*
X198074092Y-58201697D01*
X198074088Y-58201700D01*
X197941700Y-58334088D01*
X197941697Y-58334092D01*
X197837681Y-58489762D01*
X197837676Y-58489771D01*
X197766027Y-58662748D01*
X197766025Y-58662756D01*
X197729500Y-58846379D01*
X194750000Y-58846379D01*
X194750000Y-58088555D01*
X194769685Y-58021516D01*
X194822489Y-57975761D01*
X194891647Y-57965817D01*
X194955203Y-57994842D01*
X194961681Y-58000874D01*
X195078912Y-58118105D01*
X195272416Y-58253600D01*
X195486502Y-58353429D01*
X195486511Y-58353433D01*
X195699995Y-58410634D01*
X195699995Y-57513012D01*
X195757002Y-57545925D01*
X195884169Y-57580000D01*
X196015821Y-57580000D01*
X196142988Y-57545925D01*
X196199995Y-57513012D01*
X196199995Y-58410633D01*
X196413478Y-58353433D01*
X196413487Y-58353429D01*
X196627573Y-58253600D01*
X196821077Y-58118105D01*
X196988100Y-57951082D01*
X197123595Y-57757578D01*
X197223424Y-57543492D01*
X197223427Y-57543486D01*
X197280631Y-57330000D01*
X196383007Y-57330000D01*
X196415920Y-57272993D01*
X196449995Y-57145826D01*
X196449995Y-57014174D01*
X196415920Y-56887007D01*
X196383007Y-56830000D01*
X197280631Y-56830000D01*
X197280630Y-56829999D01*
X197223427Y-56616513D01*
X197223424Y-56616507D01*
X197123595Y-56402422D01*
X197123594Y-56402420D01*
X197056345Y-56306379D01*
X197729500Y-56306379D01*
X197729500Y-56493620D01*
X197766025Y-56677243D01*
X197766027Y-56677251D01*
X197837676Y-56850228D01*
X197837681Y-56850237D01*
X197941697Y-57005907D01*
X197941700Y-57005911D01*
X198074088Y-57138299D01*
X198074092Y-57138302D01*
X198229762Y-57242318D01*
X198229768Y-57242321D01*
X198229769Y-57242322D01*
X198402749Y-57313973D01*
X198586379Y-57350499D01*
X198586383Y-57350500D01*
X198586384Y-57350500D01*
X199373617Y-57350500D01*
X199373618Y-57350499D01*
X199557251Y-57313973D01*
X199730231Y-57242322D01*
X199885908Y-57138302D01*
X200018302Y-57005908D01*
X200122322Y-56850231D01*
X200193973Y-56677251D01*
X200230500Y-56493616D01*
X200230500Y-56306384D01*
X200193973Y-56122749D01*
X200122322Y-55949769D01*
X200122321Y-55949768D01*
X200122318Y-55949762D01*
X200018302Y-55794092D01*
X200018299Y-55794088D01*
X199885911Y-55661700D01*
X199885907Y-55661697D01*
X199730237Y-55557681D01*
X199730228Y-55557676D01*
X199557251Y-55486027D01*
X199557243Y-55486025D01*
X199373620Y-55449500D01*
X199373616Y-55449500D01*
X198586384Y-55449500D01*
X198586379Y-55449500D01*
X198402756Y-55486025D01*
X198402748Y-55486027D01*
X198229771Y-55557676D01*
X198229762Y-55557681D01*
X198074092Y-55661697D01*
X198074088Y-55661700D01*
X197941700Y-55794088D01*
X197941697Y-55794092D01*
X197837681Y-55949762D01*
X197837676Y-55949771D01*
X197766027Y-56122748D01*
X197766025Y-56122756D01*
X197729500Y-56306379D01*
X197056345Y-56306379D01*
X196988108Y-56208926D01*
X196988103Y-56208920D01*
X196821077Y-56041894D01*
X196627573Y-55906399D01*
X196413487Y-55806570D01*
X196413481Y-55806567D01*
X196199995Y-55749364D01*
X196199995Y-56646988D01*
X196142988Y-56614075D01*
X196015821Y-56580000D01*
X195884169Y-56580000D01*
X195757002Y-56614075D01*
X195699995Y-56646988D01*
X195699995Y-55749364D01*
X195699994Y-55749364D01*
X195486508Y-55806567D01*
X195486502Y-55806570D01*
X195272417Y-55906399D01*
X195272415Y-55906400D01*
X195078921Y-56041886D01*
X195078915Y-56041891D01*
X194961681Y-56159126D01*
X194900358Y-56192611D01*
X194830666Y-56187627D01*
X194774733Y-56145755D01*
X194750316Y-56080291D01*
X194750000Y-56071445D01*
X194750000Y-53511362D01*
X194769685Y-53444323D01*
X194786319Y-53423681D01*
X194863681Y-53346319D01*
X194925004Y-53312834D01*
X194951362Y-53310000D01*
X197693424Y-53310000D01*
X197760463Y-53329685D01*
G37*
G04 #@! TD.AperFunction*
M02*
