M48
; DRILL file {KiCad 8.0.6} date 2024-11-23T11:55:00+0100
; FORMAT={-:-/ absolute / metric / decimal}
; #@! TF.CreationDate,2024-11-23T11:55:00+01:00
; #@! TF.GenerationSoftware,Kicad,Pcbnew,8.0.6
; #@! TF.FileFunction,Plated,1,2,PTH
FMAT,2
METRIC
; #@! TA.AperFunction,Plated,PTH,ComponentDrill
T1C0.990
; #@! TA.AperFunction,Plated,PTH,ComponentDrill
T2C1.000
; #@! TA.AperFunction,Plated,PTH,ComponentDrill
T3C1.300
%
G90
G05
T1
X207.93Y-45.66
X212.43Y-45.66
T2
X183.74Y-46.24
X183.74Y-48.78
X183.74Y-51.32
X183.74Y-53.86
X183.74Y-56.4
X183.74Y-58.94
X183.74Y-61.48
X183.74Y-64.02
X183.74Y-66.56
X190.87Y-57.08
X193.41Y-57.08
X195.95Y-57.08
X198.98Y-46.24
X198.98Y-48.78
X198.98Y-51.32
X198.98Y-53.86
X198.98Y-56.4
X198.98Y-58.94
X198.98Y-61.48
X198.98Y-64.02
X198.98Y-66.56
X202.188Y-49.392
X202.188Y-51.932
X202.188Y-54.472
X202.188Y-57.012
X202.188Y-64.042
X202.188Y-66.582
X206.965Y-57.08
X209.505Y-57.08
T3
X206.68Y-48.15
X213.69Y-48.15
M30
