M48
; DRILL file {KiCad 8.0.6} date 2024-11-23T10:48:38+0100
; FORMAT={-:-/ absolute / metric / decimal}
; #@! TF.CreationDate,2024-11-23T10:48:38+01:00
; #@! TF.GenerationSoftware,Kicad,Pcbnew,8.0.6
; #@! TF.FileFunction,Plated,1,2,PTH
FMAT,2
METRIC
; #@! TA.AperFunction,Plated,PTH,ViaDrill
T1C0.300
; #@! TA.AperFunction,Plated,PTH,ComponentDrill
T2C1.000
%
G90
G05
T1
X60.16Y-136.27
X66.34Y-136.13
X69.58Y-138.3
X72.51Y-99.2
X73.6Y-126.16
X77.73Y-110.31
X81.93Y-140.97
X83.7Y-99.73
X84.65Y-126.73
X85.58Y-113.87
X86.27Y-136.92
X86.33Y-78.67
X86.74Y-64.24
X88.81Y-54.74
X89.14Y-68.39
X91.61Y-122.79
X92.82Y-88.2
X96.69Y-114.46
X97.32Y-79.21
X105.76Y-90.48
X107.38Y-71.13
X108.3Y-55.44
X108.49Y-128.36
X110.29Y-45.96
X110.54Y-120.2
X112.06Y-62.84
X114.07Y-78.43
X114.96Y-138.88
X116.98Y-73.14
X120.13Y-99.23
X120.24Y-119.14
X121.23Y-111.37
X124.57Y-141.0
X128.72Y-129.11
X130.45Y-137.55
X131.71Y-99.75
X137.95Y-142.48
X140.41Y-129.57
T2
X90.11Y-166.78
X92.65Y-166.78
X95.19Y-166.78
X97.73Y-166.78
X104.76Y-166.78
X107.3Y-166.78
M30
