G04 #@! TF.GenerationSoftware,KiCad,Pcbnew,8.0.6*
G04 #@! TF.CreationDate,2024-11-23T10:48:36+01:00*
G04 #@! TF.ProjectId,ChristmasTree,43687269-7374-46d6-9173-547265652e6b,rev?*
G04 #@! TF.SameCoordinates,Original*
G04 #@! TF.FileFunction,Profile,NP*
%FSLAX46Y46*%
G04 Gerber Fmt 4.6, Leading zero omitted, Abs format (unit mm)*
G04 Created by KiCad (PCBNEW 8.0.6) date 2024-11-23 10:48:36*
%MOMM*%
%LPD*%
G01*
G04 APERTURE LIST*
%ADD10C,0.100000*%
G04 #@! TA.AperFunction,Profile*
%ADD11C,0.100000*%
G04 #@! TD*
G04 APERTURE END LIST*
D10*
X144738171Y-126931397D02*
X144841427Y-126913800D01*
X144903879Y-126903139D01*
X156944125Y-150070000D02*
X157635662Y-150172722D01*
X158251143Y-150228573D01*
X158792624Y-150239092D01*
X159262163Y-150205818D01*
X159661818Y-150130293D01*
X159993645Y-150014055D01*
X160259702Y-149858645D01*
X160462047Y-149665604D01*
X160602736Y-149436471D01*
X160683827Y-149172786D01*
X160707378Y-148876090D01*
X160675445Y-148547922D01*
X160590086Y-148189823D01*
X160453359Y-147803332D01*
X160267320Y-147389990D01*
X160034028Y-146951337D01*
X159755538Y-146488913D01*
X159433909Y-146004257D01*
X159071199Y-145498911D01*
X158669464Y-144974413D01*
X158230761Y-144432305D01*
X157757149Y-143874126D01*
X157250683Y-143301416D01*
X156713423Y-142715716D01*
X156147425Y-142118565D01*
X155554746Y-141511503D01*
X154937444Y-140896072D01*
X154297575Y-140273809D01*
X153637199Y-139646257D01*
X152958371Y-139014954D01*
X152263149Y-138381441D01*
X151553591Y-137747259D01*
X115563423Y-47916171D02*
X115397455Y-47700382D01*
X115232926Y-47484302D01*
X115069826Y-47267950D01*
X114908147Y-47051345D01*
X114747878Y-46834504D01*
X114589012Y-46617447D01*
X114431538Y-46400193D01*
X114275449Y-46182760D01*
X114120734Y-45965166D01*
X113967385Y-45747432D01*
X113815392Y-45529574D01*
X113664747Y-45311613D01*
X113515440Y-45093566D01*
X113367463Y-44875452D01*
X113220806Y-44657291D01*
X113075460Y-44439100D01*
X112931415Y-44220898D01*
X112788664Y-44002705D01*
X112647197Y-43784539D01*
X112507004Y-43566418D01*
X112368077Y-43348362D01*
X112230407Y-43130388D01*
X112093984Y-42912517D01*
X111958799Y-42694765D01*
X111824844Y-42477153D01*
X111692108Y-42259698D01*
X111560584Y-42042420D01*
X111430262Y-41825337D01*
X111301133Y-41608468D01*
X111173187Y-41391831D01*
X111046417Y-41175446D01*
X110920812Y-40959331D01*
X136909900Y-105588359D02*
X137908352Y-105462858D01*
X138762907Y-105304704D01*
X139479982Y-105113918D01*
X140065994Y-104890525D01*
X140527361Y-104634546D01*
X140870501Y-104346006D01*
X141101830Y-104024927D01*
X141227767Y-103671332D01*
X141254730Y-103285244D01*
X141189135Y-102866687D01*
X141037401Y-102415684D01*
X140805945Y-101932257D01*
X140501184Y-101416430D01*
X140129537Y-100868226D01*
X139697421Y-100287668D01*
X139211253Y-99674780D01*
X138677451Y-99029583D01*
X138102432Y-98352101D01*
X137492615Y-97642358D01*
X136854416Y-96900376D01*
X136194254Y-96126179D01*
X135518546Y-95319790D01*
X134833709Y-94481231D01*
X134146161Y-93610526D01*
X133462320Y-92707698D01*
X132788604Y-91772770D01*
X132131429Y-90805765D01*
X131497214Y-89806706D01*
X130892376Y-88775617D01*
X130323332Y-87712520D01*
X129796501Y-86617438D01*
X129318300Y-85490396D01*
D11*
X100866658Y-167158358D02*
X100866658Y-171049580D01*
D10*
X129318300Y-85490396D02*
X129292472Y-85382234D01*
X129309468Y-85272292D01*
X129371925Y-85186607D01*
X129474286Y-85132275D01*
X129568754Y-85116594D01*
X88773363Y-167154918D02*
X87228329Y-167638274D01*
X85710930Y-168181844D01*
X84222569Y-168784222D01*
X82764652Y-169444003D01*
X81338581Y-170159782D01*
X79945762Y-170930154D01*
X78587599Y-171753715D01*
X77265497Y-172629059D01*
X75980859Y-173554781D01*
X74735090Y-174529477D01*
X73529594Y-175551742D01*
X72365776Y-176620170D01*
X71245040Y-177733357D01*
X70168791Y-178889897D01*
X69138432Y-180088386D01*
X68155368Y-181327419D01*
X67221004Y-182605590D01*
X66336743Y-183921496D01*
X65503991Y-185273730D01*
X64724151Y-186660888D01*
X63998628Y-188081565D01*
X63328827Y-189534357D01*
X62716151Y-191017857D01*
X62162004Y-192530661D01*
X61667792Y-194071365D01*
X61234919Y-195638563D01*
X60864788Y-197230850D01*
X60558805Y-198846822D01*
X60318374Y-200485073D01*
X60144898Y-202144198D01*
X60039783Y-203822793D01*
X60004433Y-205519453D01*
X84370702Y-47916171D02*
X84299157Y-48008374D01*
X84226742Y-48101103D01*
X84153474Y-48194349D01*
X84079371Y-48288100D01*
X84004450Y-48382344D01*
X83928732Y-48477072D01*
X83852232Y-48572271D01*
X83774970Y-48667932D01*
X83696964Y-48764043D01*
X83618231Y-48860592D01*
X83538790Y-48957570D01*
X83458659Y-49054966D01*
X83377856Y-49152767D01*
X83296399Y-49250964D01*
X83214307Y-49349545D01*
X83131597Y-49448499D01*
X83048287Y-49547816D01*
X82964395Y-49647484D01*
X82879940Y-49747493D01*
X82794940Y-49847831D01*
X82709413Y-49948487D01*
X82623377Y-50049452D01*
X82536850Y-50150712D01*
X82449850Y-50252259D01*
X82362395Y-50354080D01*
X82274504Y-50456165D01*
X82186194Y-50558502D01*
X82097483Y-50661082D01*
X82008391Y-50763892D01*
X81918934Y-50866922D01*
X81829131Y-50970161D01*
X81739000Y-51073598D01*
X77904425Y-63448886D02*
X77481629Y-64665218D01*
X76997284Y-65846941D01*
X76458632Y-66994030D01*
X75872914Y-68106458D01*
X75247371Y-69184198D01*
X74589247Y-70227224D01*
X73905782Y-71235508D01*
X73204218Y-72209025D01*
X72491797Y-73147749D01*
X71775762Y-74051651D01*
X71063353Y-74920707D01*
X70361812Y-75754889D01*
X69678382Y-76554171D01*
X69020304Y-77318527D01*
X68394820Y-78047929D01*
X67809171Y-78742352D01*
X67270600Y-79401769D01*
X66786348Y-80026152D01*
X66363657Y-80615477D01*
X66009769Y-81169716D01*
X65731926Y-81688842D01*
X65537369Y-82172830D01*
X65433340Y-82621652D01*
X65427081Y-83035282D01*
X65525834Y-83413694D01*
X65736841Y-83756861D01*
X66067343Y-84064757D01*
X66524582Y-84337354D01*
X67115800Y-84574627D01*
X67848239Y-84776549D01*
X68729141Y-84943093D01*
X69765747Y-85074234D01*
X100348181Y-21101636D02*
X100242798Y-21073692D01*
X100135157Y-21057363D01*
X100032788Y-21049886D01*
X99966970Y-21048587D01*
X122029858Y-63448886D02*
X122013137Y-63341216D01*
X122038521Y-63237881D01*
X122119339Y-63157075D01*
X122228612Y-63126250D01*
X122304760Y-63127973D01*
X70368996Y-85116594D02*
X70478698Y-85137809D01*
X70574534Y-85197048D01*
X70630275Y-85286651D01*
X70640180Y-85399499D01*
X70616010Y-85490396D01*
X111421721Y-151523487D02*
X111564871Y-151487848D01*
X111709867Y-151452372D01*
X111856748Y-151417058D01*
X112005548Y-151381907D01*
X112156307Y-151346919D01*
X112309061Y-151312095D01*
X112463848Y-151277435D01*
X112620704Y-151242939D01*
X112779668Y-151208609D01*
X112940776Y-151174445D01*
X113104066Y-151140447D01*
X113269575Y-151106616D01*
X113437340Y-151072952D01*
X113607399Y-151039456D01*
X113779789Y-151006128D01*
X113954547Y-150972969D01*
D11*
X88787492Y-167154918D02*
X88773363Y-167154918D01*
D10*
X55231435Y-127322768D02*
X55118013Y-127632917D01*
X54999267Y-127946690D01*
X54875079Y-128263826D01*
X54745333Y-128584063D01*
X54609913Y-128907138D01*
X54468703Y-129232792D01*
X54321586Y-129560761D01*
X54168447Y-129890784D01*
X54009168Y-130222600D01*
X53843634Y-130555946D01*
X53671729Y-130890562D01*
X53493335Y-131226185D01*
X53308338Y-131562554D01*
X53116620Y-131899407D01*
X52918065Y-132236483D01*
X52712558Y-132573520D01*
X52499981Y-132910255D01*
X52280219Y-133246428D01*
X52053156Y-133581777D01*
X51818674Y-133916041D01*
X51576658Y-134248956D01*
X51326992Y-134580263D01*
X51069558Y-134909699D01*
X50804242Y-135237002D01*
X50530927Y-135561911D01*
X50249496Y-135884164D01*
X49959833Y-136203500D01*
X49661822Y-136519657D01*
X49355347Y-136832373D01*
X49040292Y-137141386D01*
X48716539Y-137446435D01*
X48383974Y-137747259D01*
X64470647Y-105634185D02*
X64580276Y-105644243D01*
X64676059Y-105692503D01*
X64736129Y-105787417D01*
X64739011Y-105897549D01*
X64717503Y-105969041D01*
X129568754Y-85116594D02*
X129676980Y-85111825D01*
X129787267Y-85105569D01*
X129899491Y-85097846D01*
X130013530Y-85088677D01*
X130129261Y-85078080D01*
X130168193Y-85074234D01*
X48383974Y-137747259D02*
X47674103Y-138381441D01*
X46978588Y-139014954D01*
X46299486Y-139646257D01*
X45638853Y-140273809D01*
X44998747Y-140896072D01*
X44381223Y-141511503D01*
X43788340Y-142118565D01*
X43222152Y-142715716D01*
X42684718Y-143301416D01*
X42178093Y-143874126D01*
X41704335Y-144432305D01*
X41265500Y-144974413D01*
X40863645Y-145498911D01*
X40500827Y-146004257D01*
X40179102Y-146488913D01*
X39900527Y-146951337D01*
X39667158Y-147389990D01*
X39481053Y-147803332D01*
X39344268Y-148189823D01*
X39258860Y-148547922D01*
X39226886Y-148876090D01*
X39250402Y-149172786D01*
X39331464Y-149436471D01*
X39472131Y-149665604D01*
X39674458Y-149858645D01*
X39940501Y-150014055D01*
X40272319Y-150130293D01*
X40671967Y-150205818D01*
X41141503Y-150239092D01*
X41682982Y-150228573D01*
X42298462Y-150172722D01*
X42990000Y-150070000D01*
X111146475Y-151996164D02*
X111153751Y-151878381D01*
X111177795Y-151767392D01*
X111221932Y-151669194D01*
X111289483Y-151589782D01*
X111383774Y-151535153D01*
X111421721Y-151523487D01*
D11*
X99046274Y-167154918D02*
X99046274Y-95950394D01*
D10*
X64717503Y-105969041D02*
X64205596Y-107148945D01*
X63635123Y-108289854D01*
X63013290Y-109392277D01*
X62347302Y-110456721D01*
X61644365Y-111483694D01*
X60911687Y-112473703D01*
X60156473Y-113427257D01*
X59385930Y-114344862D01*
X58607263Y-115227028D01*
X57827679Y-116074260D01*
X57054385Y-116887069D01*
X56294586Y-117665960D01*
X55555488Y-118411442D01*
X54844299Y-119124022D01*
X54168224Y-119804208D01*
X53534469Y-120452509D01*
X52950240Y-121069431D01*
X52422745Y-121655483D01*
X51959188Y-122211172D01*
X51566777Y-122737006D01*
X51252717Y-123233493D01*
X51024216Y-123701140D01*
X50888478Y-124140455D01*
X50852710Y-124551946D01*
X50924119Y-124936121D01*
X51109911Y-125293487D01*
X51417291Y-125624553D01*
X51853467Y-125929825D01*
X52425644Y-126209812D01*
X53141028Y-126465021D01*
X54006827Y-126695961D01*
X55030246Y-126903139D01*
X55196113Y-126931397D02*
X55267092Y-127007313D01*
X55276969Y-127112627D01*
X55263529Y-127211833D01*
X55231435Y-127322768D01*
X134475578Y-149769937D02*
X135399117Y-149183149D01*
X136292850Y-148664952D01*
X137158328Y-148212331D01*
X137997104Y-147822274D01*
X138810730Y-147491768D01*
X139600759Y-147217800D01*
X140368742Y-146997359D01*
X141116233Y-146827430D01*
X141844782Y-146705002D01*
X142555944Y-146627061D01*
X143251269Y-146590595D01*
X143932311Y-146592591D01*
X144600621Y-146630037D01*
X145257752Y-146699920D01*
X145905257Y-146799227D01*
X146544687Y-146924945D01*
X147177594Y-147074061D01*
X147805532Y-147243564D01*
X148430053Y-147430440D01*
X149052708Y-147631676D01*
X149675050Y-147844260D01*
X150298632Y-148065179D01*
X150925005Y-148291420D01*
X151555723Y-148519971D01*
X152192336Y-148747819D01*
X152836399Y-148971951D01*
X153489462Y-149189355D01*
X154153079Y-149397017D01*
X154828801Y-149591925D01*
X155518181Y-149771067D01*
X156222772Y-149931429D01*
X156944125Y-150070000D01*
X89013313Y-40959331D02*
X88887734Y-41175446D01*
X88761007Y-41391831D01*
X88633120Y-41608468D01*
X88504063Y-41825337D01*
X88373824Y-42042420D01*
X88242393Y-42259698D01*
X88109758Y-42477153D01*
X87975909Y-42694765D01*
X87840835Y-42912517D01*
X87704524Y-43130388D01*
X87566966Y-43348362D01*
X87428150Y-43566418D01*
X87288064Y-43784539D01*
X87146699Y-44002705D01*
X87004042Y-44220898D01*
X86860083Y-44439100D01*
X86714811Y-44657291D01*
X86568215Y-44875452D01*
X86420284Y-45093566D01*
X86271007Y-45311613D01*
X86120373Y-45529574D01*
X85968371Y-45747432D01*
X85814990Y-45965166D01*
X85660219Y-46182760D01*
X85504048Y-46400193D01*
X85346464Y-46617447D01*
X85187458Y-46834504D01*
X85027018Y-47051345D01*
X84865133Y-47267950D01*
X84701793Y-47484302D01*
X84536986Y-47700382D01*
X84370702Y-47916171D01*
X144702690Y-127322768D02*
X144670571Y-127211835D01*
X144657103Y-127112633D01*
X144666983Y-127007324D01*
X144738171Y-126931397D01*
X99966970Y-21048587D02*
X99862335Y-21051908D01*
X99762013Y-21061865D01*
X99657986Y-21080983D01*
X99586129Y-21101636D01*
X144903879Y-126903139D02*
X145927283Y-126695961D01*
X146793067Y-126465021D01*
X147508439Y-126209812D01*
X148080604Y-125929825D01*
X148516769Y-125624553D01*
X148824139Y-125293487D01*
X149009921Y-124936121D01*
X149081321Y-124551946D01*
X149045545Y-124140455D01*
X148909801Y-123701140D01*
X148681293Y-123233493D01*
X148367228Y-122737006D01*
X147974813Y-122211172D01*
X147511253Y-121655483D01*
X146983756Y-121069431D01*
X146399526Y-120452509D01*
X145765771Y-119804208D01*
X145089697Y-119124022D01*
X144378509Y-118411442D01*
X143639415Y-117665960D01*
X142879620Y-116887069D01*
X142106331Y-116074260D01*
X141326753Y-115227028D01*
X140548094Y-114344862D01*
X139777559Y-113427257D01*
X139022355Y-112473703D01*
X138289687Y-111483694D01*
X137586763Y-110456721D01*
X136920788Y-109392277D01*
X136298968Y-108289854D01*
X135728511Y-107148945D01*
X135216622Y-105969041D01*
X70616010Y-85490396D02*
X70137774Y-86617438D01*
X69610912Y-87712520D01*
X69041839Y-88775617D01*
X68436973Y-89806706D01*
X67802733Y-90805765D01*
X67145535Y-91772770D01*
X66471797Y-92707698D01*
X65787937Y-93610526D01*
X65100372Y-94481231D01*
X64415519Y-95319790D01*
X63739797Y-96126179D01*
X63079623Y-96900376D01*
X62441414Y-97642358D01*
X61831588Y-98352101D01*
X61256563Y-99029583D01*
X60722756Y-99674780D01*
X60236584Y-100287668D01*
X59804466Y-100868226D01*
X59432818Y-101416430D01*
X59128059Y-101932257D01*
X58896605Y-102415684D01*
X58744875Y-102866687D01*
X58679286Y-103285244D01*
X58706256Y-103671332D01*
X58832201Y-104024927D01*
X59063540Y-104346006D01*
X59406690Y-104634546D01*
X59868070Y-104890525D01*
X60454095Y-105113918D01*
X61171184Y-105304704D01*
X62025755Y-105462858D01*
X63024225Y-105588359D01*
X113954547Y-150972969D02*
X114683607Y-150855966D01*
X115384042Y-150784058D01*
X116058146Y-150753249D01*
X116708215Y-150759540D01*
X117336548Y-150798935D01*
X117945439Y-150867437D01*
X118537185Y-150961048D01*
X119114082Y-151075771D01*
X119678428Y-151207609D01*
X120232517Y-151352564D01*
X120778647Y-151506640D01*
X121319114Y-151665838D01*
X121856214Y-151826163D01*
X122392244Y-151983616D01*
X122929500Y-152134201D01*
X123470278Y-152273920D01*
X124016874Y-152398776D01*
X124571585Y-152504771D01*
X125136708Y-152587909D01*
X125714539Y-152644193D01*
X126307373Y-152669624D01*
X126917508Y-152660207D01*
X127547240Y-152611943D01*
X128198865Y-152520835D01*
X128874679Y-152382886D01*
X129576979Y-152194100D01*
X130308061Y-151950478D01*
X131070222Y-151648024D01*
X131865758Y-151282740D01*
X132696965Y-150850628D01*
X133566139Y-150347693D01*
X134475578Y-149769937D01*
X139905059Y-205519453D02*
X139896199Y-204669598D01*
X139869735Y-203824055D01*
X139825843Y-202982998D01*
X139764696Y-202146604D01*
X139686469Y-201315050D01*
X139591337Y-200488511D01*
X139479474Y-199667164D01*
X139351054Y-198851186D01*
X139206252Y-198040752D01*
X139045242Y-197236040D01*
X138868200Y-196437224D01*
X138675299Y-195644483D01*
X138466713Y-194857991D01*
X138242619Y-194077925D01*
X138003189Y-193304462D01*
X137748598Y-192537777D01*
X137479021Y-191778048D01*
X137194633Y-191025450D01*
X136895608Y-190280160D01*
X136582120Y-189542355D01*
X136254344Y-188812209D01*
X135912454Y-188089900D01*
X135556625Y-187375604D01*
X135187031Y-186669498D01*
X134803847Y-185971757D01*
X134407247Y-185282558D01*
X133997406Y-184602078D01*
X133574499Y-183930492D01*
X133138699Y-183267977D01*
X132690181Y-182614709D01*
X132229120Y-181970864D01*
X131755691Y-181336620D01*
X118195125Y-51073598D02*
X118105323Y-50970161D01*
X118015828Y-50866922D01*
X117926657Y-50763892D01*
X117837830Y-50661082D01*
X117749364Y-50558502D01*
X117661277Y-50456165D01*
X117573588Y-50354080D01*
X117486313Y-50252259D01*
X117399473Y-50150712D01*
X117313083Y-50049452D01*
X117227164Y-49948487D01*
X117141732Y-49847831D01*
X117056807Y-49747493D01*
X116972405Y-49647484D01*
X116888546Y-49547816D01*
X116805246Y-49448499D01*
X116722525Y-49349545D01*
X116640401Y-49250964D01*
X116558891Y-49152767D01*
X116478014Y-49054966D01*
X116397787Y-48957570D01*
X116318229Y-48860592D01*
X116239359Y-48764043D01*
X116161193Y-48667932D01*
X116083750Y-48572271D01*
X116007049Y-48477072D01*
X115931107Y-48382344D01*
X115855943Y-48288100D01*
X115781574Y-48194349D01*
X115708019Y-48101103D01*
X115635296Y-48008374D01*
X115563423Y-47916171D01*
X69765747Y-85074234D02*
X69882069Y-85085285D01*
X69996922Y-85094917D01*
X70110294Y-85103115D01*
X70222172Y-85109866D01*
X70332542Y-85115157D01*
X70368996Y-85116594D01*
X64004875Y-205519453D02*
X64035615Y-204040025D01*
X64127110Y-202571974D01*
X64278267Y-201116757D01*
X64487992Y-199675832D01*
X64755195Y-198250657D01*
X65078782Y-196842688D01*
X65457661Y-195453383D01*
X65890741Y-194084200D01*
X66376928Y-192736596D01*
X66915131Y-191412028D01*
X67504257Y-190111954D01*
X68143214Y-188837831D01*
X68830910Y-187591117D01*
X69566253Y-186373269D01*
X70348149Y-185185745D01*
X71175507Y-184030002D01*
X72047235Y-182907496D01*
X72962240Y-181819687D01*
X73919430Y-180768031D01*
X74917713Y-179753986D01*
X75955996Y-178779009D01*
X77033188Y-177844557D01*
X78148195Y-176952089D01*
X79299926Y-176103060D01*
X80487288Y-175298930D01*
X81709189Y-174541155D01*
X82964537Y-173831192D01*
X84252239Y-173170500D01*
X85571204Y-172560535D01*
X86920338Y-172002755D01*
X88298550Y-171498617D01*
X89704748Y-171049580D01*
D11*
X88787492Y-151996164D02*
X88787492Y-167154918D01*
D10*
X63024225Y-105588359D02*
X63170835Y-105602092D01*
X63315072Y-105613674D01*
X63456968Y-105623176D01*
X63596558Y-105630664D01*
X63733873Y-105636207D01*
X63868948Y-105639873D01*
X64001815Y-105641732D01*
X64132508Y-105641851D01*
X64261061Y-105640299D01*
X64387505Y-105637144D01*
X64470647Y-105634185D01*
X131755691Y-181336620D02*
X131650562Y-181199258D01*
X131544855Y-181062354D01*
X131438572Y-180925909D01*
X131331714Y-180789926D01*
X131224281Y-180654408D01*
X131116277Y-180519358D01*
X131007700Y-180384777D01*
X130898554Y-180250670D01*
X130788839Y-180117038D01*
X130678557Y-179983884D01*
X130567709Y-179851210D01*
X130456296Y-179719020D01*
X130344320Y-179587317D01*
X130231782Y-179456101D01*
X130118683Y-179325378D01*
X130005025Y-179195148D01*
X129890808Y-179065415D01*
X129776035Y-178936181D01*
X129660706Y-178807449D01*
X129544823Y-178679221D01*
X129428387Y-178551501D01*
X129311400Y-178424291D01*
X129193862Y-178297593D01*
X129075776Y-178171410D01*
X128957142Y-178045746D01*
X128837962Y-177920601D01*
X128718237Y-177795980D01*
X128597968Y-177671885D01*
X128477157Y-177548318D01*
X128355805Y-177425282D01*
X128233913Y-177302780D01*
X128111484Y-177180815D01*
D11*
X100866658Y-171049580D02*
X110208025Y-171049580D01*
X99046274Y-95950394D02*
X100866658Y-95950394D01*
D10*
X110920812Y-40959331D02*
X110396115Y-40035890D01*
X109891723Y-39118549D01*
X109406860Y-38208651D01*
X108940748Y-37307540D01*
X108492611Y-36416562D01*
X108061671Y-35537059D01*
X107647151Y-34670377D01*
X107248275Y-33817859D01*
X106864266Y-32980850D01*
X106494346Y-32160693D01*
X106137738Y-31358734D01*
X105793667Y-30576315D01*
X105461354Y-29814782D01*
X105140022Y-29075478D01*
X104828895Y-28359748D01*
X104527196Y-27668936D01*
X104234148Y-27004386D01*
X103948974Y-26367442D01*
X103670896Y-25759449D01*
X103399139Y-25181751D01*
X103132924Y-24635691D01*
X102871475Y-24122614D01*
X102614015Y-23643865D01*
X102359767Y-23200787D01*
X102107954Y-22794724D01*
X101857800Y-22427021D01*
X101608526Y-22099023D01*
X101359357Y-21812072D01*
X101109514Y-21567514D01*
X100858222Y-21366692D01*
X100604703Y-21210951D01*
X100348181Y-21101636D01*
D11*
X99046274Y-171049580D02*
X99046274Y-167154918D01*
D10*
X42990000Y-150070000D02*
X43711363Y-149931429D01*
X44415982Y-149771067D01*
X45105409Y-149591925D01*
X45781192Y-149397017D01*
X46444883Y-149189355D01*
X47098032Y-148971951D01*
X47742189Y-148747819D01*
X48378904Y-148519971D01*
X49009728Y-148291420D01*
X49636211Y-148065179D01*
X50259903Y-147844260D01*
X50882355Y-147631676D01*
X51505117Y-147430440D01*
X52129738Y-147243564D01*
X52757771Y-147074061D01*
X53390764Y-146924945D01*
X54030268Y-146799227D01*
X54677833Y-146699920D01*
X55335010Y-146630037D01*
X56003349Y-146592591D01*
X56684401Y-146590595D01*
X57379715Y-146627061D01*
X58090841Y-146705002D01*
X58819331Y-146827430D01*
X59566735Y-146997359D01*
X60334602Y-147217800D01*
X61124483Y-147491768D01*
X61937929Y-147822274D01*
X62776489Y-148212331D01*
X63641715Y-148664952D01*
X64535155Y-149183149D01*
X65458362Y-149769937D01*
X88515844Y-151523487D02*
X88618245Y-151568522D01*
X88693312Y-151640340D01*
X88744267Y-151732942D01*
X88774332Y-151840333D01*
X88786729Y-151956518D01*
X88787492Y-151996164D01*
X130168193Y-85074234D02*
X131204812Y-84943093D01*
X132085726Y-84776549D01*
X132818175Y-84574627D01*
X133409403Y-84337354D01*
X133866650Y-84064757D01*
X134197159Y-83756861D01*
X134408171Y-83413694D01*
X134506930Y-83035282D01*
X134500675Y-82621652D01*
X134396651Y-82172830D01*
X134202097Y-81688842D01*
X133924257Y-81169716D01*
X133570373Y-80615477D01*
X133147685Y-80026152D01*
X132663437Y-79401769D01*
X132124870Y-78742352D01*
X131539226Y-78047929D01*
X130913747Y-77318527D01*
X130255675Y-76554171D01*
X129572252Y-75754889D01*
X128870720Y-74920707D01*
X128158321Y-74051651D01*
X127442296Y-73147749D01*
X126729888Y-72209025D01*
X126028339Y-71235508D01*
X125344890Y-70227224D01*
X124686783Y-69184198D01*
X124061262Y-68106458D01*
X123475566Y-66994030D01*
X122936939Y-65846941D01*
X122452622Y-64665218D01*
X122029858Y-63448886D01*
X135216622Y-105969041D02*
X135190774Y-105863930D01*
X135207568Y-105760210D01*
X135281596Y-105675032D01*
X135387868Y-105637416D01*
X135463637Y-105634185D01*
D11*
X100866658Y-95950394D02*
X100866658Y-167158358D01*
X111146475Y-167158358D02*
X111146475Y-151996164D01*
D10*
X85979393Y-150972969D02*
X86154159Y-151006128D01*
X86326569Y-151039456D01*
X86496662Y-151072952D01*
X86664480Y-151106616D01*
X86830064Y-151140447D01*
X86993456Y-151174445D01*
X87154696Y-151208609D01*
X87313827Y-151242939D01*
X87470888Y-151277435D01*
X87625921Y-151312095D01*
X87778968Y-151346919D01*
X87930069Y-151381907D01*
X88079266Y-151417058D01*
X88226600Y-151452372D01*
X88372112Y-151487848D01*
X88515844Y-151523487D01*
X77629180Y-63127973D02*
X77739900Y-63130831D01*
X77839619Y-63173035D01*
X77907415Y-63264599D01*
X77919623Y-63375371D01*
X77904425Y-63448886D01*
X55030246Y-126903139D02*
X55133702Y-126920432D01*
X55196113Y-126931397D01*
X128111484Y-177180815D02*
X127670619Y-176749266D01*
X127223161Y-176324521D01*
X126769192Y-175906662D01*
X126308796Y-175495773D01*
X125842055Y-175091937D01*
X125369054Y-174695236D01*
X124889875Y-174305755D01*
X124404603Y-173923577D01*
X123913319Y-173548784D01*
X123416108Y-173181460D01*
X122913053Y-172821688D01*
X122404237Y-172469552D01*
X121889743Y-172125133D01*
X121369656Y-171788517D01*
X120844057Y-171459785D01*
X120313032Y-171139022D01*
X119776661Y-170826310D01*
X119235031Y-170521732D01*
X118688222Y-170225372D01*
X118136320Y-169937313D01*
X117579406Y-169657638D01*
X117017565Y-169386430D01*
X116450880Y-169123772D01*
X115879434Y-168869749D01*
X115303311Y-168624442D01*
X114722593Y-168387936D01*
X114137364Y-168160312D01*
X113547708Y-167941656D01*
X112953708Y-167732048D01*
X112355446Y-167531574D01*
X111753008Y-167340316D01*
X111146475Y-167158358D01*
X99586129Y-21101636D02*
X99329892Y-21210951D01*
X99076623Y-21366692D01*
X98825546Y-21567514D01*
X98575886Y-21812072D01*
X98326867Y-22099023D01*
X98077714Y-22427021D01*
X97827653Y-22794724D01*
X97575908Y-23200787D01*
X97321704Y-23643865D01*
X97064265Y-24122614D01*
X96802817Y-24635691D01*
X96536584Y-25181751D01*
X96264791Y-25759449D01*
X95986663Y-26367442D01*
X95701424Y-27004386D01*
X95408300Y-27668936D01*
X95106515Y-28359748D01*
X94795294Y-29075478D01*
X94473862Y-29814782D01*
X94141444Y-30576315D01*
X93797264Y-31358734D01*
X93440547Y-32160693D01*
X93070518Y-32980850D01*
X92686402Y-33817859D01*
X92287424Y-34670377D01*
X91872808Y-35537059D01*
X91441779Y-36416562D01*
X90993563Y-37307540D01*
X90527383Y-38208651D01*
X90042465Y-39118549D01*
X89538033Y-40035890D01*
X89013313Y-40959331D01*
X122304760Y-63127973D02*
X122999065Y-63195195D01*
X123610842Y-63217383D01*
X124143034Y-63196177D01*
X124598588Y-63133214D01*
X124980447Y-63030135D01*
X125291557Y-62888580D01*
X125534862Y-62710187D01*
X125713309Y-62496596D01*
X125829841Y-62249447D01*
X125887403Y-61970378D01*
X125888941Y-61661030D01*
X125837400Y-61323042D01*
X125735724Y-60958054D01*
X125586859Y-60567704D01*
X125393749Y-60153632D01*
X125159339Y-59717478D01*
X124886575Y-59260881D01*
X124578401Y-58785481D01*
X124237762Y-58292916D01*
X123867603Y-57784827D01*
X123470870Y-57262853D01*
X123050507Y-56728633D01*
X122609459Y-56183807D01*
X122150671Y-55630014D01*
X121677088Y-55068893D01*
X121191655Y-54502085D01*
X120697317Y-53931228D01*
X120197019Y-53357962D01*
X119693705Y-52783927D01*
X119190322Y-52210761D01*
X118689813Y-51640105D01*
X118195125Y-51073598D01*
X65458362Y-149769937D02*
X66367800Y-150347693D01*
X67236974Y-150850628D01*
X68068181Y-151282740D01*
X68863717Y-151648024D01*
X69625878Y-151950478D01*
X70356960Y-152194100D01*
X71059260Y-152382886D01*
X71735074Y-152520835D01*
X72386699Y-152611943D01*
X73016431Y-152660207D01*
X73626566Y-152669624D01*
X74219400Y-152644193D01*
X74797231Y-152587909D01*
X75362354Y-152504771D01*
X75917065Y-152398776D01*
X76463662Y-152273920D01*
X77004439Y-152134201D01*
X77541695Y-151983616D01*
X78077725Y-151826163D01*
X78614825Y-151665838D01*
X79155292Y-151506640D01*
X79701422Y-151352564D01*
X80255511Y-151207609D01*
X80819857Y-151075771D01*
X81396754Y-150961048D01*
X81988500Y-150867437D01*
X82597391Y-150798935D01*
X83225724Y-150759540D01*
X83875793Y-150753249D01*
X84549897Y-150784058D01*
X85250332Y-150855966D01*
X85979393Y-150972969D01*
X110208025Y-171049580D02*
X111613924Y-171499262D01*
X112991857Y-172003983D01*
X114340730Y-172562285D01*
X115659450Y-173172714D01*
X116946925Y-173833815D01*
X118202062Y-174544132D01*
X119423768Y-175302209D01*
X120610950Y-176106591D01*
X121762515Y-176955824D01*
X122877370Y-177848451D01*
X123954423Y-178783017D01*
X124992579Y-179758067D01*
X125990748Y-180772146D01*
X126947835Y-181823798D01*
X127862748Y-182911568D01*
X128734394Y-184034000D01*
X129561680Y-185189640D01*
X130343513Y-186377031D01*
X131078801Y-187594719D01*
X131766450Y-188841248D01*
X132405367Y-190115162D01*
X132994460Y-191415007D01*
X133532636Y-192739327D01*
X134018802Y-194086667D01*
X134451864Y-195455571D01*
X134830731Y-196844584D01*
X135154309Y-198252251D01*
X135421505Y-199677116D01*
X135631227Y-201117724D01*
X135782382Y-202572620D01*
X135873876Y-204040348D01*
X135904617Y-205519453D01*
X151553591Y-137747259D02*
X151220699Y-137446435D01*
X150896642Y-137141386D01*
X150581304Y-136832373D01*
X150274567Y-136519657D01*
X149976314Y-136203500D01*
X149686428Y-135884164D01*
X149404792Y-135561911D01*
X149131288Y-135237002D01*
X148865801Y-134909699D01*
X148608212Y-134580263D01*
X148358405Y-134248956D01*
X148116262Y-133916041D01*
X147881667Y-133581777D01*
X147654502Y-133246428D01*
X147434651Y-132910255D01*
X147221996Y-132573520D01*
X147016420Y-132236483D01*
X146817807Y-131899407D01*
X146626038Y-131562554D01*
X146440998Y-131226185D01*
X146262569Y-130890562D01*
X146090633Y-130555946D01*
X145925075Y-130222600D01*
X145765776Y-129890784D01*
X145612620Y-129560761D01*
X145465489Y-129232792D01*
X145324267Y-128907138D01*
X145188837Y-128584063D01*
X145059081Y-128263826D01*
X144934883Y-127946690D01*
X144816124Y-127632917D01*
X144702690Y-127322768D01*
D11*
X135904617Y-205519453D02*
X139905059Y-205519453D01*
X89704748Y-171049580D02*
X99046274Y-171049580D01*
D10*
X81739000Y-51073598D02*
X81244613Y-51640105D01*
X80744369Y-52210761D01*
X80241213Y-52783927D01*
X79738092Y-53357962D01*
X79237954Y-53931228D01*
X78743745Y-54502085D01*
X78258412Y-55068893D01*
X77784901Y-55630014D01*
X77326160Y-56183807D01*
X76885135Y-56728633D01*
X76464774Y-57262853D01*
X76068022Y-57784827D01*
X75697827Y-58292916D01*
X75357136Y-58785481D01*
X75048895Y-59260881D01*
X74776052Y-59717478D01*
X74541552Y-60153632D01*
X74348343Y-60567704D01*
X74199372Y-60958054D01*
X74097586Y-61323042D01*
X74045931Y-61661030D01*
X74047353Y-61970378D01*
X74104801Y-62249447D01*
X74221221Y-62496596D01*
X74399559Y-62710187D01*
X74642763Y-62888580D01*
X74953779Y-63030135D01*
X75335553Y-63133214D01*
X75791034Y-63196177D01*
X76323167Y-63217383D01*
X76934900Y-63195195D01*
X77629180Y-63127973D01*
D11*
X60004433Y-205519453D02*
X64004875Y-205519453D01*
D10*
X135463637Y-105634185D02*
X135588686Y-105638345D01*
X135715806Y-105640956D01*
X135845037Y-105641950D01*
X135976414Y-105641255D01*
X136109976Y-105638804D01*
X136245759Y-105634525D01*
X136383803Y-105628350D01*
X136524143Y-105620209D01*
X136666818Y-105610033D01*
X136811865Y-105597751D01*
X136909900Y-105588359D01*
M02*
