G04 #@! TF.GenerationSoftware,KiCad,Pcbnew,8.0.6*
G04 #@! TF.CreationDate,2024-11-23T10:48:36+01:00*
G04 #@! TF.ProjectId,ChristmasTree,43687269-7374-46d6-9173-547265652e6b,rev?*
G04 #@! TF.SameCoordinates,Original*
G04 #@! TF.FileFunction,Paste,Top*
G04 #@! TF.FilePolarity,Positive*
%FSLAX46Y46*%
G04 Gerber Fmt 4.6, Leading zero omitted, Abs format (unit mm)*
G04 Created by KiCad (PCBNEW 8.0.6) date 2024-11-23 10:48:36*
%MOMM*%
%LPD*%
G01*
G04 APERTURE LIST*
G04 Aperture macros list*
%AMRoundRect*
0 Rectangle with rounded corners*
0 $1 Rounding radius*
0 $2 $3 $4 $5 $6 $7 $8 $9 X,Y pos of 4 corners*
0 Add a 4 corners polygon primitive as box body*
4,1,4,$2,$3,$4,$5,$6,$7,$8,$9,$2,$3,0*
0 Add four circle primitives for the rounded corners*
1,1,$1+$1,$2,$3*
1,1,$1+$1,$4,$5*
1,1,$1+$1,$6,$7*
1,1,$1+$1,$8,$9*
0 Add four rect primitives between the rounded corners*
20,1,$1+$1,$2,$3,$4,$5,0*
20,1,$1+$1,$4,$5,$6,$7,0*
20,1,$1+$1,$6,$7,$8,$9,0*
20,1,$1+$1,$8,$9,$2,$3,0*%
%AMOutline4P*
0 Free polygon, 4 corners , with rotation*
0 The origin of the aperture is its center*
0 number of corners: always 4*
0 $1 to $8 corner X, Y*
0 $9 Rotation angle, in degrees counterclockwise*
0 create outline with 4 corners*
4,1,4,$1,$2,$3,$4,$5,$6,$7,$8,$1,$2,$9*%
G04 Aperture macros list end*
%ADD10RoundRect,0.250000X-0.475000X0.337500X-0.475000X-0.337500X0.475000X-0.337500X0.475000X0.337500X0*%
%ADD11R,1.500000X0.900000*%
%ADD12Outline4P,-0.500000X-1.000000X0.500000X0.000000X0.500000X0.000000X-0.500000X1.000000X0.000000*%
%ADD13R,1.000000X2.000000*%
%ADD14RoundRect,0.250000X0.475000X-0.337500X0.475000X0.337500X-0.475000X0.337500X-0.475000X-0.337500X0*%
%ADD15R,2.000000X2.000000*%
%ADD16R,0.900000X1.500000*%
%ADD17RoundRect,0.250000X-0.337500X-0.475000X0.337500X-0.475000X0.337500X0.475000X-0.337500X0.475000X0*%
G04 APERTURE END LIST*
D10*
X108980000Y-69072500D03*
X108980000Y-71147500D03*
X110540000Y-116602500D03*
X110540000Y-118677500D03*
D11*
X125140000Y-96447500D03*
X125140000Y-99747500D03*
X130040000Y-99747500D03*
X130040000Y-96447500D03*
D12*
X102350000Y-32974600D03*
D13*
X101350000Y-32974600D03*
D11*
X119660000Y-136070000D03*
X119660000Y-139370000D03*
X124560000Y-139370000D03*
X124560000Y-136070000D03*
D14*
X83020000Y-128797500D03*
X83020000Y-126722500D03*
X82050000Y-101807500D03*
X82050000Y-99732500D03*
D11*
X79070000Y-102510000D03*
X79070000Y-99210000D03*
X74170000Y-99210000D03*
X74170000Y-102510000D03*
D10*
X121820000Y-97142500D03*
X121820000Y-99217500D03*
D11*
X112080000Y-68330000D03*
X112080000Y-71630000D03*
X116980000Y-71630000D03*
X116980000Y-68330000D03*
X133870000Y-126270000D03*
X133870000Y-129570000D03*
X138770000Y-129570000D03*
X138770000Y-126270000D03*
D15*
X97698400Y-103050800D03*
D16*
X84020000Y-59650000D03*
X87320000Y-59650000D03*
X87320000Y-54750000D03*
X84020000Y-54750000D03*
D15*
X98068400Y-33050800D03*
D11*
X65060000Y-141000000D03*
X65060000Y-137700000D03*
X60160000Y-137700000D03*
X60160000Y-141000000D03*
D10*
X130470000Y-127022500D03*
X130470000Y-129097500D03*
D16*
X105650000Y-50850000D03*
X108950000Y-50850000D03*
X108950000Y-45950000D03*
X105650000Y-45950000D03*
D14*
X95680000Y-81307500D03*
X95680000Y-79232500D03*
D17*
X106262500Y-53760000D03*
X108337500Y-53760000D03*
D12*
X102700000Y-102974600D03*
D13*
X101700000Y-102974600D03*
D14*
X67950000Y-140397500D03*
X67950000Y-138322500D03*
D11*
X92190000Y-117170000D03*
X92190000Y-113870000D03*
X87290000Y-113870000D03*
X87290000Y-117170000D03*
D10*
X116430000Y-136812500D03*
X116430000Y-138887500D03*
D11*
X80190000Y-129430000D03*
X80190000Y-126130000D03*
X75290000Y-126130000D03*
X75290000Y-129430000D03*
X113670000Y-115840000D03*
X113670000Y-119140000D03*
X118570000Y-119140000D03*
X118570000Y-115840000D03*
D17*
X84682500Y-62490000D03*
X86757500Y-62490000D03*
D14*
X95040000Y-116537500D03*
X95040000Y-114462500D03*
D11*
X92910000Y-81990000D03*
X92910000Y-78690000D03*
X88010000Y-78690000D03*
X88010000Y-81990000D03*
M02*
