%TF.GenerationSoftware,KiCad,Pcbnew,8.0.6*%
%TF.CreationDate,2024-11-23T10:48:38+01:00*%
%TF.ProjectId,ChristmasTree,43687269-7374-46d6-9173-547265652e6b,rev?*%
%TF.SameCoordinates,Original*%
%TF.FileFunction,Drillmap*%
%TF.FilePolarity,Positive*%
%FSLAX45Y45*%
G04 Gerber Fmt 4.5, Leading zero omitted, Abs format (unit mm)*
G04 Created by KiCad (PCBNEW 8.0.6) date 2024-11-23 10:48:38*
%MOMM*%
%LPD*%
G01*
G04 APERTURE LIST*
%ADD10C,0.100000*%
%ADD11C,0.200000*%
G04 APERTURE END LIST*
D10*
X14473817Y-12693140D02*
X14484143Y-12691380D01*
X14490388Y-12690314D01*
X15694412Y-15007000D02*
X15763566Y-15017272D01*
X15825114Y-15022857D01*
X15879262Y-15023909D01*
X15926216Y-15020582D01*
X15966182Y-15013029D01*
X15999364Y-15001405D01*
X16025970Y-14985864D01*
X16046205Y-14966560D01*
X16060274Y-14943647D01*
X16068383Y-14917279D01*
X16070738Y-14887609D01*
X16067544Y-14854792D01*
X16059009Y-14818982D01*
X16045336Y-14780333D01*
X16026732Y-14738999D01*
X16003403Y-14695134D01*
X15975554Y-14648891D01*
X15943391Y-14600426D01*
X15907120Y-14549891D01*
X15866946Y-14497441D01*
X15823076Y-14443230D01*
X15775715Y-14387413D01*
X15725068Y-14330142D01*
X15671342Y-14271572D01*
X15614742Y-14211856D01*
X15555475Y-14151150D01*
X15493744Y-14089607D01*
X15429757Y-14027381D01*
X15363720Y-13964626D01*
X15295837Y-13901495D01*
X15226315Y-13838144D01*
X15155359Y-13774726D01*
X11556342Y-4791617D02*
X11539745Y-4770038D01*
X11523293Y-4748430D01*
X11506983Y-4726795D01*
X11490815Y-4705135D01*
X11474788Y-4683450D01*
X11458901Y-4661745D01*
X11443154Y-4640019D01*
X11427545Y-4618276D01*
X11412073Y-4596517D01*
X11396738Y-4574743D01*
X11381539Y-4552957D01*
X11366475Y-4531161D01*
X11351544Y-4509357D01*
X11336746Y-4487545D01*
X11322081Y-4465729D01*
X11307546Y-4443910D01*
X11293141Y-4422090D01*
X11278866Y-4400271D01*
X11264720Y-4378454D01*
X11250700Y-4356642D01*
X11236808Y-4334836D01*
X11223041Y-4313039D01*
X11209398Y-4291252D01*
X11195880Y-4269477D01*
X11182484Y-4247715D01*
X11169211Y-4225970D01*
X11156058Y-4204242D01*
X11143026Y-4182534D01*
X11130113Y-4160847D01*
X11117319Y-4139183D01*
X11104642Y-4117545D01*
X11092081Y-4095933D01*
X13690990Y-10558836D02*
X13790835Y-10546286D01*
X13876291Y-10530470D01*
X13947998Y-10511392D01*
X14006599Y-10489053D01*
X14052736Y-10463455D01*
X14087050Y-10434601D01*
X14110183Y-10402493D01*
X14122777Y-10367133D01*
X14125473Y-10328524D01*
X14118913Y-10286669D01*
X14103740Y-10241568D01*
X14080594Y-10193226D01*
X14050118Y-10141643D01*
X14012954Y-10086823D01*
X13969742Y-10028767D01*
X13921125Y-9967478D01*
X13867745Y-9902958D01*
X13810243Y-9835210D01*
X13749261Y-9764236D01*
X13685442Y-9690038D01*
X13619425Y-9612618D01*
X13551855Y-9531979D01*
X13483371Y-9448123D01*
X13414616Y-9361053D01*
X13346232Y-9270770D01*
X13278860Y-9177277D01*
X13213143Y-9080577D01*
X13149721Y-8980671D01*
X13089238Y-8877562D01*
X13032333Y-8771252D01*
X12979650Y-8661744D01*
X12931830Y-8549040D01*
X10086666Y-16715836D02*
X10086666Y-17104958D01*
X12931830Y-8549040D02*
X12929247Y-8538223D01*
X12930947Y-8527229D01*
X12937192Y-8518661D01*
X12947429Y-8513228D01*
X12956875Y-8511659D01*
X8877336Y-16715492D02*
X8722833Y-16763827D01*
X8571093Y-16818184D01*
X8422257Y-16878422D01*
X8276465Y-16944400D01*
X8133858Y-17015978D01*
X7994576Y-17093015D01*
X7858760Y-17175372D01*
X7726550Y-17262906D01*
X7598086Y-17355478D01*
X7473509Y-17452948D01*
X7352959Y-17555174D01*
X7236578Y-17662017D01*
X7124504Y-17773336D01*
X7016879Y-17888990D01*
X6913843Y-18008839D01*
X6815537Y-18132742D01*
X6722100Y-18260559D01*
X6633674Y-18392150D01*
X6550399Y-18527373D01*
X6472415Y-18666089D01*
X6399863Y-18808157D01*
X6332883Y-18953436D01*
X6271615Y-19101786D01*
X6216200Y-19253066D01*
X6166779Y-19407137D01*
X6123492Y-19563856D01*
X6086479Y-19723085D01*
X6055880Y-19884682D01*
X6031837Y-20048507D01*
X6014490Y-20214420D01*
X6003978Y-20382279D01*
X6000443Y-20551945D01*
X8437070Y-4791617D02*
X8429916Y-4800837D01*
X8422674Y-4810110D01*
X8415347Y-4819435D01*
X8407937Y-4828810D01*
X8400445Y-4838234D01*
X8392873Y-4847707D01*
X8385223Y-4857227D01*
X8377497Y-4866793D01*
X8369696Y-4876404D01*
X8361823Y-4886059D01*
X8353879Y-4895757D01*
X8345866Y-4905497D01*
X8337786Y-4915277D01*
X8329640Y-4925096D01*
X8321431Y-4934955D01*
X8313160Y-4944850D01*
X8304829Y-4954782D01*
X8296439Y-4964748D01*
X8287994Y-4974749D01*
X8279494Y-4984783D01*
X8270941Y-4994849D01*
X8262338Y-5004945D01*
X8253685Y-5015071D01*
X8244985Y-5025226D01*
X8236239Y-5035408D01*
X8227450Y-5045617D01*
X8218619Y-5055850D01*
X8209748Y-5066108D01*
X8200839Y-5076389D01*
X8191893Y-5086692D01*
X8182913Y-5097016D01*
X8173900Y-5107360D01*
X7790442Y-6344889D02*
X7748163Y-6466522D01*
X7699728Y-6584694D01*
X7645863Y-6699403D01*
X7587291Y-6810646D01*
X7524737Y-6918420D01*
X7458925Y-7022722D01*
X7390578Y-7123551D01*
X7320422Y-7220902D01*
X7249180Y-7314775D01*
X7177576Y-7405165D01*
X7106335Y-7492071D01*
X7036181Y-7575489D01*
X6967838Y-7655417D01*
X6902030Y-7731853D01*
X6839482Y-7804793D01*
X6780917Y-7874235D01*
X6727060Y-7940177D01*
X6678635Y-8002615D01*
X6636366Y-8061548D01*
X6600977Y-8116972D01*
X6573193Y-8168884D01*
X6553737Y-8217283D01*
X6543334Y-8262165D01*
X6542708Y-8303528D01*
X6552583Y-8341369D01*
X6573684Y-8375686D01*
X6606734Y-8406476D01*
X6652458Y-8433735D01*
X6711580Y-8457463D01*
X6784824Y-8477655D01*
X6872914Y-8494309D01*
X6976575Y-8507423D01*
X10034818Y-2110164D02*
X10024280Y-2107369D01*
X10013516Y-2105736D01*
X10003279Y-2104989D01*
X9996697Y-2104859D01*
X12202986Y-6344889D02*
X12201314Y-6334122D01*
X12203852Y-6323788D01*
X12211934Y-6315707D01*
X12222861Y-6312625D01*
X12230476Y-6312797D01*
X7036900Y-8511659D02*
X7047870Y-8513781D01*
X7057453Y-8519705D01*
X7063027Y-8528665D01*
X7064018Y-8539950D01*
X7061601Y-8549040D01*
X11142172Y-15152349D02*
X11156487Y-15148785D01*
X11170987Y-15145237D01*
X11185675Y-15141706D01*
X11200555Y-15138191D01*
X11215631Y-15134692D01*
X11230906Y-15131209D01*
X11246385Y-15127743D01*
X11262070Y-15124294D01*
X11277967Y-15120861D01*
X11294078Y-15117444D01*
X11310407Y-15114045D01*
X11326957Y-15110662D01*
X11343734Y-15107295D01*
X11360740Y-15103946D01*
X11377979Y-15100613D01*
X11395455Y-15097297D01*
X8878749Y-16715492D02*
X8877336Y-16715492D01*
X5523144Y-12732277D02*
X5511801Y-12763292D01*
X5499927Y-12794669D01*
X5487508Y-12826383D01*
X5474533Y-12858406D01*
X5460991Y-12890714D01*
X5446870Y-12923279D01*
X5432159Y-12956076D01*
X5416845Y-12989078D01*
X5400917Y-13022260D01*
X5384363Y-13055595D01*
X5367173Y-13089056D01*
X5349334Y-13122618D01*
X5330834Y-13156255D01*
X5311662Y-13189941D01*
X5291807Y-13223648D01*
X5271256Y-13257352D01*
X5249998Y-13291025D01*
X5228022Y-13324643D01*
X5205316Y-13358178D01*
X5181867Y-13391604D01*
X5157666Y-13424896D01*
X5132699Y-13458026D01*
X5106956Y-13490970D01*
X5080424Y-13523700D01*
X5053093Y-13556191D01*
X5024950Y-13588416D01*
X4995983Y-13620350D01*
X4966182Y-13651966D01*
X4935535Y-13683237D01*
X4904029Y-13714139D01*
X4871654Y-13744643D01*
X4838397Y-13774726D01*
X6447065Y-10563419D02*
X6458028Y-10564424D01*
X6467606Y-10569250D01*
X6473613Y-10578742D01*
X6473901Y-10589755D01*
X6471750Y-10596904D01*
X12956875Y-8511659D02*
X12967698Y-8511183D01*
X12978727Y-8510557D01*
X12989949Y-8509785D01*
X13001353Y-8508868D01*
X13012926Y-8507808D01*
X13016819Y-8507423D01*
X4838397Y-13774726D02*
X4767410Y-13838144D01*
X4697859Y-13901495D01*
X4629949Y-13964626D01*
X4563885Y-14027381D01*
X4499875Y-14089607D01*
X4438122Y-14151150D01*
X4378834Y-14211856D01*
X4322215Y-14271572D01*
X4268472Y-14330142D01*
X4217809Y-14387413D01*
X4170433Y-14443230D01*
X4126550Y-14497441D01*
X4086364Y-14549891D01*
X4050083Y-14600426D01*
X4017910Y-14648891D01*
X3990053Y-14695134D01*
X3966716Y-14738999D01*
X3948105Y-14780333D01*
X3934427Y-14818982D01*
X3925886Y-14854792D01*
X3922689Y-14887609D01*
X3925040Y-14917279D01*
X3933146Y-14943647D01*
X3947213Y-14966560D01*
X3967446Y-14985864D01*
X3994050Y-15001405D01*
X4027232Y-15013029D01*
X4067197Y-15020582D01*
X4114150Y-15023909D01*
X4168298Y-15022857D01*
X4229846Y-15017272D01*
X4299000Y-15007000D01*
X11114648Y-15199616D02*
X11115375Y-15187838D01*
X11117780Y-15176739D01*
X11122193Y-15166919D01*
X11128948Y-15158978D01*
X11138377Y-15153515D01*
X11142172Y-15152349D01*
X9904627Y-16715492D02*
X9904627Y-9595039D01*
X6471750Y-10596904D02*
X6420560Y-10714895D01*
X6363512Y-10828985D01*
X6301329Y-10939228D01*
X6234730Y-11045672D01*
X6164436Y-11148369D01*
X6091169Y-11247370D01*
X6015647Y-11342726D01*
X5938593Y-11434486D01*
X5860726Y-11522703D01*
X5782768Y-11607426D01*
X5705438Y-11688707D01*
X5629459Y-11766596D01*
X5555549Y-11841144D01*
X5484430Y-11912402D01*
X5416822Y-11980421D01*
X5353447Y-12045251D01*
X5295024Y-12106943D01*
X5242275Y-12165548D01*
X5195919Y-12221117D01*
X5156678Y-12273701D01*
X5125272Y-12323349D01*
X5102422Y-12370114D01*
X5088848Y-12414045D01*
X5085271Y-12455195D01*
X5092412Y-12493612D01*
X5110991Y-12529349D01*
X5141729Y-12562455D01*
X5185347Y-12592982D01*
X5242564Y-12620981D01*
X5314103Y-12646502D01*
X5400683Y-12669596D01*
X5503025Y-12690314D01*
X5519611Y-12693140D02*
X5526709Y-12700731D01*
X5527697Y-12711263D01*
X5526353Y-12721183D01*
X5523144Y-12732277D01*
X13447558Y-14976994D02*
X13539912Y-14918315D01*
X13629285Y-14866495D01*
X13715833Y-14821233D01*
X13799710Y-14782227D01*
X13881073Y-14749177D01*
X13960076Y-14721780D01*
X14036874Y-14699736D01*
X14111623Y-14682743D01*
X14184478Y-14670500D01*
X14255594Y-14662706D01*
X14325127Y-14659059D01*
X14393231Y-14659259D01*
X14460062Y-14663004D01*
X14525775Y-14669992D01*
X14590526Y-14679923D01*
X14654469Y-14692494D01*
X14717759Y-14707406D01*
X14780553Y-14724356D01*
X14843005Y-14743044D01*
X14905271Y-14763168D01*
X14967505Y-14784426D01*
X15029863Y-14806518D01*
X15092500Y-14829142D01*
X15155572Y-14851997D01*
X15219234Y-14874782D01*
X15283640Y-14897195D01*
X15348946Y-14918935D01*
X15415308Y-14939702D01*
X15482880Y-14959192D01*
X15551818Y-14977107D01*
X15622277Y-14993143D01*
X15694412Y-15007000D01*
X8901331Y-4095933D02*
X8888773Y-4117545D01*
X8876101Y-4139183D01*
X8863312Y-4160847D01*
X8850406Y-4182534D01*
X8837382Y-4204242D01*
X8824239Y-4225970D01*
X8810976Y-4247715D01*
X8797591Y-4269477D01*
X8784084Y-4291252D01*
X8770452Y-4313039D01*
X8756697Y-4334836D01*
X8742815Y-4356642D01*
X8728806Y-4378454D01*
X8714670Y-4400271D01*
X8700404Y-4422090D01*
X8686008Y-4443910D01*
X8671481Y-4465729D01*
X8656822Y-4487545D01*
X8642028Y-4509357D01*
X8627101Y-4531161D01*
X8612037Y-4552957D01*
X8596837Y-4574743D01*
X8581499Y-4596517D01*
X8566022Y-4618276D01*
X8550405Y-4640019D01*
X8534646Y-4661745D01*
X8518746Y-4683450D01*
X8502702Y-4705135D01*
X8486513Y-4726795D01*
X8470179Y-4748430D01*
X8453699Y-4770038D01*
X8437070Y-4791617D01*
X14470269Y-12732277D02*
X14467057Y-12721183D01*
X14465710Y-12711263D01*
X14466698Y-12700732D01*
X14473817Y-12693140D01*
X9996697Y-2104859D02*
X9986234Y-2105191D01*
X9976201Y-2106187D01*
X9965799Y-2108098D01*
X9958613Y-2110164D01*
X14490388Y-12690314D02*
X14592728Y-12669596D01*
X14679307Y-12646502D01*
X14750844Y-12620981D01*
X14808060Y-12592982D01*
X14851677Y-12562455D01*
X14882414Y-12529349D01*
X14900992Y-12493612D01*
X14908132Y-12455195D01*
X14904554Y-12414045D01*
X14890980Y-12370114D01*
X14868129Y-12323349D01*
X14836723Y-12273701D01*
X14797481Y-12221117D01*
X14751125Y-12165548D01*
X14698376Y-12106943D01*
X14639953Y-12045251D01*
X14576577Y-11980421D01*
X14508970Y-11912402D01*
X14437851Y-11841144D01*
X14363941Y-11766596D01*
X14287962Y-11688707D01*
X14210633Y-11607426D01*
X14132675Y-11522703D01*
X14054809Y-11434486D01*
X13977756Y-11342726D01*
X13902235Y-11247370D01*
X13828969Y-11148369D01*
X13758676Y-11045672D01*
X13692079Y-10939228D01*
X13629897Y-10828985D01*
X13572851Y-10714895D01*
X13521662Y-10596904D01*
X7061601Y-8549040D02*
X7013777Y-8661744D01*
X6961091Y-8771252D01*
X6904184Y-8877562D01*
X6843697Y-8980671D01*
X6780273Y-9080577D01*
X6714553Y-9177277D01*
X6647180Y-9270770D01*
X6578794Y-9361053D01*
X6510037Y-9448123D01*
X6441552Y-9531979D01*
X6373980Y-9612618D01*
X6307962Y-9690038D01*
X6244141Y-9764236D01*
X6183159Y-9835210D01*
X6125656Y-9902958D01*
X6072276Y-9967478D01*
X6023658Y-10028767D01*
X5980447Y-10086823D01*
X5943282Y-10141643D01*
X5912806Y-10193226D01*
X5889660Y-10241568D01*
X5874487Y-10286669D01*
X5867929Y-10328524D01*
X5870626Y-10367133D01*
X5883220Y-10402493D01*
X5906354Y-10434601D01*
X5940669Y-10463455D01*
X5986807Y-10489053D01*
X6045409Y-10511392D01*
X6117118Y-10530470D01*
X6202575Y-10546286D01*
X6302422Y-10558836D01*
X11395455Y-15097297D02*
X11468361Y-15085597D01*
X11538404Y-15078406D01*
X11605815Y-15075325D01*
X11670821Y-15075954D01*
X11733655Y-15079893D01*
X11794544Y-15086744D01*
X11853718Y-15096105D01*
X11911408Y-15107577D01*
X11967843Y-15120761D01*
X12023252Y-15135256D01*
X12077865Y-15150664D01*
X12131911Y-15166584D01*
X12185621Y-15182616D01*
X12239224Y-15198362D01*
X12292950Y-15213420D01*
X12347028Y-15227392D01*
X12401687Y-15239878D01*
X12457158Y-15250477D01*
X12513671Y-15258791D01*
X12571454Y-15264419D01*
X12630737Y-15266962D01*
X12691751Y-15266021D01*
X12754724Y-15261194D01*
X12819886Y-15252083D01*
X12887468Y-15238289D01*
X12957698Y-15219410D01*
X13030806Y-15195048D01*
X13107022Y-15164802D01*
X13186576Y-15128274D01*
X13269696Y-15085063D01*
X13356614Y-15034769D01*
X13447558Y-14976994D01*
X13990506Y-20551945D02*
X13989620Y-20466960D01*
X13986973Y-20382406D01*
X13982584Y-20298300D01*
X13976470Y-20214660D01*
X13968647Y-20131505D01*
X13959134Y-20048851D01*
X13947947Y-19966716D01*
X13935105Y-19885119D01*
X13920625Y-19804075D01*
X13904524Y-19723604D01*
X13886820Y-19643722D01*
X13867530Y-19564448D01*
X13846671Y-19485799D01*
X13824262Y-19407793D01*
X13800319Y-19330446D01*
X13774860Y-19253778D01*
X13747902Y-19177805D01*
X13719463Y-19102545D01*
X13689561Y-19028016D01*
X13658212Y-18954236D01*
X13625434Y-18881221D01*
X13591245Y-18808990D01*
X13555662Y-18737560D01*
X13518703Y-18666950D01*
X13480385Y-18597176D01*
X13440725Y-18528256D01*
X13399741Y-18460208D01*
X13357450Y-18393049D01*
X13313870Y-18326798D01*
X13269018Y-18261471D01*
X13222912Y-18197086D01*
X13175569Y-18133662D01*
X11819512Y-5107360D02*
X11810532Y-5097016D01*
X11801583Y-5086692D01*
X11792666Y-5076389D01*
X11783783Y-5066108D01*
X11774936Y-5055850D01*
X11766128Y-5045617D01*
X11757359Y-5035408D01*
X11748631Y-5025226D01*
X11739947Y-5015071D01*
X11731308Y-5004945D01*
X11722716Y-4994849D01*
X11714173Y-4984783D01*
X11705681Y-4974749D01*
X11697240Y-4964748D01*
X11688855Y-4954782D01*
X11680525Y-4944850D01*
X11672252Y-4934955D01*
X11664040Y-4925096D01*
X11655889Y-4915277D01*
X11647801Y-4905497D01*
X11639779Y-4895757D01*
X11631823Y-4886059D01*
X11623936Y-4876404D01*
X11616119Y-4866793D01*
X11608375Y-4857227D01*
X11600705Y-4847707D01*
X11593111Y-4838234D01*
X11585594Y-4828810D01*
X11578157Y-4819435D01*
X11570802Y-4810110D01*
X11563530Y-4800837D01*
X11556342Y-4791617D01*
X6976575Y-8507423D02*
X6988207Y-8508529D01*
X6999692Y-8509492D01*
X7011029Y-8510312D01*
X7022217Y-8510987D01*
X7033254Y-8511516D01*
X7036900Y-8511659D01*
X6400487Y-20551945D02*
X6403561Y-20404003D01*
X6412711Y-20257197D01*
X6427827Y-20111676D01*
X6448799Y-19967583D01*
X6475519Y-19825066D01*
X6507878Y-19684269D01*
X6545766Y-19545338D01*
X6589074Y-19408420D01*
X6637693Y-19273660D01*
X6691513Y-19141203D01*
X6750426Y-19011195D01*
X6814321Y-18883783D01*
X6883091Y-18759112D01*
X6956625Y-18637327D01*
X7034815Y-18518575D01*
X7117551Y-18403000D01*
X7204723Y-18290750D01*
X7296224Y-18181969D01*
X7391943Y-18076803D01*
X7491771Y-17975399D01*
X7595600Y-17877901D01*
X7703319Y-17784456D01*
X7814819Y-17695209D01*
X7929993Y-17610306D01*
X8048729Y-17529893D01*
X8170919Y-17454116D01*
X8296454Y-17383119D01*
X8425224Y-17317050D01*
X8557120Y-17256054D01*
X8692034Y-17200276D01*
X8829855Y-17149862D01*
X8970475Y-17104958D01*
X8878749Y-15199616D02*
X8878749Y-16715492D01*
X6302422Y-10558836D02*
X6317083Y-10560209D01*
X6331507Y-10561367D01*
X6345697Y-10562318D01*
X6359656Y-10563066D01*
X6373387Y-10563621D01*
X6386895Y-10563987D01*
X6400181Y-10564173D01*
X6413251Y-10564185D01*
X6426106Y-10564030D01*
X6438750Y-10563714D01*
X6447065Y-10563419D01*
X13175569Y-18133662D02*
X13165056Y-18119926D01*
X13154485Y-18106235D01*
X13143857Y-18092591D01*
X13133171Y-18078993D01*
X13122428Y-18065441D01*
X13111628Y-18051936D01*
X13100770Y-18038478D01*
X13089855Y-18025067D01*
X13078884Y-18011704D01*
X13067856Y-17998388D01*
X13056771Y-17985121D01*
X13045630Y-17971902D01*
X13034432Y-17958732D01*
X13023178Y-17945610D01*
X13011868Y-17932538D01*
X13000502Y-17919515D01*
X12989081Y-17906542D01*
X12977603Y-17893618D01*
X12966071Y-17880745D01*
X12954482Y-17867922D01*
X12942839Y-17855150D01*
X12931140Y-17842429D01*
X12919386Y-17829759D01*
X12907578Y-17817141D01*
X12895714Y-17804575D01*
X12883796Y-17792060D01*
X12871824Y-17779598D01*
X12859797Y-17767189D01*
X12847716Y-17754832D01*
X12835580Y-17742528D01*
X12823391Y-17730278D01*
X12811148Y-17718082D01*
X10086666Y-17104958D02*
X11020803Y-17104958D01*
X9904627Y-9595039D02*
X10086666Y-9595039D01*
X11092081Y-4095933D02*
X11039612Y-4003589D01*
X10989172Y-3911855D01*
X10940686Y-3820865D01*
X10894075Y-3730754D01*
X10849261Y-3641656D01*
X10806167Y-3553706D01*
X10764715Y-3467038D01*
X10724828Y-3381786D01*
X10686427Y-3298085D01*
X10649435Y-3216069D01*
X10613774Y-3135873D01*
X10579367Y-3057631D01*
X10546135Y-2981478D01*
X10514002Y-2907548D01*
X10482890Y-2835975D01*
X10452720Y-2766894D01*
X10423415Y-2700439D01*
X10394897Y-2636744D01*
X10367090Y-2575945D01*
X10339914Y-2518175D01*
X10313292Y-2463569D01*
X10287148Y-2412261D01*
X10261402Y-2364387D01*
X10235977Y-2320079D01*
X10210795Y-2279472D01*
X10185780Y-2242702D01*
X10160853Y-2209902D01*
X10135936Y-2181207D01*
X10110951Y-2156751D01*
X10085822Y-2136669D01*
X10060470Y-2121095D01*
X10034818Y-2110164D01*
X9904627Y-17104958D02*
X9904627Y-16715492D01*
X4299000Y-15007000D02*
X4371136Y-14993143D01*
X4441598Y-14977107D01*
X4510541Y-14959192D01*
X4578119Y-14939702D01*
X4644488Y-14918935D01*
X4709803Y-14897195D01*
X4774219Y-14874782D01*
X4837890Y-14851997D01*
X4900973Y-14829142D01*
X4963621Y-14806518D01*
X5025990Y-14784426D01*
X5088236Y-14763168D01*
X5150512Y-14743044D01*
X5212974Y-14724356D01*
X5275777Y-14707406D01*
X5339076Y-14692494D01*
X5403027Y-14679923D01*
X5467783Y-14669992D01*
X5533501Y-14663004D01*
X5600335Y-14659259D01*
X5668440Y-14659059D01*
X5737971Y-14662706D01*
X5809084Y-14670500D01*
X5881933Y-14682743D01*
X5956673Y-14699736D01*
X6033460Y-14721780D01*
X6112448Y-14749177D01*
X6193793Y-14782227D01*
X6277649Y-14821233D01*
X6364171Y-14866495D01*
X6453515Y-14918315D01*
X6545836Y-14976994D01*
X8851584Y-15152349D02*
X8861825Y-15156852D01*
X8869331Y-15164034D01*
X8874427Y-15173294D01*
X8877433Y-15184033D01*
X8878673Y-15195652D01*
X8878749Y-15199616D01*
X13016819Y-8507423D02*
X13120481Y-8494309D01*
X13208573Y-8477655D01*
X13281817Y-8457463D01*
X13340940Y-8433735D01*
X13386665Y-8406476D01*
X13419716Y-8375686D01*
X13440817Y-8341369D01*
X13450693Y-8303528D01*
X13450067Y-8262165D01*
X13439665Y-8217283D01*
X13420210Y-8168884D01*
X13392426Y-8116972D01*
X13357037Y-8061548D01*
X13314768Y-8002615D01*
X13266344Y-7940177D01*
X13212487Y-7874235D01*
X13153923Y-7804793D01*
X13091375Y-7731853D01*
X13025567Y-7655417D01*
X12957225Y-7575489D01*
X12887072Y-7492071D01*
X12815832Y-7405165D01*
X12744230Y-7314775D01*
X12672989Y-7220902D01*
X12602834Y-7123551D01*
X12534489Y-7022722D01*
X12468678Y-6918420D01*
X12406126Y-6810646D01*
X12347557Y-6699403D01*
X12293694Y-6584694D01*
X12245262Y-6466522D01*
X12202986Y-6344889D01*
X13521662Y-10596904D02*
X13519077Y-10586393D01*
X13520757Y-10576021D01*
X13528160Y-10567503D01*
X13538787Y-10563742D01*
X13546364Y-10563419D01*
X10086666Y-9595039D02*
X10086666Y-16715836D01*
X11114648Y-16715836D02*
X11114648Y-15199616D01*
X8597939Y-15097297D02*
X8615416Y-15100613D01*
X8632657Y-15103946D01*
X8649666Y-15107295D01*
X8666448Y-15110662D01*
X8683006Y-15114045D01*
X8699346Y-15117444D01*
X8715470Y-15120861D01*
X8731383Y-15124294D01*
X8747089Y-15127743D01*
X8762592Y-15131209D01*
X8777897Y-15134692D01*
X8793007Y-15138191D01*
X8807927Y-15141706D01*
X8822660Y-15145237D01*
X8837211Y-15148785D01*
X8851584Y-15152349D01*
X7762918Y-6312797D02*
X7773990Y-6313083D01*
X7783962Y-6317303D01*
X7790741Y-6326460D01*
X7791962Y-6337537D01*
X7790442Y-6344889D01*
X5503025Y-12690314D02*
X5513370Y-12692043D01*
X5519611Y-12693140D01*
X12811148Y-17718082D02*
X12767062Y-17674927D01*
X12722316Y-17632452D01*
X12676919Y-17590666D01*
X12630880Y-17549577D01*
X12584205Y-17509194D01*
X12536905Y-17469524D01*
X12488987Y-17430576D01*
X12440460Y-17392358D01*
X12391332Y-17354878D01*
X12341611Y-17318146D01*
X12291305Y-17282169D01*
X12240424Y-17246955D01*
X12188974Y-17212513D01*
X12136966Y-17178852D01*
X12084406Y-17145979D01*
X12031303Y-17113902D01*
X11977666Y-17082631D01*
X11923503Y-17052173D01*
X11868822Y-17022537D01*
X11813632Y-16993731D01*
X11757941Y-16965764D01*
X11701756Y-16938643D01*
X11645088Y-16912377D01*
X11587943Y-16886975D01*
X11530331Y-16862444D01*
X11472259Y-16838794D01*
X11413736Y-16816031D01*
X11354771Y-16794166D01*
X11295371Y-16773205D01*
X11235545Y-16753157D01*
X11175301Y-16734032D01*
X11114648Y-16715836D01*
X9958613Y-2110164D02*
X9932989Y-2121095D01*
X9907662Y-2136669D01*
X9882555Y-2156751D01*
X9857589Y-2181207D01*
X9832687Y-2209902D01*
X9807771Y-2242702D01*
X9782765Y-2279472D01*
X9757591Y-2320079D01*
X9732170Y-2364387D01*
X9706427Y-2412261D01*
X9680282Y-2463569D01*
X9653658Y-2518175D01*
X9626479Y-2575945D01*
X9598666Y-2636744D01*
X9570142Y-2700439D01*
X9540830Y-2766894D01*
X9510652Y-2835975D01*
X9479529Y-2907548D01*
X9447386Y-2981478D01*
X9414144Y-3057631D01*
X9379726Y-3135873D01*
X9344055Y-3216069D01*
X9307052Y-3298085D01*
X9268640Y-3381786D01*
X9228742Y-3467038D01*
X9187281Y-3553706D01*
X9144178Y-3641656D01*
X9099356Y-3730754D01*
X9052738Y-3820865D01*
X9004247Y-3911855D01*
X8953803Y-4003589D01*
X8901331Y-4095933D01*
X12230476Y-6312797D02*
X12299906Y-6319519D01*
X12361084Y-6321738D01*
X12414303Y-6319618D01*
X12459859Y-6313321D01*
X12498045Y-6303013D01*
X12529156Y-6288858D01*
X12553486Y-6271019D01*
X12571331Y-6249660D01*
X12582984Y-6224945D01*
X12588740Y-6197038D01*
X12588894Y-6166103D01*
X12583740Y-6132304D01*
X12573572Y-6095805D01*
X12558686Y-6056770D01*
X12539375Y-6015363D01*
X12515934Y-5971748D01*
X12488657Y-5926088D01*
X12457840Y-5878548D01*
X12423776Y-5829292D01*
X12386760Y-5778483D01*
X12347087Y-5726285D01*
X12305051Y-5672863D01*
X12260946Y-5618381D01*
X12215067Y-5563001D01*
X12167709Y-5506889D01*
X12119165Y-5450209D01*
X12069732Y-5393123D01*
X12019702Y-5335796D01*
X11969370Y-5278393D01*
X11919032Y-5221076D01*
X11868981Y-5164011D01*
X11819512Y-5107360D01*
X6545836Y-14976994D02*
X6636780Y-15034769D01*
X6723697Y-15085063D01*
X6806818Y-15128274D01*
X6886372Y-15164802D01*
X6962588Y-15195048D01*
X7035696Y-15219410D01*
X7105926Y-15238289D01*
X7173507Y-15252083D01*
X7238670Y-15261194D01*
X7301643Y-15266021D01*
X7362657Y-15266962D01*
X7421940Y-15264419D01*
X7479723Y-15258791D01*
X7536235Y-15250477D01*
X7591706Y-15239878D01*
X7646366Y-15227392D01*
X7700444Y-15213420D01*
X7754169Y-15198362D01*
X7807772Y-15182616D01*
X7861482Y-15166584D01*
X7915529Y-15150664D01*
X7970142Y-15135256D01*
X8025551Y-15120761D01*
X8081986Y-15107577D01*
X8139675Y-15096105D01*
X8198850Y-15086744D01*
X8259739Y-15079893D01*
X8322572Y-15075954D01*
X8387579Y-15075325D01*
X8454990Y-15078406D01*
X8525033Y-15085597D01*
X8597939Y-15097297D01*
X11020803Y-17104958D02*
X11161392Y-17149926D01*
X11299186Y-17200398D01*
X11434073Y-17256229D01*
X11565945Y-17317271D01*
X11694692Y-17383382D01*
X11820206Y-17454413D01*
X11942377Y-17530221D01*
X12061095Y-17610659D01*
X12176251Y-17695582D01*
X12287737Y-17784845D01*
X12395442Y-17878302D01*
X12499258Y-17975807D01*
X12599075Y-18077215D01*
X12694783Y-18182380D01*
X12786275Y-18291157D01*
X12873439Y-18403400D01*
X12956168Y-18518964D01*
X13034351Y-18637703D01*
X13107880Y-18759472D01*
X13176645Y-18884125D01*
X13240537Y-19011516D01*
X13299446Y-19141501D01*
X13353264Y-19273933D01*
X13401880Y-19408667D01*
X13445186Y-19545557D01*
X13483073Y-19684458D01*
X13515431Y-19825225D01*
X13542150Y-19967712D01*
X13563123Y-20111772D01*
X13578238Y-20257262D01*
X13587388Y-20404035D01*
X13590462Y-20551945D01*
X15155359Y-13774726D02*
X15122070Y-13744643D01*
X15089664Y-13714139D01*
X15058130Y-13683237D01*
X15027457Y-13651966D01*
X14997631Y-13620350D01*
X14968643Y-13588416D01*
X14940479Y-13556191D01*
X14913129Y-13523700D01*
X14886580Y-13490970D01*
X14860821Y-13458026D01*
X14835840Y-13424896D01*
X14811626Y-13391604D01*
X14788167Y-13358178D01*
X14765450Y-13324643D01*
X14743465Y-13291025D01*
X14722200Y-13257352D01*
X14701642Y-13223648D01*
X14681781Y-13189941D01*
X14662604Y-13156255D01*
X14644100Y-13122618D01*
X14626257Y-13089056D01*
X14609063Y-13055595D01*
X14592507Y-13022260D01*
X14576578Y-12989078D01*
X14561262Y-12956076D01*
X14546549Y-12923279D01*
X14532427Y-12890714D01*
X14518884Y-12858406D01*
X14505908Y-12826383D01*
X14493488Y-12794669D01*
X14481612Y-12763292D01*
X14470269Y-12732277D01*
X13590462Y-20551945D02*
X13990506Y-20551945D01*
X8970475Y-17104958D02*
X9904627Y-17104958D01*
X8173900Y-5107360D02*
X8124461Y-5164011D01*
X8074437Y-5221076D01*
X8024121Y-5278393D01*
X7973809Y-5335796D01*
X7923795Y-5393123D01*
X7874374Y-5450209D01*
X7825841Y-5506889D01*
X7778490Y-5563001D01*
X7732616Y-5618381D01*
X7688513Y-5672863D01*
X7646477Y-5726285D01*
X7606802Y-5778483D01*
X7569783Y-5829292D01*
X7535714Y-5878548D01*
X7504889Y-5926088D01*
X7477605Y-5971748D01*
X7454155Y-6015363D01*
X7434834Y-6056770D01*
X7419937Y-6095805D01*
X7409759Y-6132304D01*
X7404593Y-6166103D01*
X7404735Y-6197038D01*
X7410480Y-6224945D01*
X7422122Y-6249660D01*
X7439956Y-6271019D01*
X7464276Y-6288858D01*
X7495378Y-6303013D01*
X7533555Y-6313321D01*
X7579103Y-6319618D01*
X7632317Y-6321738D01*
X7693490Y-6319519D01*
X7762918Y-6312797D01*
X6000443Y-20551945D02*
X6400487Y-20551945D01*
X13546364Y-10563419D02*
X13558869Y-10563835D01*
X13571581Y-10564096D01*
X13584504Y-10564195D01*
X13597641Y-10564126D01*
X13610998Y-10563880D01*
X13624576Y-10563453D01*
X13638380Y-10562835D01*
X13652414Y-10562021D01*
X13666682Y-10561003D01*
X13681186Y-10559775D01*
X13690990Y-10558836D01*
D11*
D10*
X6001000Y-13612000D02*
X6031000Y-13642000D01*
X6031000Y-13612000D02*
X6001000Y-13642000D01*
X6619000Y-13598000D02*
X6649000Y-13628000D01*
X6649000Y-13598000D02*
X6619000Y-13628000D01*
X6943000Y-13815000D02*
X6973000Y-13845000D01*
X6973000Y-13815000D02*
X6943000Y-13845000D01*
X7236000Y-9905000D02*
X7266000Y-9935000D01*
X7266000Y-9905000D02*
X7236000Y-9935000D01*
X7345000Y-12601000D02*
X7375000Y-12631000D01*
X7375000Y-12601000D02*
X7345000Y-12631000D01*
X7758000Y-11016000D02*
X7788000Y-11046000D01*
X7788000Y-11016000D02*
X7758000Y-11046000D01*
X8178000Y-14082000D02*
X8208000Y-14112000D01*
X8208000Y-14082000D02*
X8178000Y-14112000D01*
X8355000Y-9958000D02*
X8385000Y-9988000D01*
X8385000Y-9958000D02*
X8355000Y-9988000D01*
X8450000Y-12658000D02*
X8480000Y-12688000D01*
X8480000Y-12658000D02*
X8450000Y-12688000D01*
X8543000Y-11372000D02*
X8573000Y-11402000D01*
X8573000Y-11372000D02*
X8543000Y-11402000D01*
X8612000Y-13677000D02*
X8642000Y-13707000D01*
X8642000Y-13677000D02*
X8612000Y-13707000D01*
X8618000Y-7852000D02*
X8648000Y-7882000D01*
X8648000Y-7852000D02*
X8618000Y-7882000D01*
X8659000Y-6409000D02*
X8689000Y-6439000D01*
X8689000Y-6409000D02*
X8659000Y-6439000D01*
X8866000Y-5459000D02*
X8896000Y-5489000D01*
X8896000Y-5459000D02*
X8866000Y-5489000D01*
X8899000Y-6824000D02*
X8929000Y-6854000D01*
X8929000Y-6824000D02*
X8899000Y-6854000D01*
X9146000Y-12264000D02*
X9176000Y-12294000D01*
X9176000Y-12264000D02*
X9146000Y-12294000D01*
X9267000Y-8805000D02*
X9297000Y-8835000D01*
X9297000Y-8805000D02*
X9267000Y-8835000D01*
X9654000Y-11431000D02*
X9684000Y-11461000D01*
X9684000Y-11431000D02*
X9654000Y-11461000D01*
X9717000Y-7906000D02*
X9747000Y-7936000D01*
X9747000Y-7906000D02*
X9717000Y-7936000D01*
X10561000Y-9033000D02*
X10591000Y-9063000D01*
X10591000Y-9033000D02*
X10561000Y-9063000D01*
X10723000Y-7098000D02*
X10753000Y-7128000D01*
X10753000Y-7098000D02*
X10723000Y-7128000D01*
X10815000Y-5529000D02*
X10845000Y-5559000D01*
X10845000Y-5529000D02*
X10815000Y-5559000D01*
X10834000Y-12821000D02*
X10864000Y-12851000D01*
X10864000Y-12821000D02*
X10834000Y-12851000D01*
X11014000Y-4581000D02*
X11044000Y-4611000D01*
X11044000Y-4581000D02*
X11014000Y-4611000D01*
X11039000Y-12005000D02*
X11069000Y-12035000D01*
X11069000Y-12005000D02*
X11039000Y-12035000D01*
X11191000Y-6269000D02*
X11221000Y-6299000D01*
X11221000Y-6269000D02*
X11191000Y-6299000D01*
X11392000Y-7828000D02*
X11422000Y-7858000D01*
X11422000Y-7828000D02*
X11392000Y-7858000D01*
X11481000Y-13873000D02*
X11511000Y-13903000D01*
X11511000Y-13873000D02*
X11481000Y-13903000D01*
X11683000Y-7299000D02*
X11713000Y-7329000D01*
X11713000Y-7299000D02*
X11683000Y-7329000D01*
X11998000Y-9908000D02*
X12028000Y-9938000D01*
X12028000Y-9908000D02*
X11998000Y-9938000D01*
X12009000Y-11899000D02*
X12039000Y-11929000D01*
X12039000Y-11899000D02*
X12009000Y-11929000D01*
X12108000Y-11122000D02*
X12138000Y-11152000D01*
X12138000Y-11122000D02*
X12108000Y-11152000D01*
X12442000Y-14085000D02*
X12472000Y-14115000D01*
X12472000Y-14085000D02*
X12442000Y-14115000D01*
X12857000Y-12896000D02*
X12887000Y-12926000D01*
X12887000Y-12896000D02*
X12857000Y-12926000D01*
X13030000Y-13740000D02*
X13060000Y-13770000D01*
X13060000Y-13740000D02*
X13030000Y-13770000D01*
X13156000Y-9960000D02*
X13186000Y-9990000D01*
X13186000Y-9960000D02*
X13156000Y-9990000D01*
X13780000Y-14233000D02*
X13810000Y-14263000D01*
X13810000Y-14233000D02*
X13780000Y-14263000D01*
X14026000Y-12942000D02*
X14056000Y-12972000D01*
X14056000Y-12942000D02*
X14026000Y-12972000D01*
X9061000Y-16678000D02*
G75*
G02*
X8961000Y-16678000I-50000J0D01*
G01*
X8961000Y-16678000D02*
G75*
G02*
X9061000Y-16678000I50000J0D01*
G01*
X9315000Y-16678000D02*
G75*
G02*
X9215000Y-16678000I-50000J0D01*
G01*
X9215000Y-16678000D02*
G75*
G02*
X9315000Y-16678000I50000J0D01*
G01*
X9569000Y-16678000D02*
G75*
G02*
X9469000Y-16678000I-50000J0D01*
G01*
X9469000Y-16678000D02*
G75*
G02*
X9569000Y-16678000I50000J0D01*
G01*
X9823000Y-16678000D02*
G75*
G02*
X9723000Y-16678000I-50000J0D01*
G01*
X9723000Y-16678000D02*
G75*
G02*
X9823000Y-16678000I50000J0D01*
G01*
X10526000Y-16678000D02*
G75*
G02*
X10426000Y-16678000I-50000J0D01*
G01*
X10426000Y-16678000D02*
G75*
G02*
X10526000Y-16678000I50000J0D01*
G01*
X10780000Y-16678000D02*
G75*
G02*
X10680000Y-16678000I-50000J0D01*
G01*
X10680000Y-16678000D02*
G75*
G02*
X10780000Y-16678000I50000J0D01*
G01*
D11*
X3775842Y-20868429D02*
X3775842Y-20668429D01*
X3775842Y-20668429D02*
X3823461Y-20668429D01*
X3823461Y-20668429D02*
X3852032Y-20677953D01*
X3852032Y-20677953D02*
X3871080Y-20697001D01*
X3871080Y-20697001D02*
X3880604Y-20716048D01*
X3880604Y-20716048D02*
X3890127Y-20754143D01*
X3890127Y-20754143D02*
X3890127Y-20782715D01*
X3890127Y-20782715D02*
X3880604Y-20820810D01*
X3880604Y-20820810D02*
X3871080Y-20839858D01*
X3871080Y-20839858D02*
X3852032Y-20858905D01*
X3852032Y-20858905D02*
X3823461Y-20868429D01*
X3823461Y-20868429D02*
X3775842Y-20868429D01*
X3975842Y-20868429D02*
X3975842Y-20735096D01*
X3975842Y-20773191D02*
X3985366Y-20754143D01*
X3985366Y-20754143D02*
X3994889Y-20744620D01*
X3994889Y-20744620D02*
X4013937Y-20735096D01*
X4013937Y-20735096D02*
X4032985Y-20735096D01*
X4099651Y-20868429D02*
X4099651Y-20735096D01*
X4099651Y-20668429D02*
X4090127Y-20677953D01*
X4090127Y-20677953D02*
X4099651Y-20687477D01*
X4099651Y-20687477D02*
X4109175Y-20677953D01*
X4109175Y-20677953D02*
X4099651Y-20668429D01*
X4099651Y-20668429D02*
X4099651Y-20687477D01*
X4223461Y-20868429D02*
X4204413Y-20858905D01*
X4204413Y-20858905D02*
X4194889Y-20839858D01*
X4194889Y-20839858D02*
X4194889Y-20668429D01*
X4328223Y-20868429D02*
X4309175Y-20858905D01*
X4309175Y-20858905D02*
X4299651Y-20839858D01*
X4299651Y-20839858D02*
X4299651Y-20668429D01*
X4556794Y-20868429D02*
X4556794Y-20668429D01*
X4556794Y-20668429D02*
X4623461Y-20811286D01*
X4623461Y-20811286D02*
X4690128Y-20668429D01*
X4690128Y-20668429D02*
X4690128Y-20868429D01*
X4871080Y-20868429D02*
X4871080Y-20763667D01*
X4871080Y-20763667D02*
X4861556Y-20744620D01*
X4861556Y-20744620D02*
X4842509Y-20735096D01*
X4842509Y-20735096D02*
X4804413Y-20735096D01*
X4804413Y-20735096D02*
X4785366Y-20744620D01*
X4871080Y-20858905D02*
X4852032Y-20868429D01*
X4852032Y-20868429D02*
X4804413Y-20868429D01*
X4804413Y-20868429D02*
X4785366Y-20858905D01*
X4785366Y-20858905D02*
X4775842Y-20839858D01*
X4775842Y-20839858D02*
X4775842Y-20820810D01*
X4775842Y-20820810D02*
X4785366Y-20801762D01*
X4785366Y-20801762D02*
X4804413Y-20792239D01*
X4804413Y-20792239D02*
X4852032Y-20792239D01*
X4852032Y-20792239D02*
X4871080Y-20782715D01*
X4966318Y-20735096D02*
X4966318Y-20935096D01*
X4966318Y-20744620D02*
X4985366Y-20735096D01*
X4985366Y-20735096D02*
X5023461Y-20735096D01*
X5023461Y-20735096D02*
X5042509Y-20744620D01*
X5042509Y-20744620D02*
X5052032Y-20754143D01*
X5052032Y-20754143D02*
X5061556Y-20773191D01*
X5061556Y-20773191D02*
X5061556Y-20830334D01*
X5061556Y-20830334D02*
X5052032Y-20849381D01*
X5052032Y-20849381D02*
X5042509Y-20858905D01*
X5042509Y-20858905D02*
X5023461Y-20868429D01*
X5023461Y-20868429D02*
X4985366Y-20868429D01*
X4985366Y-20868429D02*
X4966318Y-20858905D01*
X5147270Y-20849381D02*
X5156794Y-20858905D01*
X5156794Y-20858905D02*
X5147270Y-20868429D01*
X5147270Y-20868429D02*
X5137747Y-20858905D01*
X5137747Y-20858905D02*
X5147270Y-20849381D01*
X5147270Y-20849381D02*
X5147270Y-20868429D01*
X5147270Y-20744620D02*
X5156794Y-20754143D01*
X5156794Y-20754143D02*
X5147270Y-20763667D01*
X5147270Y-20763667D02*
X5137747Y-20754143D01*
X5137747Y-20754143D02*
X5147270Y-20744620D01*
X5147270Y-20744620D02*
X5147270Y-20763667D01*
D10*
X3485065Y-21181945D02*
X3515065Y-21211945D01*
X3515065Y-21181945D02*
X3485065Y-21211945D01*
D11*
X3813937Y-21088429D02*
X3832985Y-21088429D01*
X3832985Y-21088429D02*
X3852032Y-21097953D01*
X3852032Y-21097953D02*
X3861556Y-21107477D01*
X3861556Y-21107477D02*
X3871080Y-21126524D01*
X3871080Y-21126524D02*
X3880604Y-21164620D01*
X3880604Y-21164620D02*
X3880604Y-21212239D01*
X3880604Y-21212239D02*
X3871080Y-21250334D01*
X3871080Y-21250334D02*
X3861556Y-21269381D01*
X3861556Y-21269381D02*
X3852032Y-21278905D01*
X3852032Y-21278905D02*
X3832985Y-21288429D01*
X3832985Y-21288429D02*
X3813937Y-21288429D01*
X3813937Y-21288429D02*
X3794889Y-21278905D01*
X3794889Y-21278905D02*
X3785366Y-21269381D01*
X3785366Y-21269381D02*
X3775842Y-21250334D01*
X3775842Y-21250334D02*
X3766318Y-21212239D01*
X3766318Y-21212239D02*
X3766318Y-21164620D01*
X3766318Y-21164620D02*
X3775842Y-21126524D01*
X3775842Y-21126524D02*
X3785366Y-21107477D01*
X3785366Y-21107477D02*
X3794889Y-21097953D01*
X3794889Y-21097953D02*
X3813937Y-21088429D01*
X3966318Y-21269381D02*
X3975842Y-21278905D01*
X3975842Y-21278905D02*
X3966318Y-21288429D01*
X3966318Y-21288429D02*
X3956794Y-21278905D01*
X3956794Y-21278905D02*
X3966318Y-21269381D01*
X3966318Y-21269381D02*
X3966318Y-21288429D01*
X4042508Y-21088429D02*
X4166318Y-21088429D01*
X4166318Y-21088429D02*
X4099651Y-21164620D01*
X4099651Y-21164620D02*
X4128223Y-21164620D01*
X4128223Y-21164620D02*
X4147270Y-21174143D01*
X4147270Y-21174143D02*
X4156794Y-21183667D01*
X4156794Y-21183667D02*
X4166318Y-21202715D01*
X4166318Y-21202715D02*
X4166318Y-21250334D01*
X4166318Y-21250334D02*
X4156794Y-21269381D01*
X4156794Y-21269381D02*
X4147270Y-21278905D01*
X4147270Y-21278905D02*
X4128223Y-21288429D01*
X4128223Y-21288429D02*
X4071080Y-21288429D01*
X4071080Y-21288429D02*
X4052032Y-21278905D01*
X4052032Y-21278905D02*
X4042508Y-21269381D01*
X4290128Y-21088429D02*
X4309175Y-21088429D01*
X4309175Y-21088429D02*
X4328223Y-21097953D01*
X4328223Y-21097953D02*
X4337747Y-21107477D01*
X4337747Y-21107477D02*
X4347270Y-21126524D01*
X4347270Y-21126524D02*
X4356794Y-21164620D01*
X4356794Y-21164620D02*
X4356794Y-21212239D01*
X4356794Y-21212239D02*
X4347270Y-21250334D01*
X4347270Y-21250334D02*
X4337747Y-21269381D01*
X4337747Y-21269381D02*
X4328223Y-21278905D01*
X4328223Y-21278905D02*
X4309175Y-21288429D01*
X4309175Y-21288429D02*
X4290128Y-21288429D01*
X4290128Y-21288429D02*
X4271080Y-21278905D01*
X4271080Y-21278905D02*
X4261556Y-21269381D01*
X4261556Y-21269381D02*
X4252032Y-21250334D01*
X4252032Y-21250334D02*
X4242509Y-21212239D01*
X4242509Y-21212239D02*
X4242509Y-21164620D01*
X4242509Y-21164620D02*
X4252032Y-21126524D01*
X4252032Y-21126524D02*
X4261556Y-21107477D01*
X4261556Y-21107477D02*
X4271080Y-21097953D01*
X4271080Y-21097953D02*
X4290128Y-21088429D01*
X4480604Y-21088429D02*
X4499651Y-21088429D01*
X4499651Y-21088429D02*
X4518699Y-21097953D01*
X4518699Y-21097953D02*
X4528223Y-21107477D01*
X4528223Y-21107477D02*
X4537747Y-21126524D01*
X4537747Y-21126524D02*
X4547270Y-21164620D01*
X4547270Y-21164620D02*
X4547270Y-21212239D01*
X4547270Y-21212239D02*
X4537747Y-21250334D01*
X4537747Y-21250334D02*
X4528223Y-21269381D01*
X4528223Y-21269381D02*
X4518699Y-21278905D01*
X4518699Y-21278905D02*
X4499651Y-21288429D01*
X4499651Y-21288429D02*
X4480604Y-21288429D01*
X4480604Y-21288429D02*
X4461556Y-21278905D01*
X4461556Y-21278905D02*
X4452032Y-21269381D01*
X4452032Y-21269381D02*
X4442509Y-21250334D01*
X4442509Y-21250334D02*
X4432985Y-21212239D01*
X4432985Y-21212239D02*
X4432985Y-21164620D01*
X4432985Y-21164620D02*
X4442509Y-21126524D01*
X4442509Y-21126524D02*
X4452032Y-21107477D01*
X4452032Y-21107477D02*
X4461556Y-21097953D01*
X4461556Y-21097953D02*
X4480604Y-21088429D01*
X4632985Y-21288429D02*
X4632985Y-21155096D01*
X4632985Y-21174143D02*
X4642509Y-21164620D01*
X4642509Y-21164620D02*
X4661556Y-21155096D01*
X4661556Y-21155096D02*
X4690128Y-21155096D01*
X4690128Y-21155096D02*
X4709175Y-21164620D01*
X4709175Y-21164620D02*
X4718699Y-21183667D01*
X4718699Y-21183667D02*
X4718699Y-21288429D01*
X4718699Y-21183667D02*
X4728223Y-21164620D01*
X4728223Y-21164620D02*
X4747270Y-21155096D01*
X4747270Y-21155096D02*
X4775842Y-21155096D01*
X4775842Y-21155096D02*
X4794890Y-21164620D01*
X4794890Y-21164620D02*
X4804413Y-21183667D01*
X4804413Y-21183667D02*
X4804413Y-21288429D01*
X4899651Y-21288429D02*
X4899651Y-21155096D01*
X4899651Y-21174143D02*
X4909175Y-21164620D01*
X4909175Y-21164620D02*
X4928223Y-21155096D01*
X4928223Y-21155096D02*
X4956794Y-21155096D01*
X4956794Y-21155096D02*
X4975842Y-21164620D01*
X4975842Y-21164620D02*
X4985366Y-21183667D01*
X4985366Y-21183667D02*
X4985366Y-21288429D01*
X4985366Y-21183667D02*
X4994890Y-21164620D01*
X4994890Y-21164620D02*
X5013937Y-21155096D01*
X5013937Y-21155096D02*
X5042509Y-21155096D01*
X5042509Y-21155096D02*
X5061556Y-21164620D01*
X5061556Y-21164620D02*
X5071080Y-21183667D01*
X5071080Y-21183667D02*
X5071080Y-21288429D01*
X5461556Y-21078905D02*
X5290128Y-21336048D01*
X5718699Y-21088429D02*
X5737747Y-21088429D01*
X5737747Y-21088429D02*
X5756794Y-21097953D01*
X5756794Y-21097953D02*
X5766318Y-21107477D01*
X5766318Y-21107477D02*
X5775842Y-21126524D01*
X5775842Y-21126524D02*
X5785366Y-21164620D01*
X5785366Y-21164620D02*
X5785366Y-21212239D01*
X5785366Y-21212239D02*
X5775842Y-21250334D01*
X5775842Y-21250334D02*
X5766318Y-21269381D01*
X5766318Y-21269381D02*
X5756794Y-21278905D01*
X5756794Y-21278905D02*
X5737747Y-21288429D01*
X5737747Y-21288429D02*
X5718699Y-21288429D01*
X5718699Y-21288429D02*
X5699651Y-21278905D01*
X5699651Y-21278905D02*
X5690128Y-21269381D01*
X5690128Y-21269381D02*
X5680604Y-21250334D01*
X5680604Y-21250334D02*
X5671080Y-21212239D01*
X5671080Y-21212239D02*
X5671080Y-21164620D01*
X5671080Y-21164620D02*
X5680604Y-21126524D01*
X5680604Y-21126524D02*
X5690128Y-21107477D01*
X5690128Y-21107477D02*
X5699651Y-21097953D01*
X5699651Y-21097953D02*
X5718699Y-21088429D01*
X5871080Y-21269381D02*
X5880604Y-21278905D01*
X5880604Y-21278905D02*
X5871080Y-21288429D01*
X5871080Y-21288429D02*
X5861556Y-21278905D01*
X5861556Y-21278905D02*
X5871080Y-21269381D01*
X5871080Y-21269381D02*
X5871080Y-21288429D01*
X6004413Y-21088429D02*
X6023461Y-21088429D01*
X6023461Y-21088429D02*
X6042509Y-21097953D01*
X6042509Y-21097953D02*
X6052032Y-21107477D01*
X6052032Y-21107477D02*
X6061556Y-21126524D01*
X6061556Y-21126524D02*
X6071080Y-21164620D01*
X6071080Y-21164620D02*
X6071080Y-21212239D01*
X6071080Y-21212239D02*
X6061556Y-21250334D01*
X6061556Y-21250334D02*
X6052032Y-21269381D01*
X6052032Y-21269381D02*
X6042509Y-21278905D01*
X6042509Y-21278905D02*
X6023461Y-21288429D01*
X6023461Y-21288429D02*
X6004413Y-21288429D01*
X6004413Y-21288429D02*
X5985366Y-21278905D01*
X5985366Y-21278905D02*
X5975842Y-21269381D01*
X5975842Y-21269381D02*
X5966318Y-21250334D01*
X5966318Y-21250334D02*
X5956794Y-21212239D01*
X5956794Y-21212239D02*
X5956794Y-21164620D01*
X5956794Y-21164620D02*
X5966318Y-21126524D01*
X5966318Y-21126524D02*
X5975842Y-21107477D01*
X5975842Y-21107477D02*
X5985366Y-21097953D01*
X5985366Y-21097953D02*
X6004413Y-21088429D01*
X6261556Y-21288429D02*
X6147271Y-21288429D01*
X6204413Y-21288429D02*
X6204413Y-21088429D01*
X6204413Y-21088429D02*
X6185366Y-21117001D01*
X6185366Y-21117001D02*
X6166318Y-21136048D01*
X6166318Y-21136048D02*
X6147271Y-21145572D01*
X6452032Y-21288429D02*
X6337747Y-21288429D01*
X6394890Y-21288429D02*
X6394890Y-21088429D01*
X6394890Y-21088429D02*
X6375842Y-21117001D01*
X6375842Y-21117001D02*
X6356794Y-21136048D01*
X6356794Y-21136048D02*
X6337747Y-21145572D01*
X6566318Y-21174143D02*
X6547271Y-21164620D01*
X6547271Y-21164620D02*
X6537747Y-21155096D01*
X6537747Y-21155096D02*
X6528223Y-21136048D01*
X6528223Y-21136048D02*
X6528223Y-21126524D01*
X6528223Y-21126524D02*
X6537747Y-21107477D01*
X6537747Y-21107477D02*
X6547271Y-21097953D01*
X6547271Y-21097953D02*
X6566318Y-21088429D01*
X6566318Y-21088429D02*
X6604413Y-21088429D01*
X6604413Y-21088429D02*
X6623461Y-21097953D01*
X6623461Y-21097953D02*
X6632985Y-21107477D01*
X6632985Y-21107477D02*
X6642509Y-21126524D01*
X6642509Y-21126524D02*
X6642509Y-21136048D01*
X6642509Y-21136048D02*
X6632985Y-21155096D01*
X6632985Y-21155096D02*
X6623461Y-21164620D01*
X6623461Y-21164620D02*
X6604413Y-21174143D01*
X6604413Y-21174143D02*
X6566318Y-21174143D01*
X6566318Y-21174143D02*
X6547271Y-21183667D01*
X6547271Y-21183667D02*
X6537747Y-21193191D01*
X6537747Y-21193191D02*
X6528223Y-21212239D01*
X6528223Y-21212239D02*
X6528223Y-21250334D01*
X6528223Y-21250334D02*
X6537747Y-21269381D01*
X6537747Y-21269381D02*
X6547271Y-21278905D01*
X6547271Y-21278905D02*
X6566318Y-21288429D01*
X6566318Y-21288429D02*
X6604413Y-21288429D01*
X6604413Y-21288429D02*
X6623461Y-21278905D01*
X6623461Y-21278905D02*
X6632985Y-21269381D01*
X6632985Y-21269381D02*
X6642509Y-21250334D01*
X6642509Y-21250334D02*
X6642509Y-21212239D01*
X6642509Y-21212239D02*
X6632985Y-21193191D01*
X6632985Y-21193191D02*
X6623461Y-21183667D01*
X6623461Y-21183667D02*
X6604413Y-21174143D01*
X6718699Y-21088429D02*
X6718699Y-21126524D01*
X6794890Y-21088429D02*
X6794890Y-21126524D01*
X7090128Y-21364620D02*
X7080604Y-21355096D01*
X7080604Y-21355096D02*
X7061556Y-21326524D01*
X7061556Y-21326524D02*
X7052033Y-21307477D01*
X7052033Y-21307477D02*
X7042509Y-21278905D01*
X7042509Y-21278905D02*
X7032985Y-21231286D01*
X7032985Y-21231286D02*
X7032985Y-21193191D01*
X7032985Y-21193191D02*
X7042509Y-21145572D01*
X7042509Y-21145572D02*
X7052033Y-21117001D01*
X7052033Y-21117001D02*
X7061556Y-21097953D01*
X7061556Y-21097953D02*
X7080604Y-21069381D01*
X7080604Y-21069381D02*
X7090128Y-21059858D01*
X7147271Y-21088429D02*
X7271080Y-21088429D01*
X7271080Y-21088429D02*
X7204413Y-21164620D01*
X7204413Y-21164620D02*
X7232985Y-21164620D01*
X7232985Y-21164620D02*
X7252033Y-21174143D01*
X7252033Y-21174143D02*
X7261556Y-21183667D01*
X7261556Y-21183667D02*
X7271080Y-21202715D01*
X7271080Y-21202715D02*
X7271080Y-21250334D01*
X7271080Y-21250334D02*
X7261556Y-21269381D01*
X7261556Y-21269381D02*
X7252033Y-21278905D01*
X7252033Y-21278905D02*
X7232985Y-21288429D01*
X7232985Y-21288429D02*
X7175842Y-21288429D01*
X7175842Y-21288429D02*
X7156794Y-21278905D01*
X7156794Y-21278905D02*
X7147271Y-21269381D01*
X7385366Y-21174143D02*
X7366318Y-21164620D01*
X7366318Y-21164620D02*
X7356794Y-21155096D01*
X7356794Y-21155096D02*
X7347271Y-21136048D01*
X7347271Y-21136048D02*
X7347271Y-21126524D01*
X7347271Y-21126524D02*
X7356794Y-21107477D01*
X7356794Y-21107477D02*
X7366318Y-21097953D01*
X7366318Y-21097953D02*
X7385366Y-21088429D01*
X7385366Y-21088429D02*
X7423461Y-21088429D01*
X7423461Y-21088429D02*
X7442509Y-21097953D01*
X7442509Y-21097953D02*
X7452033Y-21107477D01*
X7452033Y-21107477D02*
X7461556Y-21126524D01*
X7461556Y-21126524D02*
X7461556Y-21136048D01*
X7461556Y-21136048D02*
X7452033Y-21155096D01*
X7452033Y-21155096D02*
X7442509Y-21164620D01*
X7442509Y-21164620D02*
X7423461Y-21174143D01*
X7423461Y-21174143D02*
X7385366Y-21174143D01*
X7385366Y-21174143D02*
X7366318Y-21183667D01*
X7366318Y-21183667D02*
X7356794Y-21193191D01*
X7356794Y-21193191D02*
X7347271Y-21212239D01*
X7347271Y-21212239D02*
X7347271Y-21250334D01*
X7347271Y-21250334D02*
X7356794Y-21269381D01*
X7356794Y-21269381D02*
X7366318Y-21278905D01*
X7366318Y-21278905D02*
X7385366Y-21288429D01*
X7385366Y-21288429D02*
X7423461Y-21288429D01*
X7423461Y-21288429D02*
X7442509Y-21278905D01*
X7442509Y-21278905D02*
X7452033Y-21269381D01*
X7452033Y-21269381D02*
X7461556Y-21250334D01*
X7461556Y-21250334D02*
X7461556Y-21212239D01*
X7461556Y-21212239D02*
X7452033Y-21193191D01*
X7452033Y-21193191D02*
X7442509Y-21183667D01*
X7442509Y-21183667D02*
X7423461Y-21174143D01*
X7699652Y-21288429D02*
X7699652Y-21088429D01*
X7785366Y-21288429D02*
X7785366Y-21183667D01*
X7785366Y-21183667D02*
X7775842Y-21164620D01*
X7775842Y-21164620D02*
X7756795Y-21155096D01*
X7756795Y-21155096D02*
X7728223Y-21155096D01*
X7728223Y-21155096D02*
X7709175Y-21164620D01*
X7709175Y-21164620D02*
X7699652Y-21174143D01*
X7909175Y-21288429D02*
X7890128Y-21278905D01*
X7890128Y-21278905D02*
X7880604Y-21269381D01*
X7880604Y-21269381D02*
X7871080Y-21250334D01*
X7871080Y-21250334D02*
X7871080Y-21193191D01*
X7871080Y-21193191D02*
X7880604Y-21174143D01*
X7880604Y-21174143D02*
X7890128Y-21164620D01*
X7890128Y-21164620D02*
X7909175Y-21155096D01*
X7909175Y-21155096D02*
X7937747Y-21155096D01*
X7937747Y-21155096D02*
X7956795Y-21164620D01*
X7956795Y-21164620D02*
X7966318Y-21174143D01*
X7966318Y-21174143D02*
X7975842Y-21193191D01*
X7975842Y-21193191D02*
X7975842Y-21250334D01*
X7975842Y-21250334D02*
X7966318Y-21269381D01*
X7966318Y-21269381D02*
X7956795Y-21278905D01*
X7956795Y-21278905D02*
X7937747Y-21288429D01*
X7937747Y-21288429D02*
X7909175Y-21288429D01*
X8090128Y-21288429D02*
X8071080Y-21278905D01*
X8071080Y-21278905D02*
X8061556Y-21259858D01*
X8061556Y-21259858D02*
X8061556Y-21088429D01*
X8242509Y-21278905D02*
X8223461Y-21288429D01*
X8223461Y-21288429D02*
X8185366Y-21288429D01*
X8185366Y-21288429D02*
X8166318Y-21278905D01*
X8166318Y-21278905D02*
X8156795Y-21259858D01*
X8156795Y-21259858D02*
X8156795Y-21183667D01*
X8156795Y-21183667D02*
X8166318Y-21164620D01*
X8166318Y-21164620D02*
X8185366Y-21155096D01*
X8185366Y-21155096D02*
X8223461Y-21155096D01*
X8223461Y-21155096D02*
X8242509Y-21164620D01*
X8242509Y-21164620D02*
X8252033Y-21183667D01*
X8252033Y-21183667D02*
X8252033Y-21202715D01*
X8252033Y-21202715D02*
X8156795Y-21221762D01*
X8328223Y-21278905D02*
X8347271Y-21288429D01*
X8347271Y-21288429D02*
X8385366Y-21288429D01*
X8385366Y-21288429D02*
X8404414Y-21278905D01*
X8404414Y-21278905D02*
X8413938Y-21259858D01*
X8413938Y-21259858D02*
X8413938Y-21250334D01*
X8413938Y-21250334D02*
X8404414Y-21231286D01*
X8404414Y-21231286D02*
X8385366Y-21221762D01*
X8385366Y-21221762D02*
X8356795Y-21221762D01*
X8356795Y-21221762D02*
X8337747Y-21212239D01*
X8337747Y-21212239D02*
X8328223Y-21193191D01*
X8328223Y-21193191D02*
X8328223Y-21183667D01*
X8328223Y-21183667D02*
X8337747Y-21164620D01*
X8337747Y-21164620D02*
X8356795Y-21155096D01*
X8356795Y-21155096D02*
X8385366Y-21155096D01*
X8385366Y-21155096D02*
X8404414Y-21164620D01*
X8480604Y-21364620D02*
X8490128Y-21355096D01*
X8490128Y-21355096D02*
X8509176Y-21326524D01*
X8509176Y-21326524D02*
X8518699Y-21307477D01*
X8518699Y-21307477D02*
X8528223Y-21278905D01*
X8528223Y-21278905D02*
X8537747Y-21231286D01*
X8537747Y-21231286D02*
X8537747Y-21193191D01*
X8537747Y-21193191D02*
X8528223Y-21145572D01*
X8528223Y-21145572D02*
X8518699Y-21117001D01*
X8518699Y-21117001D02*
X8509176Y-21097953D01*
X8509176Y-21097953D02*
X8490128Y-21069381D01*
X8490128Y-21069381D02*
X8480604Y-21059858D01*
D10*
X3515065Y-21460945D02*
G75*
G02*
X3415065Y-21460945I-50000J0D01*
G01*
X3415065Y-21460945D02*
G75*
G02*
X3515065Y-21460945I50000J0D01*
G01*
D11*
X3880604Y-21552429D02*
X3766318Y-21552429D01*
X3823461Y-21552429D02*
X3823461Y-21352429D01*
X3823461Y-21352429D02*
X3804413Y-21381001D01*
X3804413Y-21381001D02*
X3785366Y-21400048D01*
X3785366Y-21400048D02*
X3766318Y-21409572D01*
X3966318Y-21533381D02*
X3975842Y-21542905D01*
X3975842Y-21542905D02*
X3966318Y-21552429D01*
X3966318Y-21552429D02*
X3956794Y-21542905D01*
X3956794Y-21542905D02*
X3966318Y-21533381D01*
X3966318Y-21533381D02*
X3966318Y-21552429D01*
X4099651Y-21352429D02*
X4118699Y-21352429D01*
X4118699Y-21352429D02*
X4137747Y-21361953D01*
X4137747Y-21361953D02*
X4147270Y-21371477D01*
X4147270Y-21371477D02*
X4156794Y-21390524D01*
X4156794Y-21390524D02*
X4166318Y-21428620D01*
X4166318Y-21428620D02*
X4166318Y-21476239D01*
X4166318Y-21476239D02*
X4156794Y-21514334D01*
X4156794Y-21514334D02*
X4147270Y-21533381D01*
X4147270Y-21533381D02*
X4137747Y-21542905D01*
X4137747Y-21542905D02*
X4118699Y-21552429D01*
X4118699Y-21552429D02*
X4099651Y-21552429D01*
X4099651Y-21552429D02*
X4080604Y-21542905D01*
X4080604Y-21542905D02*
X4071080Y-21533381D01*
X4071080Y-21533381D02*
X4061556Y-21514334D01*
X4061556Y-21514334D02*
X4052032Y-21476239D01*
X4052032Y-21476239D02*
X4052032Y-21428620D01*
X4052032Y-21428620D02*
X4061556Y-21390524D01*
X4061556Y-21390524D02*
X4071080Y-21371477D01*
X4071080Y-21371477D02*
X4080604Y-21361953D01*
X4080604Y-21361953D02*
X4099651Y-21352429D01*
X4290128Y-21352429D02*
X4309175Y-21352429D01*
X4309175Y-21352429D02*
X4328223Y-21361953D01*
X4328223Y-21361953D02*
X4337747Y-21371477D01*
X4337747Y-21371477D02*
X4347270Y-21390524D01*
X4347270Y-21390524D02*
X4356794Y-21428620D01*
X4356794Y-21428620D02*
X4356794Y-21476239D01*
X4356794Y-21476239D02*
X4347270Y-21514334D01*
X4347270Y-21514334D02*
X4337747Y-21533381D01*
X4337747Y-21533381D02*
X4328223Y-21542905D01*
X4328223Y-21542905D02*
X4309175Y-21552429D01*
X4309175Y-21552429D02*
X4290128Y-21552429D01*
X4290128Y-21552429D02*
X4271080Y-21542905D01*
X4271080Y-21542905D02*
X4261556Y-21533381D01*
X4261556Y-21533381D02*
X4252032Y-21514334D01*
X4252032Y-21514334D02*
X4242509Y-21476239D01*
X4242509Y-21476239D02*
X4242509Y-21428620D01*
X4242509Y-21428620D02*
X4252032Y-21390524D01*
X4252032Y-21390524D02*
X4261556Y-21371477D01*
X4261556Y-21371477D02*
X4271080Y-21361953D01*
X4271080Y-21361953D02*
X4290128Y-21352429D01*
X4480604Y-21352429D02*
X4499651Y-21352429D01*
X4499651Y-21352429D02*
X4518699Y-21361953D01*
X4518699Y-21361953D02*
X4528223Y-21371477D01*
X4528223Y-21371477D02*
X4537747Y-21390524D01*
X4537747Y-21390524D02*
X4547270Y-21428620D01*
X4547270Y-21428620D02*
X4547270Y-21476239D01*
X4547270Y-21476239D02*
X4537747Y-21514334D01*
X4537747Y-21514334D02*
X4528223Y-21533381D01*
X4528223Y-21533381D02*
X4518699Y-21542905D01*
X4518699Y-21542905D02*
X4499651Y-21552429D01*
X4499651Y-21552429D02*
X4480604Y-21552429D01*
X4480604Y-21552429D02*
X4461556Y-21542905D01*
X4461556Y-21542905D02*
X4452032Y-21533381D01*
X4452032Y-21533381D02*
X4442509Y-21514334D01*
X4442509Y-21514334D02*
X4432985Y-21476239D01*
X4432985Y-21476239D02*
X4432985Y-21428620D01*
X4432985Y-21428620D02*
X4442509Y-21390524D01*
X4442509Y-21390524D02*
X4452032Y-21371477D01*
X4452032Y-21371477D02*
X4461556Y-21361953D01*
X4461556Y-21361953D02*
X4480604Y-21352429D01*
X4632985Y-21552429D02*
X4632985Y-21419096D01*
X4632985Y-21438143D02*
X4642509Y-21428620D01*
X4642509Y-21428620D02*
X4661556Y-21419096D01*
X4661556Y-21419096D02*
X4690128Y-21419096D01*
X4690128Y-21419096D02*
X4709175Y-21428620D01*
X4709175Y-21428620D02*
X4718699Y-21447667D01*
X4718699Y-21447667D02*
X4718699Y-21552429D01*
X4718699Y-21447667D02*
X4728223Y-21428620D01*
X4728223Y-21428620D02*
X4747270Y-21419096D01*
X4747270Y-21419096D02*
X4775842Y-21419096D01*
X4775842Y-21419096D02*
X4794890Y-21428620D01*
X4794890Y-21428620D02*
X4804413Y-21447667D01*
X4804413Y-21447667D02*
X4804413Y-21552429D01*
X4899651Y-21552429D02*
X4899651Y-21419096D01*
X4899651Y-21438143D02*
X4909175Y-21428620D01*
X4909175Y-21428620D02*
X4928223Y-21419096D01*
X4928223Y-21419096D02*
X4956794Y-21419096D01*
X4956794Y-21419096D02*
X4975842Y-21428620D01*
X4975842Y-21428620D02*
X4985366Y-21447667D01*
X4985366Y-21447667D02*
X4985366Y-21552429D01*
X4985366Y-21447667D02*
X4994890Y-21428620D01*
X4994890Y-21428620D02*
X5013937Y-21419096D01*
X5013937Y-21419096D02*
X5042509Y-21419096D01*
X5042509Y-21419096D02*
X5061556Y-21428620D01*
X5061556Y-21428620D02*
X5071080Y-21447667D01*
X5071080Y-21447667D02*
X5071080Y-21552429D01*
X5461556Y-21342905D02*
X5290128Y-21600048D01*
X5718699Y-21352429D02*
X5737747Y-21352429D01*
X5737747Y-21352429D02*
X5756794Y-21361953D01*
X5756794Y-21361953D02*
X5766318Y-21371477D01*
X5766318Y-21371477D02*
X5775842Y-21390524D01*
X5775842Y-21390524D02*
X5785366Y-21428620D01*
X5785366Y-21428620D02*
X5785366Y-21476239D01*
X5785366Y-21476239D02*
X5775842Y-21514334D01*
X5775842Y-21514334D02*
X5766318Y-21533381D01*
X5766318Y-21533381D02*
X5756794Y-21542905D01*
X5756794Y-21542905D02*
X5737747Y-21552429D01*
X5737747Y-21552429D02*
X5718699Y-21552429D01*
X5718699Y-21552429D02*
X5699651Y-21542905D01*
X5699651Y-21542905D02*
X5690128Y-21533381D01*
X5690128Y-21533381D02*
X5680604Y-21514334D01*
X5680604Y-21514334D02*
X5671080Y-21476239D01*
X5671080Y-21476239D02*
X5671080Y-21428620D01*
X5671080Y-21428620D02*
X5680604Y-21390524D01*
X5680604Y-21390524D02*
X5690128Y-21371477D01*
X5690128Y-21371477D02*
X5699651Y-21361953D01*
X5699651Y-21361953D02*
X5718699Y-21352429D01*
X5871080Y-21533381D02*
X5880604Y-21542905D01*
X5880604Y-21542905D02*
X5871080Y-21552429D01*
X5871080Y-21552429D02*
X5861556Y-21542905D01*
X5861556Y-21542905D02*
X5871080Y-21533381D01*
X5871080Y-21533381D02*
X5871080Y-21552429D01*
X6004413Y-21352429D02*
X6023461Y-21352429D01*
X6023461Y-21352429D02*
X6042509Y-21361953D01*
X6042509Y-21361953D02*
X6052032Y-21371477D01*
X6052032Y-21371477D02*
X6061556Y-21390524D01*
X6061556Y-21390524D02*
X6071080Y-21428620D01*
X6071080Y-21428620D02*
X6071080Y-21476239D01*
X6071080Y-21476239D02*
X6061556Y-21514334D01*
X6061556Y-21514334D02*
X6052032Y-21533381D01*
X6052032Y-21533381D02*
X6042509Y-21542905D01*
X6042509Y-21542905D02*
X6023461Y-21552429D01*
X6023461Y-21552429D02*
X6004413Y-21552429D01*
X6004413Y-21552429D02*
X5985366Y-21542905D01*
X5985366Y-21542905D02*
X5975842Y-21533381D01*
X5975842Y-21533381D02*
X5966318Y-21514334D01*
X5966318Y-21514334D02*
X5956794Y-21476239D01*
X5956794Y-21476239D02*
X5956794Y-21428620D01*
X5956794Y-21428620D02*
X5966318Y-21390524D01*
X5966318Y-21390524D02*
X5975842Y-21371477D01*
X5975842Y-21371477D02*
X5985366Y-21361953D01*
X5985366Y-21361953D02*
X6004413Y-21352429D01*
X6137747Y-21352429D02*
X6261556Y-21352429D01*
X6261556Y-21352429D02*
X6194890Y-21428620D01*
X6194890Y-21428620D02*
X6223461Y-21428620D01*
X6223461Y-21428620D02*
X6242509Y-21438143D01*
X6242509Y-21438143D02*
X6252032Y-21447667D01*
X6252032Y-21447667D02*
X6261556Y-21466715D01*
X6261556Y-21466715D02*
X6261556Y-21514334D01*
X6261556Y-21514334D02*
X6252032Y-21533381D01*
X6252032Y-21533381D02*
X6242509Y-21542905D01*
X6242509Y-21542905D02*
X6223461Y-21552429D01*
X6223461Y-21552429D02*
X6166318Y-21552429D01*
X6166318Y-21552429D02*
X6147271Y-21542905D01*
X6147271Y-21542905D02*
X6137747Y-21533381D01*
X6356794Y-21552429D02*
X6394890Y-21552429D01*
X6394890Y-21552429D02*
X6413937Y-21542905D01*
X6413937Y-21542905D02*
X6423461Y-21533381D01*
X6423461Y-21533381D02*
X6442509Y-21504810D01*
X6442509Y-21504810D02*
X6452032Y-21466715D01*
X6452032Y-21466715D02*
X6452032Y-21390524D01*
X6452032Y-21390524D02*
X6442509Y-21371477D01*
X6442509Y-21371477D02*
X6432985Y-21361953D01*
X6432985Y-21361953D02*
X6413937Y-21352429D01*
X6413937Y-21352429D02*
X6375842Y-21352429D01*
X6375842Y-21352429D02*
X6356794Y-21361953D01*
X6356794Y-21361953D02*
X6347271Y-21371477D01*
X6347271Y-21371477D02*
X6337747Y-21390524D01*
X6337747Y-21390524D02*
X6337747Y-21438143D01*
X6337747Y-21438143D02*
X6347271Y-21457191D01*
X6347271Y-21457191D02*
X6356794Y-21466715D01*
X6356794Y-21466715D02*
X6375842Y-21476239D01*
X6375842Y-21476239D02*
X6413937Y-21476239D01*
X6413937Y-21476239D02*
X6432985Y-21466715D01*
X6432985Y-21466715D02*
X6442509Y-21457191D01*
X6442509Y-21457191D02*
X6452032Y-21438143D01*
X6623461Y-21419096D02*
X6623461Y-21552429D01*
X6575842Y-21342905D02*
X6528223Y-21485762D01*
X6528223Y-21485762D02*
X6652032Y-21485762D01*
X6718699Y-21352429D02*
X6718699Y-21390524D01*
X6794890Y-21352429D02*
X6794890Y-21390524D01*
X7090128Y-21628620D02*
X7080604Y-21619096D01*
X7080604Y-21619096D02*
X7061556Y-21590524D01*
X7061556Y-21590524D02*
X7052033Y-21571477D01*
X7052033Y-21571477D02*
X7042509Y-21542905D01*
X7042509Y-21542905D02*
X7032985Y-21495286D01*
X7032985Y-21495286D02*
X7032985Y-21457191D01*
X7032985Y-21457191D02*
X7042509Y-21409572D01*
X7042509Y-21409572D02*
X7052033Y-21381001D01*
X7052033Y-21381001D02*
X7061556Y-21361953D01*
X7061556Y-21361953D02*
X7080604Y-21333381D01*
X7080604Y-21333381D02*
X7090128Y-21323858D01*
X7252033Y-21352429D02*
X7213937Y-21352429D01*
X7213937Y-21352429D02*
X7194890Y-21361953D01*
X7194890Y-21361953D02*
X7185366Y-21371477D01*
X7185366Y-21371477D02*
X7166318Y-21400048D01*
X7166318Y-21400048D02*
X7156794Y-21438143D01*
X7156794Y-21438143D02*
X7156794Y-21514334D01*
X7156794Y-21514334D02*
X7166318Y-21533381D01*
X7166318Y-21533381D02*
X7175842Y-21542905D01*
X7175842Y-21542905D02*
X7194890Y-21552429D01*
X7194890Y-21552429D02*
X7232985Y-21552429D01*
X7232985Y-21552429D02*
X7252033Y-21542905D01*
X7252033Y-21542905D02*
X7261556Y-21533381D01*
X7261556Y-21533381D02*
X7271080Y-21514334D01*
X7271080Y-21514334D02*
X7271080Y-21466715D01*
X7271080Y-21466715D02*
X7261556Y-21447667D01*
X7261556Y-21447667D02*
X7252033Y-21438143D01*
X7252033Y-21438143D02*
X7232985Y-21428620D01*
X7232985Y-21428620D02*
X7194890Y-21428620D01*
X7194890Y-21428620D02*
X7175842Y-21438143D01*
X7175842Y-21438143D02*
X7166318Y-21447667D01*
X7166318Y-21447667D02*
X7156794Y-21466715D01*
X7509175Y-21552429D02*
X7509175Y-21352429D01*
X7594890Y-21552429D02*
X7594890Y-21447667D01*
X7594890Y-21447667D02*
X7585366Y-21428620D01*
X7585366Y-21428620D02*
X7566318Y-21419096D01*
X7566318Y-21419096D02*
X7537747Y-21419096D01*
X7537747Y-21419096D02*
X7518699Y-21428620D01*
X7518699Y-21428620D02*
X7509175Y-21438143D01*
X7718699Y-21552429D02*
X7699652Y-21542905D01*
X7699652Y-21542905D02*
X7690128Y-21533381D01*
X7690128Y-21533381D02*
X7680604Y-21514334D01*
X7680604Y-21514334D02*
X7680604Y-21457191D01*
X7680604Y-21457191D02*
X7690128Y-21438143D01*
X7690128Y-21438143D02*
X7699652Y-21428620D01*
X7699652Y-21428620D02*
X7718699Y-21419096D01*
X7718699Y-21419096D02*
X7747271Y-21419096D01*
X7747271Y-21419096D02*
X7766318Y-21428620D01*
X7766318Y-21428620D02*
X7775842Y-21438143D01*
X7775842Y-21438143D02*
X7785366Y-21457191D01*
X7785366Y-21457191D02*
X7785366Y-21514334D01*
X7785366Y-21514334D02*
X7775842Y-21533381D01*
X7775842Y-21533381D02*
X7766318Y-21542905D01*
X7766318Y-21542905D02*
X7747271Y-21552429D01*
X7747271Y-21552429D02*
X7718699Y-21552429D01*
X7899652Y-21552429D02*
X7880604Y-21542905D01*
X7880604Y-21542905D02*
X7871080Y-21523858D01*
X7871080Y-21523858D02*
X7871080Y-21352429D01*
X8052033Y-21542905D02*
X8032985Y-21552429D01*
X8032985Y-21552429D02*
X7994890Y-21552429D01*
X7994890Y-21552429D02*
X7975842Y-21542905D01*
X7975842Y-21542905D02*
X7966318Y-21523858D01*
X7966318Y-21523858D02*
X7966318Y-21447667D01*
X7966318Y-21447667D02*
X7975842Y-21428620D01*
X7975842Y-21428620D02*
X7994890Y-21419096D01*
X7994890Y-21419096D02*
X8032985Y-21419096D01*
X8032985Y-21419096D02*
X8052033Y-21428620D01*
X8052033Y-21428620D02*
X8061556Y-21447667D01*
X8061556Y-21447667D02*
X8061556Y-21466715D01*
X8061556Y-21466715D02*
X7966318Y-21485762D01*
X8137747Y-21542905D02*
X8156795Y-21552429D01*
X8156795Y-21552429D02*
X8194890Y-21552429D01*
X8194890Y-21552429D02*
X8213937Y-21542905D01*
X8213937Y-21542905D02*
X8223461Y-21523858D01*
X8223461Y-21523858D02*
X8223461Y-21514334D01*
X8223461Y-21514334D02*
X8213937Y-21495286D01*
X8213937Y-21495286D02*
X8194890Y-21485762D01*
X8194890Y-21485762D02*
X8166318Y-21485762D01*
X8166318Y-21485762D02*
X8147271Y-21476239D01*
X8147271Y-21476239D02*
X8137747Y-21457191D01*
X8137747Y-21457191D02*
X8137747Y-21447667D01*
X8137747Y-21447667D02*
X8147271Y-21428620D01*
X8147271Y-21428620D02*
X8166318Y-21419096D01*
X8166318Y-21419096D02*
X8194890Y-21419096D01*
X8194890Y-21419096D02*
X8213937Y-21428620D01*
X8290128Y-21628620D02*
X8299652Y-21619096D01*
X8299652Y-21619096D02*
X8318699Y-21590524D01*
X8318699Y-21590524D02*
X8328223Y-21571477D01*
X8328223Y-21571477D02*
X8337747Y-21542905D01*
X8337747Y-21542905D02*
X8347271Y-21495286D01*
X8347271Y-21495286D02*
X8347271Y-21457191D01*
X8347271Y-21457191D02*
X8337747Y-21409572D01*
X8337747Y-21409572D02*
X8328223Y-21381001D01*
X8328223Y-21381001D02*
X8318699Y-21361953D01*
X8318699Y-21361953D02*
X8299652Y-21333381D01*
X8299652Y-21333381D02*
X8290128Y-21323858D01*
M02*
